<svg width="243" height="169" viewBox="0 0 243 169" fill="none" xmlns="http://www.w3.org/2000/svg">
<path d="M181.936 48.2114C179.68 47.3181 177.745 47.7716 177.09 48.1152C176.979 48.1702 176.979 48.3351 177.09 48.4038C177.773 48.7473 179.597 49.9704 179.179 53.186C178.97 54.7801 177.661 57.3224 173.763 59.0264C172.523 59.5211 171.215 59.7272 169.878 59.4524C166.606 58.8065 166.522 53.9006 166.522 52.3752C166.522 45.9165 171.41 34.0158 172.885 32.5454C173.136 32.2981 173.387 32.4218 173.387 32.0507C173.387 31.1987 170.978 29.371 167.581 29.371C165.979 29.371 163.376 34.9228 161.705 40.7769C159.115 45.4767 155.035 53.9556 153.295 53.9556C153.044 53.9556 152.557 53.9006 152.557 52.3752C152.557 45.9165 157.375 34.0158 158.864 32.5454C159.171 32.2981 159.366 32.4218 159.366 32.0507C159.366 31.1987 156.957 29.371 153.56 29.371C151.819 29.371 149.007 35.8435 147.336 42.1511C146.654 42.9757 145.609 44.0613 144.161 44.8583C144.662 42.7283 145.331 39.8562 145.331 37.0528C145.331 32.7791 143.047 29 137.353 29C129.263 29 124 40.2822 124 49.6131C124 55.5359 127.342 58.6966 131.783 58.6966C136.977 58.6966 140.318 54.2441 142.852 48.6924C144.328 48.1014 145.484 47.2632 146.375 46.3699C146.097 47.9365 145.943 49.3795 145.943 50.5888C145.943 56.0169 148.533 58.5179 151.944 58.5179C154.66 58.5179 157.57 54.4365 159.923 49.8604V50.5888C159.923 51.963 160.09 53.1448 160.396 54.1479C161.287 57.1162 163.821 62.5718 170.24 62.9841C170.922 63.0253 171.591 62.9841 172.245 62.8879C177.522 62.352 183.941 58.4492 184.943 53.7494C184.999 53.5021 184.999 53.2685 184.999 53.0348C185.041 50.7537 183.913 48.9947 181.936 48.2114ZM137.84 45.9027H136.726C134.568 45.9027 133.816 49.7505 136.239 49.7505C134.874 52.5539 133.203 54.6289 131.783 54.6289C127.272 54.6289 134.93 32.7928 139.204 32.7928C141.237 32.7791 139.761 40.4746 137.84 45.9027Z" fill="#1B8E23"/>
<path d="M117.227 28.4584C112.342 28.4584 107.234 42.2169 106.773 43.6288V43.6149C107.471 40.9989 108.504 37.8845 109.718 34.7009C110.179 33.4967 110.653 32.3063 111.1 31.199C111.784 29.538 112.495 27.9047 113.221 26.3406C113.291 26.2022 113.361 26.0499 113.431 25.8838C113.919 24.8319 114.407 23.8214 114.896 22.8525C116.082 20.5686 117.436 18.354 118.608 16.4162C122.921 9.31541 128.14 3.7926 131.057 3.7926C132.369 3.7926 132.187 4.85841 132.118 5.34286C131.866 7.36374 131.113 9.99365 129.94 12.6512C126.605 14.1738 123.939 15.9455 121.902 17.6065C118.552 20.3333 117.785 21.8421 117.478 22.9494C117.24 23.8076 117.631 24.9149 118.385 25.4686C118.79 25.7592 119.306 25.9253 119.92 25.9253C121.399 25.9253 123.437 25.0118 125.782 22.811C129.173 20.2088 131.88 16.7484 133.667 13.4264C133.764 13.3987 133.862 13.3572 133.946 13.3295C154.768 6.58861 160.392 18.5616 160.658 19.1014C161.537 20.8178 162.151 22.5618 162.346 24.1813C162.416 24.7073 162.416 25.1502 162.374 25.5516C162.318 26.6313 161.997 27.8355 161.383 28.9428C162.765 29.7041 168.557 25.3578 167.957 20.2918C167.691 17.9664 164.021 5.25981 140.91 9.45382C138.747 9.79986 136.737 10.2566 134.895 10.8241C135.634 8.95552 136.039 7.22532 136.053 5.81348C136.081 1.42569 132.746 0 130.889 0C122.111 0 110.458 12.845 104.848 26.8112C104.471 27.6417 104.08 28.6798 103.787 29.4688C103.731 29.6072 103.689 29.7595 103.633 29.8979C102.447 33.2614 100.954 39.0057 100.103 43.6841C96.6275 49.0685 90.5566 55.7679 85.2813 55.7679C82.2528 55.7679 80.2711 53.2072 80.1734 49.4976C79.7687 34.604 93.0827 15.4472 100.284 15.4472C101.01 15.4472 101.359 15.8763 101.219 16.6653C100.424 23.3785 93.3478 29.3027 94.4922 29.3027C94.9946 29.3027 105.964 26.659 105.964 17.8834C105.964 14.7413 104.094 8.7479 97.116 8.7479C84.9463 8.7479 73 30.0225 73 45.9403C73 54.8682 77.0333 61 83.8019 61C89.8449 61 95.2459 56.4046 99 51.3801C98.9442 52.1137 98.9023 52.8196 98.9023 53.4563C98.9023 56.9029 102.377 59.1037 103.424 58.0656C103.675 57.8164 103.801 57.1382 104.234 56.2246C105.531 57.5119 107.081 58.2455 109.746 58.2455C118.845 58.2455 123.256 43.3796 123.256 36.5003C123.242 30.9775 120.646 28.4584 117.227 28.4584ZM119.655 23.7937C119.599 23.7522 119.529 23.5723 119.515 23.5307C119.641 23.0878 119.976 21.9251 123.256 19.2398C124.637 18.1048 126.34 16.9145 128.363 15.8071C126.34 19.2952 123.59 22.4096 120.283 23.7937C119.948 23.8491 119.725 23.8214 119.655 23.7937ZM106.955 54.7574C106.145 54.7574 105.783 53.6501 105.657 52.2936C107.513 47.629 113.277 33.0676 115.873 33.0676C116.487 33.0676 116.612 34.2303 116.612 35.2131C116.612 41.2342 110.849 54.882 106.955 54.7574Z" fill="#1B8E23"/>
<path d="M191.582 67.2588C192.382 64.9818 193.509 62.1956 194.879 60.0984C195.048 59.8437 195.376 59.4842 195.679 59.7988C195.679 59.7988 195.97 60.1583 195.655 60.6676C195.655 60.6676 193.873 63.5737 192.527 68.7118C192.479 68.8916 192.624 69.0564 192.77 68.9815C198.673 65.7758 202.83 58.5854 203 50.1517C203 50.0618 202.939 49.9869 202.867 50.0019C196.2 50.8558 191 57.8214 191 66.2851C191 66.5697 191.012 66.8393 191.012 67.124C191.048 67.4985 191.461 67.6033 191.582 67.2588Z" fill="#1B8E23"/>
<path d="M85.1424 69C82.078 69 79.2441 74.5016 77.983 77.0386C76.3559 80.0745 74.7288 84.1935 73.2915 87.8565C76.0576 80.0175 78.7695 73.1761 78.7695 72.2924C78.7695 69.9549 74.4983 69.0713 73.1695 69.0713C71.8407 69.0713 71.5424 69.5844 71.5424 70.9669C71.5424 74.0027 63 98.6744 63 109.051C63 112.599 66.7966 115.065 67.0949 113.54C67.6373 110.946 69.1966 104.361 71.6102 97.2777C72.8712 99.1163 74.7966 99.6151 77.8746 99.6151C86.7153 99.6151 91 84.3076 91 77.2239C90.9864 71.594 88.4509 69 85.1424 69ZM75.1492 96.0804C74.1322 96.0804 73.0475 95.1255 73.0475 93.3011C75.3932 86.9158 81.8339 73.7462 83.8136 73.7462C84.4102 73.7462 84.5322 74.9434 84.5322 75.9554C84.5458 82.1554 78.9458 96.1944 75.1492 96.0804Z" fill="#1B8E23"/>
<path d="M215.478 76.2412C215.269 75.9227 214.753 75.4797 214.32 75.9089C214.167 81.6132 208.994 89.5882 203.625 93.5757L203.611 93.5896L203.597 93.6034C201.366 95.1956 199.372 95.9017 197.601 95.3202C195.872 94.7526 195.816 92.0389 195.928 90.4605C196.723 83.7593 200.822 73.9013 202.161 72.5721C202.412 72.3229 202.663 72.4475 202.663 72.0737C202.663 71.2153 200.25 69.3738 196.848 69.3738C195.244 69.3738 192.637 74.9674 190.964 80.8656C188.37 85.6007 184.284 94.1434 182.541 94.1434C182.29 94.1434 181.802 94.088 181.802 92.5511C181.802 86.0438 186.627 74.0536 188.119 72.5721C188.426 72.3229 188.621 72.4475 188.621 72.0737C188.621 71.2153 186.208 69.3738 182.806 69.3738C181.23 69.3738 178.776 74.7043 177.089 80.4225C174.537 85.0469 170.27 94.1295 168.457 94.1295C168.206 94.1295 167.718 94.1295 167.718 92.5373C167.718 86.0299 172.543 76.1304 174.035 74.6489C174.286 74.3443 174.537 74.5243 174.537 74.1505C174.537 73.2229 172.125 71.4506 168.722 71.4506C168.22 71.4506 167.676 71.8799 167.049 72.6829C165.752 70.343 163.772 69 160.118 69C151.501 69 147.108 82.347 146.662 89.6021C145.114 92.4404 143.664 94.6695 142.8 94.6695C142.562 94.6695 142.074 94.6003 142.074 93.0357C142.074 86.3761 146.815 74.1367 148.266 72.6275C148.572 72.3783 148.754 72.5029 148.754 72.1291C148.754 71.2568 146.383 69.3738 143.051 69.3738C141.335 69.3738 138.56 76.0889 136.915 82.6101L133.331 82.5409C134.586 77.7365 135.841 73.5967 135.841 72.7244C135.841 70.4399 132.313 69.5677 131.226 69.5677C130.138 69.5677 129.887 70.0661 129.887 71.423C129.887 72.946 128.744 77.5842 127.628 82.4163L124.658 82.347C124.992 80.561 125.174 78.8995 125.174 77.5565C125.174 72.0875 122.58 69.5677 119.164 69.5677C116.375 69.5677 113.795 73.7213 112.317 76.3935C111.703 72.4337 109.682 69 104.815 69C97.6335 69 92 80.3671 92 89.7682C92 95.7356 95.2769 99.0447 99.6136 99.0447C103.825 99.0447 108.036 94.4341 110.574 88.8406C111.174 87.4422 111.383 86.8468 111.871 84.9638C112.136 83.8839 112.345 82.5962 112.456 81.2394C114.646 77.3073 116.793 74.1644 117.797 74.1644C118.411 74.1644 118.536 75.3274 118.536 76.3104C118.536 81.7655 115.775 93.3403 110.63 95.6941C108.747 96.414 107.45 95.8048 107.423 95.8048C107.255 95.6802 107.172 95.6387 107.046 95.7633C106.837 95.971 107.06 97.7017 108.664 98.7539C109.974 99.6123 112.666 99.2662 113.098 99.1693V99.1554C118.188 98.2416 121.632 92.5511 123.5 86.8191H126.652C126.024 89.8097 125.564 92.5373 125.564 94.2126C125.564 97.674 129.441 99.8339 130.291 98.7816C130.347 98.7124 130.417 98.6016 130.487 98.477C130.905 96.054 131.379 91.3189 131.393 91.2497C131.379 91.1389 131.421 91.0004 131.421 90.8897C131.658 89.5744 131.951 88.1898 132.271 86.8053H136.023C135.744 88.439 135.59 89.9343 135.59 91.1943C135.59 96.7879 138.142 99.3493 141.475 99.3493C143.357 99.3493 145.323 97.2586 147.136 94.3926C148.043 97.3417 150.12 98.7262 152.644 98.7262C155.433 98.7262 158.654 94.0603 161.192 88.9513C161.136 89.5605 161.136 90.1836 161.136 90.7374C161.136 96.2063 163.73 98.7262 167.146 98.7262C169.935 98.7262 172.961 94.4618 175.276 89.782C175.262 90.1143 175.248 90.4328 175.248 90.7374C175.248 96.2063 177.842 98.7262 181.258 98.7262C183.712 98.7262 186.32 95.3756 188.537 91.3466C188.621 92.8834 189.039 95.3202 190.671 97.1063C192.079 98.8924 194.129 100 196.597 100C204.727 100 211.95 90.1005 215.436 81.4055C215.994 79.5364 216.342 77.5427 215.478 76.2412ZM105.498 85.8915C105.484 85.933 105.47 85.9884 105.456 86.0299C105.456 86.0299 104.801 88.0237 103.853 89.9067C103.825 89.9482 103.811 89.9897 103.783 90.0451C102.43 92.8004 100.855 94.8356 99.4463 94.8356C94.6773 94.8356 102.04 73.7628 106.321 73.7628C108.343 73.7351 107.381 80.4502 105.498 85.8915ZM153.955 94.1434C153.341 94.1434 153.216 92.9803 153.216 91.9973C153.216 85.9745 158.975 72.3368 162.866 72.4614C163.856 72.4614 164.971 74.1782 165.097 75.8397C161.75 81.8486 155.879 94.1434 153.955 94.1434Z" fill="#1B8E23"/>
<path d="M68.2583 69.8639C69.1092 67.1409 69.804 65.3724 69.9033 65.2742C70.6549 64.6566 66.8828 61.2178 63.5504 61.2178C63.366 61.2178 62.9831 61.9617 62.4159 63.2109C62.2032 63.632 61.2815 65.3584 60.0761 67.8708C54.8293 79.0713 47.271 94.6089 45.4842 94.6089C44.7326 94.6089 44.5341 92.9948 44.5341 92.3071C44.5341 84.2084 53.5388 67.7585 53.5388 61.5968C53.5388 58.0458 51.2699 55 47.3702 55C41.5845 55 30.0557 61.2319 28.9921 69.9481C28.3682 75.4922 34.2815 79.6608 35.657 78.4818C36.5362 77.6678 34.083 78.1029 34.5935 73.8079C35.7279 64.1513 45.9805 58.1019 46.8739 59.0984C48.3912 60.8389 37.6281 82.3417 37.5005 91.8719C37.4438 96.2932 40.0247 99.353 43.6691 99.353C47.3135 99.353 50.7169 92.9948 56.0063 81.4715C54.3613 86.9033 52.3335 93.1492 50.1922 98.4547C50.1071 98.6793 50.0078 98.9039 49.9228 99.1144C34.48 103.002 26 116.154 26 122.105C26 126.554 29.3608 128 31.2468 128C40.0672 128 51.7379 115.256 57.5094 101.276C57.5661 101.15 57.6229 101.009 57.6796 100.869C57.6938 100.841 57.6938 100.827 57.7079 100.799C58.8424 100.672 59.9201 100.616 60.9978 100.616C61.877 100.616 61.3807 97.2336 58.7857 98.1038C59.3671 96.5037 59.8918 94.8475 60.3455 93.1913L60.2746 93.2194C60.9695 90.9175 61.4942 89.0367 61.6076 88.6858C63.7205 82.0609 66.188 75.2817 68.2583 69.8639ZM31.7999 123.228C30.4669 123.228 30.4102 122.287 30.4102 121.782C30.4102 118.021 38.1386 106.624 47.8098 103.676C42.3787 115.031 35.7279 123.228 31.7999 123.228Z" fill="#1B8E23"/>
<path d="M77.8786 110.795C77.9483 110.865 78.0318 110.936 78.1154 111.02C78.2129 111.105 78.2965 111.189 78.3801 111.274C78.4637 111.359 78.5473 111.429 78.6169 111.486C78.6866 111.556 78.7284 111.598 78.7562 111.612C78.8816 111.725 78.9512 111.838 78.9791 111.965C79.007 112.092 79.007 112.205 78.9791 112.303C78.9512 112.402 78.9234 112.501 78.8677 112.571C78.8259 112.656 78.7841 112.698 78.7701 112.727C78.7144 112.797 78.6448 112.853 78.5473 112.896C78.4497 112.938 78.3522 112.98 78.2547 112.994C78.1433 113.009 78.0458 112.994 77.9343 112.966C77.8229 112.938 77.7114 112.868 77.6139 112.769C77.5721 112.727 77.5164 112.67 77.4468 112.586C77.3771 112.515 77.2935 112.43 77.2239 112.346C77.1403 112.261 77.0706 112.177 76.9871 112.092C76.9035 112.007 76.8338 111.923 76.7642 111.852L75.4965 110.555L74.2149 111.866C74.1453 111.937 74.0756 112.021 73.992 112.106C73.9085 112.191 73.8388 112.275 73.7692 112.346C73.6995 112.43 73.6299 112.501 73.5741 112.557C73.5184 112.628 73.4627 112.67 73.4209 112.712C73.3652 112.783 73.2816 112.839 73.198 112.882C73.1005 112.938 73.003 112.966 72.9055 112.98C72.794 112.994 72.6965 112.98 72.5851 112.952C72.4736 112.924 72.3622 112.853 72.2647 112.755C72.195 112.698 72.1393 112.614 72.0975 112.515C72.0557 112.416 72.0279 112.318 72.0139 112.219C72 112.106 72.0139 112.007 72.0557 111.895C72.0975 111.782 72.1672 111.683 72.2647 111.598C72.2925 111.556 72.3483 111.514 72.4179 111.443C72.4876 111.373 72.5572 111.302 72.6408 111.218C72.7244 111.133 72.808 111.063 72.8915 110.978C72.9751 110.893 73.0587 110.823 73.1423 110.752L74.4517 109.497L73.0726 108.186C73.003 108.115 72.9194 108.045 72.8358 107.96C72.7522 107.876 72.6687 107.805 72.5851 107.72C72.5015 107.65 72.4179 107.565 72.3065 107.467C72.209 107.368 72.1393 107.269 72.0836 107.156C72.0279 107.044 72.0139 106.931 72 106.832C72 106.719 72.0139 106.62 72.0557 106.522C72.0975 106.423 72.1532 106.338 72.2229 106.254C72.2925 106.183 72.3761 106.127 72.4736 106.071C72.5711 106.028 72.6687 106 72.7801 106C72.8915 106 73.003 106.028 73.1284 106.085C73.2537 106.141 73.3791 106.24 73.5045 106.381C73.5463 106.437 73.602 106.494 73.6577 106.55C73.6995 106.606 73.7552 106.663 73.8109 106.719C73.8667 106.79 73.9224 106.846 73.992 106.917L75.4826 108.468L77.6 106.254C77.6418 106.212 77.6975 106.169 77.7811 106.113C77.8647 106.071 77.9483 106.028 78.0597 106.014C78.1572 106 78.2687 106 78.394 106.042C78.5055 106.071 78.6308 106.141 78.7423 106.254C78.8119 106.324 78.8677 106.395 78.9095 106.494C78.9512 106.578 78.9791 106.677 78.993 106.79C79.007 106.888 78.9791 107.001 78.9512 107.1C78.9095 107.213 78.8537 107.311 78.7701 107.396C78.7284 107.438 78.6726 107.495 78.603 107.565C78.5333 107.636 78.4497 107.706 78.3662 107.791C78.2826 107.876 78.1851 107.946 78.1015 108.031C78.004 108.115 77.9343 108.186 77.8507 108.256L76.5413 109.511L77.8786 110.795Z" fill="#1B8E23"/>
<path d="M80 109.493C80 109.014 80.0984 108.563 80.2811 108.141C80.4639 107.718 80.7169 107.352 81.0402 107.028C81.3634 106.718 81.7289 106.465 82.1506 106.282C82.5723 106.099 83.0221 106 83.5 106C83.9779 106 84.4277 106.099 84.8494 106.282C85.2711 106.465 85.6365 106.718 85.9598 107.028C86.2831 107.338 86.5361 107.718 86.7189 108.141C86.9016 108.563 87 109.014 87 109.493C87 109.972 86.9016 110.423 86.7189 110.859C86.5361 111.282 86.2831 111.662 85.9598 111.972C85.6365 112.282 85.2711 112.535 84.8494 112.718C84.4277 112.901 83.9779 113 83.5 113C83.0221 113 82.5723 112.901 82.1506 112.718C81.7289 112.535 81.3634 112.282 81.0402 111.972C80.7169 111.662 80.4779 111.282 80.2811 110.859C80.0843 110.437 80 109.972 80 109.493ZM81.6867 109.493C81.6867 109.746 81.7289 110 81.8273 110.225C81.9257 110.451 82.0522 110.648 82.2068 110.831C82.3755 111 82.5582 111.141 82.7831 111.239C83.008 111.338 83.247 111.394 83.5 111.394C83.753 111.394 83.992 111.338 84.2169 111.239C84.4418 111.141 84.6245 111 84.7932 110.831C84.9618 110.662 85.0884 110.465 85.1727 110.225C85.2711 110 85.3133 109.746 85.3133 109.493C85.3133 109.239 85.2711 109 85.1727 108.761C85.0743 108.535 84.9478 108.338 84.7932 108.155C84.6245 107.986 84.4418 107.845 84.2169 107.746C83.992 107.648 83.7671 107.592 83.5 107.592C83.247 107.592 83.008 107.648 82.7831 107.746C82.5582 107.845 82.3755 107.986 82.2068 108.155C82.0381 108.324 81.9116 108.521 81.8273 108.761C81.7289 108.986 81.6867 109.239 81.6867 109.493Z" fill="#1B8E23"/>
<path d="M89.0141 106.44C89.0141 106.151 89.1687 106 89.4639 106C89.6325 106 89.7871 106.069 89.9137 106.192C90.0402 106.316 90.1386 106.522 90.1948 106.811L90.504 107.718L90.6867 107.814V114.176C90.6867 114.285 90.6586 114.395 90.6165 114.492C90.5743 114.588 90.5181 114.67 90.4337 114.753C90.3635 114.821 90.2651 114.89 90.1667 114.931C90.0683 114.973 89.9558 115 89.8434 115C89.6044 115 89.4076 114.918 89.239 114.766C89.0843 114.615 89 114.423 89 114.176L89.0141 106.44ZM89.4779 109.408C89.4779 108.94 89.5482 108.501 89.7028 108.089C89.8574 107.676 90.0683 107.319 90.3494 107.003C90.6305 106.701 90.9679 106.453 91.3474 106.275C91.741 106.096 92.1767 106 92.6546 106C93.1325 106 93.5823 106.096 93.99 106.275C94.3976 106.453 94.749 106.701 95.0442 107.003C95.3394 107.305 95.5783 107.676 95.747 108.089C95.9157 108.501 96 108.94 96 109.408C96 109.875 95.9157 110.315 95.747 110.74C95.5783 111.153 95.3394 111.524 95.0442 111.826C94.749 112.128 94.3976 112.376 93.99 112.554C93.5823 112.733 93.1325 112.829 92.6546 112.829C92.2329 112.829 91.8253 112.733 91.4458 112.554C91.0663 112.376 90.7289 112.128 90.4337 111.826C90.1386 111.524 89.9137 111.153 89.7309 110.74C89.5623 110.315 89.4779 109.875 89.4779 109.408ZM90.7008 109.408C90.7008 109.655 90.743 109.902 90.8414 110.122C90.9398 110.342 91.0663 110.534 91.2209 110.713C91.3896 110.878 91.5723 111.015 91.7972 111.111C92.0221 111.208 92.261 111.263 92.5141 111.263C92.7671 111.263 93.006 111.208 93.2309 111.111C93.4558 111.015 93.6386 110.878 93.8072 110.713C93.9759 110.548 94.1024 110.356 94.1867 110.122C94.2851 109.902 94.3273 109.655 94.3273 109.408C94.3273 109.16 94.2851 108.927 94.1867 108.693C94.0883 108.473 93.9619 108.281 93.8072 108.102C93.6386 107.937 93.4558 107.8 93.2309 107.704C93.006 107.608 92.7811 107.553 92.5141 107.553C92.261 107.553 92.0221 107.608 91.7972 107.704C91.5723 107.8 91.3896 107.937 91.2209 108.102C91.0522 108.267 90.9257 108.46 90.8414 108.693C90.743 108.913 90.7008 109.16 90.7008 109.408Z" fill="#1B8E23"/>
<path d="M97 109.493C97 109.014 97.0984 108.563 97.2811 108.141C97.4639 107.718 97.7169 107.352 98.0402 107.028C98.3634 106.718 98.7289 106.465 99.1506 106.282C99.5723 106.099 100.022 106 100.5 106C100.978 106 101.428 106.099 101.849 106.282C102.271 106.465 102.637 106.718 102.96 107.028C103.283 107.338 103.536 107.718 103.719 108.141C103.902 108.563 104 109.014 104 109.493C104 109.972 103.902 110.423 103.719 110.859C103.536 111.282 103.283 111.662 102.96 111.972C102.637 112.282 102.271 112.535 101.849 112.718C101.428 112.901 100.978 113 100.5 113C100.022 113 99.5723 112.901 99.1506 112.718C98.7289 112.535 98.3634 112.282 98.0402 111.972C97.7169 111.662 97.4779 111.282 97.2811 110.859C97.0843 110.437 97 109.972 97 109.493ZM98.6867 109.493C98.6867 109.746 98.7289 110 98.8273 110.225C98.9257 110.451 99.0522 110.648 99.2068 110.831C99.3755 111 99.5582 111.141 99.7831 111.239C100.008 111.338 100.247 111.394 100.5 111.394C100.753 111.394 100.992 111.338 101.217 111.239C101.442 111.141 101.624 111 101.793 110.831C101.962 110.662 102.088 110.465 102.173 110.225C102.271 110 102.313 109.746 102.313 109.493C102.313 109.239 102.271 109 102.173 108.761C102.074 108.535 101.948 108.338 101.793 108.155C101.624 107.986 101.442 107.845 101.217 107.746C100.992 107.648 100.767 107.592 100.5 107.592C100.247 107.592 100.008 107.648 99.7831 107.746C99.5582 107.845 99.3755 107.986 99.2068 108.155C99.0382 108.324 98.9116 108.521 98.8273 108.761C98.7289 108.986 98.6867 109.239 98.6867 109.493Z" fill="#1B8E23"/>
<path d="M114.081 112.986H110.609H110.566H110.522H106.934H106.89H106.846C106.788 112.986 106.744 112.986 106.686 112.971C106.627 112.957 106.583 112.943 106.54 112.928C106.408 112.871 106.292 112.784 106.19 112.669C106.102 112.554 106.044 112.411 106.015 112.253C106.015 112.238 106 112.209 106 112.166V112.138V106.862C106 106.747 106.029 106.632 106.073 106.532C106.117 106.431 106.175 106.345 106.248 106.259C106.321 106.187 106.408 106.115 106.525 106.072C106.627 106.029 106.744 106 106.861 106C106.977 106 107.094 106.029 107.196 106.072C107.298 106.115 107.386 106.172 107.473 106.259C107.546 106.331 107.619 106.431 107.663 106.532C107.707 106.632 107.736 106.747 107.736 106.862V111.29L109.676 111.304V107.38V106.862C109.676 106.747 109.705 106.632 109.749 106.532C109.793 106.431 109.851 106.345 109.924 106.259C109.997 106.187 110.084 106.115 110.201 106.072C110.303 106.029 110.42 106 110.536 106C110.653 106 110.77 106.029 110.872 106.072C110.974 106.115 111.062 106.172 111.149 106.259C111.222 106.331 111.295 106.431 111.339 106.532C111.383 106.632 111.412 106.747 111.412 106.862V111.29H113.264V106.862C113.264 106.747 113.293 106.632 113.337 106.532C113.381 106.431 113.439 106.345 113.512 106.259C113.585 106.187 113.673 106.115 113.789 106.072C113.891 106.029 114.008 106 114.125 106C114.241 106 114.358 106.029 114.46 106.072C114.562 106.115 114.65 106.172 114.737 106.259C114.81 106.331 114.883 106.431 114.927 106.532C114.971 106.632 115 106.747 115 106.862V112.109V112.152C115 112.267 114.971 112.382 114.927 112.483C114.883 112.583 114.825 112.669 114.737 112.756C114.665 112.828 114.562 112.885 114.46 112.928C114.358 112.971 114.241 113 114.125 113H114.081V112.986Z" fill="#1B8E23"/>
<path d="M122.552 109.486C122.552 109.964 122.482 110.414 122.342 110.849C122.202 111.271 122.006 111.651 121.74 111.96C121.474 112.269 121.152 112.522 120.774 112.705C120.396 112.888 119.962 112.986 119.486 112.986C119.01 112.986 118.562 112.888 118.142 112.705C117.722 112.522 117.358 112.269 117.036 111.96C116.714 111.651 116.476 111.271 116.28 110.849C116.098 110.428 116 109.978 116 109.486C116 108.994 116.098 108.558 116.28 108.137C116.462 107.715 116.714 107.349 117.036 107.026C117.358 106.717 117.722 106.464 118.142 106.281C118.562 106.098 119.01 106 119.486 106C119.962 106 120.396 106.098 120.774 106.281C121.152 106.464 121.474 106.717 121.74 107.026C122.006 107.335 122.202 107.715 122.342 108.137C122.482 108.558 122.552 109.008 122.552 109.486ZM121.306 109.486C121.306 109.233 121.264 108.994 121.166 108.755C121.068 108.53 120.942 108.333 120.788 108.151C120.62 107.982 120.438 107.841 120.214 107.743C119.99 107.645 119.766 107.588 119.5 107.588C119.248 107.588 119.01 107.645 118.786 107.743C118.562 107.841 118.38 107.982 118.212 108.151C118.044 108.319 117.918 108.516 117.834 108.755C117.736 108.98 117.694 109.219 117.694 109.486C117.694 109.739 117.736 109.992 117.834 110.217C117.932 110.442 118.058 110.639 118.212 110.821C118.366 111.004 118.562 111.131 118.786 111.229C119.01 111.327 119.248 111.384 119.5 111.384C119.752 111.384 119.99 111.327 120.214 111.229C120.438 111.131 120.62 110.99 120.788 110.821C120.956 110.653 121.082 110.456 121.166 110.217C121.25 109.992 121.306 109.753 121.306 109.486ZM122.986 109.711C122.986 109.823 122.958 109.936 122.916 110.034C122.874 110.133 122.818 110.231 122.734 110.301C122.664 110.371 122.566 110.442 122.468 110.484C122.37 110.526 122.258 110.554 122.146 110.554C122.034 110.554 121.922 110.526 121.824 110.484C121.726 110.442 121.628 110.386 121.558 110.301C121.488 110.231 121.418 110.133 121.376 110.034C121.334 109.936 121.306 109.823 121.306 109.711V107.855L121.488 107.757L121.796 106.829C121.852 106.534 121.95 106.323 122.076 106.197C122.202 106.07 122.356 106.014 122.524 106.014C122.818 106.014 122.972 106.169 122.972 106.464V109.711H122.986ZM122.986 112.494C122.986 112.649 122.944 112.761 122.86 112.859C122.776 112.944 122.664 113 122.496 113C122.328 113 122.174 112.944 122.062 112.845C121.936 112.747 121.852 112.564 121.81 112.311L121.502 111.229L121.32 111.131V109.5C121.32 109.388 121.348 109.275 121.39 109.177C121.432 109.078 121.488 108.994 121.572 108.91C121.642 108.839 121.74 108.769 121.838 108.727C121.936 108.685 122.048 108.657 122.16 108.657C122.272 108.657 122.384 108.685 122.482 108.727C122.58 108.769 122.664 108.825 122.748 108.91C122.818 108.98 122.888 109.078 122.93 109.177C122.972 109.275 123 109.388 123 109.5V112.494H122.986Z" fill="#1B8E23"/>
<path d="M125 108.642C125 108.269 125.067 107.924 125.213 107.594C125.347 107.278 125.533 106.991 125.773 106.761C126.013 106.531 126.28 106.345 126.6 106.201C126.907 106.072 127.24 106 127.587 106H129.507C129.627 106 129.72 106.029 129.787 106.072C129.853 106.115 129.907 106.187 129.933 106.258C129.96 106.33 129.987 106.402 129.987 106.488C130 106.574 130 106.646 130 106.718V112.203C130 112.289 129.987 112.375 129.947 112.476C129.92 112.576 129.867 112.663 129.8 112.734C129.733 112.806 129.653 112.878 129.56 112.921C129.467 112.978 129.36 112.993 129.227 112.993C129.093 112.993 128.987 112.964 128.88 112.921C128.773 112.864 128.693 112.806 128.627 112.734C128.56 112.663 128.507 112.576 128.467 112.476C128.427 112.375 128.413 112.289 128.413 112.203V111.184H127.56C127.213 111.184 126.893 111.126 126.573 110.997C126.267 110.868 125.987 110.695 125.747 110.466C125.507 110.236 125.32 109.977 125.187 109.662C125.08 109.346 125 109.015 125 108.642ZM127.52 110.896L126.44 112.677C126.307 112.864 126.133 112.964 125.933 112.993C125.733 113.021 125.533 112.964 125.36 112.835C125.187 112.677 125.093 112.49 125.067 112.275C125.04 112.059 125.093 111.858 125.227 111.672L126.267 109.977L127.52 110.896ZM126.547 108.656C126.547 108.829 126.573 109.001 126.64 109.145C126.707 109.288 126.787 109.417 126.893 109.518C127 109.618 127.133 109.705 127.28 109.748C127.427 109.805 127.587 109.834 127.747 109.834L128.427 109.848V107.393L127.747 107.407C127.587 107.407 127.427 107.436 127.28 107.508C127.133 107.579 127.013 107.666 126.893 107.78C126.787 107.895 126.693 108.025 126.64 108.183C126.587 108.326 126.547 108.484 126.547 108.656Z" fill="#1B8E23"/>
<path d="M137 108.179V106.849C137 106.736 137.028 106.623 137.069 106.523C137.111 106.424 137.167 106.34 137.236 106.255C137.306 106.184 137.389 106.113 137.5 106.071C137.597 106.028 137.708 106 137.819 106C137.931 106 138.042 106.028 138.139 106.071C138.236 106.113 138.333 106.17 138.403 106.255C138.472 106.325 138.542 106.424 138.583 106.523C138.625 106.623 138.653 106.736 138.653 106.849V108.179H137ZM138.639 107.853V110.146V112.041C138.639 112.169 138.611 112.296 138.569 112.409C138.528 112.522 138.458 112.622 138.389 112.706C138.306 112.791 138.222 112.848 138.125 112.905C138.028 112.947 137.917 112.975 137.792 112.975C137.542 112.975 137.347 112.89 137.208 112.706C137.069 112.537 137 112.31 137 112.041V107.528L138.639 107.853ZM142.292 106.028C142.444 106.042 142.583 106.085 142.694 106.17C142.806 106.255 142.875 106.354 142.931 106.467C142.986 106.58 143 106.707 143 106.835C143 106.962 142.972 107.089 142.917 107.203C142.861 107.316 142.778 107.415 142.681 107.486C142.569 107.556 142.444 107.599 142.292 107.599C142.25 107.599 142.208 107.585 142.194 107.585C142.181 107.585 142.153 107.585 142.125 107.585C141.917 107.585 141.75 107.627 141.611 107.726C141.472 107.825 141.347 107.967 141.25 108.136C141.125 108.349 141 108.575 140.889 108.787C140.764 108.999 140.653 109.198 140.528 109.396C140.403 109.594 140.278 109.764 140.153 109.933C140.014 110.103 139.875 110.245 139.722 110.372C139.556 110.499 139.389 110.598 139.194 110.669C139 110.74 138.792 110.782 138.569 110.782C138.514 110.782 138.472 110.782 138.417 110.782C138.375 110.782 138.319 110.782 138.264 110.768L138.236 109.141H138.542C138.694 109.141 138.819 109.113 138.944 109.056C139.056 108.999 139.167 108.929 139.264 108.83C139.403 108.688 139.528 108.518 139.639 108.32C139.75 108.122 139.861 107.91 139.958 107.684C140.069 107.471 140.181 107.245 140.319 107.033C140.444 106.821 140.597 106.637 140.778 106.481C140.931 106.34 141.097 106.226 141.292 106.141C141.486 106.057 141.708 106.014 141.972 106.014L142.292 106.028ZM140.819 108.561C140.958 108.787 141.111 109.042 141.278 109.325C141.444 109.608 141.625 109.877 141.792 110.174C141.972 110.457 142.139 110.74 142.306 111.023C142.472 111.306 142.625 111.546 142.764 111.787C142.847 111.928 142.875 112.07 142.861 112.211C142.847 112.353 142.806 112.48 142.736 112.593C142.667 112.721 142.542 112.82 142.403 112.905C142.25 112.989 142.083 113.018 141.903 112.989C141.778 112.975 141.667 112.933 141.583 112.862C141.486 112.791 141.389 112.678 141.306 112.537L139.542 109.636L140.819 108.561Z" fill="#1B8E23"/>
<path d="M144 109.493C144 109.014 144.098 108.563 144.281 108.141C144.464 107.718 144.717 107.352 145.04 107.028C145.363 106.718 145.729 106.465 146.151 106.282C146.572 106.099 147.022 106 147.5 106C147.978 106 148.428 106.099 148.849 106.282C149.271 106.465 149.637 106.718 149.96 107.028C150.283 107.338 150.522 107.718 150.719 108.141C150.902 108.563 151 109.014 151 109.493C151 109.972 150.902 110.423 150.719 110.859C150.536 111.282 150.283 111.662 149.96 111.972C149.637 112.282 149.271 112.535 148.849 112.718C148.428 112.901 147.978 113 147.5 113C147.022 113 146.572 112.901 146.151 112.718C145.729 112.535 145.363 112.282 145.04 111.972C144.717 111.662 144.464 111.282 144.281 110.859C144.098 110.423 144 109.972 144 109.493ZM145.687 109.493C145.687 109.746 145.729 110 145.827 110.225C145.926 110.451 146.052 110.648 146.207 110.831C146.376 111 146.558 111.141 146.783 111.239C147.008 111.338 147.247 111.394 147.5 111.394C147.753 111.394 147.992 111.338 148.217 111.239C148.442 111.141 148.624 111 148.793 110.831C148.962 110.662 149.088 110.465 149.173 110.225C149.271 110 149.313 109.746 149.313 109.493C149.313 109.239 149.271 109 149.173 108.761C149.074 108.535 148.948 108.338 148.793 108.155C148.624 107.986 148.442 107.845 148.217 107.746C147.992 107.648 147.767 107.592 147.5 107.592C147.247 107.592 147.008 107.648 146.783 107.746C146.558 107.845 146.376 107.986 146.207 108.155C146.038 108.324 145.912 108.521 145.827 108.761C145.729 108.986 145.687 109.239 145.687 109.493Z" fill="#1B8E23"/>
<path d="M154.715 108.424C154.715 108.826 154.715 109.199 154.715 109.514C154.715 109.844 154.715 110.145 154.715 110.447C154.715 110.734 154.715 111.02 154.715 111.307C154.715 111.594 154.715 111.895 154.715 112.211C154.715 112.297 154.701 112.383 154.659 112.484C154.616 112.584 154.559 112.67 154.488 112.742C154.417 112.814 154.332 112.885 154.232 112.928C154.133 112.986 154.019 113 153.891 113C153.764 113 153.636 112.971 153.536 112.928C153.423 112.871 153.337 112.814 153.266 112.742C153.195 112.67 153.139 112.584 153.096 112.484C153.053 112.383 153.039 112.297 153.039 112.211C153.039 111.795 153.039 111.35 153.039 110.891C153.039 110.432 153.039 109.959 153.039 109.486C153.039 109.012 153.039 108.539 153.039 108.08C153.039 107.607 153.039 107.162 153.039 106.732C153.039 106.631 153.025 106.531 153.011 106.445C152.996 106.359 152.996 106.273 153.011 106.215C153.025 106.143 153.067 106.1 153.124 106.057C153.195 106.014 153.295 106 153.451 106C153.693 106 153.906 106.014 154.09 106.029C154.275 106.057 154.417 106.115 154.502 106.215L156.52 108.639C156.804 108.281 157.059 107.965 157.258 107.707C157.457 107.449 157.628 107.234 157.77 107.061C157.912 106.889 158.025 106.746 158.096 106.645C158.182 106.545 158.238 106.473 158.295 106.416C158.338 106.359 158.366 106.316 158.395 106.301C158.409 106.273 158.437 106.258 158.452 106.244C158.508 106.172 158.594 106.115 158.707 106.072C158.821 106.029 158.991 106 159.204 106C159.389 106 159.531 106.043 159.631 106.115C159.73 106.201 159.815 106.301 159.872 106.416C159.929 106.545 159.957 106.674 159.972 106.832C159.986 106.99 160 107.133 160 107.262V112.211C160 112.297 159.986 112.383 159.943 112.484C159.901 112.584 159.844 112.67 159.773 112.742C159.702 112.814 159.616 112.885 159.503 112.928C159.403 112.971 159.275 113 159.148 113C158.906 113 158.707 112.928 158.551 112.77C158.395 112.627 158.324 112.441 158.324 112.211V108.395L157.045 110.102C156.96 110.203 156.889 110.289 156.804 110.361C156.718 110.432 156.633 110.475 156.534 110.475C156.42 110.475 156.335 110.447 156.264 110.375C156.193 110.303 156.108 110.217 156.008 110.102L154.715 108.424Z" fill="#1B8E23"/>
<path d="M162.014 106.842C162.014 106.729 162.043 106.617 162.087 106.519C162.13 106.421 162.188 106.337 162.274 106.253C162.346 106.182 162.447 106.112 162.548 106.07C162.649 106.028 162.765 106 162.88 106C162.996 106 163.111 106.028 163.212 106.07C163.313 106.112 163.4 106.168 163.487 106.253C163.559 106.323 163.631 106.421 163.674 106.519C163.718 106.617 163.746 106.729 163.746 106.842V112.158C163.746 112.271 163.718 112.383 163.674 112.481C163.631 112.579 163.573 112.677 163.487 112.747C163.414 112.818 163.313 112.888 163.212 112.93C163.111 112.972 162.996 113 162.88 113C162.765 113 162.649 112.972 162.548 112.93C162.447 112.888 162.346 112.832 162.274 112.747C162.202 112.677 162.13 112.579 162.087 112.481C162.043 112.383 162.014 112.271 162.014 112.158V106.842ZM162.014 106.842C162.014 106.729 162.043 106.617 162.087 106.519C162.13 106.421 162.188 106.337 162.274 106.253C162.346 106.182 162.447 106.112 162.548 106.07C162.649 106.028 162.765 106 162.88 106C162.996 106 163.111 106.028 163.212 106.07C163.313 106.112 163.4 106.168 163.487 106.253C163.559 106.323 163.631 106.421 163.674 106.519C163.718 106.617 163.746 106.729 163.746 106.842V112.158C163.746 112.271 163.718 112.383 163.674 112.481C163.631 112.579 163.573 112.677 163.487 112.747C163.414 112.818 163.313 112.888 163.212 112.93C163.111 112.972 162.996 113 162.88 113C162.765 113 162.649 112.972 162.548 112.93C162.447 112.888 162.346 112.832 162.274 112.747C162.202 112.677 162.13 112.579 162.087 112.481C162.043 112.383 162.014 112.271 162.014 112.158V106.842ZM162.866 107.669C162.751 107.669 162.635 107.641 162.534 107.599C162.433 107.557 162.332 107.501 162.26 107.431C162.188 107.361 162.115 107.277 162.072 107.164C162.029 107.066 162 106.954 162 106.842C162 106.729 162.029 106.617 162.072 106.519C162.115 106.421 162.173 106.337 162.26 106.253C162.332 106.182 162.433 106.112 162.534 106.07C162.635 106.028 162.751 106 162.866 106H168.134C168.249 106 168.365 106.028 168.466 106.07C168.567 106.112 168.668 106.168 168.74 106.253C168.812 106.323 168.885 106.421 168.928 106.519C168.971 106.617 169 106.729 169 106.842C169 106.954 168.971 107.066 168.928 107.164C168.885 107.263 168.827 107.347 168.74 107.431C168.668 107.501 168.567 107.557 168.466 107.599C168.365 107.641 168.249 107.669 168.134 107.669H162.866ZM167.282 106.842C167.282 106.729 167.311 106.617 167.355 106.519C167.398 106.421 167.456 106.337 167.528 106.253C167.6 106.182 167.687 106.112 167.802 106.07C167.903 106.028 168.019 106 168.134 106C168.249 106 168.365 106.028 168.466 106.07C168.567 106.112 168.654 106.168 168.74 106.253C168.812 106.323 168.885 106.421 168.928 106.519C168.971 106.617 169 106.729 169 106.842V112.158C169 112.271 168.971 112.383 168.928 112.481C168.885 112.579 168.827 112.677 168.74 112.747C168.668 112.818 168.567 112.888 168.466 112.93C168.365 112.972 168.249 113 168.134 113C168.019 113 167.903 112.972 167.802 112.93C167.701 112.888 167.614 112.832 167.528 112.747C167.456 112.677 167.398 112.579 167.355 112.481C167.311 112.383 167.282 112.271 167.282 112.158V106.842Z" fill="#1B8E23"/>
<path d="M176.565 109.486C176.565 109.964 176.495 110.414 176.355 110.849C176.214 111.271 176.018 111.651 175.752 111.96C175.485 112.269 175.162 112.522 174.784 112.705C174.405 112.888 173.97 112.986 173.493 112.986C173.016 112.986 172.567 112.888 172.146 112.705C171.725 112.522 171.361 112.269 171.038 111.96C170.715 111.651 170.477 111.271 170.281 110.849C170.098 110.428 170 109.978 170 109.486C170 108.994 170.098 108.558 170.281 108.137C170.463 107.715 170.715 107.349 171.038 107.026C171.361 106.717 171.725 106.464 172.146 106.281C172.567 106.098 173.016 106 173.493 106C173.97 106 174.405 106.098 174.784 106.281C175.162 106.464 175.485 106.717 175.752 107.026C176.018 107.335 176.214 107.715 176.355 108.137C176.495 108.558 176.565 109.008 176.565 109.486ZM175.303 109.486C175.303 109.233 175.261 108.994 175.162 108.755C175.064 108.53 174.938 108.333 174.784 108.151C174.615 107.982 174.433 107.841 174.208 107.743C173.984 107.645 173.76 107.588 173.493 107.588C173.24 107.588 173.002 107.645 172.778 107.743C172.553 107.841 172.371 107.982 172.202 108.151C172.034 108.319 171.908 108.516 171.824 108.755C171.725 108.98 171.683 109.219 171.683 109.486C171.683 109.739 171.725 109.992 171.824 110.217C171.922 110.442 172.048 110.639 172.202 110.821C172.371 110.99 172.553 111.131 172.778 111.229C173.002 111.327 173.24 111.384 173.493 111.384C173.745 111.384 173.984 111.327 174.208 111.229C174.433 111.131 174.615 110.99 174.784 110.821C174.952 110.653 175.078 110.456 175.162 110.217C175.261 109.992 175.303 109.753 175.303 109.486ZM176.986 109.711C176.986 109.823 176.958 109.936 176.916 110.034C176.874 110.133 176.818 110.231 176.733 110.301C176.663 110.371 176.565 110.442 176.467 110.484C176.369 110.526 176.257 110.554 176.144 110.554C176.032 110.554 175.92 110.526 175.822 110.484C175.723 110.442 175.625 110.386 175.555 110.301C175.485 110.231 175.415 110.133 175.373 110.034C175.331 109.936 175.303 109.823 175.303 109.711V107.855L175.485 107.757L175.794 106.829C175.85 106.534 175.948 106.323 176.074 106.197C176.2 106.07 176.355 106.014 176.523 106.014C176.818 106.014 176.972 106.169 176.972 106.464V109.711H176.986ZM176.986 112.494C176.986 112.649 176.944 112.761 176.86 112.859C176.776 112.944 176.663 113 176.495 113C176.327 113 176.172 112.944 176.06 112.845C175.934 112.747 175.85 112.564 175.808 112.311L175.499 111.229L175.317 111.131V109.5C175.317 109.388 175.345 109.275 175.387 109.177C175.429 109.078 175.485 108.994 175.569 108.91C175.639 108.839 175.737 108.769 175.836 108.727C175.934 108.685 176.046 108.657 176.158 108.657C176.271 108.657 176.383 108.685 176.481 108.727C176.579 108.769 176.677 108.825 176.747 108.91C176.818 108.98 176.888 109.078 176.93 109.177C176.972 109.275 177 109.388 177 109.5V112.494H176.986Z" fill="#1B8E23"/>
<path d="M179.014 107.521V106.845C179.014 106.732 179.042 106.62 179.084 106.521C179.125 106.423 179.181 106.338 179.251 106.254C179.32 106.183 179.404 106.113 179.515 106.07C179.613 106.028 179.724 106 179.835 106C179.947 106 180.058 106.028 180.155 106.07C180.253 106.113 180.336 106.169 180.42 106.254C180.49 106.324 180.559 106.423 180.601 106.521C180.643 106.62 180.671 106.732 180.671 106.845V107.521H179.014ZM184.986 107.042V112.211C184.986 112.423 184.916 112.62 184.777 112.761C184.638 112.915 184.443 112.986 184.179 112.986C184.053 112.986 183.942 112.972 183.845 112.93C183.747 112.887 183.65 112.831 183.58 112.761C183.51 112.69 183.441 112.606 183.399 112.507C183.357 112.408 183.329 112.31 183.329 112.197V110.423H180.643V112.211C180.643 112.31 180.629 112.408 180.587 112.507C180.545 112.606 180.503 112.69 180.434 112.761C180.364 112.831 180.281 112.887 180.183 112.93C180.086 112.972 179.961 113 179.835 113C179.557 113 179.348 112.93 179.209 112.775C179.07 112.62 179 112.437 179 112.225V107.155L180.643 107.042V108.761H183.329V107.014L184.986 107.042ZM183.343 107.521V106.845C183.343 106.732 183.371 106.62 183.413 106.521C183.455 106.423 183.51 106.338 183.58 106.254C183.65 106.183 183.733 106.113 183.845 106.07C183.942 106.028 184.053 106 184.165 106C184.276 106 184.387 106.028 184.485 106.07C184.582 106.113 184.666 106.169 184.749 106.254C184.819 106.324 184.889 106.423 184.93 106.521C184.972 106.62 185 106.732 185 106.845V107.521H183.343Z" fill="#1B8E23"/>
<path d="M187 107.602V106.843C187 106.731 187.026 106.618 187.066 106.52C187.105 106.422 187.158 106.337 187.237 106.253C187.303 106.183 187.396 106.112 187.488 106.07C187.58 106.028 187.686 106 187.791 106C187.897 106 188.002 106.028 188.094 106.07C188.187 106.112 188.279 106.169 188.345 106.253C188.424 106.323 188.477 106.422 188.516 106.52C188.556 106.618 188.582 106.731 188.582 106.843V107.588L187 107.602ZM188.569 107.068V110.329L191.484 106.633C191.563 106.534 191.642 106.436 191.708 106.365C191.774 106.295 191.84 106.239 191.905 106.197C191.971 106.155 192.051 106.127 192.143 106.098C192.235 106.084 192.341 106.07 192.486 106.07C192.67 106.07 192.802 106.127 192.881 106.239C192.96 106.351 193 106.52 193 106.731V112.311C193 112.396 192.987 112.48 192.947 112.564C192.908 112.649 192.855 112.719 192.789 112.789C192.723 112.859 192.644 112.902 192.552 112.944C192.459 112.986 192.354 113 192.248 113C192.13 113 192.024 112.986 191.932 112.944C191.84 112.902 191.76 112.859 191.695 112.789C191.629 112.719 191.589 112.649 191.549 112.564C191.51 112.48 191.497 112.396 191.497 112.311C191.497 111.721 191.497 111.116 191.497 110.47C191.497 109.837 191.497 109.219 191.497 108.629L188.596 112.311C188.543 112.382 188.49 112.452 188.437 112.522C188.371 112.606 188.305 112.677 188.24 112.733C188.16 112.803 188.081 112.859 188.002 112.902C187.91 112.944 187.818 112.972 187.712 112.972C187.58 112.972 187.462 112.944 187.382 112.902C187.29 112.859 187.224 112.803 187.158 112.733C187.105 112.663 187.066 112.592 187.04 112.508C187.013 112.424 187 112.325 187 112.241V107.054L188.569 107.068Z" fill="#1B8E23"/>
<path d="M196 108.642C196 108.269 196.067 107.924 196.213 107.594C196.347 107.278 196.533 106.991 196.773 106.761C197.013 106.531 197.28 106.345 197.6 106.201C197.907 106.072 198.24 106 198.587 106H200.507C200.627 106 200.72 106.029 200.787 106.072C200.853 106.115 200.907 106.187 200.933 106.258C200.96 106.33 200.987 106.402 200.987 106.488C201 106.574 201 106.646 201 106.718V112.203C201 112.289 200.987 112.375 200.947 112.476C200.92 112.576 200.867 112.663 200.8 112.734C200.733 112.806 200.653 112.878 200.56 112.921C200.467 112.978 200.36 112.993 200.227 112.993C200.093 112.993 199.987 112.964 199.88 112.921C199.773 112.864 199.693 112.806 199.627 112.734C199.56 112.663 199.507 112.576 199.467 112.476C199.427 112.375 199.413 112.289 199.413 112.203V111.184H198.56C198.213 111.184 197.893 111.126 197.573 110.997C197.267 110.868 196.987 110.695 196.747 110.466C196.507 110.236 196.32 109.977 196.187 109.662C196.067 109.346 196 109.015 196 108.642ZM198.52 110.896L197.44 112.677C197.307 112.864 197.133 112.964 196.933 112.993C196.733 113.021 196.533 112.964 196.36 112.835C196.187 112.677 196.093 112.49 196.067 112.275C196.04 112.059 196.093 111.858 196.227 111.672L197.267 109.977L198.52 110.896ZM197.547 108.656C197.547 108.829 197.573 109.001 197.64 109.145C197.707 109.288 197.787 109.417 197.893 109.518C198 109.618 198.133 109.705 198.28 109.748C198.427 109.805 198.587 109.834 198.747 109.834L199.427 109.848V107.393L198.747 107.407C198.587 107.407 198.427 107.436 198.28 107.508C198.133 107.579 198.013 107.666 197.893 107.78C197.787 107.895 197.693 108.025 197.64 108.183C197.573 108.326 197.547 108.484 197.547 108.656Z" fill="#1B8E23"/>
<path d="M69.9852 153H69.362V146.529H65.6231V153H65V146H70L69.9852 153Z" fill="#050505"/>
<path d="M74.9855 151.237C74.9855 152.113 74.8261 152.777 74.5217 153.244C74.2029 153.696 73.7391 153.922 73.1159 153.922C72.4348 153.922 71.9275 153.654 71.5942 153.131V156H71V148.113H71.5507L71.5797 148.89C71.9275 148.297 72.4348 148 73.1015 148C73.7246 148 74.2029 148.212 74.5217 148.65C74.8406 149.088 75 149.753 75 150.643L74.9855 151.237ZM74.3768 150.7C74.3768 149.965 74.2609 149.428 74.029 149.088C73.7971 148.749 73.4348 148.58 72.942 148.58C72.3044 148.58 71.8551 148.89 71.5797 149.526V152.523C71.8551 153.088 72.3044 153.385 72.942 153.385C73.4203 153.385 73.7826 153.216 74.0145 152.876C74.2464 152.537 74.3623 152 74.3623 151.293L74.3768 150.7Z" fill="#050505"/>
<path d="M76 150.706C76 149.876 76.1763 149.217 76.5288 148.73C76.8814 148.243 77.3695 148 77.9932 148C78.6169 148 79.1051 148.243 79.4576 148.716C79.8102 149.189 79.9864 149.847 80 150.692V151.308C80 152.153 79.8237 152.811 79.4576 153.284C79.0915 153.757 78.6169 154 78.0068 154C77.3966 154 76.9085 153.771 76.5559 153.313C76.2034 152.854 76.0136 152.21 76 151.408V150.706ZM76.5695 151.294C76.5695 151.952 76.6915 152.482 76.9492 152.854C77.2068 153.241 77.5593 153.427 78.0068 153.427C78.4678 153.427 78.8203 153.241 79.0644 152.883C79.3085 152.511 79.4305 151.995 79.4305 151.308V150.692C79.4305 150.033 79.3085 149.504 79.0508 149.117C78.7932 148.73 78.4407 148.544 77.9932 148.544C77.5593 148.544 77.2068 148.73 76.9627 149.103C76.7051 149.475 76.5695 149.99 76.5695 150.649V151.294Z" fill="#050505"/>
<path d="M82.3776 152.891L82.6193 152.555C82.997 152.017 83.2236 151.225 83.284 150.203L83.3746 148H86.4411V152.891H87V155H86.3958V153.401H82.6042V155H82V152.891H82.3776ZM83.0725 152.891H85.8369V148.564H83.994L83.9184 150.23C83.8278 151.399 83.5408 152.286 83.0725 152.891Z" fill="#050505"/>
<path d="M89.0488 152.735L90.3868 148H91L89.0209 154.615L88.9094 154.926C88.6446 155.647 88.2404 156 87.6829 156C87.5575 156 87.4181 155.972 87.2648 155.929V155.392C87.3484 155.42 87.4321 155.435 87.5296 155.435C87.7805 155.435 87.9895 155.364 88.1429 155.208C88.2962 155.053 88.4355 154.813 88.5331 154.473L88.77 153.668L87 148H87.6272L89.0488 152.735Z" fill="#050505"/>
<path d="M93.319 150.723H92.6022V153H92V148H92.6022V150.215H93.3047L95.0538 148H95.7849L93.7921 150.413L96 152.988H95.2258L93.319 150.723Z" fill="#050505"/>
<path d="M100.986 148.484H99.2571V153H98.6714V148.484H97V148H101V148.484H100.986Z" fill="#050505"/>
<path d="M102.545 149.819H103.795C104.301 149.819 104.713 149.955 105.005 150.24C105.311 150.525 105.457 150.908 105.457 151.403C105.457 151.886 105.311 152.282 105.005 152.567C104.713 152.851 104.301 153 103.795 153H102V148H102.545V149.819ZM102.545 150.29V152.517H103.809C104.154 152.517 104.42 152.418 104.62 152.22C104.819 152.022 104.912 151.75 104.912 151.416C104.912 151.082 104.819 150.809 104.62 150.611C104.42 150.413 104.154 150.302 103.822 150.302L102.545 150.29ZM107 153H106.455V148H107V153Z" fill="#050505"/>
<path d="M112.56 151L113.693 153H113.227L112 151.041V150.945L113.227 149H113.693L112.56 151ZM113.867 151L115 153H114.533L113.307 151.041V150.945L114.533 149H115L113.867 151Z" fill="#050505"/>
<path d="M121 151.462C120.941 152.337 120.705 152.982 120.277 153.384C119.85 153.785 119.26 154 118.507 154C117.74 154 117.121 153.713 116.678 153.154C116.236 152.581 116 151.821 116 150.832V149.14C116 148.165 116.221 147.391 116.678 146.832C117.136 146.272 117.755 146 118.552 146C119.304 146 119.879 146.215 120.292 146.631C120.705 147.047 120.941 147.692 121 148.552H120.366C120.307 147.849 120.13 147.348 119.85 147.047C119.569 146.746 119.142 146.588 118.566 146.588C117.962 146.588 117.49 146.803 117.15 147.247C116.811 147.692 116.649 148.323 116.649 149.154V150.817C116.649 151.649 116.811 152.28 117.136 152.753C117.46 153.211 117.917 153.441 118.522 153.441C119.142 153.441 119.599 153.283 119.879 152.982C120.159 152.681 120.322 152.179 120.381 151.477H121V151.462Z" fill="#050505"/>
<path d="M123 153V148H124.846C125.476 148 125.96 148.111 126.297 148.334C126.634 148.557 126.81 148.891 126.81 149.324C126.81 149.572 126.736 149.795 126.575 149.993C126.414 150.191 126.194 150.327 125.916 150.413C126.253 150.475 126.516 150.611 126.707 150.834C126.897 151.057 127 151.304 127 151.589C127 152.035 126.839 152.369 126.516 152.604C126.194 152.839 125.755 152.963 125.183 152.975H123V153ZM123.601 150.228H124.89C125.769 150.228 126.223 149.931 126.223 149.349C126.223 148.78 125.799 148.495 124.934 148.483H123.601V150.228ZM123.601 150.698V152.517H125.154C125.564 152.517 125.872 152.443 126.077 152.282C126.297 152.121 126.399 151.899 126.399 151.601C126.399 151.329 126.297 151.106 126.077 150.946C125.857 150.785 125.549 150.698 125.154 150.698H123.601Z" fill="#050505"/>
<path d="M128 150.706C128 149.876 128.176 149.217 128.529 148.73C128.881 148.243 129.369 148 129.993 148C130.617 148 131.105 148.243 131.458 148.716C131.81 149.189 131.986 149.847 132 150.692V151.308C132 152.153 131.824 152.811 131.458 153.284C131.105 153.757 130.617 154 130.007 154C129.397 154 128.908 153.771 128.556 153.313C128.203 152.854 128.014 152.21 128 151.408V150.706ZM128.556 151.294C128.556 151.952 128.678 152.482 128.936 152.854C129.193 153.241 129.546 153.427 129.993 153.427C130.454 153.427 130.807 153.241 131.051 152.883C131.295 152.511 131.417 151.995 131.417 151.308V150.692C131.417 150.033 131.295 149.504 131.037 149.117C130.78 148.73 130.427 148.544 129.98 148.544C129.546 148.544 129.193 148.73 128.949 149.103C128.692 149.475 128.556 149.99 128.556 150.649V151.294Z" fill="#050505"/>
<path d="M137.369 148.128H138V154H137.369V149.191L134.631 154H134V148.128H134.631V152.936L137.369 148.128ZM137.646 146.015C137.646 146.423 137.492 146.758 137.2 147.02C136.908 147.282 136.492 147.413 135.985 147.413C135.477 147.413 135.077 147.282 134.785 147.02C134.477 146.758 134.338 146.423 134.338 146H134.923C134.923 146.291 135.015 146.51 135.2 146.685C135.385 146.845 135.646 146.933 136 146.933C136.338 146.933 136.6 146.845 136.785 146.685C136.969 146.525 137.077 146.291 137.077 146L137.646 146.015Z" fill="#050505"/>
<path d="M144.602 150.989L146.319 146H147L144.657 152.545L144.452 153.011C144.166 153.665 143.717 154 143.131 154C142.94 154 142.804 153.985 142.722 153.942L142.763 153.389C142.817 153.418 142.94 153.433 143.131 153.433C143.471 153.433 143.73 153.215 143.935 152.778L144.057 152.473L144.302 151.818L142 146.015H142.654L144.602 150.989Z" fill="#050505"/>
<path d="M151.986 151.237C151.986 152.113 151.826 152.777 151.522 153.244C151.203 153.696 150.739 153.922 150.116 153.922C149.435 153.922 148.928 153.654 148.594 153.131V156H148V148.113H148.551L148.58 148.89C148.928 148.297 149.435 148 150.101 148C150.725 148 151.203 148.212 151.522 148.65C151.841 149.088 152 149.753 152 150.643V151.237H151.986ZM151.391 150.7C151.391 149.965 151.275 149.428 151.043 149.088C150.812 148.749 150.449 148.58 149.957 148.58C149.319 148.58 148.87 148.89 148.594 149.526V152.523C148.87 153.088 149.319 153.385 149.957 153.385C150.435 153.385 150.797 153.216 151.029 152.876C151.261 152.537 151.377 152 151.377 151.293L151.391 150.7Z" fill="#050505"/>
<path d="M153 150.706C153 149.876 153.176 149.217 153.529 148.73C153.881 148.243 154.369 148 154.993 148C155.617 148 156.105 148.243 156.458 148.716C156.81 149.189 156.986 149.847 157 150.692V151.308C157 152.153 156.824 152.811 156.458 153.284C156.105 153.757 155.617 154 155.007 154C154.397 154 153.908 153.771 153.556 153.313C153.203 152.854 153.014 152.21 153 151.408V150.706ZM153.556 151.294C153.556 151.952 153.678 152.482 153.936 152.854C154.193 153.241 154.546 153.427 154.993 153.427C155.454 153.427 155.807 153.241 156.051 152.883C156.295 152.511 156.417 151.995 156.417 151.308V150.692C156.417 150.033 156.295 149.504 156.037 149.117C155.78 148.73 155.427 148.544 154.98 148.544C154.546 148.544 154.193 148.73 153.949 149.103C153.692 149.475 153.556 149.99 153.556 150.649V151.294Z" fill="#050505"/>
<path d="M162.455 150.698H161.803V153H161.197V150.698H160.545L158.77 153H158L160.027 150.426L158.222 148H158.962L160.545 150.191H161.197V148H161.803V150.191H162.455L164.038 148H164.793L162.973 150.426L165 152.988H164.216L162.455 150.698Z" fill="#050505"/>
<path d="M168.355 153.885C168.297 153.698 168.267 153.424 168.253 153.079C168.077 153.367 167.843 153.597 167.549 153.755C167.256 153.914 166.949 154 166.612 154C166.099 154 165.703 153.856 165.425 153.583C165.147 153.295 165 152.892 165 152.374C165 151.813 165.19 151.353 165.586 151.022C165.982 150.691 166.524 150.518 167.227 150.518H168.238V149.712C168.238 149.295 168.136 148.993 167.93 148.82C167.725 148.633 167.418 148.547 167.007 148.547C166.626 148.547 166.319 148.647 166.084 148.863C165.85 149.079 165.718 149.353 165.718 149.698H165.117C165.117 149.223 165.293 148.82 165.659 148.489C166.026 148.158 166.48 148 167.037 148C167.637 148 168.077 148.144 168.385 148.446C168.692 148.734 168.839 149.165 168.839 149.727V152.576C168.839 153.137 168.897 153.568 169 153.856V153.914H168.355V153.885ZM166.685 153.41C167.037 153.41 167.359 153.324 167.637 153.137C167.916 152.95 168.106 152.705 168.238 152.403V150.993H167.271C166.714 150.993 166.304 151.122 166.026 151.353C165.747 151.583 165.601 151.899 165.601 152.302C165.601 153.05 165.967 153.41 166.685 153.41Z" fill="#050505"/>
<path d="M174.369 148.128H175V154H174.369V149.191L171.631 154H171V148.128H171.631V152.936L174.369 148.128ZM174.646 146.015C174.646 146.423 174.492 146.758 174.2 147.02C173.908 147.282 173.492 147.413 172.985 147.413C172.477 147.413 172.077 147.282 171.785 147.02C171.477 146.758 171.338 146.423 171.338 146H171.923C171.923 146.291 172.015 146.51 172.2 146.685C172.385 146.845 172.646 146.933 173 146.933C173.338 146.933 173.6 146.845 173.785 146.685C173.969 146.525 174.077 146.291 174.077 146L174.646 146.015Z" fill="#050505"/>
<path d="M176.459 149L177.664 150.959V151.055L176.459 153H176L177.114 151.014L176 149H176.459ZM177.795 149L179 150.959V151.055L177.795 153H177.336L178.45 151.014L177.336 149H177.795Z" fill="#050505"/>
<path d="M2 162.489L2.58025 161H3.96296L2.82716 163.444L4 166H2.61728L2 164.437L1.39506 166H0L1.17284 163.444L0.0493827 161H1.4321L2 162.489Z" fill="#1B8E23"/>
<path d="M5.01529 163.807C5.01529 162.933 5.22936 162.246 5.67278 161.745C6.11621 161.243 6.72783 161 7.50765 161C8.28746 161 8.91437 161.243 9.34251 161.745C9.78593 162.246 10 162.933 10 163.821V164.193C10 165.067 9.78593 165.754 9.34251 166.255C8.89908 166.757 8.28746 167 7.50765 167C6.71254 167 6.10092 166.757 5.65749 166.255C5.21407 165.754 5 165.067 5 164.193V163.807H5.01529ZM6.63609 164.179C6.63609 165.21 6.92661 165.726 7.52294 165.726C8.07339 165.726 8.36391 165.296 8.3945 164.437V163.807C8.3945 163.277 8.31804 162.89 8.16514 162.632C8.01223 162.375 7.78287 162.246 7.50765 162.246C7.23242 162.246 7.01835 162.375 6.86544 162.632C6.71254 162.89 6.63609 163.277 6.63609 163.807V164.179Z" fill="#1B8E23"/>
<path d="M15 164.129C15 165.021 14.8599 165.715 14.5796 166.196C14.2994 166.678 13.8917 166.919 13.3439 166.919C12.9236 166.919 12.5924 166.735 12.3376 166.352V169H11V161.099H12.2484L12.2994 161.623C12.5541 161.198 12.9108 161 13.3439 161C13.8917 161 14.2994 161.227 14.5796 161.665C14.8599 162.104 15 162.784 15 163.704V164.129ZM13.6497 163.747C13.6497 163.195 13.5987 162.798 13.4841 162.572C13.3694 162.345 13.1911 162.232 12.9363 162.232C12.6561 162.232 12.465 162.359 12.3376 162.614V165.29C12.4522 165.531 12.6561 165.658 12.949 165.658C13.2166 165.658 13.3949 165.531 13.4968 165.29C13.5987 165.035 13.6497 164.653 13.6497 164.129V163.747Z" fill="#1B8E23"/>
<path d="M16.0153 163.807C16.0153 162.933 16.2294 162.246 16.6728 161.745C17.1162 161.243 17.7278 161 18.5076 161C19.2875 161 19.9144 161.243 20.3425 161.745C20.7859 162.246 21 162.933 21 163.821V164.193C21 165.067 20.7859 165.754 20.3425 166.255C19.8991 166.757 19.2875 167 18.5076 167C17.7125 167 17.1009 166.757 16.6575 166.255C16.2141 165.754 16 165.067 16 164.193V163.807H16.0153ZM17.6361 164.179C17.6361 165.21 17.9266 165.726 18.5229 165.726C19.0734 165.726 19.3639 165.296 19.3945 164.437V163.807C19.3945 163.277 19.318 162.89 19.1651 162.632C19.0122 162.375 18.7829 162.246 18.5076 162.246C18.2324 162.246 18.0183 162.375 17.8654 162.632C17.7125 162.89 17.6361 163.277 17.6361 163.807V164.179Z" fill="#1B8E23"/>
<path d="M23.5821 161V164.921H24.7164V161H26.2985V164.921H27.4328V161H29V166H22V161H23.5821Z" fill="#1B8E23"/>
<path d="M32.6194 166.885C32.5806 166.799 32.5419 166.64 32.5032 166.439C32.2581 166.813 31.9355 167 31.5097 167C31.071 167 30.7097 166.842 30.4258 166.511C30.1419 166.194 30 165.777 30 165.259C30 164.655 30.1677 164.18 30.5161 163.849C30.8645 163.518 31.3677 163.345 32.0129 163.345H32.4258V162.885C32.4258 162.626 32.3871 162.439 32.3097 162.338C32.2323 162.237 32.1161 162.18 31.9613 162.18C31.6258 162.18 31.4581 162.396 31.4581 162.842H30.1032C30.1032 162.309 30.2839 161.863 30.6452 161.518C31.0065 161.173 31.4581 161 32.0129 161C32.5806 161 33.0194 161.158 33.3419 161.489C33.6645 161.82 33.8065 162.295 33.8065 162.914V165.647C33.8065 166.151 33.871 166.54 34 166.827V166.914H32.6194V166.885ZM31.8194 165.791C31.9742 165.791 32.1032 165.763 32.2065 165.691C32.3097 165.619 32.3871 165.547 32.4387 165.446V164.237H32.1161C31.8839 164.237 31.7032 164.324 31.5742 164.482C31.4452 164.64 31.3806 164.871 31.3806 165.144C31.3677 165.576 31.5226 165.791 31.8194 165.791Z" fill="#1B8E23"/>
<path d="M39 161.012V166H37.6709V164.28H37.1772L36.3418 166H35L35.9494 164.032C35.6962 163.896 35.4937 163.71 35.3544 163.475C35.2152 163.24 35.1392 162.98 35.1392 162.683C35.1392 162.188 35.3165 161.78 35.6582 161.47C36 161.161 36.481 161 37.0633 161H39V161.012ZM36.481 162.733C36.481 162.906 36.5316 163.054 36.6456 163.178C36.7595 163.302 36.8987 163.351 37.0633 163.351H37.6709V162.089H37.0506C36.8861 162.089 36.7468 162.151 36.6329 162.275C36.5316 162.399 36.481 162.559 36.481 162.733Z" fill="#1B8E23"/>
<path d="M45.003 164.164H44.5813V166H43V161H44.5813V162.873H44.9729L45.8916 161H47.8795L46.2831 163.308L48 166H45.8916L45.003 164.164Z" fill="#1B8E23"/>
<path d="M48.0153 163.807C48.0153 162.933 48.2294 162.246 48.6728 161.745C49.1162 161.243 49.7278 161 50.5076 161C51.2875 161 51.9144 161.243 52.3425 161.745C52.7859 162.246 53 162.933 53 163.821V164.193C53 165.067 52.7859 165.754 52.3425 166.255C51.8991 166.757 51.2875 167 50.5076 167C49.7125 167 49.1009 166.757 48.6575 166.255C48.2141 165.754 48 165.067 48 164.193L48.0153 163.807ZM49.6208 164.179C49.6208 165.21 49.9113 165.726 50.5076 165.726C51.0581 165.726 51.3486 165.296 51.3792 164.437V163.807C51.3792 163.277 51.3028 162.89 51.1498 162.632C50.9969 162.375 50.7676 162.246 50.4924 162.246C50.2171 162.246 50.0031 162.375 49.8502 162.632C49.6972 162.89 49.6208 163.277 49.6208 163.807V164.179Z" fill="#1B8E23"/>
<path d="M56.9635 164.412L58.073 161H60V166H58.4672V163.32L57.489 166H56.4672L55.5328 163.407V166H54V161H55.8978L56.9635 164.412Z" fill="#1B8E23"/>
<path d="M66 166H64.623V162.092H63.3902V166H62V161H66V166Z" fill="#1B8E23"/>
<path d="M69.6194 166.885C69.5806 166.799 69.5419 166.64 69.5032 166.439C69.2581 166.813 68.9355 167 68.5097 167C68.071 167 67.7097 166.842 67.4258 166.511C67.1419 166.194 67 165.777 67 165.259C67 164.655 67.1677 164.18 67.5161 163.849C67.8645 163.518 68.3677 163.345 69.0129 163.345H69.4258V162.885C69.4258 162.626 69.3871 162.439 69.3097 162.338C69.2323 162.237 69.1161 162.18 68.9613 162.18C68.6258 162.18 68.4581 162.396 68.4581 162.842H67.1032C67.1032 162.309 67.2839 161.863 67.6452 161.518C68.0065 161.173 68.4581 161 69.0129 161C69.5806 161 70.0194 161.158 70.3419 161.489C70.6645 161.82 70.8065 162.295 70.8065 162.914V165.647C70.8065 166.151 70.871 166.54 71 166.827V166.914H69.6194V166.885ZM68.8065 165.791C68.9613 165.791 69.0903 165.763 69.1935 165.691C69.2968 165.619 69.3742 165.547 69.4258 165.446V164.237H69.1032C68.871 164.237 68.6903 164.324 68.5613 164.482C68.4323 164.64 68.3677 164.871 68.3677 165.144C68.3548 165.576 68.5097 165.791 68.8065 165.791Z" fill="#1B8E23"/>
<path d="M76 166H74.6184V164.077H73.3947V166H72V161H73.3947V162.998H74.6184V161H76V166Z" fill="#1B8E23"/>
<path d="M80.623 161H82V166H80.623V162.923L79.3902 166H78V161H79.3902V164.065L80.623 161Z" fill="#1B8E23"/>
<path d="M87 161.012V166H85.6709V164.28H85.1772L84.3418 166H83L83.9494 164.032C83.6962 163.896 83.4937 163.71 83.3544 163.475C83.2152 163.24 83.1392 162.98 83.1392 162.683C83.1392 162.188 83.3165 161.78 83.6582 161.47C84 161.161 84.481 161 85.0633 161H87V161.012ZM84.481 162.733C84.481 162.906 84.5316 163.054 84.6456 163.178C84.7595 163.302 84.8987 163.351 85.0633 163.351H85.6709V162.089H85.0506C84.8861 162.089 84.7468 162.151 84.6329 162.275C84.5443 162.399 84.481 162.559 84.481 162.733Z" fill="#1B8E23"/>
<path d="M93.319 163.717H92.6022V166H92V161H92.6022V163.221H93.3047L95.0538 161H95.7849L93.7921 163.419L96 166H95.2258L93.319 163.717Z" fill="#050505"/>
<path d="M103 161V165.988H102.45V161.483H100.651L100.57 163.339C100.53 164.317 100.409 164.998 100.208 165.394C100.007 165.777 99.698 165.988 99.255 166H99V165.493H99.1611C99.4429 165.48 99.6577 165.332 99.7651 165.035C99.8859 164.738 99.9664 164.218 100.007 163.463L100.101 161.012H103V161Z" fill="#050505"/>
<path d="M105.574 163.742H106.859C106.872 163.211 106.968 162.737 107.159 162.321C107.337 161.904 107.583 161.574 107.884 161.344C108.185 161.115 108.54 161 108.923 161C109.551 161 110.057 161.273 110.426 161.818C110.809 162.364 111 163.081 111 163.957V164.086C111 164.933 110.809 165.636 110.426 166.182C110.043 166.727 109.551 167 108.923 167C108.335 167 107.843 166.742 107.46 166.239C107.077 165.737 106.872 165.091 106.845 164.287H105.56V166.885H105V161.1H105.56V163.742H105.574ZM107.419 164.086C107.419 164.761 107.556 165.335 107.829 165.78C108.103 166.225 108.472 166.455 108.936 166.455C109.387 166.455 109.756 166.239 110.03 165.794C110.303 165.349 110.44 164.775 110.44 164.057V163.928C110.44 163.254 110.303 162.679 110.016 162.234C109.743 161.789 109.374 161.56 108.923 161.56C108.472 161.56 108.116 161.789 107.829 162.234C107.556 162.679 107.405 163.268 107.405 163.986L107.419 164.086Z" fill="#050505"/>
<path d="M115.086 161.776C115.658 161.776 116.123 162.007 116.468 162.456C116.814 162.905 117 163.517 117 164.279V164.401C117 165.177 116.814 165.803 116.455 166.279C116.096 166.755 115.605 167 115.007 167C114.409 167 113.93 166.755 113.558 166.279C113.186 165.803 113 165.163 113 164.361V163.857C113 162.741 113.173 161.844 113.532 161.15C113.877 160.456 114.382 160.048 115.033 159.912C115.445 159.83 115.738 159.721 115.897 159.571C116.07 159.435 116.149 159.245 116.149 159H116.615C116.615 159.517 116.442 159.898 116.096 160.129C115.91 160.252 115.578 160.361 115.14 160.456C114.688 160.551 114.329 160.782 114.05 161.163C113.771 161.544 113.598 162.048 113.518 162.673C113.691 162.401 113.917 162.184 114.183 162.007C114.449 161.857 114.741 161.776 115.086 161.776ZM114.993 162.306C114.568 162.306 114.223 162.483 113.957 162.85C113.691 163.218 113.558 163.694 113.558 164.279V164.401C113.558 165.014 113.691 165.517 113.957 165.912C114.223 166.293 114.568 166.483 115.007 166.483C115.432 166.483 115.791 166.293 116.056 165.912C116.322 165.531 116.455 165.014 116.455 164.361V164.238C116.455 163.667 116.322 163.204 116.056 162.85C115.777 162.483 115.432 162.306 114.993 162.306Z" fill="#050505"/>
<path d="M118 163.706C118 162.876 118.176 162.217 118.529 161.73C118.881 161.243 119.369 161 119.993 161C120.617 161 121.105 161.243 121.458 161.716C121.81 162.189 121.986 162.847 122 163.692V164.308C122 165.153 121.824 165.811 121.458 166.284C121.092 166.757 120.617 167 120.007 167C119.397 167 118.908 166.771 118.556 166.313C118.203 165.854 118.014 165.21 118 164.408V163.706ZM118.569 164.294C118.569 164.952 118.692 165.482 118.949 165.854C119.207 166.241 119.559 166.427 120.007 166.427C120.468 166.427 120.82 166.241 121.064 165.883C121.308 165.511 121.431 164.995 121.431 164.308V163.692C121.431 163.033 121.308 162.504 121.051 162.117C120.793 161.73 120.441 161.544 119.993 161.544C119.559 161.544 119.207 161.73 118.963 162.103C118.705 162.475 118.569 162.99 118.569 163.649V164.294Z" fill="#050505"/>
<path d="M126.514 165.243L128.303 161H129V166H128.44V161.98L126.719 166H126.322L124.56 161.881V166H124V161H124.738L126.514 165.243Z" fill="#050505"/>
<path d="M132.049 165.735L133.387 161H134L132.021 167.615L131.909 167.926C131.645 168.647 131.24 169 130.683 169C130.557 169 130.418 168.972 130.265 168.929V168.392C130.348 168.421 130.432 168.435 130.53 168.435C130.78 168.435 130.99 168.364 131.143 168.208C131.296 168.053 131.436 167.813 131.533 167.474L131.77 166.668L130 161H130.627L132.049 165.735Z" fill="#050505"/>
<path d="M140.086 161.776C140.658 161.776 141.123 162.007 141.468 162.456C141.814 162.905 142 163.517 142 164.279V164.401C142 165.177 141.814 165.803 141.455 166.279C141.096 166.755 140.605 167 140.007 167C139.409 167 138.93 166.755 138.558 166.279C138.186 165.803 138 165.163 138 164.361V163.857C138 162.741 138.173 161.844 138.518 161.15C138.864 160.456 139.369 160.048 140.02 159.912C140.432 159.83 140.724 159.721 140.884 159.571C141.056 159.435 141.136 159.245 141.136 159H141.601C141.601 159.517 141.429 159.898 141.083 160.129C140.897 160.252 140.565 160.361 140.126 160.456C139.674 160.551 139.316 160.782 139.037 161.163C138.757 161.544 138.585 162.048 138.505 162.673C138.678 162.401 138.904 162.184 139.169 162.007C139.449 161.857 139.754 161.776 140.086 161.776ZM139.993 162.306C139.568 162.306 139.223 162.483 138.957 162.85C138.691 163.218 138.558 163.694 138.558 164.279V164.401C138.558 165.014 138.691 165.517 138.957 165.912C139.223 166.293 139.568 166.483 140.007 166.483C140.432 166.483 140.777 166.293 141.056 165.912C141.322 165.531 141.455 165.014 141.455 164.361V164.238C141.455 163.667 141.322 163.204 141.056 162.85C140.777 162.483 140.432 162.306 139.993 162.306Z" fill="#050505"/>
<path d="M147 161V165.988H146.45V161.483H144.651L144.57 163.339C144.53 164.317 144.409 164.998 144.208 165.394C144.007 165.777 143.698 165.988 143.255 166H143V165.493H143.161C143.443 165.48 143.658 165.332 143.765 165.035C143.886 164.738 143.966 164.218 144.007 163.463L144.101 161.012H147V161Z" fill="#050505"/>
<path d="M149.574 163.742H150.859C150.872 163.211 150.968 162.737 151.159 162.321C151.337 161.904 151.583 161.574 151.884 161.344C152.185 161.115 152.54 161 152.923 161C153.551 161 154.057 161.273 154.426 161.818C154.809 162.364 155 163.081 155 163.957V164.086C155 164.933 154.809 165.636 154.426 166.182C154.043 166.727 153.551 167 152.923 167C152.335 167 151.843 166.742 151.46 166.239C151.077 165.737 150.872 165.091 150.845 164.287H149.56V166.885H149V161.1H149.56L149.574 163.742ZM151.405 164.086C151.405 164.761 151.542 165.335 151.815 165.78C152.089 166.225 152.458 166.455 152.923 166.455C153.374 166.455 153.743 166.239 154.016 165.794C154.289 165.349 154.426 164.775 154.426 164.057V163.928C154.426 163.254 154.289 162.679 154.002 162.234C153.729 161.789 153.36 161.56 152.909 161.56C152.458 161.56 152.103 161.789 151.815 162.234C151.542 162.679 151.392 163.268 151.392 163.986L151.405 164.086Z" fill="#050505"/>
<path d="M156.392 165.891L156.633 165.555C157.009 165.017 157.235 164.225 157.295 163.203L157.386 161H160.443V165.891H161V168H160.383V166.401H156.602V168H156V165.891H156.392ZM157.084 165.891H159.84V161.564H158.003L157.928 163.23C157.837 164.399 157.551 165.273 157.084 165.891Z" fill="#050505"/>
<path d="M164.049 165.735L165.387 161H166L164.021 167.615L163.909 167.926C163.645 168.647 163.24 169 162.683 169C162.557 169 162.418 168.972 162.265 168.929V168.392C162.348 168.421 162.432 168.435 162.53 168.435C162.78 168.435 162.99 168.364 163.143 168.208C163.296 168.053 163.436 167.813 163.533 167.474L163.77 166.668L162 161H162.627L164.049 165.735Z" fill="#050505"/>
<path d="M174 166H173.369V163.717H170.646V166H170V161H170.646V163.233H173.369V161H174V166Z" fill="#050505"/>
<path d="M178.355 166.885C178.297 166.698 178.267 166.424 178.253 166.079C178.077 166.367 177.842 166.597 177.549 166.755C177.256 166.914 176.949 167 176.612 167C176.099 167 175.703 166.856 175.425 166.583C175.147 166.295 175 165.892 175 165.374C175 164.813 175.19 164.353 175.586 164.022C175.982 163.691 176.524 163.518 177.227 163.518H178.238V162.712C178.238 162.295 178.136 161.993 177.93 161.82C177.725 161.633 177.418 161.547 177.007 161.547C176.626 161.547 176.319 161.647 176.084 161.863C175.85 162.079 175.718 162.353 175.718 162.698H175.117C175.117 162.223 175.293 161.82 175.659 161.489C176.026 161.158 176.48 161 177.037 161C177.637 161 178.077 161.144 178.385 161.446C178.692 161.734 178.839 162.165 178.839 162.727V165.576C178.839 166.137 178.897 166.568 179 166.856V166.914H178.355V166.885ZM176.7 166.41C177.051 166.41 177.374 166.324 177.652 166.137C177.93 165.95 178.121 165.705 178.253 165.403V163.993H177.286C176.729 163.993 176.319 164.122 176.04 164.353C175.762 164.583 175.615 164.899 175.615 165.302C175.615 166.05 175.967 166.41 176.7 166.41Z" fill="#050505"/>
<path d="M183 166V161H184.846C185.476 161 185.96 161.112 186.297 161.335C186.634 161.558 186.81 161.893 186.81 162.328C186.81 162.576 186.736 162.799 186.575 162.998C186.429 163.196 186.194 163.333 185.916 163.419C186.253 163.481 186.516 163.618 186.707 163.841C186.897 164.065 187 164.313 187 164.598C187 165.045 186.839 165.38 186.516 165.615C186.194 165.851 185.755 165.975 185.183 165.988H183V166ZM183.601 163.221H184.89C185.769 163.221 186.223 162.923 186.223 162.34C186.223 161.769 185.799 161.484 184.934 161.471H183.601V163.221ZM183.601 163.692V165.516H185.154C185.564 165.516 185.872 165.442 186.077 165.28C186.297 165.119 186.399 164.896 186.399 164.598C186.399 164.325 186.297 164.102 186.077 163.94C185.857 163.779 185.549 163.692 185.154 163.692H183.601Z" fill="#050505"/>
<path d="M192.355 166.885C192.297 166.698 192.267 166.424 192.253 166.079C192.077 166.367 191.843 166.597 191.549 166.755C191.256 166.914 190.949 167 190.612 167C190.099 167 189.703 166.856 189.425 166.583C189.147 166.295 189 165.892 189 165.374C189 164.813 189.19 164.353 189.586 164.022C189.982 163.691 190.524 163.518 191.227 163.518H192.238V162.712C192.238 162.295 192.136 161.993 191.93 161.82C191.725 161.633 191.418 161.547 191.007 161.547C190.626 161.547 190.319 161.647 190.084 161.863C189.85 162.079 189.718 162.353 189.718 162.698H189.117C189.117 162.223 189.293 161.82 189.659 161.489C190.026 161.158 190.48 161 191.037 161C191.637 161 192.077 161.144 192.385 161.446C192.692 161.734 192.839 162.165 192.839 162.727V165.576C192.839 166.137 192.897 166.568 193 166.856V166.914H192.355V166.885ZM190.685 166.41C191.037 166.41 191.359 166.324 191.637 166.137C191.916 165.95 192.106 165.705 192.238 165.403V163.993H191.271C190.714 163.993 190.304 164.122 190.026 164.353C189.747 164.583 189.601 164.899 189.601 165.302C189.615 166.05 189.967 166.41 190.685 166.41Z" fill="#050505"/>
<path d="M194.609 161V165.516H196.71V161H197.304V165.516H199.406V161H200V166H194V161H194.609Z" fill="#050505"/>
<path d="M203.164 167C202.495 167 201.954 166.77 201.584 166.325C201.199 165.88 201.014 165.249 201 164.416V163.713C201 162.866 201.185 162.191 201.555 161.718C201.925 161.23 202.423 161 203.078 161C203.705 161 204.174 161.201 204.502 161.617C204.829 162.033 205 162.651 205 163.498V164.057H201.584V164.388C201.584 165.048 201.726 165.565 202.011 165.923C202.295 166.282 202.694 166.469 203.206 166.469C203.776 166.469 204.231 166.254 204.587 165.837L204.9 166.239C204.488 166.742 203.918 167 203.164 167ZM203.064 161.56C202.594 161.56 202.238 161.718 201.996 162.048C201.74 162.378 201.612 162.866 201.584 163.498H204.402V163.34C204.374 162.148 203.918 161.56 203.064 161.56Z" fill="#050505"/>
<path d="M209.52 165.233L211.305 161H212V165.988H211.441V161.978L209.725 165.988H209.33L207.559 161.891V166H207V161.012H207.736L209.52 165.233Z" fill="#050505"/>
<path d="M218.115 166.44C218.532 166.44 218.849 166.325 219.065 166.096C219.281 165.866 219.41 165.536 219.424 165.105H220C219.971 165.694 219.784 166.167 219.424 166.498C219.079 166.828 218.633 167 218.101 167C217.41 167 216.892 166.785 216.532 166.34C216.187 165.895 216 165.249 216 164.373V163.67C216 162.78 216.173 162.12 216.532 161.675C216.878 161.23 217.41 161 218.101 161C218.676 161 219.137 161.187 219.468 161.545C219.799 161.904 219.971 162.407 220 163.067H219.424C219.41 162.593 219.281 162.22 219.065 161.962C218.835 161.703 218.518 161.574 218.115 161.574C217.597 161.574 217.223 161.746 216.978 162.091C216.734 162.435 216.619 162.967 216.619 163.684V164.344C216.619 165.091 216.734 165.622 216.978 165.967C217.223 166.282 217.597 166.44 218.115 166.44Z" fill="#050505"/>
<path d="M225 161.484H223.271V166H222.686V161.484H221V161H225V161.484Z" fill="#050505"/>
<path d="M226 163.706C226 162.876 226.176 162.217 226.529 161.73C226.881 161.243 227.369 161 227.993 161C228.617 161 229.105 161.243 229.458 161.716C229.81 162.189 229.986 162.847 230 163.692V164.308C230 165.153 229.824 165.811 229.458 166.284C229.105 166.757 228.617 167 228.007 167C227.397 167 226.908 166.771 226.556 166.313C226.203 165.854 226.014 165.21 226 164.408V163.706ZM226.556 164.294C226.556 164.952 226.678 165.482 226.936 165.854C227.193 166.241 227.546 166.427 227.993 166.427C228.454 166.427 228.807 166.241 229.051 165.883C229.295 165.525 229.417 164.995 229.417 164.308V163.692C229.417 163.033 229.295 162.504 229.037 162.117C228.78 161.73 228.427 161.544 227.98 161.544C227.546 161.544 227.193 161.73 226.949 162.103C226.705 162.475 226.556 162.99 226.556 163.649V164.294Z" fill="#050505"/>
<path d="M235 161V165.988H234.45V161.483H232.651L232.57 163.339C232.53 164.317 232.409 164.998 232.208 165.394C232.007 165.777 231.698 165.988 231.255 166H231V165.493H231.161C231.443 165.48 231.658 165.332 231.765 165.035C231.886 164.738 231.966 164.218 232.007 163.463L232.101 161.012H235V161Z" fill="#050505"/>
<path d="M239.164 167C238.495 167 237.954 166.77 237.584 166.325C237.199 165.88 237.014 165.249 237 164.416V163.713C237 162.866 237.185 162.191 237.555 161.718C237.925 161.23 238.423 161 239.078 161C239.705 161 240.174 161.201 240.502 161.617C240.829 162.033 241 162.651 241 163.498V164.057H237.584V164.388C237.584 165.048 237.726 165.565 238.011 165.923C238.295 166.282 238.694 166.469 239.206 166.469C239.776 166.469 240.231 166.254 240.587 165.837L240.9 166.239C240.502 166.742 239.932 167 239.164 167ZM239.064 161.56C238.594 161.56 238.238 161.718 237.996 162.048C237.74 162.378 237.612 162.866 237.584 163.498H240.402V163.34C240.374 162.148 239.932 161.56 239.064 161.56Z" fill="#050505"/>
<path d="M242 166.508C242 166.365 242.048 166.254 242.127 166.143C242.222 166.048 242.333 166 242.492 166C242.651 166 242.778 166.048 242.857 166.143C242.952 166.238 243 166.365 243 166.508C243 166.651 242.952 166.762 242.857 166.857C242.762 166.952 242.635 167 242.492 167C242.333 167 242.206 166.952 242.127 166.857C242.032 166.762 242 166.651 242 166.508Z" fill="#050505"/>
</svg>
