<svg width="182" height="123" viewBox="0 0 182 123" fill="none" xmlns="http://www.w3.org/2000/svg">
<path d="M149.036 46.6463C146.855 45.7794 144.983 46.2195 144.35 46.553C144.242 46.6063 144.242 46.7664 144.35 46.8331C145.01 47.1665 146.774 48.3536 146.37 51.4746C146.168 53.0218 144.902 55.4893 141.131 57.1432C139.932 57.6234 138.667 57.8235 137.374 57.5567C134.209 56.9298 134.128 52.1682 134.128 50.6877C134.128 44.4189 138.855 32.8683 140.283 31.4412C140.525 31.2011 140.767 31.3211 140.767 30.961C140.767 30.1341 138.438 28.3601 135.152 28.3601C133.603 28.3601 131.085 33.7486 129.469 39.4306C126.964 43.9921 123.018 52.2216 121.335 52.2216C121.092 52.2216 120.621 52.1682 120.621 50.6877C120.621 44.4189 125.28 32.8683 126.721 31.4412C127.018 31.2011 127.206 31.3211 127.206 30.961C127.206 30.1341 124.876 28.3601 121.59 28.3601C119.907 28.3601 117.187 34.6423 115.571 40.7643C114.911 41.5646 113.901 42.6183 112.5 43.3919C112.985 41.3245 113.631 38.5369 113.631 35.816C113.631 31.6679 111.423 28 105.915 28C98.0905 28 93 38.9504 93 48.0068C93 53.7554 96.2321 56.8231 100.528 56.8231C105.551 56.8231 108.783 52.5017 111.234 47.1132C112.662 46.5396 113.78 45.726 114.641 44.8591C114.372 46.3796 114.224 47.7801 114.224 48.9538C114.224 54.2222 116.729 56.6497 120.028 56.6497C122.654 56.6497 125.469 52.6884 127.745 48.2469V48.9538C127.745 50.2876 127.906 51.4346 128.203 52.4083C129.065 55.2893 131.516 60.5844 137.724 60.9845C138.384 61.0246 139.03 60.9846 139.663 60.8912C144.767 60.371 150.975 56.5831 151.945 52.0215C151.999 51.7814 151.999 51.5547 151.999 51.3279C152.039 49.1138 150.948 47.4066 149.036 46.6463ZM106.386 44.4056H105.309C103.221 44.4056 102.494 48.1402 104.837 48.1402C103.518 50.8611 101.902 52.8751 100.528 52.8751C96.1647 52.8751 103.572 31.6813 107.706 31.6813C109.672 31.6679 108.245 39.1371 106.386 44.4056Z" fill="#1B8E23"/>
<path d="M86.3644 27.5253C81.6854 27.5253 76.7926 40.8328 76.3515 42.1983V42.1849C77.0199 39.6546 78.0091 36.6424 79.1722 33.5632C79.6133 32.3985 80.0679 31.2471 80.4956 30.1761C81.1507 28.5695 81.8325 26.9898 82.5276 25.477C82.5945 25.3431 82.6613 25.1958 82.7282 25.0352C83.1961 24.0177 83.664 23.0404 84.1318 22.1032C85.2682 19.8943 86.5649 17.7522 87.6878 15.8779C91.8187 9.00998 96.8184 3.66825 99.6124 3.66825C100.869 3.66825 100.695 4.69911 100.628 5.16769C100.388 7.1223 99.6659 9.66599 98.5429 12.2364C95.3479 13.7091 92.7946 15.4227 90.8428 17.0293C87.6344 19.6667 86.8991 21.1259 86.605 22.197C86.3777 23.027 86.752 24.098 87.4739 24.6335C87.8616 24.9147 88.3563 25.0753 88.9445 25.0753C90.3615 25.0753 92.3133 24.1917 94.5592 22.0631C97.8077 19.5462 100.401 16.1992 102.112 12.9862C102.206 12.9594 102.299 12.9192 102.38 12.8924C122.325 6.37259 127.713 17.953 127.967 18.4752C128.809 20.1352 129.397 21.8221 129.584 23.3885C129.651 23.8972 129.651 24.3256 129.611 24.7139C129.558 25.7581 129.25 26.9228 128.662 27.9939C129.985 28.7302 135.533 24.5264 134.958 19.6265C134.704 17.3774 131.189 5.08736 109.05 9.14386C106.978 9.47856 105.053 9.92035 103.289 10.4693C103.997 8.6619 104.385 6.98843 104.398 5.62287C104.425 1.37894 101.23 0 99.452 0C91.0433 0 79.8807 12.4239 74.5066 25.9322C74.1457 26.7354 73.7714 27.7395 73.4906 28.5026C73.4372 28.6365 73.397 28.7838 73.3436 28.9176C72.2073 32.1709 70.7768 37.7268 69.9614 42.2519C66.6327 47.4597 60.8174 53.9394 55.7642 53.9394C52.8632 53.9394 50.9649 51.4627 50.8713 47.8747C50.4837 33.4695 63.2371 14.9408 70.1352 14.9408C70.8303 14.9408 71.1645 15.3558 71.0308 16.1189C70.2688 22.612 63.4911 28.342 64.5873 28.342C65.0686 28.342 75.5761 25.7849 75.5761 17.297C75.5761 14.258 73.7847 8.46108 67.1005 8.46108C55.4433 8.46108 44 29.0381 44 44.4341C44 53.0692 47.8635 59 54.3471 59C60.1356 59 65.3092 54.5553 68.9053 49.6955C68.8518 50.405 68.8117 51.0878 68.8117 51.7037C68.8117 55.0372 72.1404 57.1659 73.143 56.1618C73.3837 55.9208 73.504 55.2648 73.9184 54.3812C75.1617 55.6263 76.6456 56.3358 79.1989 56.3358C87.9151 56.3358 92.1395 41.9573 92.1395 35.3036C92.1261 29.9619 89.6396 27.5253 86.3644 27.5253ZM88.6905 23.0136C88.637 22.9734 88.5702 22.7994 88.5568 22.7592C88.6771 22.3308 88.9979 21.2063 92.1395 18.609C93.463 17.5112 95.0939 16.3599 97.0323 15.2889C95.0939 18.6626 92.4603 21.6748 89.292 23.0136C88.9712 23.0672 88.7573 23.0404 88.6905 23.0136ZM76.5252 52.9621C75.7499 52.9621 75.4023 51.8911 75.282 50.5791C77.06 46.0674 82.5811 31.9834 85.0676 31.9834C85.6558 31.9834 85.7762 33.108 85.7762 34.0585C85.7762 39.8822 80.255 53.0826 76.5252 52.9621Z" fill="#1B8E23"/>
<path d="M55.3516 67C52.3966 67 49.6639 72.2571 48.4479 74.6813C46.8789 77.5823 45.3099 81.5183 43.924 85.0184C46.5913 77.5278 49.2063 70.9905 49.2063 70.1461C49.2063 67.9125 45.0876 67.0681 43.8063 67.0681C42.5249 67.0681 42.2373 67.5584 42.2373 68.8795C42.2373 71.7804 34 95.3556 34 105.27C34 108.662 37.661 111.018 37.9487 109.561C38.4717 107.082 39.9753 100.79 42.3027 94.0209C43.5186 95.7778 45.3753 96.2544 48.3433 96.2544C56.8683 96.2544 61 81.6272 61 74.8584C60.9869 69.4787 58.5419 67 55.3516 67ZM45.7153 92.8768C44.7346 92.8768 43.6886 91.9643 43.6886 90.2211C45.9506 84.1196 52.1613 71.5353 54.0702 71.5353C54.6455 71.5353 54.7632 72.6793 54.7632 73.6463C54.7763 79.5707 49.3763 92.9858 45.7153 92.8768Z" fill="#1B8E23"/>
<path d="M181.495 74.2412C181.292 73.9227 180.793 73.4797 180.375 73.9089C180.226 79.6132 175.22 87.5882 170.024 91.5757L170.011 91.5896L169.997 91.6034C167.838 93.1956 165.908 93.9017 164.195 93.3202C162.521 92.7526 162.467 90.0389 162.575 88.4605C163.344 81.7593 167.312 71.9013 168.607 70.5721C168.85 70.3229 169.093 70.4475 169.093 70.0737C169.093 69.2153 166.759 67.3738 163.466 67.3738C161.914 67.3738 159.391 72.9674 157.771 78.8656C155.261 83.6007 151.307 92.1434 149.62 92.1434C149.378 92.1434 148.905 92.088 148.905 90.5511C148.905 84.0438 153.574 72.0536 155.018 70.5721C155.315 70.3229 155.504 70.4475 155.504 70.0737C155.504 69.2153 153.169 67.3738 149.877 67.3738C148.352 67.3738 145.977 72.7043 144.344 78.4225C141.875 83.0469 137.745 92.1295 135.991 92.1295C135.748 92.1295 135.276 92.1295 135.276 90.5373C135.276 84.0299 139.945 74.1304 141.389 72.6489C141.632 72.3443 141.875 72.5243 141.875 72.1505C141.875 71.2229 139.54 69.4506 136.247 69.4506C135.761 69.4506 135.235 69.8799 134.628 70.6829C133.373 68.343 131.457 67 127.921 67C119.581 67 115.331 80.347 114.899 87.6021C113.401 90.4404 111.997 92.6695 111.161 92.6695C110.931 92.6695 110.459 92.6003 110.459 91.0357C110.459 84.3761 115.047 72.1367 116.451 70.6275C116.748 70.3783 116.923 70.5029 116.923 70.1291C116.923 69.2568 114.629 67.3738 111.404 67.3738C109.744 67.3738 107.058 74.0889 105.466 80.6101L101.998 80.5409C103.212 75.7365 104.427 71.5967 104.427 70.7244C104.427 68.4399 101.013 67.5677 99.9603 67.5677C98.9077 67.5677 98.6648 68.0661 98.6648 69.423C98.6648 70.946 97.5583 75.5842 96.4787 80.4163L93.6043 80.347C93.9282 78.561 94.1036 76.8995 94.1036 75.5565C94.1036 70.0875 91.5936 67.5677 88.2875 67.5677C85.5886 67.5677 83.0921 71.7213 81.6616 74.3935C81.0679 70.4337 79.1111 67 74.4015 67C67.4518 67 62 78.3671 62 87.7682C62 93.7356 65.1712 97.0447 69.368 97.0447C73.4434 97.0447 77.5188 92.4341 79.9748 86.8406C80.5551 85.4422 80.7575 84.8468 81.2298 82.9638C81.4862 81.8839 81.6886 80.5962 81.7966 79.2394C83.9152 75.3073 85.9934 72.1644 86.965 72.1644C87.5588 72.1644 87.6802 73.3274 87.6802 74.3104C87.6802 79.7655 85.0083 91.3403 80.0288 93.6941C78.207 94.414 76.952 93.8048 76.925 93.8048C76.7631 93.6802 76.6821 93.6387 76.5607 93.7633C76.3582 93.971 76.5742 95.7017 78.126 96.7539C79.3945 97.6123 81.999 97.2662 82.4173 97.1693V97.1554C87.3428 96.2416 90.676 90.5511 92.4843 84.8191H95.5341C94.9268 87.8097 94.4815 90.5373 94.4815 92.2126C94.4815 95.674 98.233 97.8339 99.0562 96.7816C99.1101 96.7124 99.1776 96.6016 99.2451 96.477C99.6499 94.054 100.109 89.3189 100.122 89.2497C100.109 89.1389 100.149 89.0004 100.149 88.8897C100.379 87.5744 100.662 86.1898 100.972 84.8053H104.602C104.333 86.439 104.184 87.9343 104.184 89.1943C104.184 94.7879 106.654 97.3493 109.879 97.3493C111.701 97.3493 113.603 95.2586 115.358 92.3926C116.235 95.3417 118.245 96.7262 120.688 96.7262C123.387 96.7262 126.504 92.0603 128.96 86.9513C128.906 87.5605 128.906 88.1836 128.906 88.7374C128.906 94.2063 131.416 96.7262 134.722 96.7262C137.421 96.7262 140.35 92.4618 142.59 87.782C142.576 88.1143 142.563 88.4328 142.563 88.7374C142.563 94.2063 145.073 96.7262 148.379 96.7262C150.754 96.7262 153.277 93.3756 155.423 89.3466C155.504 90.8834 155.909 93.3202 157.488 95.1063C158.851 96.8924 160.834 98 163.223 98C171.09 98 178.081 88.1005 181.454 79.4055C181.994 77.5364 182.331 75.5427 181.495 74.2412ZM75.0628 83.8915C75.0493 83.933 75.0358 83.9884 75.0223 84.0299C75.0223 84.0299 74.388 86.0237 73.4704 87.9067C73.4434 87.9482 73.4299 87.9897 73.4029 88.0451C72.094 90.8004 70.5691 92.8356 69.2061 92.8356C64.591 92.8356 71.7161 71.7628 75.859 71.7628C77.8157 71.7351 76.8845 78.4502 75.0628 83.8915ZM121.956 92.1434C121.363 92.1434 121.241 90.9803 121.241 89.9973C121.241 83.9745 126.815 70.3368 130.58 70.4614C131.538 70.4614 132.617 72.1782 132.739 73.8397C129.5 79.8486 123.819 92.1434 121.956 92.1434Z" fill="#1B8E23"/>
<path d="M40.3375 67.253C41.1497 64.642 41.8129 62.9462 41.9077 62.852C42.6251 62.2598 39.0245 58.9623 35.8435 58.9623C35.6676 58.9623 35.3021 59.6756 34.7606 60.8735C34.5576 61.2773 33.6778 62.9327 32.5272 65.3419C27.5188 76.0821 20.3041 90.9812 18.5986 90.9812C17.8812 90.9812 17.6916 89.4334 17.6916 88.7739C17.6916 81.0081 26.2871 65.2342 26.2871 59.3257C26.2871 55.9206 24.1213 53 20.3989 53C14.8761 53 3.87132 58.9758 2.85611 67.3338C2.26053 72.6501 7.90507 76.6474 9.21807 75.5168C10.0573 74.7362 7.71556 75.1534 8.20286 71.035C9.28575 61.7752 19.0723 55.9744 19.9251 56.93C21.3735 58.5989 11.0996 79.218 10.9778 88.3567C10.9236 92.5962 13.3872 95.5303 16.8659 95.5303C20.3447 95.5303 23.5934 89.4334 28.6423 78.3836C27.0721 83.5922 25.1365 89.5814 23.0925 94.6689C23.0113 94.8843 22.9166 95.0996 22.8354 95.3015C8.09457 99.0296 0 111.641 0 117.347C0 121.614 3.20805 123 5.00835 123C13.4278 123 24.568 110.779 30.0772 97.3742C30.1313 97.253 30.1854 97.1184 30.2396 96.9838C30.2531 96.9569 30.2531 96.9435 30.2667 96.9165C31.3495 96.7954 32.3783 96.7416 33.407 96.7416C34.2463 96.7416 33.7725 93.498 31.2954 94.3324C31.8504 92.7981 32.3512 91.21 32.7844 89.6218L32.7167 89.6487C33.38 87.4414 33.8808 85.638 33.9891 85.3015C36.006 78.9489 38.3612 72.4482 40.3375 67.253ZM5.53626 118.424C4.26386 118.424 4.20972 117.522 4.20972 117.038C4.20972 113.431 11.5869 102.502 20.8185 99.6756C15.6342 110.564 9.28575 118.424 5.53626 118.424Z" fill="#1B8E23"/>
<path d="M49.8786 107.795C49.9483 107.865 50.0318 107.936 50.1154 108.02C50.2129 108.105 50.2965 108.189 50.3801 108.274C50.4637 108.359 50.5473 108.429 50.6169 108.486C50.6866 108.556 50.7284 108.598 50.7562 108.612C50.8816 108.725 50.9512 108.838 50.9791 108.965C51.007 109.092 51.007 109.205 50.9791 109.303C50.9512 109.402 50.9234 109.501 50.8677 109.571C50.8259 109.656 50.7841 109.698 50.7701 109.727C50.7144 109.797 50.6448 109.853 50.5473 109.896C50.4497 109.938 50.3522 109.98 50.2547 109.994C50.1433 110.009 50.0458 109.994 49.9343 109.966C49.8229 109.938 49.7114 109.868 49.6139 109.769C49.5721 109.727 49.5164 109.67 49.4468 109.586C49.3771 109.515 49.2935 109.43 49.2239 109.346C49.1403 109.261 49.0706 109.177 48.9871 109.092C48.9035 109.007 48.8338 108.923 48.7642 108.852L47.4965 107.555L46.2149 108.866C46.1453 108.937 46.0756 109.021 45.992 109.106C45.9085 109.191 45.8388 109.275 45.7692 109.346C45.6995 109.43 45.6299 109.501 45.5741 109.557C45.5184 109.628 45.4627 109.67 45.4209 109.712C45.3652 109.783 45.2816 109.839 45.198 109.882C45.1005 109.938 45.003 109.966 44.9055 109.98C44.794 109.994 44.6965 109.98 44.5851 109.952C44.4736 109.924 44.3622 109.853 44.2647 109.755C44.195 109.698 44.1393 109.614 44.0975 109.515C44.0557 109.416 44.0279 109.318 44.0139 109.219C44 109.106 44.0139 109.007 44.0557 108.895C44.0975 108.782 44.1672 108.683 44.2647 108.598C44.2925 108.556 44.3483 108.514 44.4179 108.443C44.4876 108.373 44.5572 108.302 44.6408 108.218C44.7244 108.133 44.808 108.063 44.8915 107.978C44.9751 107.893 45.0587 107.823 45.1423 107.752L46.4517 106.497L45.0726 105.186C45.003 105.115 44.9194 105.045 44.8358 104.96C44.7522 104.876 44.6687 104.805 44.5851 104.72C44.5015 104.65 44.4179 104.565 44.3065 104.467C44.209 104.368 44.1393 104.269 44.0836 104.156C44.0279 104.044 44.0139 103.931 44 103.832C44 103.719 44.0139 103.62 44.0557 103.522C44.0975 103.423 44.1532 103.338 44.2229 103.254C44.2925 103.183 44.3761 103.127 44.4736 103.071C44.5711 103.028 44.6687 103 44.7801 103C44.8915 103 45.003 103.028 45.1284 103.085C45.2537 103.141 45.3791 103.24 45.5045 103.381C45.5463 103.437 45.602 103.494 45.6577 103.55C45.6995 103.606 45.7552 103.663 45.8109 103.719C45.8667 103.79 45.9224 103.846 45.992 103.917L47.4826 105.468L49.6 103.254C49.6418 103.212 49.6975 103.169 49.7811 103.113C49.8647 103.071 49.9483 103.028 50.0597 103.014C50.1572 103 50.2687 103 50.394 103.042C50.5055 103.071 50.6308 103.141 50.7423 103.254C50.8119 103.324 50.8677 103.395 50.9095 103.494C50.9512 103.578 50.9791 103.677 50.993 103.79C51.007 103.888 50.9791 104.001 50.9512 104.1C50.9095 104.213 50.8537 104.311 50.7701 104.396C50.7284 104.438 50.6726 104.495 50.603 104.565C50.5333 104.636 50.4497 104.706 50.3662 104.791C50.2826 104.876 50.1851 104.946 50.1015 105.031C50.004 105.115 49.9343 105.186 49.8507 105.256L48.5413 106.511L49.8786 107.795Z" fill="#1B8E23"/>
<path d="M52 106.493C52 106.014 52.0984 105.563 52.2811 105.141C52.4639 104.718 52.7169 104.352 53.0402 104.028C53.3634 103.718 53.7289 103.465 54.1506 103.282C54.5723 103.099 55.0221 103 55.5 103C55.9779 103 56.4277 103.099 56.8494 103.282C57.2711 103.465 57.6365 103.718 57.9598 104.028C58.2831 104.338 58.5361 104.718 58.7189 105.141C58.9016 105.563 59 106.014 59 106.493C59 106.972 58.9016 107.423 58.7189 107.859C58.5361 108.282 58.2831 108.662 57.9598 108.972C57.6365 109.282 57.2711 109.535 56.8494 109.718C56.4277 109.901 55.9779 110 55.5 110C55.0221 110 54.5723 109.901 54.1506 109.718C53.7289 109.535 53.3634 109.282 53.0402 108.972C52.7169 108.662 52.4779 108.282 52.2811 107.859C52.0843 107.437 52 106.972 52 106.493ZM53.6867 106.493C53.6867 106.746 53.7289 107 53.8273 107.225C53.9257 107.451 54.0522 107.648 54.2068 107.831C54.3755 108 54.5582 108.141 54.7831 108.239C55.008 108.338 55.247 108.394 55.5 108.394C55.753 108.394 55.992 108.338 56.2169 108.239C56.4418 108.141 56.6245 108 56.7932 107.831C56.9618 107.662 57.0884 107.465 57.1727 107.225C57.2711 107 57.3133 106.746 57.3133 106.493C57.3133 106.239 57.2711 106 57.1727 105.761C57.0743 105.535 56.9478 105.338 56.7932 105.155C56.6245 104.986 56.4418 104.845 56.2169 104.746C55.992 104.648 55.7671 104.592 55.5 104.592C55.247 104.592 55.008 104.648 54.7831 104.746C54.5582 104.845 54.3755 104.986 54.2068 105.155C54.0381 105.324 53.9116 105.521 53.8273 105.761C53.7289 105.986 53.6867 106.239 53.6867 106.493Z" fill="#1B8E23"/>
<path d="M61.0141 103.44C61.0141 103.151 61.1687 103 61.4639 103C61.6325 103 61.7871 103.069 61.9137 103.192C62.0402 103.316 62.1386 103.522 62.1948 103.811L62.504 104.718L62.6867 104.814V111.176C62.6867 111.285 62.6586 111.395 62.6165 111.492C62.5743 111.588 62.5181 111.67 62.4337 111.753C62.3635 111.821 62.2651 111.89 62.1667 111.931C62.0683 111.973 61.9558 112 61.8434 112C61.6044 112 61.4076 111.918 61.239 111.766C61.0843 111.615 61 111.423 61 111.176L61.0141 103.44ZM61.4779 106.408C61.4779 105.94 61.5482 105.501 61.7028 105.089C61.8574 104.676 62.0683 104.319 62.3494 104.003C62.6305 103.701 62.9679 103.453 63.3474 103.275C63.741 103.096 64.1767 103 64.6546 103C65.1325 103 65.5823 103.096 65.99 103.275C66.3976 103.453 66.749 103.701 67.0442 104.003C67.3394 104.305 67.5783 104.676 67.747 105.089C67.9157 105.501 68 105.94 68 106.408C68 106.875 67.9157 107.315 67.747 107.74C67.5783 108.153 67.3394 108.524 67.0442 108.826C66.749 109.128 66.3976 109.376 65.99 109.554C65.5823 109.733 65.1325 109.829 64.6546 109.829C64.2329 109.829 63.8253 109.733 63.4458 109.554C63.0663 109.376 62.7289 109.128 62.4337 108.826C62.1386 108.524 61.9137 108.153 61.7309 107.74C61.5623 107.315 61.4779 106.875 61.4779 106.408ZM62.7008 106.408C62.7008 106.655 62.743 106.902 62.8414 107.122C62.9398 107.342 63.0663 107.534 63.2209 107.713C63.3896 107.878 63.5723 108.015 63.7972 108.111C64.0221 108.208 64.261 108.263 64.5141 108.263C64.7671 108.263 65.006 108.208 65.2309 108.111C65.4558 108.015 65.6386 107.878 65.8072 107.713C65.9759 107.548 66.1024 107.356 66.1867 107.122C66.2851 106.902 66.3273 106.655 66.3273 106.408C66.3273 106.16 66.2851 105.927 66.1867 105.693C66.0883 105.473 65.9619 105.281 65.8072 105.102C65.6386 104.937 65.4558 104.8 65.2309 104.704C65.006 104.608 64.7811 104.553 64.5141 104.553C64.261 104.553 64.0221 104.608 63.7972 104.704C63.5723 104.8 63.3896 104.937 63.2209 105.102C63.0522 105.267 62.9257 105.46 62.8414 105.693C62.743 105.913 62.7008 106.16 62.7008 106.408Z" fill="#1B8E23"/>
<path d="M69 106.493C69 106.014 69.0984 105.563 69.2811 105.141C69.4639 104.718 69.7169 104.352 70.0402 104.028C70.3634 103.718 70.7289 103.465 71.1506 103.282C71.5723 103.099 72.0221 103 72.5 103C72.9779 103 73.4277 103.099 73.8494 103.282C74.2711 103.465 74.6365 103.718 74.9598 104.028C75.2831 104.338 75.5361 104.718 75.7189 105.141C75.9016 105.563 76 106.014 76 106.493C76 106.972 75.9016 107.423 75.7189 107.859C75.5361 108.282 75.2831 108.662 74.9598 108.972C74.6365 109.282 74.2711 109.535 73.8494 109.718C73.4277 109.901 72.9779 110 72.5 110C72.0221 110 71.5723 109.901 71.1506 109.718C70.7289 109.535 70.3634 109.282 70.0402 108.972C69.7169 108.662 69.4779 108.282 69.2811 107.859C69.0843 107.437 69 106.972 69 106.493ZM70.6867 106.493C70.6867 106.746 70.7289 107 70.8273 107.225C70.9257 107.451 71.0522 107.648 71.2068 107.831C71.3755 108 71.5582 108.141 71.7831 108.239C72.008 108.338 72.247 108.394 72.5 108.394C72.753 108.394 72.992 108.338 73.2169 108.239C73.4418 108.141 73.6245 108 73.7932 107.831C73.9618 107.662 74.0884 107.465 74.1727 107.225C74.2711 107 74.3133 106.746 74.3133 106.493C74.3133 106.239 74.2711 106 74.1727 105.761C74.0743 105.535 73.9478 105.338 73.7932 105.155C73.6245 104.986 73.4418 104.845 73.2169 104.746C72.992 104.648 72.7671 104.592 72.5 104.592C72.247 104.592 72.008 104.648 71.7831 104.746C71.5582 104.845 71.3755 104.986 71.2068 105.155C71.0382 105.324 70.9116 105.521 70.8273 105.761C70.7289 105.986 70.6867 106.239 70.6867 106.493Z" fill="#1B8E23"/>
<path d="M85.081 109.986H81.6094H81.5656H81.5219H77.9336H77.8898H77.846C77.7877 109.986 77.7439 109.986 77.6856 109.971C77.6272 109.957 77.5835 109.943 77.5397 109.928C77.4084 109.871 77.2917 109.784 77.1896 109.669C77.1021 109.554 77.0438 109.411 77.0146 109.253C77.0146 109.238 77 109.209 77 109.166V109.138V103.862C77 103.747 77.0292 103.632 77.0729 103.532C77.1167 103.431 77.175 103.345 77.248 103.259C77.3209 103.187 77.4084 103.115 77.5251 103.072C77.6272 103.029 77.7439 103 77.8606 103C77.9773 103 78.094 103.029 78.1961 103.072C78.2982 103.115 78.3857 103.172 78.4733 103.259C78.5462 103.331 78.6191 103.431 78.6629 103.532C78.7066 103.632 78.7358 103.747 78.7358 103.862V108.29L80.6759 108.304V104.38V103.862C80.6759 103.747 80.705 103.632 80.7488 103.532C80.7925 103.431 80.8509 103.345 80.9238 103.259C80.9968 103.187 81.0843 103.115 81.201 103.072C81.3031 103.029 81.4198 103 81.5365 103C81.6532 103 81.7699 103.029 81.872 103.072C81.9741 103.115 82.0616 103.172 82.1491 103.259C82.222 103.331 82.295 103.431 82.3387 103.532C82.3825 103.632 82.4117 103.747 82.4117 103.862V108.29H84.2642V103.862C84.2642 103.747 84.2934 103.632 84.3371 103.532C84.3809 103.431 84.4392 103.345 84.5122 103.259C84.5851 103.187 84.6726 103.115 84.7893 103.072C84.8914 103.029 85.0081 103 85.1248 103C85.2415 103 85.3582 103.029 85.4603 103.072C85.5624 103.115 85.6499 103.172 85.7374 103.259C85.8104 103.331 85.8833 103.431 85.9271 103.532C85.9708 103.632 86 103.747 86 103.862V109.109V109.152C86 109.267 85.9708 109.382 85.9271 109.483C85.8833 109.583 85.825 109.669 85.7374 109.756C85.6645 109.828 85.5624 109.885 85.4603 109.928C85.3582 109.971 85.2415 110 85.1248 110H85.081V109.986Z" fill="#1B8E23"/>
<path d="M93.552 106.486C93.552 106.964 93.482 107.414 93.342 107.849C93.202 108.271 93.006 108.651 92.74 108.96C92.474 109.269 92.152 109.522 91.774 109.705C91.396 109.888 90.962 109.986 90.486 109.986C90.01 109.986 89.562 109.888 89.142 109.705C88.722 109.522 88.358 109.269 88.036 108.96C87.714 108.651 87.476 108.271 87.28 107.849C87.098 107.428 87 106.978 87 106.486C87 105.994 87.098 105.558 87.28 105.137C87.462 104.715 87.714 104.349 88.036 104.026C88.358 103.717 88.722 103.464 89.142 103.281C89.562 103.098 90.01 103 90.486 103C90.962 103 91.396 103.098 91.774 103.281C92.152 103.464 92.474 103.717 92.74 104.026C93.006 104.335 93.202 104.715 93.342 105.137C93.482 105.558 93.552 106.008 93.552 106.486ZM92.306 106.486C92.306 106.233 92.264 105.994 92.166 105.755C92.068 105.53 91.942 105.333 91.788 105.151C91.62 104.982 91.438 104.841 91.214 104.743C90.99 104.645 90.766 104.588 90.5 104.588C90.248 104.588 90.01 104.645 89.786 104.743C89.562 104.841 89.38 104.982 89.212 105.151C89.044 105.319 88.918 105.516 88.834 105.755C88.736 105.98 88.694 106.219 88.694 106.486C88.694 106.739 88.736 106.992 88.834 107.217C88.932 107.442 89.058 107.639 89.212 107.821C89.366 108.004 89.562 108.131 89.786 108.229C90.01 108.327 90.248 108.384 90.5 108.384C90.752 108.384 90.99 108.327 91.214 108.229C91.438 108.131 91.62 107.99 91.788 107.821C91.956 107.653 92.082 107.456 92.166 107.217C92.25 106.992 92.306 106.753 92.306 106.486ZM93.986 106.711C93.986 106.823 93.958 106.936 93.916 107.034C93.874 107.133 93.818 107.231 93.734 107.301C93.664 107.371 93.566 107.442 93.468 107.484C93.37 107.526 93.258 107.554 93.146 107.554C93.034 107.554 92.922 107.526 92.824 107.484C92.726 107.442 92.628 107.386 92.558 107.301C92.488 107.231 92.418 107.133 92.376 107.034C92.334 106.936 92.306 106.823 92.306 106.711V104.855L92.488 104.757L92.796 103.829C92.852 103.534 92.95 103.323 93.076 103.197C93.202 103.07 93.356 103.014 93.524 103.014C93.818 103.014 93.972 103.169 93.972 103.464V106.711H93.986ZM93.986 109.494C93.986 109.649 93.944 109.761 93.86 109.859C93.776 109.944 93.664 110 93.496 110C93.328 110 93.174 109.944 93.062 109.845C92.936 109.747 92.852 109.564 92.81 109.311L92.502 108.229L92.32 108.131V106.5C92.32 106.388 92.348 106.275 92.39 106.177C92.432 106.078 92.488 105.994 92.572 105.91C92.642 105.839 92.74 105.769 92.838 105.727C92.936 105.685 93.048 105.657 93.16 105.657C93.272 105.657 93.384 105.685 93.482 105.727C93.58 105.769 93.664 105.825 93.748 105.91C93.818 105.98 93.888 106.078 93.93 106.177C93.972 106.275 94 106.388 94 106.5V109.494H93.986Z" fill="#1B8E23"/>
<path d="M96 105.642C96 105.269 96.0667 104.924 96.2133 104.594C96.3467 104.278 96.5333 103.991 96.7733 103.761C97.0133 103.531 97.28 103.345 97.6 103.201C97.9067 103.072 98.24 103 98.5867 103H100.507C100.627 103 100.72 103.029 100.787 103.072C100.853 103.115 100.907 103.187 100.933 103.258C100.96 103.33 100.987 103.402 100.987 103.488C101 103.574 101 103.646 101 103.718V109.203C101 109.289 100.987 109.375 100.947 109.476C100.92 109.576 100.867 109.663 100.8 109.734C100.733 109.806 100.653 109.878 100.56 109.921C100.467 109.978 100.36 109.993 100.227 109.993C100.093 109.993 99.9867 109.964 99.88 109.921C99.7733 109.864 99.6933 109.806 99.6267 109.734C99.56 109.663 99.5067 109.576 99.4667 109.476C99.4267 109.375 99.4133 109.289 99.4133 109.203V108.184H98.56C98.2133 108.184 97.8933 108.126 97.5733 107.997C97.2667 107.868 96.9867 107.695 96.7467 107.466C96.5067 107.236 96.32 106.977 96.1867 106.662C96.08 106.346 96 106.015 96 105.642ZM98.52 107.896L97.44 109.677C97.3067 109.864 97.1333 109.964 96.9333 109.993C96.7333 110.021 96.5333 109.964 96.36 109.835C96.1867 109.677 96.0933 109.49 96.0667 109.275C96.04 109.059 96.0933 108.858 96.2267 108.672L97.2667 106.977L98.52 107.896ZM97.5467 105.656C97.5467 105.829 97.5733 106.001 97.64 106.145C97.7067 106.288 97.7867 106.417 97.8933 106.518C98 106.618 98.1333 106.705 98.28 106.748C98.4267 106.805 98.5867 106.834 98.7467 106.834L99.4267 106.848V104.393L98.7467 104.407C98.5867 104.407 98.4267 104.436 98.28 104.508C98.1333 104.579 98.0133 104.666 97.8933 104.78C97.7867 104.895 97.6933 105.025 97.64 105.183C97.5867 105.326 97.5467 105.484 97.5467 105.656Z" fill="#1B8E23"/>
<path d="M107 105.179V103.849C107 103.736 107.028 103.623 107.069 103.523C107.111 103.424 107.167 103.34 107.236 103.255C107.306 103.184 107.389 103.113 107.5 103.071C107.597 103.028 107.708 103 107.819 103C107.931 103 108.042 103.028 108.139 103.071C108.236 103.113 108.333 103.17 108.403 103.255C108.472 103.325 108.542 103.424 108.583 103.523C108.625 103.623 108.653 103.736 108.653 103.849V105.179H107ZM108.639 104.853V107.146V109.041C108.639 109.169 108.611 109.296 108.569 109.409C108.528 109.522 108.458 109.622 108.389 109.706C108.306 109.791 108.222 109.848 108.125 109.905C108.028 109.947 107.917 109.975 107.792 109.975C107.542 109.975 107.347 109.89 107.208 109.706C107.069 109.537 107 109.31 107 109.041V104.528L108.639 104.853ZM112.292 103.028C112.444 103.042 112.583 103.085 112.694 103.17C112.806 103.255 112.875 103.354 112.931 103.467C112.986 103.58 113 103.707 113 103.835C113 103.962 112.972 104.089 112.917 104.203C112.861 104.316 112.778 104.415 112.681 104.486C112.569 104.556 112.444 104.599 112.292 104.599C112.25 104.599 112.208 104.585 112.194 104.585C112.181 104.585 112.153 104.585 112.125 104.585C111.917 104.585 111.75 104.627 111.611 104.726C111.472 104.825 111.347 104.967 111.25 105.136C111.125 105.349 111 105.575 110.889 105.787C110.764 105.999 110.653 106.198 110.528 106.396C110.403 106.594 110.278 106.764 110.153 106.933C110.014 107.103 109.875 107.245 109.722 107.372C109.556 107.499 109.389 107.598 109.194 107.669C109 107.74 108.792 107.782 108.569 107.782C108.514 107.782 108.472 107.782 108.417 107.782C108.375 107.782 108.319 107.782 108.264 107.768L108.236 106.141H108.542C108.694 106.141 108.819 106.113 108.944 106.056C109.056 105.999 109.167 105.929 109.264 105.83C109.403 105.688 109.528 105.518 109.639 105.32C109.75 105.122 109.861 104.91 109.958 104.684C110.069 104.471 110.181 104.245 110.319 104.033C110.444 103.821 110.597 103.637 110.778 103.481C110.931 103.34 111.097 103.226 111.292 103.141C111.486 103.057 111.708 103.014 111.972 103.014L112.292 103.028ZM110.819 105.561C110.958 105.787 111.111 106.042 111.278 106.325C111.444 106.608 111.625 106.877 111.792 107.174C111.972 107.457 112.139 107.74 112.306 108.023C112.472 108.306 112.625 108.546 112.764 108.787C112.847 108.928 112.875 109.07 112.861 109.211C112.847 109.353 112.806 109.48 112.736 109.593C112.667 109.721 112.542 109.82 112.403 109.905C112.25 109.989 112.083 110.018 111.903 109.989C111.778 109.975 111.667 109.933 111.583 109.862C111.486 109.791 111.389 109.678 111.306 109.537L109.542 106.636L110.819 105.561Z" fill="#1B8E23"/>
<path d="M114 106.493C114 106.014 114.098 105.563 114.281 105.141C114.464 104.718 114.717 104.352 115.04 104.028C115.363 103.718 115.729 103.465 116.151 103.282C116.572 103.099 117.022 103 117.5 103C117.978 103 118.428 103.099 118.849 103.282C119.271 103.465 119.637 103.718 119.96 104.028C120.283 104.338 120.522 104.718 120.719 105.141C120.902 105.563 121 106.014 121 106.493C121 106.972 120.902 107.423 120.719 107.859C120.536 108.282 120.283 108.662 119.96 108.972C119.637 109.282 119.271 109.535 118.849 109.718C118.428 109.901 117.978 110 117.5 110C117.022 110 116.572 109.901 116.151 109.718C115.729 109.535 115.363 109.282 115.04 108.972C114.717 108.662 114.464 108.282 114.281 107.859C114.098 107.423 114 106.972 114 106.493ZM115.687 106.493C115.687 106.746 115.729 107 115.827 107.225C115.926 107.451 116.052 107.648 116.207 107.831C116.376 108 116.558 108.141 116.783 108.239C117.008 108.338 117.247 108.394 117.5 108.394C117.753 108.394 117.992 108.338 118.217 108.239C118.442 108.141 118.624 108 118.793 107.831C118.962 107.662 119.088 107.465 119.173 107.225C119.271 107 119.313 106.746 119.313 106.493C119.313 106.239 119.271 106 119.173 105.761C119.074 105.535 118.948 105.338 118.793 105.155C118.624 104.986 118.442 104.845 118.217 104.746C117.992 104.648 117.767 104.592 117.5 104.592C117.247 104.592 117.008 104.648 116.783 104.746C116.558 104.845 116.376 104.986 116.207 105.155C116.038 105.324 115.912 105.521 115.827 105.761C115.729 105.986 115.687 106.239 115.687 106.493Z" fill="#1B8E23"/>
<path d="M123.715 105.424C123.715 105.826 123.715 106.199 123.715 106.514C123.715 106.844 123.715 107.145 123.715 107.447C123.715 107.734 123.715 108.02 123.715 108.307C123.715 108.594 123.715 108.895 123.715 109.211C123.715 109.297 123.701 109.383 123.659 109.484C123.616 109.584 123.559 109.67 123.488 109.742C123.417 109.814 123.332 109.885 123.232 109.928C123.133 109.986 123.019 110 122.891 110C122.764 110 122.636 109.971 122.536 109.928C122.423 109.871 122.337 109.814 122.266 109.742C122.195 109.67 122.139 109.584 122.096 109.484C122.053 109.383 122.039 109.297 122.039 109.211C122.039 108.795 122.039 108.35 122.039 107.891C122.039 107.432 122.039 106.959 122.039 106.486C122.039 106.012 122.039 105.539 122.039 105.08C122.039 104.607 122.039 104.162 122.039 103.732C122.039 103.631 122.025 103.531 122.011 103.445C121.996 103.359 121.996 103.273 122.011 103.215C122.025 103.143 122.067 103.1 122.124 103.057C122.195 103.014 122.295 103 122.451 103C122.693 103 122.906 103.014 123.09 103.029C123.275 103.057 123.417 103.115 123.502 103.215L125.52 105.639C125.804 105.281 126.059 104.965 126.258 104.707C126.457 104.449 126.628 104.234 126.77 104.061C126.912 103.889 127.025 103.746 127.096 103.645C127.182 103.545 127.238 103.473 127.295 103.416C127.338 103.359 127.366 103.316 127.395 103.301C127.409 103.273 127.437 103.258 127.452 103.244C127.508 103.172 127.594 103.115 127.707 103.072C127.821 103.029 127.991 103 128.204 103C128.389 103 128.531 103.043 128.631 103.115C128.73 103.201 128.815 103.301 128.872 103.416C128.929 103.545 128.957 103.674 128.972 103.832C128.986 103.99 129 104.133 129 104.262V109.211C129 109.297 128.986 109.383 128.943 109.484C128.901 109.584 128.844 109.67 128.773 109.742C128.702 109.814 128.616 109.885 128.503 109.928C128.403 109.971 128.275 110 128.148 110C127.906 110 127.707 109.928 127.551 109.77C127.395 109.627 127.324 109.441 127.324 109.211V105.395L126.045 107.102C125.96 107.203 125.889 107.289 125.804 107.361C125.718 107.432 125.633 107.475 125.534 107.475C125.42 107.475 125.335 107.447 125.264 107.375C125.193 107.303 125.108 107.217 125.008 107.102L123.715 105.424Z" fill="#1B8E23"/>
<path d="M131.012 103.842C131.012 103.729 131.037 103.617 131.074 103.519C131.111 103.421 131.161 103.337 131.235 103.253C131.297 103.182 131.383 103.112 131.47 103.07C131.557 103.028 131.656 103 131.755 103C131.854 103 131.953 103.028 132.039 103.07C132.126 103.112 132.2 103.168 132.274 103.253C132.336 103.323 132.398 103.421 132.435 103.519C132.472 103.617 132.497 103.729 132.497 103.842V109.158C132.497 109.271 132.472 109.383 132.435 109.481C132.398 109.579 132.348 109.677 132.274 109.747C132.212 109.818 132.126 109.888 132.039 109.93C131.953 109.972 131.854 110 131.755 110C131.656 110 131.557 109.972 131.47 109.93C131.383 109.888 131.297 109.832 131.235 109.747C131.173 109.677 131.111 109.579 131.074 109.481C131.037 109.383 131.012 109.271 131.012 109.158V103.842ZM131.012 103.842C131.012 103.729 131.037 103.617 131.074 103.519C131.111 103.421 131.161 103.337 131.235 103.253C131.297 103.182 131.383 103.112 131.47 103.07C131.557 103.028 131.656 103 131.755 103C131.854 103 131.953 103.028 132.039 103.07C132.126 103.112 132.2 103.168 132.274 103.253C132.336 103.323 132.398 103.421 132.435 103.519C132.472 103.617 132.497 103.729 132.497 103.842V109.158C132.497 109.271 132.472 109.383 132.435 109.481C132.398 109.579 132.348 109.677 132.274 109.747C132.212 109.818 132.126 109.888 132.039 109.93C131.953 109.972 131.854 110 131.755 110C131.656 110 131.557 109.972 131.47 109.93C131.383 109.888 131.297 109.832 131.235 109.747C131.173 109.677 131.111 109.579 131.074 109.481C131.037 109.383 131.012 109.271 131.012 109.158V103.842ZM131.742 104.669C131.643 104.669 131.544 104.641 131.458 104.599C131.371 104.557 131.285 104.501 131.223 104.431C131.161 104.361 131.099 104.277 131.062 104.164C131.025 104.066 131 103.954 131 103.842C131 103.729 131.025 103.617 131.062 103.519C131.099 103.421 131.148 103.337 131.223 103.253C131.285 103.182 131.371 103.112 131.458 103.07C131.544 103.028 131.643 103 131.742 103H136.258C136.357 103 136.456 103.028 136.542 103.07C136.629 103.112 136.715 103.168 136.777 103.253C136.839 103.323 136.901 103.421 136.938 103.519C136.975 103.617 137 103.729 137 103.842C137 103.954 136.975 104.066 136.938 104.164C136.901 104.263 136.852 104.347 136.777 104.431C136.715 104.501 136.629 104.557 136.542 104.599C136.456 104.641 136.357 104.669 136.258 104.669H131.742ZM135.528 103.842C135.528 103.729 135.553 103.617 135.59 103.519C135.627 103.421 135.676 103.337 135.738 103.253C135.8 103.182 135.874 103.112 135.973 103.07C136.06 103.028 136.159 103 136.258 103C136.357 103 136.456 103.028 136.542 103.07C136.629 103.112 136.703 103.168 136.777 103.253C136.839 103.323 136.901 103.421 136.938 103.519C136.975 103.617 137 103.729 137 103.842V109.158C137 109.271 136.975 109.383 136.938 109.481C136.901 109.579 136.852 109.677 136.777 109.747C136.715 109.818 136.629 109.888 136.542 109.93C136.456 109.972 136.357 110 136.258 110C136.159 110 136.06 109.972 135.973 109.93C135.887 109.888 135.812 109.832 135.738 109.747C135.676 109.677 135.627 109.579 135.59 109.481C135.553 109.383 135.528 109.271 135.528 109.158V103.842Z" fill="#1B8E23"/>
<path d="M145.565 106.486C145.565 106.964 145.495 107.414 145.355 107.849C145.214 108.271 145.018 108.651 144.752 108.96C144.485 109.269 144.162 109.522 143.784 109.705C143.405 109.888 142.97 109.986 142.493 109.986C142.016 109.986 141.567 109.888 141.146 109.705C140.725 109.522 140.361 109.269 140.038 108.96C139.715 108.651 139.477 108.271 139.281 107.849C139.098 107.428 139 106.978 139 106.486C139 105.994 139.098 105.558 139.281 105.137C139.463 104.715 139.715 104.349 140.038 104.026C140.361 103.717 140.725 103.464 141.146 103.281C141.567 103.098 142.016 103 142.493 103C142.97 103 143.405 103.098 143.784 103.281C144.162 103.464 144.485 103.717 144.752 104.026C145.018 104.335 145.214 104.715 145.355 105.137C145.495 105.558 145.565 106.008 145.565 106.486ZM144.303 106.486C144.303 106.233 144.261 105.994 144.162 105.755C144.064 105.53 143.938 105.333 143.784 105.151C143.615 104.982 143.433 104.841 143.208 104.743C142.984 104.645 142.76 104.588 142.493 104.588C142.24 104.588 142.002 104.645 141.778 104.743C141.553 104.841 141.371 104.982 141.202 105.151C141.034 105.319 140.908 105.516 140.824 105.755C140.725 105.98 140.683 106.219 140.683 106.486C140.683 106.739 140.725 106.992 140.824 107.217C140.922 107.442 141.048 107.639 141.202 107.821C141.371 107.99 141.553 108.131 141.778 108.229C142.002 108.327 142.24 108.384 142.493 108.384C142.745 108.384 142.984 108.327 143.208 108.229C143.433 108.131 143.615 107.99 143.784 107.821C143.952 107.653 144.078 107.456 144.162 107.217C144.261 106.992 144.303 106.753 144.303 106.486ZM145.986 106.711C145.986 106.823 145.958 106.936 145.916 107.034C145.874 107.133 145.818 107.231 145.733 107.301C145.663 107.371 145.565 107.442 145.467 107.484C145.369 107.526 145.257 107.554 145.144 107.554C145.032 107.554 144.92 107.526 144.822 107.484C144.723 107.442 144.625 107.386 144.555 107.301C144.485 107.231 144.415 107.133 144.373 107.034C144.331 106.936 144.303 106.823 144.303 106.711V104.855L144.485 104.757L144.794 103.829C144.85 103.534 144.948 103.323 145.074 103.197C145.2 103.07 145.355 103.014 145.523 103.014C145.818 103.014 145.972 103.169 145.972 103.464V106.711H145.986ZM145.986 109.494C145.986 109.649 145.944 109.761 145.86 109.859C145.776 109.944 145.663 110 145.495 110C145.327 110 145.172 109.944 145.06 109.845C144.934 109.747 144.85 109.564 144.808 109.311L144.499 108.229L144.317 108.131V106.5C144.317 106.388 144.345 106.275 144.387 106.177C144.429 106.078 144.485 105.994 144.569 105.91C144.639 105.839 144.737 105.769 144.836 105.727C144.934 105.685 145.046 105.657 145.158 105.657C145.271 105.657 145.383 105.685 145.481 105.727C145.579 105.769 145.677 105.825 145.747 105.91C145.818 105.98 145.888 106.078 145.93 106.177C145.972 106.275 146 106.388 146 106.5V109.494H145.986Z" fill="#1B8E23"/>
<path d="M148.014 104.521V103.845C148.014 103.732 148.042 103.62 148.084 103.521C148.125 103.423 148.181 103.338 148.251 103.254C148.32 103.183 148.404 103.113 148.515 103.07C148.613 103.028 148.724 103 148.835 103C148.947 103 149.058 103.028 149.155 103.07C149.253 103.113 149.336 103.169 149.42 103.254C149.49 103.324 149.559 103.423 149.601 103.521C149.643 103.62 149.671 103.732 149.671 103.845V104.521H148.014ZM153.986 104.042V109.211C153.986 109.423 153.916 109.62 153.777 109.761C153.638 109.915 153.443 109.986 153.179 109.986C153.053 109.986 152.942 109.972 152.845 109.93C152.747 109.887 152.65 109.831 152.58 109.761C152.51 109.69 152.441 109.606 152.399 109.507C152.357 109.408 152.329 109.31 152.329 109.197V107.423H149.643V109.211C149.643 109.31 149.629 109.408 149.587 109.507C149.545 109.606 149.503 109.69 149.434 109.761C149.364 109.831 149.281 109.887 149.183 109.93C149.086 109.972 148.961 110 148.835 110C148.557 110 148.348 109.93 148.209 109.775C148.07 109.62 148 109.437 148 109.225V104.155L149.643 104.042V105.761H152.329V104.014L153.986 104.042ZM152.343 104.521V103.845C152.343 103.732 152.371 103.62 152.413 103.521C152.455 103.423 152.51 103.338 152.58 103.254C152.65 103.183 152.733 103.113 152.845 103.07C152.942 103.028 153.053 103 153.165 103C153.276 103 153.387 103.028 153.485 103.07C153.582 103.113 153.666 103.169 153.749 103.254C153.819 103.324 153.889 103.423 153.93 103.521C153.972 103.62 154 103.732 154 103.845V104.521H152.343Z" fill="#1B8E23"/>
<path d="M156 104.602V103.843C156 103.731 156.026 103.618 156.066 103.52C156.105 103.422 156.158 103.337 156.237 103.253C156.303 103.183 156.396 103.112 156.488 103.07C156.58 103.028 156.686 103 156.791 103C156.897 103 157.002 103.028 157.094 103.07C157.187 103.112 157.279 103.169 157.345 103.253C157.424 103.323 157.477 103.422 157.516 103.52C157.556 103.618 157.582 103.731 157.582 103.843V104.588L156 104.602ZM157.569 104.068V107.329L160.484 103.633C160.563 103.534 160.642 103.436 160.708 103.365C160.774 103.295 160.84 103.239 160.905 103.197C160.971 103.155 161.051 103.127 161.143 103.098C161.235 103.084 161.341 103.07 161.486 103.07C161.67 103.07 161.802 103.127 161.881 103.239C161.96 103.351 162 103.52 162 103.731V109.311C162 109.396 161.987 109.48 161.947 109.564C161.908 109.649 161.855 109.719 161.789 109.789C161.723 109.859 161.644 109.902 161.552 109.944C161.459 109.986 161.354 110 161.248 110C161.13 110 161.024 109.986 160.932 109.944C160.84 109.902 160.76 109.859 160.695 109.789C160.629 109.719 160.589 109.649 160.549 109.564C160.51 109.48 160.497 109.396 160.497 109.311C160.497 108.721 160.497 108.116 160.497 107.47C160.497 106.837 160.497 106.219 160.497 105.629L157.596 109.311C157.543 109.382 157.49 109.452 157.437 109.522C157.371 109.606 157.305 109.677 157.24 109.733C157.16 109.803 157.081 109.859 157.002 109.902C156.91 109.944 156.818 109.972 156.712 109.972C156.58 109.972 156.462 109.944 156.382 109.902C156.29 109.859 156.224 109.803 156.158 109.733C156.105 109.663 156.066 109.592 156.04 109.508C156.013 109.424 156 109.325 156 109.241V104.054L157.569 104.068Z" fill="#1B8E23"/>
<path d="M164 105.642C164 105.269 164.067 104.924 164.213 104.594C164.347 104.278 164.533 103.991 164.773 103.761C165.013 103.531 165.28 103.345 165.6 103.201C165.907 103.072 166.24 103 166.587 103H168.507C168.627 103 168.72 103.029 168.787 103.072C168.853 103.115 168.907 103.187 168.933 103.258C168.96 103.33 168.987 103.402 168.987 103.488C169 103.574 169 103.646 169 103.718V109.203C169 109.289 168.987 109.375 168.947 109.476C168.92 109.576 168.867 109.663 168.8 109.734C168.733 109.806 168.653 109.878 168.56 109.921C168.467 109.978 168.36 109.993 168.227 109.993C168.093 109.993 167.987 109.964 167.88 109.921C167.773 109.864 167.693 109.806 167.627 109.734C167.56 109.663 167.507 109.576 167.467 109.476C167.427 109.375 167.413 109.289 167.413 109.203V108.184H166.56C166.213 108.184 165.893 108.126 165.573 107.997C165.267 107.868 164.987 107.695 164.747 107.466C164.507 107.236 164.32 106.977 164.187 106.662C164.067 106.346 164 106.015 164 105.642ZM166.52 107.896L165.44 109.677C165.307 109.864 165.133 109.964 164.933 109.993C164.733 110.021 164.533 109.964 164.36 109.835C164.187 109.677 164.093 109.49 164.067 109.275C164.04 109.059 164.093 108.858 164.227 108.672L165.267 106.977L166.52 107.896ZM165.547 105.656C165.547 105.829 165.573 106.001 165.64 106.145C165.707 106.288 165.787 106.417 165.893 106.518C166 106.618 166.133 106.705 166.28 106.748C166.427 106.805 166.587 106.834 166.747 106.834L167.427 106.848V104.393L166.747 104.407C166.587 104.407 166.427 104.436 166.28 104.508C166.133 104.579 166.013 104.666 165.893 104.78C165.787 104.895 165.693 105.025 165.64 105.183C165.573 105.326 165.547 105.484 165.547 105.656Z" fill="#1B8E23"/>
</svg>
