<svg width="241" height="165" viewBox="0 0 241 165" fill="none" xmlns="http://www.w3.org/2000/svg">
<path d="M68.9726 148H68.0044V141.17H65.0049V148H64.0419V140.338H68.9726V148ZM74.6716 145.427C74.6716 146.328 74.5084 147 74.1822 147.442C73.8594 147.884 73.4016 148.105 72.8088 148.105C72.2369 148.105 71.7967 147.889 71.4879 147.458V150.189H70.5618V142.306H71.4037L71.4511 142.938C71.7633 142.447 72.2106 142.201 72.793 142.201C73.4174 142.201 73.884 142.419 74.1927 142.854C74.5014 143.289 74.661 143.939 74.6716 144.806V145.427ZM73.7454 144.895C73.7454 144.257 73.6472 143.787 73.4507 143.485C73.2543 143.18 72.9386 143.027 72.5035 143.027C72.058 143.027 71.7195 143.25 71.4879 143.696V146.658C71.716 147.093 72.058 147.311 72.5141 147.311C72.935 147.311 73.2438 147.16 73.4402 146.858C73.6402 146.553 73.7419 146.088 73.7454 145.464V144.895ZM75.6766 144.89C75.6766 144.062 75.8766 143.408 76.2765 142.927C76.68 142.443 77.2114 142.201 77.871 142.201C78.5305 142.201 79.0602 142.436 79.4602 142.906C79.8636 143.376 80.0706 144.017 80.0811 144.827V145.427C80.0811 146.251 79.8811 146.904 79.4812 147.384C79.0813 147.865 78.548 148.105 77.8815 148.105C77.222 148.105 76.6922 147.872 76.2923 147.405C75.8959 146.939 75.6907 146.307 75.6766 145.511V144.89ZM76.6081 145.427C76.6081 146.013 76.7221 146.474 76.9501 146.811C77.1816 147.144 77.4921 147.311 77.8815 147.311C78.7024 147.311 79.1251 146.718 79.1497 145.532V144.89C79.1497 144.308 79.0339 143.848 78.8024 143.511C78.5708 143.171 78.2604 143.001 77.871 143.001C77.4886 143.001 77.1816 143.171 76.9501 143.511C76.7221 143.848 76.6081 144.306 76.6081 144.885V145.427ZM80.8915 147.205L81.1704 146.805C81.4721 146.342 81.6457 145.66 81.6913 144.758L81.7703 142.306H84.9486V147.205H85.6117V149.673H84.6803V148H81.444V149.673H80.5073L80.5126 147.205H80.8915ZM81.9281 147.205H84.0225V143.206H82.6754L82.628 144.595C82.5789 145.704 82.3456 146.574 81.9281 147.205ZM88.2375 146.453L89.2742 142.306H90.2634L88.4006 148.805C88.2603 149.293 88.0621 149.663 87.806 149.915C87.5499 150.172 87.2587 150.3 86.9325 150.3C86.8062 150.3 86.6448 150.272 86.4484 150.215V149.426L86.6536 149.447C86.9237 149.447 87.1342 149.382 87.285 149.252C87.4394 149.126 87.5639 148.905 87.6587 148.589L87.8428 147.953L86.1695 142.306H87.1851L88.2375 146.453ZM92.7209 145.574H92.1947V148H91.2633V142.306H92.1947V144.716H92.6577L94.2101 142.306H95.3204L93.4208 145.016L95.4572 148H94.289L92.7209 145.574ZM99.9511 143.096H98.3988V148H97.4727V143.096H95.9414V142.306H99.9511V143.096ZM101.94 144.269H103.114C103.657 144.273 104.091 144.439 104.413 144.769C104.736 145.099 104.898 145.548 104.898 146.116C104.898 146.684 104.734 147.141 104.408 147.484C104.082 147.825 103.65 147.996 103.114 148H101.014V142.306H101.94V144.269ZM106.634 148H105.703V142.306H106.634V148ZM101.94 145.064V147.205H103.098C103.372 147.205 103.584 147.112 103.735 146.927C103.889 146.741 103.966 146.483 103.966 146.153C103.966 145.83 103.891 145.569 103.74 145.369C103.589 145.169 103.382 145.067 103.119 145.064H101.94ZM111.428 145.116L112.538 147.205H111.859L110.554 145.164V145.064L111.859 143.017H112.538L111.428 145.116ZM112.922 145.116L114.033 147.205H113.354L112.049 145.164V145.064L113.354 143.017H114.033L112.922 145.116ZM120.168 145.569C120.126 146.39 119.895 147.018 119.474 147.453C119.056 147.888 118.465 148.105 117.701 148.105C116.932 148.105 116.322 147.814 115.869 147.232C115.417 146.646 115.19 145.853 115.19 144.853V143.464C115.19 142.468 115.422 141.68 115.885 141.101C116.352 140.522 116.987 140.233 117.79 140.233C118.53 140.233 119.102 140.456 119.505 140.901C119.912 141.343 120.133 141.977 120.168 142.801H119.195C119.153 142.177 119.021 141.731 118.8 141.464C118.579 141.198 118.243 141.064 117.79 141.064C117.267 141.064 116.866 141.27 116.585 141.68C116.304 142.087 116.164 142.685 116.164 143.475V144.88C116.164 145.655 116.294 146.249 116.553 146.663C116.816 147.077 117.199 147.284 117.701 147.284C118.202 147.284 118.564 147.16 118.785 146.911C119.006 146.662 119.142 146.214 119.195 145.569H120.168ZM121.431 148V142.306H123.342C123.994 142.306 124.492 142.44 124.836 142.706C125.18 142.973 125.352 143.361 125.352 143.869C125.352 144.132 125.283 144.369 125.147 144.58C125.01 144.79 124.81 144.951 124.547 145.064C124.838 145.141 125.071 145.297 125.246 145.532C125.425 145.767 125.515 146.051 125.515 146.385C125.515 146.911 125.35 147.312 125.02 147.59C124.694 147.863 124.231 148 123.631 148H121.431ZM122.358 145.5V147.216H123.642C124.269 147.216 124.583 146.928 124.583 146.353C124.583 145.785 124.266 145.5 123.631 145.5H122.358ZM122.358 144.722H123.331C124.057 144.722 124.42 144.455 124.42 143.922C124.42 143.385 124.078 143.11 123.394 143.096H122.358V144.722ZM126.583 144.89C126.583 144.062 126.783 143.408 127.183 142.927C127.586 142.443 128.118 142.201 128.777 142.201C129.437 142.201 129.967 142.436 130.367 142.906C130.77 143.376 130.977 144.017 130.988 144.827V145.427C130.988 146.251 130.788 146.904 130.388 147.384C129.988 147.865 129.455 148.105 128.788 148.105C128.128 148.105 127.599 147.872 127.199 147.405C126.802 146.939 126.597 146.307 126.583 145.511V144.89ZM127.515 145.427C127.515 146.013 127.629 146.474 127.857 146.811C128.088 147.144 128.399 147.311 128.788 147.311C129.609 147.311 130.032 146.718 130.056 145.532V144.89C130.056 144.308 129.94 143.848 129.709 143.511C129.477 143.171 129.167 143.001 128.777 143.001C128.395 143.001 128.088 143.171 127.857 143.511C127.629 143.848 127.515 144.306 127.515 144.885V145.427ZM135.266 142.306H136.192V148H135.266V143.848L133.203 148H132.272V142.306H133.203V146.463L135.266 142.306ZM135.813 140.233C135.813 140.657 135.667 141 135.376 141.259C135.089 141.515 134.71 141.643 134.24 141.643C133.769 141.643 133.389 141.513 133.098 141.254C132.807 140.994 132.661 140.654 132.661 140.233H133.456C133.456 140.479 133.522 140.672 133.655 140.812C133.789 140.949 133.983 141.017 134.24 141.017C134.485 141.017 134.676 140.949 134.813 140.812C134.953 140.675 135.024 140.482 135.024 140.233H135.813ZM142.501 144.632L143.869 140.338H144.985L142.78 146.721C142.619 147.132 142.473 147.421 142.343 147.59C142.217 147.754 142.064 147.882 141.886 147.974C141.707 148.065 141.482 148.111 141.212 148.111C140.97 148.111 140.817 148.095 140.754 148.063L140.775 147.263L141.191 147.284C141.472 147.284 141.673 147.114 141.796 146.774L142.049 146.021L139.944 140.338H141.017L142.501 144.632ZM149.731 145.427C149.731 146.328 149.568 147 149.242 147.442C148.919 147.884 148.462 148.105 147.869 148.105C147.297 148.105 146.857 147.889 146.548 147.458V150.189H145.622V142.306H146.464L146.511 142.938C146.823 142.447 147.271 142.201 147.853 142.201C148.477 142.201 148.944 142.419 149.253 142.854C149.561 143.289 149.721 143.939 149.731 144.806V145.427ZM148.805 144.895C148.805 144.257 148.707 143.787 148.511 143.485C148.314 143.18 147.998 143.027 147.563 143.027C147.118 143.027 146.779 143.25 146.548 143.696V146.658C146.776 147.093 147.118 147.311 147.574 147.311C147.995 147.311 148.304 147.16 148.5 146.858C148.7 146.553 148.802 146.088 148.805 145.464V144.895ZM150.737 144.89C150.737 144.062 150.937 143.408 151.336 142.927C151.74 142.443 152.271 142.201 152.931 142.201C153.59 142.201 154.12 142.436 154.52 142.906C154.924 143.376 155.13 144.017 155.141 144.827V145.427C155.141 146.251 154.941 146.904 154.541 147.384C154.141 147.865 153.608 148.105 152.941 148.105C152.282 148.105 151.752 147.872 151.352 147.405C150.956 146.939 150.751 146.307 150.737 145.511V144.89ZM151.668 145.427C151.668 146.013 151.782 146.474 152.01 146.811C152.242 147.144 152.552 147.311 152.941 147.311C153.762 147.311 154.185 146.718 154.21 145.532V144.89C154.21 144.308 154.094 143.848 153.862 143.511C153.631 143.171 153.32 143.001 152.931 143.001C152.549 143.001 152.242 143.171 152.01 143.511C151.782 143.848 151.668 144.306 151.668 144.885V145.427ZM160.093 145.527H159.551V148H158.625V145.527H158.083L156.893 148H155.725L157.362 145.032L155.867 142.306H156.988L158.093 144.664H158.625V142.306H159.551V144.664H160.072L161.193 142.306H162.313L160.814 145.037L162.45 148H161.277L160.093 145.527ZM166.292 148C166.235 147.877 166.195 147.67 166.171 147.379C165.841 147.863 165.42 148.105 164.908 148.105C164.392 148.105 163.989 147.961 163.697 147.674C163.41 147.383 163.266 146.974 163.266 146.448C163.266 145.869 163.462 145.409 163.855 145.069C164.248 144.729 164.787 144.555 165.471 144.548H166.155V143.943C166.155 143.603 166.079 143.361 165.928 143.217C165.778 143.073 165.548 143.001 165.239 143.001C164.959 143.001 164.73 143.085 164.555 143.254C164.38 143.418 164.292 143.629 164.292 143.885H163.361C163.361 143.594 163.446 143.317 163.618 143.054C163.79 142.787 164.022 142.578 164.313 142.427C164.604 142.276 164.929 142.201 165.287 142.201C165.869 142.201 166.311 142.347 166.613 142.638C166.918 142.925 167.074 143.346 167.081 143.901V146.774C167.084 147.212 167.144 147.593 167.26 147.916V148H166.292ZM165.05 147.258C165.278 147.258 165.495 147.195 165.702 147.069C165.909 146.942 166.06 146.784 166.155 146.595V145.237H165.629C165.187 145.244 164.837 145.344 164.581 145.537C164.325 145.727 164.197 145.993 164.197 146.337C164.197 146.66 164.262 146.895 164.392 147.042C164.522 147.186 164.741 147.258 165.05 147.258ZM171.606 142.306H172.533V148H171.606V143.848L169.544 148H168.612V142.306H169.544V146.463L171.606 142.306ZM172.154 140.233C172.154 140.657 172.008 141 171.717 141.259C171.429 141.515 171.05 141.643 170.58 141.643C170.11 141.643 169.73 141.513 169.438 141.254C169.147 140.994 169.002 140.654 169.002 140.233H169.796C169.796 140.479 169.863 140.672 169.996 140.812C170.129 140.949 170.324 141.017 170.58 141.017C170.826 141.017 171.017 140.949 171.154 140.812C171.294 140.675 171.364 140.482 171.364 140.233H172.154ZM174.548 143.006L175.853 145.053V145.153L174.548 147.2H173.859L174.969 145.106L173.859 143.006H174.548ZM176.142 143.006L177.447 145.053V145.153L176.142 147.2H175.453L176.563 145.106L175.453 143.006H176.142ZM90.5108 159.574H89.9845V162H89.0531V156.306H89.9845V158.716H90.4476L92 156.306H93.1103L91.2106 159.016L93.2471 162H92.0789L90.5108 159.574ZM100.63 156.306V162H99.6985V157.111H98.1988L98.1094 159.043C98.0603 160.113 97.9164 160.872 97.6779 161.321C97.4393 161.767 97.0569 161.993 96.5307 162H96.2202V161.142L96.457 161.121C96.7166 161.086 96.8991 160.912 97.0043 160.6C97.1131 160.285 97.185 159.665 97.2201 158.743L97.3095 156.306H100.63ZM103.119 158.722H104.182C104.249 157.95 104.478 157.338 104.871 156.885C105.268 156.429 105.762 156.201 106.355 156.201C106.987 156.201 107.502 156.45 107.902 156.948C108.302 157.443 108.52 158.092 108.555 158.895L108.56 159.216C108.56 160.069 108.358 160.763 107.955 161.3C107.551 161.837 107.022 162.105 106.366 162.105C105.741 162.105 105.233 161.867 104.84 161.39C104.447 160.909 104.226 160.286 104.177 159.522H103.119V162H102.193V156.306H103.119V158.722ZM105.098 159.216C105.098 159.851 105.212 160.36 105.44 160.742C105.668 161.121 105.976 161.311 106.366 161.311C106.748 161.311 107.053 161.121 107.281 160.742C107.509 160.363 107.623 159.816 107.623 159.101C107.623 158.459 107.508 157.948 107.276 157.569C107.045 157.19 106.738 157.001 106.355 157.001C105.976 157.001 105.671 157.19 105.44 157.569C105.212 157.948 105.098 158.497 105.098 159.216ZM111.886 156.633C112.486 156.633 112.963 156.871 113.317 157.348C113.671 157.822 113.849 158.457 113.849 159.253V159.332C113.849 160.174 113.652 160.848 113.259 161.353C112.866 161.854 112.347 162.105 111.702 162.105C111.056 162.105 110.537 161.851 110.144 161.342C109.751 160.834 109.555 160.149 109.555 159.29V158.811C109.555 157.636 109.739 156.696 110.107 155.991C110.476 155.282 111.016 154.845 111.728 154.68C112.138 154.586 112.416 154.473 112.559 154.344C112.707 154.214 112.78 154.042 112.78 153.828H113.533L113.528 154.033C113.485 154.728 113.152 155.168 112.528 155.354L111.886 155.533C111.423 155.659 111.067 155.882 110.818 156.201C110.572 156.52 110.412 156.938 110.339 157.453C110.767 156.906 111.282 156.633 111.886 156.633ZM111.696 157.432C111.324 157.432 111.03 157.59 110.812 157.906C110.598 158.222 110.491 158.697 110.491 159.332C110.491 159.949 110.598 160.435 110.812 160.79C111.026 161.141 111.323 161.316 111.702 161.316C112.08 161.316 112.379 161.139 112.596 160.784C112.814 160.43 112.922 159.906 112.922 159.211C112.922 158.664 112.812 158.231 112.591 157.911C112.373 157.592 112.075 157.432 111.696 157.432ZM114.743 158.89C114.743 158.062 114.943 157.408 115.343 156.927C115.746 156.443 116.278 156.201 116.937 156.201C117.597 156.201 118.127 156.436 118.527 156.906C118.93 157.376 119.137 158.017 119.148 158.827V159.427C119.148 160.251 118.948 160.904 118.548 161.384C118.148 161.865 117.615 162.105 116.948 162.105C116.288 162.105 115.759 161.872 115.359 161.405C114.962 160.939 114.757 160.307 114.743 159.511V158.89ZM115.675 159.427C115.675 160.013 115.789 160.474 116.017 160.811C116.248 161.144 116.559 161.311 116.948 161.311C117.769 161.311 118.192 160.718 118.216 159.532V158.89C118.216 158.308 118.1 157.848 117.869 157.511C117.637 157.171 117.327 157.001 116.937 157.001C116.555 157.001 116.248 157.171 116.017 157.511C115.789 157.848 115.675 158.306 115.675 158.885V159.427ZM123.142 160.711L124.668 156.306H125.825V162H124.899V158.074L123.463 162H122.826L121.358 157.98V162H120.432V156.306H121.631L123.142 160.711ZM128.872 160.453L129.909 156.306H130.898L129.035 162.805C128.895 163.293 128.697 163.663 128.441 163.915C128.185 164.172 127.893 164.3 127.567 164.3C127.441 164.3 127.279 164.272 127.083 164.215V163.426L127.288 163.447C127.558 163.447 127.769 163.382 127.92 163.252C128.074 163.126 128.199 162.905 128.293 162.589L128.477 161.953L126.804 156.306H127.82L128.872 160.453ZM136.45 156.633C137.05 156.633 137.527 156.871 137.881 157.348C138.235 157.822 138.412 158.457 138.412 159.253V159.332C138.412 160.174 138.216 160.848 137.823 161.353C137.43 161.854 136.911 162.105 136.266 162.105C135.62 162.105 135.101 161.851 134.708 161.342C134.315 160.834 134.119 160.149 134.119 159.29V158.811C134.119 157.636 134.303 156.696 134.671 155.991C135.039 155.282 135.58 154.845 136.292 154.68C136.702 154.586 136.979 154.473 137.123 154.344C137.271 154.214 137.344 154.042 137.344 153.828H138.097L138.092 154.033C138.049 154.728 137.716 155.168 137.092 155.354L136.45 155.533C135.987 155.659 135.631 155.882 135.381 156.201C135.136 156.52 134.976 156.938 134.903 157.453C135.331 156.906 135.846 156.633 136.45 156.633ZM136.26 157.432C135.888 157.432 135.594 157.59 135.376 157.906C135.162 158.222 135.055 158.697 135.055 159.332C135.055 159.949 135.162 160.435 135.376 160.79C135.59 161.141 135.887 161.316 136.266 161.316C136.644 161.316 136.943 161.139 137.16 160.784C137.378 160.43 137.486 159.906 137.486 159.211C137.486 158.664 137.376 158.231 137.155 157.911C136.937 157.592 136.639 157.432 136.26 157.432ZM143.517 156.306V162H142.585V157.111H141.086L140.996 159.043C140.947 160.113 140.803 160.872 140.565 161.321C140.326 161.767 139.944 161.993 139.418 162H139.107V161.142L139.344 161.121C139.604 161.086 139.786 160.912 139.891 160.6C140 160.285 140.072 159.665 140.107 158.743L140.196 156.306H143.517ZM146.006 158.722H147.069C147.135 157.95 147.365 157.338 147.758 156.885C148.155 156.429 148.649 156.201 149.242 156.201C149.874 156.201 150.389 156.45 150.789 156.948C151.189 157.443 151.407 158.092 151.442 158.895L151.447 159.216C151.447 160.069 151.245 160.763 150.842 161.3C150.438 161.837 149.909 162.105 149.253 162.105C148.628 162.105 148.12 161.867 147.727 161.39C147.334 160.909 147.113 160.286 147.064 159.522H146.006V162H145.08V156.306H146.006V158.722ZM147.984 159.216C147.984 159.851 148.098 160.36 148.326 160.742C148.555 161.121 148.863 161.311 149.253 161.311C149.635 161.311 149.94 161.121 150.168 160.742C150.396 160.363 150.51 159.816 150.51 159.101C150.51 158.459 150.395 157.948 150.163 157.569C149.931 157.19 149.624 157.001 149.242 157.001C148.863 157.001 148.558 157.19 148.326 157.569C148.098 157.948 147.984 158.497 147.984 159.216ZM152.499 161.205L152.778 160.805C153.08 160.342 153.254 159.66 153.299 158.758L153.378 156.306H156.557V161.205H157.22V163.673H156.288V162H153.052V163.673H152.115L152.121 161.205H152.499ZM153.536 161.205H155.63V157.206H154.283L154.236 158.595C154.187 159.704 153.954 160.574 153.536 161.205ZM159.845 160.453L160.882 156.306H161.871L160.009 162.805C159.868 163.293 159.67 163.663 159.414 163.915C159.158 164.172 158.867 164.3 158.54 164.3C158.414 164.3 158.253 164.272 158.056 164.215V163.426L158.261 163.447C158.532 163.447 158.742 163.382 158.893 163.252C159.047 163.126 159.172 162.905 159.267 162.589L159.451 161.953L157.777 156.306H158.793L159.845 160.453ZM169.254 162H168.328V159.569H166.276V162H165.339V156.306H166.276V158.774H168.328V156.306H169.254V162ZM173.669 162C173.613 161.877 173.573 161.67 173.548 161.379C173.218 161.863 172.797 162.105 172.285 162.105C171.77 162.105 171.366 161.961 171.075 161.674C170.787 161.383 170.643 160.974 170.643 160.448C170.643 159.869 170.84 159.409 171.233 159.069C171.626 158.729 172.164 158.555 172.848 158.548H173.532V157.943C173.532 157.603 173.457 157.361 173.306 157.217C173.155 157.073 172.925 157.001 172.617 157.001C172.336 157.001 172.108 157.085 171.933 157.254C171.757 157.418 171.67 157.629 171.67 157.885H170.738C170.738 157.594 170.824 157.317 170.996 157.054C171.168 156.787 171.399 156.578 171.691 156.427C171.982 156.276 172.306 156.201 172.664 156.201C173.246 156.201 173.688 156.347 173.99 156.638C174.295 156.925 174.452 157.346 174.459 157.901V160.774C174.462 161.212 174.522 161.593 174.637 161.916V162H173.669ZM172.427 161.258C172.655 161.258 172.873 161.195 173.08 161.069C173.287 160.942 173.438 160.784 173.532 160.595V159.237H173.006C172.564 159.244 172.215 159.344 171.959 159.537C171.703 159.727 171.575 159.993 171.575 160.337C171.575 160.66 171.64 160.895 171.77 161.042C171.899 161.186 172.119 161.258 172.427 161.258ZM178.463 162V156.306H180.373C181.026 156.306 181.524 156.44 181.868 156.706C182.211 156.973 182.383 157.361 182.383 157.869C182.383 158.132 182.315 158.369 182.178 158.58C182.041 158.79 181.841 158.951 181.578 159.064C181.869 159.141 182.103 159.297 182.278 159.532C182.457 159.767 182.547 160.051 182.547 160.385C182.547 160.911 182.382 161.312 182.052 161.59C181.726 161.863 181.263 162 180.663 162H178.463ZM179.389 159.5V161.216H180.673C181.301 161.216 181.615 160.928 181.615 160.353C181.615 159.785 181.298 159.5 180.663 159.5H179.389ZM179.389 158.722H180.363C181.089 158.722 181.452 158.455 181.452 157.922C181.452 157.385 181.11 157.11 180.426 157.096H179.389V158.722ZM186.74 162C186.684 161.877 186.644 161.67 186.619 161.379C186.29 161.863 185.869 162.105 185.357 162.105C184.841 162.105 184.437 161.961 184.146 161.674C183.859 161.383 183.715 160.974 183.715 160.448C183.715 159.869 183.911 159.409 184.304 159.069C184.697 158.729 185.236 158.555 185.92 158.548H186.604V157.943C186.604 157.603 186.528 157.361 186.377 157.217C186.227 157.073 185.997 157.001 185.688 157.001C185.407 157.001 185.179 157.085 185.004 157.254C184.829 157.418 184.741 157.629 184.741 157.885H183.809C183.809 157.594 183.895 157.317 184.067 157.054C184.239 156.787 184.471 156.578 184.762 156.427C185.053 156.276 185.378 156.201 185.735 156.201C186.318 156.201 186.76 156.347 187.061 156.638C187.367 156.925 187.523 157.346 187.53 157.901V160.774C187.533 161.212 187.593 161.593 187.709 161.916V162H186.74ZM185.499 161.258C185.727 161.258 185.944 161.195 186.151 161.069C186.358 160.942 186.509 160.784 186.604 160.595V159.237H186.077C185.635 159.244 185.286 159.344 185.03 159.537C184.774 159.727 184.646 159.993 184.646 160.337C184.646 160.66 184.711 160.895 184.841 161.042C184.971 161.186 185.19 161.258 185.499 161.258ZM189.998 156.306V161.205H191.603V156.306H192.529V161.205H194.139V156.306H195.071V162H189.061V156.306H189.998ZM198.601 162.105C197.893 162.105 197.349 161.895 196.97 161.474C196.591 161.049 196.398 160.428 196.391 159.611V158.922C196.391 158.073 196.576 157.408 196.944 156.927C197.316 156.443 197.833 156.201 198.496 156.201C199.163 156.201 199.661 156.413 199.991 156.838C200.32 157.262 200.489 157.924 200.496 158.822V159.432H197.317V159.564C197.317 160.174 197.432 160.618 197.66 160.895C197.891 161.172 198.223 161.311 198.654 161.311C198.928 161.311 199.168 161.26 199.375 161.158C199.585 161.053 199.782 160.888 199.964 160.663L200.448 161.253C200.045 161.821 199.429 162.105 198.601 162.105ZM198.496 157.001C198.11 157.001 197.824 157.134 197.638 157.401C197.453 157.664 197.347 158.074 197.323 158.632H199.564V158.506C199.54 157.966 199.442 157.58 199.27 157.348C199.101 157.117 198.844 157.001 198.496 157.001ZM204.411 160.711L205.937 156.306H207.095V162H206.168V158.074L204.732 162H204.095L202.627 157.98V162H201.701V156.306H202.901L204.411 160.711ZM213.036 161.311C213.344 161.311 213.592 161.216 213.778 161.026C213.964 160.834 214.065 160.56 214.083 160.206H214.962C214.941 160.753 214.746 161.207 214.378 161.569C214.013 161.926 213.565 162.105 213.036 162.105C212.331 162.105 211.792 161.884 211.42 161.442C211.052 160.997 210.868 160.335 210.868 159.458V158.832C210.868 157.973 211.052 157.32 211.42 156.875C211.789 156.426 212.325 156.201 213.03 156.201C213.613 156.201 214.074 156.385 214.414 156.754C214.758 157.122 214.941 157.625 214.962 158.264H214.083C214.062 157.843 213.96 157.527 213.778 157.317C213.599 157.106 213.35 157.001 213.03 157.001C212.616 157.001 212.309 157.138 212.11 157.411C211.91 157.681 211.806 158.127 211.799 158.748V159.474C211.799 160.144 211.897 160.618 212.094 160.895C212.294 161.172 212.608 161.311 213.036 161.311ZM219.634 157.096H218.082V162H217.156V157.096H215.625V156.306H219.634V157.096ZM220.25 158.89C220.25 158.062 220.45 157.408 220.85 156.927C221.253 156.443 221.785 156.201 222.444 156.201C223.104 156.201 223.634 156.436 224.034 156.906C224.437 157.376 224.644 158.017 224.655 158.827V159.427C224.655 160.251 224.455 160.904 224.055 161.384C223.655 161.865 223.122 162.105 222.455 162.105C221.795 162.105 221.266 161.872 220.866 161.405C220.469 160.939 220.264 160.307 220.25 159.511V158.89ZM221.182 159.427C221.182 160.013 221.296 160.474 221.524 160.811C221.755 161.144 222.066 161.311 222.455 161.311C223.276 161.311 223.699 160.718 223.723 159.532V158.89C223.723 158.308 223.607 157.848 223.376 157.511C223.144 157.171 222.834 157.001 222.444 157.001C222.062 157.001 221.755 157.171 221.524 157.511C221.296 157.848 221.182 158.306 221.182 158.885V159.427ZM229.785 156.306V162H228.854V157.111H227.354L227.265 159.043C227.215 160.113 227.072 160.872 226.833 161.321C226.595 161.767 226.212 161.993 225.686 162H225.375V161.142L225.612 161.121C225.872 161.086 226.054 160.912 226.16 160.6C226.268 160.285 226.34 159.665 226.375 158.743L226.465 156.306H229.785ZM233.3 162.105C232.592 162.105 232.048 161.895 231.669 161.474C231.29 161.049 231.097 160.428 231.09 159.611V158.922C231.09 158.073 231.274 157.408 231.643 156.927C232.015 156.443 232.532 156.201 233.195 156.201C233.862 156.201 234.36 156.413 234.69 156.838C235.019 157.262 235.188 157.924 235.195 158.822V159.432H232.016V159.564C232.016 160.174 232.13 160.618 232.358 160.895C232.59 161.172 232.921 161.311 233.353 161.311C233.627 161.311 233.867 161.26 234.074 161.158C234.284 161.053 234.481 160.888 234.663 160.663L235.147 161.253C234.744 161.821 234.128 162.105 233.3 162.105ZM233.195 157.001C232.809 157.001 232.523 157.134 232.337 157.401C232.151 157.664 232.046 158.074 232.022 158.632H234.263V158.506C234.239 157.966 234.141 157.58 233.969 157.348C233.8 157.117 233.542 157.001 233.195 157.001ZM236.379 161.49C236.379 161.321 236.428 161.181 236.526 161.069C236.628 160.956 236.779 160.9 236.979 160.9C237.179 160.9 237.329 160.956 237.431 161.069C237.536 161.181 237.589 161.321 237.589 161.49C237.589 161.651 237.536 161.786 237.431 161.895C237.329 162.004 237.179 162.058 236.979 162.058C236.779 162.058 236.628 162.004 236.526 161.895C236.428 161.786 236.379 161.651 236.379 161.49Z" fill="black"/>
<path d="M2.51112 157.995L3.17416 156.306H4.75281L3.45305 159.09L4.80017 162H3.21625L2.51638 160.216L1.82177 162H0.232592L1.57971 159.09L0.290476 156.306H1.8744L2.51112 157.995ZM5.11591 158.969C5.11591 158.106 5.31938 157.429 5.72632 156.938C6.13326 156.447 6.69632 156.201 7.41548 156.201C8.14167 156.201 8.70823 156.447 9.11517 156.938C9.52211 157.429 9.72559 158.109 9.72559 158.98V159.343C9.72559 160.209 9.52387 160.886 9.12043 161.374C8.717 161.861 8.15219 162.105 7.42601 162.105C6.69632 162.105 6.128 161.861 5.72106 161.374C5.31762 160.883 5.11591 160.202 5.11591 159.332V158.969ZM6.61037 159.343C6.61037 160.36 6.88225 160.869 7.42601 160.869C7.92767 160.869 8.1978 160.444 8.23639 159.595L8.24165 158.969C8.24165 158.45 8.16973 158.066 8.0259 157.817C7.88206 157.564 7.67859 157.438 7.41548 157.438C7.1629 157.438 6.96469 157.564 6.82086 157.817C6.68053 158.066 6.61037 158.45 6.61037 158.969V159.343ZM15.093 159.332C15.093 160.227 14.9387 160.912 14.6299 161.39C14.3247 161.867 13.8687 162.105 13.2618 162.105C12.7987 162.105 12.4268 161.918 12.1462 161.542V164.189H10.657V156.306H12.0357L12.0883 156.827C12.3725 156.41 12.7601 156.201 13.2513 156.201C13.8582 156.201 14.3142 156.422 14.6194 156.864C14.9281 157.306 15.086 157.983 15.093 158.895V159.332ZM13.6091 158.958C13.6091 158.408 13.5477 158.018 13.4249 157.79C13.3056 157.562 13.1022 157.448 12.8145 157.448C12.5093 157.448 12.2865 157.576 12.1462 157.832V160.5C12.2795 160.746 12.5058 160.869 12.825 160.869C13.1197 160.869 13.3232 160.744 13.4354 160.495C13.5512 160.246 13.6091 159.858 13.6091 159.332V158.958ZM15.8192 158.969C15.8192 158.106 16.0227 157.429 16.4296 156.938C16.8366 156.447 17.3996 156.201 18.1188 156.201C18.845 156.201 19.4115 156.447 19.8185 156.938C20.2254 157.429 20.4289 158.109 20.4289 158.98V159.343C20.4289 160.209 20.2272 160.886 19.8237 161.374C19.4203 161.861 18.8555 162.105 18.1293 162.105C17.3996 162.105 16.8313 161.861 16.4244 161.374C16.0209 160.883 15.8192 160.202 15.8192 159.332V158.969ZM17.3137 159.343C17.3137 160.36 17.5855 160.869 18.1293 160.869C18.631 160.869 18.9011 160.444 18.9397 159.595L18.9449 158.969C18.9449 158.45 18.873 158.066 18.7292 157.817C18.5854 157.564 18.3819 157.438 18.1188 157.438C17.8662 157.438 17.668 157.564 17.5242 157.817C17.3838 158.066 17.3137 158.45 17.3137 158.969V159.343ZM22.8495 156.306V160.763H23.9177V156.306H25.4122V160.763H26.4909V156.306H27.9801V162H21.355V156.306H22.8495ZM31.8531 162C31.811 161.912 31.7689 161.765 31.7268 161.558C31.4602 161.923 31.0989 162.105 30.6428 162.105C30.1657 162.105 29.7693 161.947 29.4535 161.632C29.1413 161.316 28.9852 160.907 28.9852 160.406C28.9852 159.809 29.1746 159.348 29.5535 159.022C29.9359 158.695 30.4849 158.529 31.2006 158.522H31.6531V158.064C31.6531 157.808 31.6093 157.627 31.5216 157.522C31.4339 157.417 31.3058 157.364 31.1374 157.364C30.7656 157.364 30.5797 157.582 30.5797 158.017H29.0905C29.0905 157.49 29.2869 157.057 29.6798 156.717C30.0762 156.373 30.5761 156.201 31.1795 156.201C31.804 156.201 32.2864 156.364 32.6266 156.69C32.9704 157.013 33.1423 157.476 33.1423 158.08V160.758C33.1494 161.249 33.2195 161.633 33.3528 161.911V162H31.8531ZM30.9743 160.937C31.1392 160.937 31.2795 160.904 31.3953 160.837C31.5111 160.77 31.597 160.691 31.6531 160.6V159.416H31.2953C31.0427 159.416 30.8428 159.497 30.6954 159.658C30.5516 159.82 30.4797 160.035 30.4797 160.306C30.4797 160.727 30.6446 160.937 30.9743 160.937ZM38.3414 156.306V162H36.8627V160.037H36.3102L35.384 162H33.8843L34.942 159.753C34.6543 159.595 34.4316 159.385 34.2737 159.122C34.1194 158.855 34.0422 158.553 34.0422 158.216C34.0422 157.652 34.2351 157.192 34.621 156.838C35.0104 156.483 35.5349 156.306 36.1944 156.306H38.3414ZM35.5314 158.264C35.5314 158.464 35.591 158.632 35.7103 158.769C35.8331 158.902 35.9892 158.969 36.1786 158.969H36.8627V157.532H36.1734C35.9874 157.532 35.8331 157.604 35.7103 157.748C35.591 157.888 35.5314 158.06 35.5314 158.264ZM43.9982 159.911H43.6088V162H42.1249V156.306H43.6088V158.443H43.9772L44.8402 156.306H46.7083L45.2085 158.932L46.824 162H44.8507L43.9982 159.911ZM47.0977 158.969C47.0977 158.106 47.3011 157.429 47.7081 156.938C48.115 156.447 48.6781 156.201 49.3973 156.201C50.1234 156.201 50.69 156.447 51.0969 156.938C51.5039 157.429 51.7074 158.109 51.7074 158.98V159.343C51.7074 160.209 51.5056 160.886 51.1022 161.374C50.6988 161.861 50.134 162.105 49.4078 162.105C48.6781 162.105 48.1098 161.861 47.7028 161.374C47.2994 160.883 47.0977 160.202 47.0977 159.332V158.969ZM48.5921 159.343C48.5921 160.36 48.864 160.869 49.4078 160.869C49.9094 160.869 50.1796 160.444 50.2182 159.595L50.2234 158.969C50.2234 158.45 50.1515 158.066 50.0077 157.817C49.8638 157.564 49.6604 157.438 49.3973 157.438C49.1447 157.438 48.9465 157.564 48.8026 157.817C48.6623 158.066 48.5921 158.45 48.5921 158.969V159.343ZM55.6224 160.19L56.6907 156.306H58.5587V162H57.0695V158.953L56.1223 162H55.1278L54.2174 159.053V162H52.7335V156.306H54.57L55.6224 160.19ZM64.0946 162H62.6054V157.548H61.2845V162H59.7901V156.306H64.0946V162ZM67.8886 162C67.8465 161.912 67.8044 161.765 67.7623 161.558C67.4957 161.923 67.1343 162.105 66.6783 162.105C66.2012 162.105 65.8048 161.947 65.489 161.632C65.1768 161.316 65.0207 160.907 65.0207 160.406C65.0207 159.809 65.2101 159.348 65.589 159.022C65.9714 158.695 66.5204 158.529 67.2361 158.522H67.6886V158.064C67.6886 157.808 67.6448 157.627 67.5571 157.522C67.4694 157.417 67.3413 157.364 67.1729 157.364C66.8011 157.364 66.6151 157.582 66.6151 158.017H65.1259C65.1259 157.49 65.3224 157.057 65.7153 156.717C66.1117 156.373 66.6116 156.201 67.215 156.201C67.8395 156.201 68.3218 156.364 68.6621 156.69C69.0059 157.013 69.1778 157.476 69.1778 158.08V160.758C69.1848 161.249 69.255 161.633 69.3883 161.911V162H67.8886ZM67.0098 160.937C67.1747 160.937 67.315 160.904 67.4308 160.837C67.5466 160.77 67.6325 160.691 67.6886 160.6V159.416H67.3308C67.0782 159.416 66.8783 159.497 66.7309 159.658C66.5871 159.82 66.5152 160.035 66.5152 160.306C66.5152 160.727 66.68 160.937 67.0098 160.937ZM74.5453 162H73.0561V159.816H71.7458V162H70.2513V156.306H71.7458V158.585H73.0561V156.306H74.5453V162ZM78.4498 156.306H79.9338V162H78.4498V158.501L77.1237 162H75.6293V156.306H77.1237V159.8L78.4498 156.306ZM85.1433 156.306V162H83.6647V160.037H83.1121L82.186 162H80.6863L81.744 159.753C81.4563 159.595 81.2335 159.385 81.0757 159.122C80.9213 158.855 80.8441 158.553 80.8441 158.216C80.8441 157.652 81.0371 157.192 81.423 156.838C81.8124 156.483 82.3368 156.306 82.9964 156.306H85.1433ZM82.3333 158.264C82.3333 158.464 82.393 158.632 82.5122 158.769C82.635 158.902 82.7911 158.969 82.9806 158.969H83.6647V157.532H82.9753C82.7894 157.532 82.635 157.604 82.5122 157.748C82.393 157.888 82.3333 158.06 82.3333 158.264Z" fill="#1B8E23"/>
<path d="M178.036 46.6463C175.855 45.7794 173.983 46.2195 173.35 46.553C173.242 46.6063 173.242 46.7664 173.35 46.8331C174.01 47.1665 175.774 48.3536 175.37 51.4746C175.168 53.0218 173.902 55.4893 170.131 57.1432C168.932 57.6234 167.667 57.8235 166.374 57.5567C163.209 56.9298 163.128 52.1682 163.128 50.6877C163.128 44.4189 167.855 32.8683 169.283 31.4412C169.525 31.2011 169.767 31.3211 169.767 30.961C169.767 30.1341 167.438 28.3601 164.152 28.3601C162.603 28.3601 160.085 33.7486 158.469 39.4306C155.964 43.9921 152.018 52.2216 150.335 52.2216C150.092 52.2216 149.621 52.1682 149.621 50.6877C149.621 44.4189 154.28 32.8683 155.721 31.4412C156.018 31.2011 156.206 31.3211 156.206 30.961C156.206 30.1341 153.876 28.3601 150.59 28.3601C148.907 28.3601 146.187 34.6423 144.571 40.7643C143.911 41.5646 142.901 42.6183 141.5 43.3919C141.985 41.3245 142.631 38.5369 142.631 35.816C142.631 31.6679 140.423 28 134.915 28C127.091 28 122 38.9504 122 48.0068C122 53.7554 125.232 56.8231 129.528 56.8231C134.551 56.8231 137.783 52.5017 140.234 47.1132C141.662 46.5396 142.78 45.726 143.641 44.8591C143.372 46.3796 143.224 47.7801 143.224 48.9538C143.224 54.2222 145.729 56.6497 149.028 56.6497C151.654 56.6497 154.469 52.6884 156.745 48.2469V48.9538C156.745 50.2876 156.906 51.4346 157.203 52.4083C158.065 55.2893 160.516 60.5844 166.724 60.9845C167.384 61.0246 168.03 60.9846 168.663 60.8912C173.767 60.371 179.975 56.5831 180.945 52.0215C180.999 51.7814 180.999 51.5547 180.999 51.3279C181.039 49.1138 179.948 47.4066 178.036 46.6463ZM135.386 44.4056H134.309C132.221 44.4056 131.494 48.1402 133.837 48.1402C132.518 50.8611 130.902 52.8751 129.528 52.8751C125.165 52.8751 132.572 31.6813 136.706 31.6813C138.672 31.6679 137.245 39.1371 135.386 44.4056Z" fill="#1B8E23"/>
<path d="M115.364 27.5253C110.685 27.5253 105.793 40.8328 105.351 42.1983V42.1849C106.02 39.6546 107.009 36.6424 108.172 33.5632C108.613 32.3985 109.068 31.2471 109.496 30.1761C110.151 28.5695 110.832 26.9898 111.528 25.477C111.594 25.3431 111.661 25.1958 111.728 25.0352C112.196 24.0177 112.664 23.0404 113.132 22.1032C114.268 19.8943 115.565 17.7522 116.688 15.8779C120.819 9.00998 125.818 3.66825 128.612 3.66825C129.869 3.66825 129.695 4.69911 129.628 5.16769C129.388 7.1223 128.666 9.66599 127.543 12.2364C124.348 13.7091 121.795 15.4227 119.843 17.0293C116.634 19.6667 115.899 21.1259 115.605 22.197C115.378 23.027 115.752 24.098 116.474 24.6335C116.862 24.9147 117.356 25.0753 117.944 25.0753C119.362 25.0753 121.313 24.1917 123.559 22.0631C126.808 19.5462 129.401 16.1992 131.112 12.9862C131.206 12.9594 131.299 12.9192 131.38 12.8924C151.325 6.37259 156.713 17.953 156.967 18.4752C157.809 20.1352 158.397 21.8221 158.584 23.3885C158.651 23.8972 158.651 24.3256 158.611 24.7139C158.558 25.7581 158.25 26.9228 157.662 27.9939C158.985 28.7302 164.533 24.5264 163.958 19.6265C163.704 17.3774 160.189 5.08736 138.05 9.14386C135.978 9.47856 134.053 9.92035 132.289 10.4693C132.997 8.6619 133.385 6.98843 133.398 5.62287C133.425 1.37894 130.23 0 128.452 0C120.043 0 108.881 12.4239 103.507 25.9322C103.146 26.7354 102.771 27.7395 102.491 28.5026C102.437 28.6365 102.397 28.7838 102.344 28.9176C101.207 32.1709 99.7768 37.7268 98.9614 42.2519C95.6327 47.4597 89.8174 53.9394 84.7642 53.9394C81.8632 53.9394 79.9649 51.4627 79.8713 47.8747C79.4837 33.4695 92.2371 14.9408 99.1352 14.9408C99.8303 14.9408 100.165 15.3558 100.031 16.1189C99.2688 22.612 92.4911 28.342 93.5873 28.342C94.0686 28.342 104.576 25.7849 104.576 17.297C104.576 14.258 102.785 8.46108 96.1005 8.46108C84.4433 8.46108 73 29.0381 73 44.4341C73 53.0692 76.8635 59 83.3471 59C89.1356 59 94.3092 54.5553 97.9053 49.6955C97.8518 50.405 97.8117 51.0878 97.8117 51.7037C97.8117 55.0372 101.14 57.1659 102.143 56.1618C102.384 55.9208 102.504 55.2648 102.918 54.3812C104.162 55.6263 105.646 56.3358 108.199 56.3358C116.915 56.3358 121.14 41.9573 121.14 35.3036C121.126 29.9619 118.64 27.5253 115.364 27.5253ZM117.69 23.0136C117.637 22.9734 117.57 22.7994 117.557 22.7592C117.677 22.3308 117.998 21.2063 121.14 18.609C122.463 17.5112 124.094 16.3599 126.032 15.2889C124.094 18.6626 121.46 21.6748 118.292 23.0136C117.971 23.0672 117.757 23.0404 117.69 23.0136ZM105.525 52.9621C104.75 52.9621 104.402 51.8911 104.282 50.5791C106.06 46.0674 111.581 31.9834 114.068 31.9834C114.656 31.9834 114.776 33.108 114.776 34.0585C114.776 39.8822 109.255 53.0826 105.525 52.9621Z" fill="#1B8E23"/>
<path d="M186.63 64.4421C187.497 62.4048 188.718 59.9118 190.202 58.0354C190.386 57.8075 190.74 57.4859 191.069 57.7673C191.069 57.7673 191.384 58.089 191.042 58.5447C191.042 58.5447 189.112 61.1449 187.655 65.7422C187.602 65.903 187.76 66.0504 187.917 65.9834C194.312 63.1152 198.816 56.6817 199 49.1357C199 49.0553 198.934 48.9883 198.856 49.0017C191.633 49.7657 186 55.9981 186 63.5709C186 63.8255 186.013 64.0668 186.013 64.3214C186.053 64.6565 186.499 64.7503 186.63 64.4421Z" fill="#1B8E23"/>
<path d="M84.3516 67C81.3966 67 78.6639 72.2571 77.4479 74.6813C75.8789 77.5823 74.3099 81.5183 72.924 85.0184C75.5913 77.5278 78.2063 70.9905 78.2063 70.1461C78.2063 67.9125 74.0876 67.0681 72.8063 67.0681C71.5249 67.0681 71.2373 67.5584 71.2373 68.8795C71.2373 71.7804 63 95.3556 63 105.27C63 108.662 66.661 111.018 66.9487 109.561C67.4717 107.082 68.9753 100.79 71.3027 94.0209C72.5186 95.7778 74.3753 96.2544 77.3433 96.2544C85.8683 96.2544 90 81.6272 90 74.8584C89.9869 69.4787 87.5419 67 84.3516 67ZM74.7153 92.8768C73.7346 92.8768 72.6886 91.9643 72.6886 90.2211C74.9506 84.1196 81.1613 71.5353 83.0702 71.5353C83.6455 71.5353 83.7632 72.6793 83.7632 73.6463C83.7763 79.5707 78.3763 92.9858 74.7153 92.8768Z" fill="#1B8E23"/>
<path d="M210.495 74.2412C210.292 73.9227 209.793 73.4797 209.375 73.9089C209.226 79.6132 204.22 87.5882 199.024 91.5757L199.011 91.5896L198.997 91.6034C196.838 93.1956 194.908 93.9017 193.195 93.3202C191.521 92.7526 191.467 90.0389 191.575 88.4605C192.344 81.7593 196.312 71.9013 197.607 70.5721C197.85 70.3229 198.093 70.4475 198.093 70.0737C198.093 69.2153 195.759 67.3738 192.466 67.3738C190.914 67.3738 188.391 72.9674 186.771 78.8656C184.261 83.6007 180.307 92.1434 178.62 92.1434C178.378 92.1434 177.905 92.088 177.905 90.5511C177.905 84.0438 182.574 72.0536 184.018 70.5721C184.315 70.3229 184.504 70.4475 184.504 70.0737C184.504 69.2153 182.169 67.3738 178.877 67.3738C177.352 67.3738 174.977 72.7043 173.344 78.4225C170.875 83.0469 166.745 92.1295 164.991 92.1295C164.748 92.1295 164.276 92.1295 164.276 90.5373C164.276 84.0299 168.945 74.1304 170.389 72.6489C170.632 72.3443 170.875 72.5243 170.875 72.1505C170.875 71.2229 168.54 69.4506 165.247 69.4506C164.761 69.4506 164.235 69.8799 163.628 70.6829C162.373 68.343 160.457 67 156.921 67C148.581 67 144.331 80.347 143.899 87.6021C142.401 90.4404 140.997 92.6695 140.161 92.6695C139.931 92.6695 139.459 92.6003 139.459 91.0357C139.459 84.3761 144.047 72.1367 145.451 70.6275C145.748 70.3783 145.923 70.5029 145.923 70.1291C145.923 69.2568 143.629 67.3738 140.404 67.3738C138.744 67.3738 136.058 74.0889 134.466 80.6101L130.998 80.5409C132.212 75.7365 133.427 71.5967 133.427 70.7244C133.427 68.4399 130.013 67.5677 128.96 67.5677C127.908 67.5677 127.665 68.0661 127.665 69.423C127.665 70.946 126.558 75.5842 125.479 80.4163L122.604 80.347C122.928 78.561 123.104 76.8995 123.104 75.5565C123.104 70.0875 120.594 67.5677 117.287 67.5677C114.589 67.5677 112.092 71.7213 110.662 74.3935C110.068 70.4337 108.111 67 103.402 67C96.4518 67 91 78.3671 91 87.7682C91 93.7356 94.1712 97.0447 98.368 97.0447C102.443 97.0447 106.519 92.4341 108.975 86.8406C109.555 85.4422 109.757 84.8468 110.23 82.9638C110.486 81.8839 110.689 80.5962 110.797 79.2394C112.915 75.3073 114.993 72.1644 115.965 72.1644C116.559 72.1644 116.68 73.3274 116.68 74.3104C116.68 79.7655 114.008 91.3403 109.029 93.6941C107.207 94.414 105.952 93.8048 105.925 93.8048C105.763 93.6802 105.682 93.6387 105.561 93.7633C105.358 93.971 105.574 95.7017 107.126 96.7539C108.395 97.6123 110.999 97.2662 111.417 97.1693V97.1554C116.343 96.2416 119.676 90.5511 121.484 84.8191H124.534C123.927 87.8097 123.481 90.5373 123.481 92.2126C123.481 95.674 127.233 97.8339 128.056 96.7816C128.11 96.7124 128.178 96.6016 128.245 96.477C128.65 94.054 129.109 89.3189 129.122 89.2497C129.109 89.1389 129.149 89.0004 129.149 88.8897C129.379 87.5744 129.662 86.1898 129.972 84.8053H133.602C133.333 86.439 133.184 87.9343 133.184 89.1943C133.184 94.7879 135.654 97.3493 138.879 97.3493C140.701 97.3493 142.603 95.2586 144.358 92.3926C145.235 95.3417 147.245 96.7262 149.688 96.7262C152.387 96.7262 155.504 92.0603 157.96 86.9513C157.906 87.5605 157.906 88.1836 157.906 88.7374C157.906 94.2063 160.416 96.7262 163.722 96.7262C166.421 96.7262 169.35 92.4618 171.59 87.782C171.576 88.1143 171.563 88.4328 171.563 88.7374C171.563 94.2063 174.073 96.7262 177.379 96.7262C179.754 96.7262 182.277 93.3756 184.423 89.3466C184.504 90.8834 184.909 93.3202 186.488 95.1063C187.851 96.8924 189.834 98 192.223 98C200.09 98 207.081 88.1005 210.454 79.4055C210.994 77.5364 211.331 75.5427 210.495 74.2412ZM104.063 83.8915C104.049 83.933 104.036 83.9884 104.022 84.0299C104.022 84.0299 103.388 86.0237 102.47 87.9067C102.443 87.9482 102.43 87.9897 102.403 88.0451C101.094 90.8004 99.5691 92.8356 98.2061 92.8356C93.591 92.8356 100.716 71.7628 104.859 71.7628C106.816 71.7351 105.885 78.4502 104.063 83.8915ZM150.956 92.1434C150.363 92.1434 150.241 90.9803 150.241 89.9973C150.241 83.9745 155.815 70.3368 159.58 70.4614C160.538 70.4614 161.617 72.1782 161.739 73.8397C158.5 79.8486 152.819 92.1434 150.956 92.1434Z" fill="#1B8E23"/>
<path d="M69.3375 67.253C70.1497 64.642 70.8129 62.9462 70.9077 62.852C71.6251 62.2598 68.0245 58.9623 64.8435 58.9623C64.6676 58.9623 64.3021 59.6756 63.7606 60.8735C63.5576 61.2773 62.6778 62.9327 61.5272 65.3419C56.5188 76.0821 49.3041 90.9812 47.5986 90.9812C46.8812 90.9812 46.6916 89.4334 46.6916 88.7739C46.6916 81.0081 55.2871 65.2342 55.2871 59.3257C55.2871 55.9206 53.1213 53 49.3989 53C43.8761 53 32.8713 58.9758 31.8561 67.3338C31.2605 72.6501 36.9051 76.6474 38.2181 75.5168C39.0573 74.7362 36.7156 75.1534 37.2029 71.035C38.2857 61.7752 48.0723 55.9744 48.9251 56.93C50.3735 58.5989 40.0996 79.218 39.9778 88.3567C39.9236 92.5962 42.3872 95.5303 45.8659 95.5303C49.3447 95.5303 52.5934 89.4334 57.6423 78.3836C56.0721 83.5922 54.1365 89.5814 52.0925 94.6689C52.0113 94.8843 51.9166 95.0996 51.8354 95.3015C37.0946 99.0296 29 111.641 29 117.347C29 121.614 32.208 123 34.0083 123C42.4278 123 53.568 110.779 59.0772 97.3742C59.1313 97.253 59.1854 97.1184 59.2396 96.9838C59.2531 96.9569 59.2531 96.9435 59.2667 96.9165C60.3495 96.7954 61.3783 96.7416 62.407 96.7416C63.2463 96.7416 62.7725 93.498 60.2954 94.3324C60.8504 92.7981 61.3512 91.21 61.7844 89.6218L61.7167 89.6487C62.38 87.4414 62.8808 85.638 62.9891 85.3015C65.006 78.9489 67.3612 72.4482 69.3375 67.253ZM34.5363 118.424C33.2639 118.424 33.2097 117.522 33.2097 117.038C33.2097 113.431 40.5869 102.502 49.8185 99.6756C44.6342 110.564 38.2857 118.424 34.5363 118.424Z" fill="#1B8E23"/>
<path d="M78.8786 107.795C78.9483 107.865 79.0318 107.936 79.1154 108.02C79.2129 108.105 79.2965 108.189 79.3801 108.274C79.4637 108.359 79.5473 108.429 79.6169 108.486C79.6866 108.556 79.7284 108.598 79.7562 108.612C79.8816 108.725 79.9512 108.838 79.9791 108.965C80.007 109.092 80.007 109.205 79.9791 109.303C79.9512 109.402 79.9234 109.501 79.8677 109.571C79.8259 109.656 79.7841 109.698 79.7701 109.727C79.7144 109.797 79.6448 109.853 79.5473 109.896C79.4497 109.938 79.3522 109.98 79.2547 109.994C79.1433 110.009 79.0458 109.994 78.9343 109.966C78.8229 109.938 78.7114 109.868 78.6139 109.769C78.5721 109.727 78.5164 109.67 78.4468 109.586C78.3771 109.515 78.2935 109.43 78.2239 109.346C78.1403 109.261 78.0706 109.177 77.9871 109.092C77.9035 109.007 77.8338 108.923 77.7642 108.852L76.4965 107.555L75.2149 108.866C75.1453 108.937 75.0756 109.021 74.992 109.106C74.9085 109.191 74.8388 109.275 74.7692 109.346C74.6995 109.43 74.6299 109.501 74.5741 109.557C74.5184 109.628 74.4627 109.67 74.4209 109.712C74.3652 109.783 74.2816 109.839 74.198 109.882C74.1005 109.938 74.003 109.966 73.9055 109.98C73.794 109.994 73.6965 109.98 73.5851 109.952C73.4736 109.924 73.3622 109.853 73.2647 109.755C73.195 109.698 73.1393 109.614 73.0975 109.515C73.0557 109.416 73.0279 109.318 73.0139 109.219C73 109.106 73.0139 109.007 73.0557 108.895C73.0975 108.782 73.1672 108.683 73.2647 108.598C73.2925 108.556 73.3483 108.514 73.4179 108.443C73.4876 108.373 73.5572 108.302 73.6408 108.218C73.7244 108.133 73.808 108.063 73.8915 107.978C73.9751 107.893 74.0587 107.823 74.1423 107.752L75.4517 106.497L74.0726 105.186C74.003 105.115 73.9194 105.045 73.8358 104.96C73.7522 104.876 73.6687 104.805 73.5851 104.72C73.5015 104.65 73.4179 104.565 73.3065 104.467C73.209 104.368 73.1393 104.269 73.0836 104.156C73.0279 104.044 73.0139 103.931 73 103.832C73 103.719 73.0139 103.62 73.0557 103.522C73.0975 103.423 73.1532 103.338 73.2229 103.254C73.2925 103.183 73.3761 103.127 73.4736 103.071C73.5711 103.028 73.6687 103 73.7801 103C73.8915 103 74.003 103.028 74.1284 103.085C74.2537 103.141 74.3791 103.24 74.5045 103.381C74.5463 103.437 74.602 103.494 74.6577 103.55C74.6995 103.606 74.7552 103.663 74.8109 103.719C74.8667 103.79 74.9224 103.846 74.992 103.917L76.4826 105.468L78.6 103.254C78.6418 103.212 78.6975 103.169 78.7811 103.113C78.8647 103.071 78.9483 103.028 79.0597 103.014C79.1572 103 79.2687 103 79.394 103.042C79.5055 103.071 79.6308 103.141 79.7423 103.254C79.8119 103.324 79.8677 103.395 79.9095 103.494C79.9512 103.578 79.9791 103.677 79.993 103.79C80.007 103.888 79.9791 104.001 79.9512 104.1C79.9095 104.213 79.8537 104.311 79.7701 104.396C79.7284 104.438 79.6726 104.495 79.603 104.565C79.5333 104.636 79.4497 104.706 79.3662 104.791C79.2826 104.876 79.1851 104.946 79.1015 105.031C79.004 105.115 78.9343 105.186 78.8507 105.256L77.5413 106.511L78.8786 107.795Z" fill="#1B8E23"/>
<path d="M81 106.493C81 106.014 81.0984 105.563 81.2811 105.141C81.4639 104.718 81.7169 104.352 82.0402 104.028C82.3634 103.718 82.7289 103.465 83.1506 103.282C83.5723 103.099 84.0221 103 84.5 103C84.9779 103 85.4277 103.099 85.8494 103.282C86.2711 103.465 86.6365 103.718 86.9598 104.028C87.2831 104.338 87.5361 104.718 87.7189 105.141C87.9016 105.563 88 106.014 88 106.493C88 106.972 87.9016 107.423 87.7189 107.859C87.5361 108.282 87.2831 108.662 86.9598 108.972C86.6365 109.282 86.2711 109.535 85.8494 109.718C85.4277 109.901 84.9779 110 84.5 110C84.0221 110 83.5723 109.901 83.1506 109.718C82.7289 109.535 82.3634 109.282 82.0402 108.972C81.7169 108.662 81.4779 108.282 81.2811 107.859C81.0843 107.437 81 106.972 81 106.493ZM82.6867 106.493C82.6867 106.746 82.7289 107 82.8273 107.225C82.9257 107.451 83.0522 107.648 83.2068 107.831C83.3755 108 83.5582 108.141 83.7831 108.239C84.008 108.338 84.247 108.394 84.5 108.394C84.753 108.394 84.992 108.338 85.2169 108.239C85.4418 108.141 85.6245 108 85.7932 107.831C85.9618 107.662 86.0884 107.465 86.1727 107.225C86.2711 107 86.3133 106.746 86.3133 106.493C86.3133 106.239 86.2711 106 86.1727 105.761C86.0743 105.535 85.9478 105.338 85.7932 105.155C85.6245 104.986 85.4418 104.845 85.2169 104.746C84.992 104.648 84.7671 104.592 84.5 104.592C84.247 104.592 84.008 104.648 83.7831 104.746C83.5582 104.845 83.3755 104.986 83.2068 105.155C83.0381 105.324 82.9116 105.521 82.8273 105.761C82.7289 105.986 82.6867 106.239 82.6867 106.493Z" fill="#1B8E23"/>
<path d="M90.0141 103.44C90.0141 103.151 90.1687 103 90.4639 103C90.6325 103 90.7871 103.069 90.9137 103.192C91.0402 103.316 91.1386 103.522 91.1948 103.811L91.504 104.718L91.6867 104.814V111.176C91.6867 111.285 91.6586 111.395 91.6165 111.492C91.5743 111.588 91.5181 111.67 91.4337 111.753C91.3635 111.821 91.2651 111.89 91.1667 111.931C91.0683 111.973 90.9558 112 90.8434 112C90.6044 112 90.4076 111.918 90.239 111.766C90.0843 111.615 90 111.423 90 111.176L90.0141 103.44ZM90.4779 106.408C90.4779 105.94 90.5482 105.501 90.7028 105.089C90.8574 104.676 91.0683 104.319 91.3494 104.003C91.6305 103.701 91.9679 103.453 92.3474 103.275C92.741 103.096 93.1767 103 93.6546 103C94.1325 103 94.5823 103.096 94.99 103.275C95.3976 103.453 95.749 103.701 96.0442 104.003C96.3394 104.305 96.5783 104.676 96.747 105.089C96.9157 105.501 97 105.94 97 106.408C97 106.875 96.9157 107.315 96.747 107.74C96.5783 108.153 96.3394 108.524 96.0442 108.826C95.749 109.128 95.3976 109.376 94.99 109.554C94.5823 109.733 94.1325 109.829 93.6546 109.829C93.2329 109.829 92.8253 109.733 92.4458 109.554C92.0663 109.376 91.7289 109.128 91.4337 108.826C91.1386 108.524 90.9137 108.153 90.7309 107.74C90.5623 107.315 90.4779 106.875 90.4779 106.408ZM91.7008 106.408C91.7008 106.655 91.743 106.902 91.8414 107.122C91.9398 107.342 92.0663 107.534 92.2209 107.713C92.3896 107.878 92.5723 108.015 92.7972 108.111C93.0221 108.208 93.261 108.263 93.5141 108.263C93.7671 108.263 94.006 108.208 94.2309 108.111C94.4558 108.015 94.6386 107.878 94.8072 107.713C94.9759 107.548 95.1024 107.356 95.1867 107.122C95.2851 106.902 95.3273 106.655 95.3273 106.408C95.3273 106.16 95.2851 105.927 95.1867 105.693C95.0883 105.473 94.9619 105.281 94.8072 105.102C94.6386 104.937 94.4558 104.8 94.2309 104.704C94.006 104.608 93.7811 104.553 93.5141 104.553C93.261 104.553 93.0221 104.608 92.7972 104.704C92.5723 104.8 92.3896 104.937 92.2209 105.102C92.0522 105.267 91.9257 105.46 91.8414 105.693C91.743 105.913 91.7008 106.16 91.7008 106.408Z" fill="#1B8E23"/>
<path d="M98 106.493C98 106.014 98.0984 105.563 98.2811 105.141C98.4639 104.718 98.7169 104.352 99.0402 104.028C99.3634 103.718 99.7289 103.465 100.151 103.282C100.572 103.099 101.022 103 101.5 103C101.978 103 102.428 103.099 102.849 103.282C103.271 103.465 103.637 103.718 103.96 104.028C104.283 104.338 104.536 104.718 104.719 105.141C104.902 105.563 105 106.014 105 106.493C105 106.972 104.902 107.423 104.719 107.859C104.536 108.282 104.283 108.662 103.96 108.972C103.637 109.282 103.271 109.535 102.849 109.718C102.428 109.901 101.978 110 101.5 110C101.022 110 100.572 109.901 100.151 109.718C99.7289 109.535 99.3634 109.282 99.0402 108.972C98.7169 108.662 98.4779 108.282 98.2811 107.859C98.0843 107.437 98 106.972 98 106.493ZM99.6867 106.493C99.6867 106.746 99.7289 107 99.8273 107.225C99.9257 107.451 100.052 107.648 100.207 107.831C100.376 108 100.558 108.141 100.783 108.239C101.008 108.338 101.247 108.394 101.5 108.394C101.753 108.394 101.992 108.338 102.217 108.239C102.442 108.141 102.624 108 102.793 107.831C102.962 107.662 103.088 107.465 103.173 107.225C103.271 107 103.313 106.746 103.313 106.493C103.313 106.239 103.271 106 103.173 105.761C103.074 105.535 102.948 105.338 102.793 105.155C102.624 104.986 102.442 104.845 102.217 104.746C101.992 104.648 101.767 104.592 101.5 104.592C101.247 104.592 101.008 104.648 100.783 104.746C100.558 104.845 100.376 104.986 100.207 105.155C100.038 105.324 99.9116 105.521 99.8273 105.761C99.7289 105.986 99.6867 106.239 99.6867 106.493Z" fill="#1B8E23"/>
<path d="M114.081 109.986H110.609H110.566H110.522H106.934H106.89H106.846C106.788 109.986 106.744 109.986 106.686 109.971C106.627 109.957 106.583 109.943 106.54 109.928C106.408 109.871 106.292 109.784 106.19 109.669C106.102 109.554 106.044 109.411 106.015 109.253C106.015 109.238 106 109.209 106 109.166V109.138V103.862C106 103.747 106.029 103.632 106.073 103.532C106.117 103.431 106.175 103.345 106.248 103.259C106.321 103.187 106.408 103.115 106.525 103.072C106.627 103.029 106.744 103 106.861 103C106.977 103 107.094 103.029 107.196 103.072C107.298 103.115 107.386 103.172 107.473 103.259C107.546 103.331 107.619 103.431 107.663 103.532C107.707 103.632 107.736 103.747 107.736 103.862V108.29L109.676 108.304V104.38V103.862C109.676 103.747 109.705 103.632 109.749 103.532C109.793 103.431 109.851 103.345 109.924 103.259C109.997 103.187 110.084 103.115 110.201 103.072C110.303 103.029 110.42 103 110.536 103C110.653 103 110.77 103.029 110.872 103.072C110.974 103.115 111.062 103.172 111.149 103.259C111.222 103.331 111.295 103.431 111.339 103.532C111.383 103.632 111.412 103.747 111.412 103.862V108.29H113.264V103.862C113.264 103.747 113.293 103.632 113.337 103.532C113.381 103.431 113.439 103.345 113.512 103.259C113.585 103.187 113.673 103.115 113.789 103.072C113.891 103.029 114.008 103 114.125 103C114.241 103 114.358 103.029 114.46 103.072C114.562 103.115 114.65 103.172 114.737 103.259C114.81 103.331 114.883 103.431 114.927 103.532C114.971 103.632 115 103.747 115 103.862V109.109V109.152C115 109.267 114.971 109.382 114.927 109.483C114.883 109.583 114.825 109.669 114.737 109.756C114.665 109.828 114.562 109.885 114.46 109.928C114.358 109.971 114.241 110 114.125 110H114.081V109.986Z" fill="#1B8E23"/>
<path d="M122.552 106.486C122.552 106.964 122.482 107.414 122.342 107.849C122.202 108.271 122.006 108.651 121.74 108.96C121.474 109.269 121.152 109.522 120.774 109.705C120.396 109.888 119.962 109.986 119.486 109.986C119.01 109.986 118.562 109.888 118.142 109.705C117.722 109.522 117.358 109.269 117.036 108.96C116.714 108.651 116.476 108.271 116.28 107.849C116.098 107.428 116 106.978 116 106.486C116 105.994 116.098 105.558 116.28 105.137C116.462 104.715 116.714 104.349 117.036 104.026C117.358 103.717 117.722 103.464 118.142 103.281C118.562 103.098 119.01 103 119.486 103C119.962 103 120.396 103.098 120.774 103.281C121.152 103.464 121.474 103.717 121.74 104.026C122.006 104.335 122.202 104.715 122.342 105.137C122.482 105.558 122.552 106.008 122.552 106.486ZM121.306 106.486C121.306 106.233 121.264 105.994 121.166 105.755C121.068 105.53 120.942 105.333 120.788 105.151C120.62 104.982 120.438 104.841 120.214 104.743C119.99 104.645 119.766 104.588 119.5 104.588C119.248 104.588 119.01 104.645 118.786 104.743C118.562 104.841 118.38 104.982 118.212 105.151C118.044 105.319 117.918 105.516 117.834 105.755C117.736 105.98 117.694 106.219 117.694 106.486C117.694 106.739 117.736 106.992 117.834 107.217C117.932 107.442 118.058 107.639 118.212 107.821C118.366 108.004 118.562 108.131 118.786 108.229C119.01 108.327 119.248 108.384 119.5 108.384C119.752 108.384 119.99 108.327 120.214 108.229C120.438 108.131 120.62 107.99 120.788 107.821C120.956 107.653 121.082 107.456 121.166 107.217C121.25 106.992 121.306 106.753 121.306 106.486ZM122.986 106.711C122.986 106.823 122.958 106.936 122.916 107.034C122.874 107.133 122.818 107.231 122.734 107.301C122.664 107.371 122.566 107.442 122.468 107.484C122.37 107.526 122.258 107.554 122.146 107.554C122.034 107.554 121.922 107.526 121.824 107.484C121.726 107.442 121.628 107.386 121.558 107.301C121.488 107.231 121.418 107.133 121.376 107.034C121.334 106.936 121.306 106.823 121.306 106.711V104.855L121.488 104.757L121.796 103.829C121.852 103.534 121.95 103.323 122.076 103.197C122.202 103.07 122.356 103.014 122.524 103.014C122.818 103.014 122.972 103.169 122.972 103.464V106.711H122.986ZM122.986 109.494C122.986 109.649 122.944 109.761 122.86 109.859C122.776 109.944 122.664 110 122.496 110C122.328 110 122.174 109.944 122.062 109.845C121.936 109.747 121.852 109.564 121.81 109.311L121.502 108.229L121.32 108.131V106.5C121.32 106.388 121.348 106.275 121.39 106.177C121.432 106.078 121.488 105.994 121.572 105.91C121.642 105.839 121.74 105.769 121.838 105.727C121.936 105.685 122.048 105.657 122.16 105.657C122.272 105.657 122.384 105.685 122.482 105.727C122.58 105.769 122.664 105.825 122.748 105.91C122.818 105.98 122.888 106.078 122.93 106.177C122.972 106.275 123 106.388 123 106.5V109.494H122.986Z" fill="#1B8E23"/>
<path d="M125 105.642C125 105.269 125.067 104.924 125.213 104.594C125.347 104.278 125.533 103.991 125.773 103.761C126.013 103.531 126.28 103.345 126.6 103.201C126.907 103.072 127.24 103 127.587 103H129.507C129.627 103 129.72 103.029 129.787 103.072C129.853 103.115 129.907 103.187 129.933 103.258C129.96 103.33 129.987 103.402 129.987 103.488C130 103.574 130 103.646 130 103.718V109.203C130 109.289 129.987 109.375 129.947 109.476C129.92 109.576 129.867 109.663 129.8 109.734C129.733 109.806 129.653 109.878 129.56 109.921C129.467 109.978 129.36 109.993 129.227 109.993C129.093 109.993 128.987 109.964 128.88 109.921C128.773 109.864 128.693 109.806 128.627 109.734C128.56 109.663 128.507 109.576 128.467 109.476C128.427 109.375 128.413 109.289 128.413 109.203V108.184H127.56C127.213 108.184 126.893 108.126 126.573 107.997C126.267 107.868 125.987 107.695 125.747 107.466C125.507 107.236 125.32 106.977 125.187 106.662C125.08 106.346 125 106.015 125 105.642ZM127.52 107.896L126.44 109.677C126.307 109.864 126.133 109.964 125.933 109.993C125.733 110.021 125.533 109.964 125.36 109.835C125.187 109.677 125.093 109.49 125.067 109.275C125.04 109.059 125.093 108.858 125.227 108.672L126.267 106.977L127.52 107.896ZM126.547 105.656C126.547 105.829 126.573 106.001 126.64 106.145C126.707 106.288 126.787 106.417 126.893 106.518C127 106.618 127.133 106.705 127.28 106.748C127.427 106.805 127.587 106.834 127.747 106.834L128.427 106.848V104.393L127.747 104.407C127.587 104.407 127.427 104.436 127.28 104.508C127.133 104.579 127.013 104.666 126.893 104.78C126.787 104.895 126.693 105.025 126.64 105.183C126.587 105.326 126.547 105.484 126.547 105.656Z" fill="#1B8E23"/>
<path d="M136 105.179V103.849C136 103.736 136.028 103.623 136.069 103.523C136.111 103.424 136.167 103.34 136.236 103.255C136.306 103.184 136.389 103.113 136.5 103.071C136.597 103.028 136.708 103 136.819 103C136.931 103 137.042 103.028 137.139 103.071C137.236 103.113 137.333 103.17 137.403 103.255C137.472 103.325 137.542 103.424 137.583 103.523C137.625 103.623 137.653 103.736 137.653 103.849V105.179H136ZM137.639 104.853V107.146V109.041C137.639 109.169 137.611 109.296 137.569 109.409C137.528 109.522 137.458 109.622 137.389 109.706C137.306 109.791 137.222 109.848 137.125 109.905C137.028 109.947 136.917 109.975 136.792 109.975C136.542 109.975 136.347 109.89 136.208 109.706C136.069 109.537 136 109.31 136 109.041V104.528L137.639 104.853ZM141.292 103.028C141.444 103.042 141.583 103.085 141.694 103.17C141.806 103.255 141.875 103.354 141.931 103.467C141.986 103.58 142 103.707 142 103.835C142 103.962 141.972 104.089 141.917 104.203C141.861 104.316 141.778 104.415 141.681 104.486C141.569 104.556 141.444 104.599 141.292 104.599C141.25 104.599 141.208 104.585 141.194 104.585C141.181 104.585 141.153 104.585 141.125 104.585C140.917 104.585 140.75 104.627 140.611 104.726C140.472 104.825 140.347 104.967 140.25 105.136C140.125 105.349 140 105.575 139.889 105.787C139.764 105.999 139.653 106.198 139.528 106.396C139.403 106.594 139.278 106.764 139.153 106.933C139.014 107.103 138.875 107.245 138.722 107.372C138.556 107.499 138.389 107.598 138.194 107.669C138 107.74 137.792 107.782 137.569 107.782C137.514 107.782 137.472 107.782 137.417 107.782C137.375 107.782 137.319 107.782 137.264 107.768L137.236 106.141H137.542C137.694 106.141 137.819 106.113 137.944 106.056C138.056 105.999 138.167 105.929 138.264 105.83C138.403 105.688 138.528 105.518 138.639 105.32C138.75 105.122 138.861 104.91 138.958 104.684C139.069 104.471 139.181 104.245 139.319 104.033C139.444 103.821 139.597 103.637 139.778 103.481C139.931 103.34 140.097 103.226 140.292 103.141C140.486 103.057 140.708 103.014 140.972 103.014L141.292 103.028ZM139.819 105.561C139.958 105.787 140.111 106.042 140.278 106.325C140.444 106.608 140.625 106.877 140.792 107.174C140.972 107.457 141.139 107.74 141.306 108.023C141.472 108.306 141.625 108.546 141.764 108.787C141.847 108.928 141.875 109.07 141.861 109.211C141.847 109.353 141.806 109.48 141.736 109.593C141.667 109.721 141.542 109.82 141.403 109.905C141.25 109.989 141.083 110.018 140.903 109.989C140.778 109.975 140.667 109.933 140.583 109.862C140.486 109.791 140.389 109.678 140.306 109.537L138.542 106.636L139.819 105.561Z" fill="#1B8E23"/>
<path d="M143 106.493C143 106.014 143.098 105.563 143.281 105.141C143.464 104.718 143.717 104.352 144.04 104.028C144.363 103.718 144.729 103.465 145.151 103.282C145.572 103.099 146.022 103 146.5 103C146.978 103 147.428 103.099 147.849 103.282C148.271 103.465 148.637 103.718 148.96 104.028C149.283 104.338 149.522 104.718 149.719 105.141C149.902 105.563 150 106.014 150 106.493C150 106.972 149.902 107.423 149.719 107.859C149.536 108.282 149.283 108.662 148.96 108.972C148.637 109.282 148.271 109.535 147.849 109.718C147.428 109.901 146.978 110 146.5 110C146.022 110 145.572 109.901 145.151 109.718C144.729 109.535 144.363 109.282 144.04 108.972C143.717 108.662 143.464 108.282 143.281 107.859C143.098 107.423 143 106.972 143 106.493ZM144.687 106.493C144.687 106.746 144.729 107 144.827 107.225C144.926 107.451 145.052 107.648 145.207 107.831C145.376 108 145.558 108.141 145.783 108.239C146.008 108.338 146.247 108.394 146.5 108.394C146.753 108.394 146.992 108.338 147.217 108.239C147.442 108.141 147.624 108 147.793 107.831C147.962 107.662 148.088 107.465 148.173 107.225C148.271 107 148.313 106.746 148.313 106.493C148.313 106.239 148.271 106 148.173 105.761C148.074 105.535 147.948 105.338 147.793 105.155C147.624 104.986 147.442 104.845 147.217 104.746C146.992 104.648 146.767 104.592 146.5 104.592C146.247 104.592 146.008 104.648 145.783 104.746C145.558 104.845 145.376 104.986 145.207 105.155C145.038 105.324 144.912 105.521 144.827 105.761C144.729 105.986 144.687 106.239 144.687 106.493Z" fill="#1B8E23"/>
<path d="M152.715 105.424C152.715 105.826 152.715 106.199 152.715 106.514C152.715 106.844 152.715 107.145 152.715 107.447C152.715 107.734 152.715 108.02 152.715 108.307C152.715 108.594 152.715 108.895 152.715 109.211C152.715 109.297 152.701 109.383 152.659 109.484C152.616 109.584 152.559 109.67 152.488 109.742C152.417 109.814 152.332 109.885 152.232 109.928C152.133 109.986 152.019 110 151.891 110C151.764 110 151.636 109.971 151.536 109.928C151.423 109.871 151.337 109.814 151.266 109.742C151.195 109.67 151.139 109.584 151.096 109.484C151.053 109.383 151.039 109.297 151.039 109.211C151.039 108.795 151.039 108.35 151.039 107.891C151.039 107.432 151.039 106.959 151.039 106.486C151.039 106.012 151.039 105.539 151.039 105.08C151.039 104.607 151.039 104.162 151.039 103.732C151.039 103.631 151.025 103.531 151.011 103.445C150.996 103.359 150.996 103.273 151.011 103.215C151.025 103.143 151.067 103.1 151.124 103.057C151.195 103.014 151.295 103 151.451 103C151.693 103 151.906 103.014 152.09 103.029C152.275 103.057 152.417 103.115 152.502 103.215L154.52 105.639C154.804 105.281 155.059 104.965 155.258 104.707C155.457 104.449 155.628 104.234 155.77 104.061C155.912 103.889 156.025 103.746 156.096 103.645C156.182 103.545 156.238 103.473 156.295 103.416C156.338 103.359 156.366 103.316 156.395 103.301C156.409 103.273 156.437 103.258 156.452 103.244C156.508 103.172 156.594 103.115 156.707 103.072C156.821 103.029 156.991 103 157.204 103C157.389 103 157.531 103.043 157.631 103.115C157.73 103.201 157.815 103.301 157.872 103.416C157.929 103.545 157.957 103.674 157.972 103.832C157.986 103.99 158 104.133 158 104.262V109.211C158 109.297 157.986 109.383 157.943 109.484C157.901 109.584 157.844 109.67 157.773 109.742C157.702 109.814 157.616 109.885 157.503 109.928C157.403 109.971 157.275 110 157.148 110C156.906 110 156.707 109.928 156.551 109.77C156.395 109.627 156.324 109.441 156.324 109.211V105.395L155.045 107.102C154.96 107.203 154.889 107.289 154.804 107.361C154.718 107.432 154.633 107.475 154.534 107.475C154.42 107.475 154.335 107.447 154.264 107.375C154.193 107.303 154.108 107.217 154.008 107.102L152.715 105.424Z" fill="#1B8E23"/>
<path d="M160.012 103.842C160.012 103.729 160.037 103.617 160.074 103.519C160.111 103.421 160.161 103.337 160.235 103.253C160.297 103.182 160.383 103.112 160.47 103.07C160.557 103.028 160.656 103 160.755 103C160.854 103 160.953 103.028 161.039 103.07C161.126 103.112 161.2 103.168 161.274 103.253C161.336 103.323 161.398 103.421 161.435 103.519C161.472 103.617 161.497 103.729 161.497 103.842V109.158C161.497 109.271 161.472 109.383 161.435 109.481C161.398 109.579 161.348 109.677 161.274 109.747C161.212 109.818 161.126 109.888 161.039 109.93C160.953 109.972 160.854 110 160.755 110C160.656 110 160.557 109.972 160.47 109.93C160.383 109.888 160.297 109.832 160.235 109.747C160.173 109.677 160.111 109.579 160.074 109.481C160.037 109.383 160.012 109.271 160.012 109.158V103.842ZM160.012 103.842C160.012 103.729 160.037 103.617 160.074 103.519C160.111 103.421 160.161 103.337 160.235 103.253C160.297 103.182 160.383 103.112 160.47 103.07C160.557 103.028 160.656 103 160.755 103C160.854 103 160.953 103.028 161.039 103.07C161.126 103.112 161.2 103.168 161.274 103.253C161.336 103.323 161.398 103.421 161.435 103.519C161.472 103.617 161.497 103.729 161.497 103.842V109.158C161.497 109.271 161.472 109.383 161.435 109.481C161.398 109.579 161.348 109.677 161.274 109.747C161.212 109.818 161.126 109.888 161.039 109.93C160.953 109.972 160.854 110 160.755 110C160.656 110 160.557 109.972 160.47 109.93C160.383 109.888 160.297 109.832 160.235 109.747C160.173 109.677 160.111 109.579 160.074 109.481C160.037 109.383 160.012 109.271 160.012 109.158V103.842ZM160.742 104.669C160.643 104.669 160.544 104.641 160.458 104.599C160.371 104.557 160.285 104.501 160.223 104.431C160.161 104.361 160.099 104.277 160.062 104.164C160.025 104.066 160 103.954 160 103.842C160 103.729 160.025 103.617 160.062 103.519C160.099 103.421 160.148 103.337 160.223 103.253C160.285 103.182 160.371 103.112 160.458 103.07C160.544 103.028 160.643 103 160.742 103H165.258C165.357 103 165.456 103.028 165.542 103.07C165.629 103.112 165.715 103.168 165.777 103.253C165.839 103.323 165.901 103.421 165.938 103.519C165.975 103.617 166 103.729 166 103.842C166 103.954 165.975 104.066 165.938 104.164C165.901 104.263 165.852 104.347 165.777 104.431C165.715 104.501 165.629 104.557 165.542 104.599C165.456 104.641 165.357 104.669 165.258 104.669H160.742ZM164.528 103.842C164.528 103.729 164.553 103.617 164.59 103.519C164.627 103.421 164.676 103.337 164.738 103.253C164.8 103.182 164.874 103.112 164.973 103.07C165.06 103.028 165.159 103 165.258 103C165.357 103 165.456 103.028 165.542 103.07C165.629 103.112 165.703 103.168 165.777 103.253C165.839 103.323 165.901 103.421 165.938 103.519C165.975 103.617 166 103.729 166 103.842V109.158C166 109.271 165.975 109.383 165.938 109.481C165.901 109.579 165.852 109.677 165.777 109.747C165.715 109.818 165.629 109.888 165.542 109.93C165.456 109.972 165.357 110 165.258 110C165.159 110 165.06 109.972 164.973 109.93C164.887 109.888 164.812 109.832 164.738 109.747C164.676 109.677 164.627 109.579 164.59 109.481C164.553 109.383 164.528 109.271 164.528 109.158V103.842Z" fill="#1B8E23"/>
<path d="M174.565 106.486C174.565 106.964 174.495 107.414 174.355 107.849C174.214 108.271 174.018 108.651 173.752 108.96C173.485 109.269 173.162 109.522 172.784 109.705C172.405 109.888 171.97 109.986 171.493 109.986C171.016 109.986 170.567 109.888 170.146 109.705C169.725 109.522 169.361 109.269 169.038 108.96C168.715 108.651 168.477 108.271 168.281 107.849C168.098 107.428 168 106.978 168 106.486C168 105.994 168.098 105.558 168.281 105.137C168.463 104.715 168.715 104.349 169.038 104.026C169.361 103.717 169.725 103.464 170.146 103.281C170.567 103.098 171.016 103 171.493 103C171.97 103 172.405 103.098 172.784 103.281C173.162 103.464 173.485 103.717 173.752 104.026C174.018 104.335 174.214 104.715 174.355 105.137C174.495 105.558 174.565 106.008 174.565 106.486ZM173.303 106.486C173.303 106.233 173.261 105.994 173.162 105.755C173.064 105.53 172.938 105.333 172.784 105.151C172.615 104.982 172.433 104.841 172.208 104.743C171.984 104.645 171.76 104.588 171.493 104.588C171.24 104.588 171.002 104.645 170.778 104.743C170.553 104.841 170.371 104.982 170.202 105.151C170.034 105.319 169.908 105.516 169.824 105.755C169.725 105.98 169.683 106.219 169.683 106.486C169.683 106.739 169.725 106.992 169.824 107.217C169.922 107.442 170.048 107.639 170.202 107.821C170.371 107.99 170.553 108.131 170.778 108.229C171.002 108.327 171.24 108.384 171.493 108.384C171.745 108.384 171.984 108.327 172.208 108.229C172.433 108.131 172.615 107.99 172.784 107.821C172.952 107.653 173.078 107.456 173.162 107.217C173.261 106.992 173.303 106.753 173.303 106.486ZM174.986 106.711C174.986 106.823 174.958 106.936 174.916 107.034C174.874 107.133 174.818 107.231 174.733 107.301C174.663 107.371 174.565 107.442 174.467 107.484C174.369 107.526 174.257 107.554 174.144 107.554C174.032 107.554 173.92 107.526 173.822 107.484C173.723 107.442 173.625 107.386 173.555 107.301C173.485 107.231 173.415 107.133 173.373 107.034C173.331 106.936 173.303 106.823 173.303 106.711V104.855L173.485 104.757L173.794 103.829C173.85 103.534 173.948 103.323 174.074 103.197C174.2 103.07 174.355 103.014 174.523 103.014C174.818 103.014 174.972 103.169 174.972 103.464V106.711H174.986ZM174.986 109.494C174.986 109.649 174.944 109.761 174.86 109.859C174.776 109.944 174.663 110 174.495 110C174.327 110 174.172 109.944 174.06 109.845C173.934 109.747 173.85 109.564 173.808 109.311L173.499 108.229L173.317 108.131V106.5C173.317 106.388 173.345 106.275 173.387 106.177C173.429 106.078 173.485 105.994 173.569 105.91C173.639 105.839 173.737 105.769 173.836 105.727C173.934 105.685 174.046 105.657 174.158 105.657C174.271 105.657 174.383 105.685 174.481 105.727C174.579 105.769 174.677 105.825 174.747 105.91C174.818 105.98 174.888 106.078 174.93 106.177C174.972 106.275 175 106.388 175 106.5V109.494H174.986Z" fill="#1B8E23"/>
<path d="M177.014 104.521V103.845C177.014 103.732 177.042 103.62 177.084 103.521C177.125 103.423 177.181 103.338 177.251 103.254C177.32 103.183 177.404 103.113 177.515 103.07C177.613 103.028 177.724 103 177.835 103C177.947 103 178.058 103.028 178.155 103.07C178.253 103.113 178.336 103.169 178.42 103.254C178.49 103.324 178.559 103.423 178.601 103.521C178.643 103.62 178.671 103.732 178.671 103.845V104.521H177.014ZM182.986 104.042V109.211C182.986 109.423 182.916 109.62 182.777 109.761C182.638 109.915 182.443 109.986 182.179 109.986C182.053 109.986 181.942 109.972 181.845 109.93C181.747 109.887 181.65 109.831 181.58 109.761C181.51 109.69 181.441 109.606 181.399 109.507C181.357 109.408 181.329 109.31 181.329 109.197V107.423H178.643V109.211C178.643 109.31 178.629 109.408 178.587 109.507C178.545 109.606 178.503 109.69 178.434 109.761C178.364 109.831 178.281 109.887 178.183 109.93C178.086 109.972 177.961 110 177.835 110C177.557 110 177.348 109.93 177.209 109.775C177.07 109.62 177 109.437 177 109.225V104.155L178.643 104.042V105.761H181.329V104.014L182.986 104.042ZM181.343 104.521V103.845C181.343 103.732 181.371 103.62 181.413 103.521C181.455 103.423 181.51 103.338 181.58 103.254C181.65 103.183 181.733 103.113 181.845 103.07C181.942 103.028 182.053 103 182.165 103C182.276 103 182.387 103.028 182.485 103.07C182.582 103.113 182.666 103.169 182.749 103.254C182.819 103.324 182.889 103.423 182.93 103.521C182.972 103.62 183 103.732 183 103.845V104.521H181.343Z" fill="#1B8E23"/>
<path d="M185 104.602V103.843C185 103.731 185.026 103.618 185.066 103.52C185.105 103.422 185.158 103.337 185.237 103.253C185.303 103.183 185.396 103.112 185.488 103.07C185.58 103.028 185.686 103 185.791 103C185.897 103 186.002 103.028 186.094 103.07C186.187 103.112 186.279 103.169 186.345 103.253C186.424 103.323 186.477 103.422 186.516 103.52C186.556 103.618 186.582 103.731 186.582 103.843V104.588L185 104.602ZM186.569 104.068V107.329L189.484 103.633C189.563 103.534 189.642 103.436 189.708 103.365C189.774 103.295 189.84 103.239 189.905 103.197C189.971 103.155 190.051 103.127 190.143 103.098C190.235 103.084 190.341 103.07 190.486 103.07C190.67 103.07 190.802 103.127 190.881 103.239C190.96 103.351 191 103.52 191 103.731V109.311C191 109.396 190.987 109.48 190.947 109.564C190.908 109.649 190.855 109.719 190.789 109.789C190.723 109.859 190.644 109.902 190.552 109.944C190.459 109.986 190.354 110 190.248 110C190.13 110 190.024 109.986 189.932 109.944C189.84 109.902 189.76 109.859 189.695 109.789C189.629 109.719 189.589 109.649 189.549 109.564C189.51 109.48 189.497 109.396 189.497 109.311C189.497 108.721 189.497 108.116 189.497 107.47C189.497 106.837 189.497 106.219 189.497 105.629L186.596 109.311C186.543 109.382 186.49 109.452 186.437 109.522C186.371 109.606 186.305 109.677 186.24 109.733C186.16 109.803 186.081 109.859 186.002 109.902C185.91 109.944 185.818 109.972 185.712 109.972C185.58 109.972 185.462 109.944 185.382 109.902C185.29 109.859 185.224 109.803 185.158 109.733C185.105 109.663 185.066 109.592 185.04 109.508C185.013 109.424 185 109.325 185 109.241V104.054L186.569 104.068Z" fill="#1B8E23"/>
<path d="M193 105.642C193 105.269 193.067 104.924 193.213 104.594C193.347 104.278 193.533 103.991 193.773 103.761C194.013 103.531 194.28 103.345 194.6 103.201C194.907 103.072 195.24 103 195.587 103H197.507C197.627 103 197.72 103.029 197.787 103.072C197.853 103.115 197.907 103.187 197.933 103.258C197.96 103.33 197.987 103.402 197.987 103.488C198 103.574 198 103.646 198 103.718V109.203C198 109.289 197.987 109.375 197.947 109.476C197.92 109.576 197.867 109.663 197.8 109.734C197.733 109.806 197.653 109.878 197.56 109.921C197.467 109.978 197.36 109.993 197.227 109.993C197.093 109.993 196.987 109.964 196.88 109.921C196.773 109.864 196.693 109.806 196.627 109.734C196.56 109.663 196.507 109.576 196.467 109.476C196.427 109.375 196.413 109.289 196.413 109.203V108.184H195.56C195.213 108.184 194.893 108.126 194.573 107.997C194.267 107.868 193.987 107.695 193.747 107.466C193.507 107.236 193.32 106.977 193.187 106.662C193.067 106.346 193 106.015 193 105.642ZM195.52 107.896L194.44 109.677C194.307 109.864 194.133 109.964 193.933 109.993C193.733 110.021 193.533 109.964 193.36 109.835C193.187 109.677 193.093 109.49 193.067 109.275C193.04 109.059 193.093 108.858 193.227 108.672L194.267 106.977L195.52 107.896ZM194.547 105.656C194.547 105.829 194.573 106.001 194.64 106.145C194.707 106.288 194.787 106.417 194.893 106.518C195 106.618 195.133 106.705 195.28 106.748C195.427 106.805 195.587 106.834 195.747 106.834L196.427 106.848V104.393L195.747 104.407C195.587 104.407 195.427 104.436 195.28 104.508C195.133 104.579 195.013 104.666 194.893 104.78C194.787 104.895 194.693 105.025 194.64 105.183C194.573 105.326 194.547 105.484 194.547 105.656Z" fill="#1B8E23"/>
</svg>
