<svg width="294" height="150" viewBox="0 0 294 150" fill="none" xmlns="http://www.w3.org/2000/svg">
<path d="M155.314 47.8418C155.26 48.9082 154.959 49.724 154.412 50.2891C153.87 50.8542 153.102 51.1367 152.108 51.1367C151.11 51.1367 150.317 50.7585 149.729 50.002C149.142 49.2409 148.848 48.2109 148.848 46.9121V45.1074C148.848 43.8132 149.148 42.79 149.75 42.0381C150.356 41.2861 151.181 40.9102 152.225 40.9102C153.186 40.9102 153.929 41.1995 154.453 41.7783C154.982 42.3525 155.269 43.1751 155.314 44.2461H154.05C153.995 43.4349 153.824 42.8561 153.537 42.5098C153.25 42.1634 152.812 41.9902 152.225 41.9902C151.546 41.9902 151.024 42.2568 150.659 42.79C150.295 43.3187 150.112 44.0957 150.112 45.1211V46.9463C150.112 47.9535 150.281 48.7259 150.618 49.2637C150.96 49.8014 151.457 50.0703 152.108 50.0703C152.76 50.0703 153.229 49.9085 153.517 49.585C153.804 49.2614 153.981 48.6803 154.05 47.8418H155.314ZM156.873 46.96C156.873 45.8844 157.133 45.0345 157.652 44.4102C158.176 43.7812 158.867 43.4668 159.723 43.4668C160.58 43.4668 161.268 43.7721 161.788 44.3828C162.312 44.9935 162.581 45.8252 162.594 46.8779V47.6572C162.594 48.7282 162.335 49.5758 161.815 50.2002C161.296 50.8245 160.603 51.1367 159.737 51.1367C158.88 51.1367 158.192 50.8337 157.673 50.2275C157.158 49.6214 156.891 48.8011 156.873 47.7666V46.96ZM158.083 47.6572C158.083 48.4183 158.231 49.0176 158.527 49.4551C158.828 49.888 159.231 50.1045 159.737 50.1045C160.803 50.1045 161.353 49.3343 161.384 47.7939V46.96C161.384 46.2035 161.234 45.6064 160.933 45.1689C160.633 44.7269 160.229 44.5059 159.723 44.5059C159.227 44.5059 158.828 44.7269 158.527 45.1689C158.231 45.6064 158.083 46.2012 158.083 46.9531V47.6572ZM163.927 49.9678L164.289 49.4482C164.681 48.8467 164.907 47.9603 164.966 46.7891L165.069 43.6035H169.198V49.9678H170.059V53.1738H168.849V51H164.645V53.1738H163.428L163.435 49.9678H163.927ZM165.274 49.9678H167.995V44.7725H166.245L166.183 46.5771C166.119 48.0173 165.816 49.1475 165.274 49.9678ZM174.372 51.1367C173.452 51.1367 172.745 50.8633 172.253 50.3164C171.761 49.765 171.51 48.9583 171.501 47.8965V47.001C171.501 45.8981 171.74 45.0345 172.219 44.4102C172.702 43.7812 173.374 43.4668 174.236 43.4668C175.101 43.4668 175.749 43.7425 176.177 44.2939C176.605 44.8454 176.824 45.7044 176.833 46.8711V47.6641H172.704V47.835C172.704 48.6279 172.852 49.2044 173.149 49.5645C173.449 49.9245 173.88 50.1045 174.441 50.1045C174.796 50.1045 175.108 50.0384 175.377 49.9062C175.651 49.7695 175.906 49.5553 176.143 49.2637L176.772 50.0293C176.248 50.7676 175.448 51.1367 174.372 51.1367ZM174.236 44.5059C173.734 44.5059 173.363 44.679 173.121 45.0254C172.88 45.3672 172.743 45.9004 172.711 46.625H175.623V46.4609C175.591 45.7591 175.464 45.2578 175.24 44.957C175.022 44.6562 174.687 44.5059 174.236 44.5059ZM183.915 47.6572C183.915 48.8285 183.703 49.7012 183.279 50.2754C182.86 50.8496 182.265 51.1367 181.495 51.1367C180.752 51.1367 180.18 50.8564 179.779 50.2959V53.8438H178.576V43.6035H179.67L179.731 44.4238C180.137 43.7858 180.718 43.4668 181.474 43.4668C182.286 43.4668 182.892 43.7493 183.293 44.3145C183.694 44.8796 183.901 45.7249 183.915 46.8506V47.6572ZM182.712 46.9668C182.712 46.1374 182.584 45.5267 182.329 45.1348C182.074 44.7383 181.664 44.54 181.099 44.54C180.52 44.54 180.08 44.8294 179.779 45.4082V49.2568C180.075 49.8219 180.52 50.1045 181.112 50.1045C181.659 50.1045 182.06 49.9085 182.315 49.5166C182.575 49.1201 182.707 48.5163 182.712 47.7051V46.9668ZM190.669 47.7871H189.964V51H188.761V47.7871H188.057L186.512 51H184.995L187.121 47.1445L185.179 43.6035H186.635L188.071 46.666H188.761V43.6035H189.964V46.666H190.641L192.097 43.6035H193.553L191.605 47.1514L193.731 51H192.207L190.669 47.7871ZM199.001 51C198.928 50.8405 198.876 50.5716 198.844 50.1934C198.416 50.8223 197.869 51.1367 197.203 51.1367C196.534 51.1367 196.009 50.9499 195.631 50.5762C195.257 50.1979 195.071 49.667 195.071 48.9834C195.071 48.2314 195.326 47.6344 195.836 47.1924C196.347 46.7503 197.046 46.5247 197.935 46.5156H198.824V45.7295C198.824 45.2874 198.726 44.973 198.53 44.7861C198.334 44.5993 198.035 44.5059 197.634 44.5059C197.27 44.5059 196.973 44.6152 196.745 44.834C196.518 45.0482 196.404 45.3216 196.404 45.6543H195.194C195.194 45.276 195.305 44.916 195.529 44.5742C195.752 44.2279 196.053 43.9567 196.431 43.7607C196.809 43.5648 197.231 43.4668 197.696 43.4668C198.452 43.4668 199.026 43.6559 199.418 44.0342C199.815 44.4079 200.018 44.9548 200.027 45.6748V49.4072C200.031 49.9769 200.109 50.4714 200.259 50.8906V51H199.001ZM197.388 50.0361C197.684 50.0361 197.967 49.9541 198.236 49.79C198.505 49.626 198.701 49.4209 198.824 49.1748V47.4111H198.14C197.566 47.4202 197.112 47.5501 196.78 47.8008C196.447 48.0469 196.281 48.3932 196.281 48.8398C196.281 49.2591 196.365 49.5645 196.534 49.7559C196.702 49.9427 196.987 50.0361 197.388 50.0361ZM206.753 44.6289H204.736V51H203.533V44.6289H201.544V43.6035H206.753V44.6289ZM216.993 51H215.79V47.8418H213.124V51H211.907V43.6035H213.124V46.8096H215.79V43.6035H216.993V51ZM221.846 51.1367C220.925 51.1367 220.219 50.8633 219.727 50.3164C219.235 49.765 218.984 48.9583 218.975 47.8965V47.001C218.975 45.8981 219.214 45.0345 219.693 44.4102C220.176 43.7812 220.848 43.4668 221.709 43.4668C222.575 43.4668 223.222 43.7425 223.651 44.2939C224.079 44.8454 224.298 45.7044 224.307 46.8711V47.6641H220.178V47.835C220.178 48.6279 220.326 49.2044 220.622 49.5645C220.923 49.9245 221.354 50.1045 221.914 50.1045C222.27 50.1045 222.582 50.0384 222.851 49.9062C223.124 49.7695 223.379 49.5553 223.616 49.2637L224.245 50.0293C223.721 50.7676 222.921 51.1367 221.846 51.1367ZM221.709 44.5059C221.208 44.5059 220.836 44.679 220.595 45.0254C220.353 45.3672 220.217 45.9004 220.185 46.625H223.097V46.4609C223.065 45.7591 222.937 45.2578 222.714 44.957C222.495 44.6562 222.16 44.5059 221.709 44.5059ZM225.79 46.96C225.79 45.8844 226.05 45.0345 226.569 44.4102C227.093 43.7812 227.784 43.4668 228.641 43.4668C229.497 43.4668 230.185 43.7721 230.705 44.3828C231.229 44.9935 231.498 45.8252 231.512 46.8779V47.6572C231.512 48.7282 231.252 49.5758 230.732 50.2002C230.213 50.8245 229.52 51.1367 228.654 51.1367C227.797 51.1367 227.109 50.8337 226.59 50.2275C226.075 49.6214 225.808 48.8011 225.79 47.7666V46.96ZM227 47.6572C227 48.4183 227.148 49.0176 227.444 49.4551C227.745 49.888 228.148 50.1045 228.654 50.1045C229.721 50.1045 230.27 49.3343 230.302 47.7939V46.96C230.302 46.2035 230.151 45.6064 229.851 45.1689C229.55 44.7269 229.146 44.5059 228.641 44.5059C228.144 44.5059 227.745 44.7269 227.444 45.1689C227.148 45.6064 227 46.2012 227 46.9531V47.6572ZM236.167 44.0273C236.946 44.0273 237.566 44.3372 238.026 44.957C238.486 45.5723 238.716 46.3971 238.716 47.4316V47.5342C238.716 48.6279 238.461 49.5029 237.951 50.1592C237.44 50.8109 236.766 51.1367 235.927 51.1367C235.089 51.1367 234.414 50.8063 233.904 50.1455C233.394 49.4847 233.138 48.596 233.138 47.4795V46.8574C233.138 45.3307 233.378 44.1094 233.856 43.1934C234.335 42.2728 235.036 41.7054 235.962 41.4912C236.495 41.3682 236.855 41.2223 237.042 41.0537C237.233 40.8851 237.329 40.6618 237.329 40.3838H238.306L238.299 40.6504C238.245 41.5527 237.812 42.1247 237.001 42.3662L236.167 42.5986C235.565 42.7627 235.103 43.0521 234.779 43.4668C234.46 43.8815 234.253 44.4238 234.157 45.0938C234.713 44.3828 235.383 44.0273 236.167 44.0273ZM235.921 45.0664C235.437 45.0664 235.055 45.2715 234.772 45.6816C234.494 46.0918 234.355 46.7093 234.355 47.5342C234.355 48.3363 234.494 48.9674 234.772 49.4277C235.05 49.8835 235.435 50.1113 235.927 50.1113C236.42 50.1113 236.807 49.8812 237.089 49.4209C237.372 48.9606 237.513 48.2793 237.513 47.377C237.513 46.666 237.37 46.1032 237.083 45.6885C236.8 45.2738 236.413 45.0664 235.921 45.0664ZM242.442 46.3037L243.706 43.6035H245.108L243.098 47.2607L245.156 51H243.768L242.462 48.2314L241.15 51H239.755L241.813 47.2607L239.81 43.6035H241.198L242.442 46.3037ZM246.222 46.96C246.222 45.8844 246.482 45.0345 247.001 44.4102C247.525 43.7812 248.216 43.4668 249.072 43.4668C249.929 43.4668 250.617 43.7721 251.137 44.3828C251.661 44.9935 251.93 45.8252 251.943 46.8779V47.6572C251.943 48.7282 251.684 49.5758 251.164 50.2002C250.645 50.8245 249.952 51.1367 249.086 51.1367C248.229 51.1367 247.541 50.8337 247.022 50.2275C246.507 49.6214 246.24 48.8011 246.222 47.7666V46.96ZM247.432 47.6572C247.432 48.4183 247.58 49.0176 247.876 49.4551C248.177 49.888 248.58 50.1045 249.086 50.1045C250.152 50.1045 250.702 49.3343 250.733 47.7939V46.96C250.733 46.2035 250.583 45.6064 250.282 45.1689C249.982 44.7269 249.578 44.5059 249.072 44.5059C248.576 44.5059 248.177 44.7269 247.876 45.1689C247.58 45.6064 247.432 46.2012 247.432 46.9531V47.6572ZM253.276 49.9678L253.638 49.4482C254.03 48.8467 254.256 47.9603 254.315 46.7891L254.418 43.6035H258.547V49.9678H259.408V53.1738H258.198V51H253.994V53.1738H252.777L252.784 49.9678H253.276ZM254.623 49.9678H257.344V44.7725H255.594L255.532 46.5771C255.468 48.0173 255.165 49.1475 254.623 49.9678ZM264.965 43.6035H266.168V51H264.965V45.6064L262.286 51H261.076V43.6035H262.286V49.0039L264.965 43.6035ZM272.013 49.3252L273.995 43.6035H275.499V51H274.296V45.9004L272.43 51H271.603L269.696 45.7773V51H268.492V43.6035H270.051L272.013 49.3252ZM279.026 46.1533H280.551C281.257 46.1579 281.82 46.3743 282.239 46.8027C282.658 47.2311 282.868 47.8145 282.868 48.5527C282.868 49.291 282.656 49.8835 282.232 50.3301C281.809 50.7721 281.248 50.9954 280.551 51H277.823V43.6035H279.026V46.1533ZM285.124 51H283.914V43.6035H285.124V51ZM279.026 47.1855V49.9678H280.53C280.886 49.9678 281.161 49.847 281.357 49.6055C281.558 49.3639 281.658 49.029 281.658 48.6006C281.658 48.1813 281.56 47.8418 281.364 47.582C281.168 47.3223 280.899 47.1901 280.558 47.1855H279.026ZM290.155 51.1367C289.234 51.1367 288.528 50.8633 288.036 50.3164C287.544 49.765 287.293 48.9583 287.284 47.8965V47.001C287.284 45.8981 287.523 45.0345 288.002 44.4102C288.485 43.7812 289.157 43.4668 290.018 43.4668C290.884 43.4668 291.531 43.7425 291.96 44.2939C292.388 44.8454 292.607 45.7044 292.616 46.8711V47.6641H288.487V47.835C288.487 48.6279 288.635 49.2044 288.931 49.5645C289.232 49.9245 289.663 50.1045 290.223 50.1045C290.579 50.1045 290.891 50.0384 291.16 49.9062C291.433 49.7695 291.688 49.5553 291.925 49.2637L292.554 50.0293C292.03 50.7676 291.23 51.1367 290.155 51.1367ZM290.018 44.5059C289.517 44.5059 289.146 44.679 288.904 45.0254C288.662 45.3672 288.526 45.9004 288.494 46.625H291.406V46.4609C291.374 45.7591 291.246 45.2578 291.023 44.957C290.804 44.6562 290.469 44.5059 290.018 44.5059ZM149.012 65V57.6035H151.493C152.341 57.6035 152.988 57.7767 153.435 58.123C153.881 58.4694 154.104 58.973 154.104 59.6338C154.104 59.9756 154.016 60.2832 153.838 60.5566C153.66 60.8301 153.4 61.0397 153.059 61.1855C153.437 61.2858 153.74 61.4886 153.968 61.7939C154.2 62.0993 154.316 62.4684 154.316 62.9014C154.316 63.585 154.102 64.1068 153.674 64.4668C153.25 64.8223 152.648 65 151.869 65H149.012ZM150.215 61.7529V63.9814H151.883C152.699 63.9814 153.106 63.6077 153.106 62.8604C153.106 62.1221 152.694 61.7529 151.869 61.7529H150.215ZM150.215 60.7412H151.479C152.423 60.7412 152.895 60.3949 152.895 59.7021C152.895 59.0049 152.45 58.6471 151.562 58.6289H150.215V60.7412ZM160.236 57.6035H161.439V65H160.236V59.6064L157.556 65H156.346V57.6035H157.556V63.0039L160.236 57.6035ZM168.33 58.6289H166.313V65H165.11V58.6289H163.121V57.6035H168.33V58.6289ZM173.579 65C173.506 64.8405 173.454 64.5716 173.422 64.1934C172.994 64.8223 172.447 65.1367 171.781 65.1367C171.111 65.1367 170.587 64.9499 170.209 64.5762C169.835 64.1979 169.649 63.667 169.649 62.9834C169.649 62.2314 169.904 61.6344 170.414 61.1924C170.925 60.7503 171.624 60.5247 172.513 60.5156H173.402V59.7295C173.402 59.2874 173.304 58.973 173.108 58.7861C172.912 58.5993 172.613 58.5059 172.212 58.5059C171.847 58.5059 171.551 58.6152 171.323 58.834C171.096 59.0482 170.982 59.3216 170.982 59.6543H169.772C169.772 59.276 169.883 58.916 170.107 58.5742C170.33 58.2279 170.631 57.9567 171.009 57.7607C171.387 57.5648 171.809 57.4668 172.274 57.4668C173.03 57.4668 173.604 57.6559 173.996 58.0342C174.393 58.4079 174.596 58.9548 174.605 59.6748V63.4072C174.609 63.9769 174.687 64.4714 174.837 64.8906V65H173.579ZM171.966 64.0361C172.262 64.0361 172.545 63.9541 172.814 63.79C173.083 63.626 173.278 63.4209 173.402 63.1748V61.4111H172.718C172.144 61.4202 171.69 61.5501 171.358 61.8008C171.025 62.0469 170.859 62.3932 170.859 62.8398C170.859 63.2591 170.943 63.5645 171.111 63.7559C171.28 63.9427 171.565 64.0361 171.966 64.0361ZM180.394 63.3252L182.377 57.6035H183.881V65H182.678V59.9004L180.811 65H179.984L178.077 59.7773V65H176.874V57.6035H178.433L180.394 63.3252ZM190.094 57.6035H191.297V65H190.094V59.6064L187.415 65H186.205V57.6035H187.415V63.0039L190.094 57.6035ZM198.707 65H197.504V61.8418H194.838V65H193.621V57.6035H194.838V60.8096H197.504V57.6035H198.707V65ZM202.228 60.1533H203.752C204.458 60.1579 205.021 60.3743 205.44 60.8027C205.86 61.2311 206.069 61.8145 206.069 62.5527C206.069 63.291 205.857 63.8835 205.434 64.3301C205.01 64.7721 204.449 64.9954 203.752 65H201.024V57.6035H202.228V60.1533ZM208.325 65H207.115V57.6035H208.325V65ZM202.228 61.1855V63.9678H203.731C204.087 63.9678 204.363 63.847 204.559 63.6055C204.759 63.3639 204.859 63.029 204.859 62.6006C204.859 62.1813 204.761 61.8418 204.565 61.582C204.37 61.3223 204.101 61.1901 203.759 61.1855H202.228ZM218.203 57.6035H219.406V65H218.203V59.6064L215.523 65H214.313V57.6035H215.523V63.0039L218.203 57.6035ZM228.743 63.3252L230.726 57.6035H232.229V65H231.026V59.9004L229.16 65H228.333L226.426 59.7773V65H225.223V57.6035H226.781L228.743 63.3252ZM238.443 57.6035H239.646V65H238.443V59.6064L235.763 65H234.553V57.6035H235.763V63.0039L238.443 57.6035ZM247.056 65H245.853V61.8418H243.187V65H241.97V57.6035H243.187V60.8096H245.853V57.6035H247.056V65ZM251.909 65.1367C250.989 65.1367 250.282 64.8633 249.79 64.3164C249.298 63.765 249.047 62.9583 249.038 61.8965V61.001C249.038 59.8981 249.277 59.0345 249.756 58.4102C250.239 57.7812 250.911 57.4668 251.773 57.4668C252.638 57.4668 253.286 57.7425 253.714 58.2939C254.142 58.8454 254.361 59.7044 254.37 60.8711V61.6641H250.241V61.835C250.241 62.6279 250.389 63.2044 250.686 63.5645C250.986 63.9245 251.417 64.1045 251.978 64.1045C252.333 64.1045 252.645 64.0384 252.914 63.9062C253.188 63.7695 253.443 63.5553 253.68 63.2637L254.309 64.0293C253.785 64.7676 252.985 65.1367 251.909 65.1367ZM251.773 58.5059C251.271 58.5059 250.9 58.679 250.658 59.0254C250.417 59.3672 250.28 59.9004 250.248 60.625H253.16V60.4609C253.128 59.7591 253.001 59.2578 252.777 58.957C252.559 58.6562 252.224 58.5059 251.773 58.5059ZM261.452 61.6572C261.452 62.8285 261.24 63.7012 260.816 64.2754C260.397 64.8496 259.802 65.1367 259.032 65.1367C258.289 65.1367 257.717 64.8564 257.316 64.2959V67.8438H256.113V57.6035H257.207L257.268 58.4238C257.674 57.7858 258.255 57.4668 259.012 57.4668C259.823 57.4668 260.429 57.7493 260.83 58.3145C261.231 58.8796 261.438 59.7249 261.452 60.8506V61.6572ZM260.249 60.9668C260.249 60.1374 260.121 59.5267 259.866 59.1348C259.611 58.7383 259.201 58.54 258.636 58.54C258.057 58.54 257.617 58.8294 257.316 59.4082V63.2568C257.612 63.8219 258.057 64.1045 258.649 64.1045C259.196 64.1045 259.597 63.9085 259.852 63.5166C260.112 63.1201 260.244 62.5163 260.249 61.7051V60.9668ZM267.098 65C267.025 64.8405 266.973 64.5716 266.941 64.1934C266.513 64.8223 265.966 65.1367 265.3 65.1367C264.63 65.1367 264.106 64.9499 263.728 64.5762C263.354 64.1979 263.168 63.667 263.168 62.9834C263.168 62.2314 263.423 61.6344 263.933 61.1924C264.444 60.7503 265.143 60.5247 266.032 60.5156H266.92V59.7295C266.92 59.2874 266.822 58.973 266.626 58.7861C266.431 58.5993 266.132 58.5059 265.731 58.5059C265.366 58.5059 265.07 58.6152 264.842 58.834C264.614 59.0482 264.501 59.3216 264.501 59.6543H263.291C263.291 59.276 263.402 58.916 263.626 58.5742C263.849 58.2279 264.15 57.9567 264.528 57.7607C264.906 57.5648 265.328 57.4668 265.793 57.4668C266.549 57.4668 267.123 57.6559 267.515 58.0342C267.912 58.4079 268.114 58.9548 268.124 59.6748V63.4072C268.128 63.9769 268.206 64.4714 268.356 64.8906V65H267.098ZM265.485 64.0361C265.781 64.0361 266.064 63.9541 266.333 63.79C266.601 63.626 266.797 63.4209 266.92 63.1748V61.4111H266.237C265.663 61.4202 265.209 61.5501 264.876 61.8008C264.544 62.0469 264.377 62.3932 264.377 62.8398C264.377 63.2591 264.462 63.5645 264.63 63.7559C264.799 63.9427 265.084 64.0361 265.485 64.0361ZM275.499 57.6035V65H274.289V58.6494H272.341L272.225 61.1582C272.161 62.5482 271.974 63.5348 271.664 64.1182C271.354 64.6969 270.858 64.9909 270.174 65H269.771V63.8857L270.078 63.8584C270.416 63.8128 270.653 63.5872 270.789 63.1816C270.931 62.7715 271.024 61.9671 271.07 60.7686L271.186 57.6035H275.499ZM279.013 60.1533H280.537C281.243 60.1579 281.806 60.3743 282.226 60.8027C282.645 61.2311 282.854 61.8145 282.854 62.5527C282.854 63.291 282.643 63.8835 282.219 64.3301C281.795 64.7721 281.234 64.9954 280.537 65H277.81V57.6035H279.013V60.1533ZM285.11 65H283.9V57.6035H285.11V65ZM279.013 61.1855V63.9678H280.517C280.872 63.9678 281.148 63.847 281.344 63.6055C281.544 63.3639 281.644 63.029 281.644 62.6006C281.644 62.1813 281.547 61.8418 281.351 61.582C281.155 61.3223 280.886 61.1901 280.544 61.1855H279.013Z" fill="#D7D7D7"/>
<path d="M17.0048 51V41.0469H19.8417C20.7486 41.0469 21.4299 41.2679 21.8857 41.71C22.346 42.152 22.5761 42.8151 22.5761 43.6992C22.5761 44.1641 22.4599 44.5742 22.2275 44.9297C21.995 45.2852 21.6806 45.5609 21.2841 45.7568C21.7398 45.8936 22.0999 46.1738 22.3642 46.5977C22.6331 47.0215 22.7675 47.5319 22.7675 48.1289C22.7675 49.0221 22.5214 49.724 22.0292 50.2344C21.5416 50.7448 20.8443 51 19.9374 51H17.0048ZM18.2558 46.3447V49.9268H19.9648C20.4387 49.9268 20.8147 49.7718 21.0927 49.4619C21.3707 49.1475 21.5097 48.7077 21.5097 48.1426C21.5097 46.944 21.0038 46.3447 19.9921 46.3447H18.2558ZM18.2558 45.292H19.8622C20.2952 45.292 20.6438 45.1462 20.9081 44.8545C21.177 44.5628 21.3114 44.1755 21.3114 43.6924C21.3114 43.1455 21.1907 42.749 20.9491 42.5029C20.7076 42.2523 20.3385 42.127 19.8417 42.127H18.2558V45.292ZM26.7663 47.8486H26.0827V51H24.8727V43.6035H26.0827V46.7344H26.6842L28.7008 43.6035H30.1432L27.6754 47.124L30.3209 51H28.8034L26.7663 47.8486ZM33.7865 48.9902L35.1332 43.6035H36.4183L33.9984 52.0459C33.8161 52.6794 33.5586 53.1602 33.2259 53.4883C32.8933 53.821 32.515 53.9873 32.0912 53.9873C31.9271 53.9873 31.7175 53.9508 31.4623 53.8779V52.8525L31.7289 52.8799C32.0798 52.8799 32.3532 52.7956 32.5492 52.627C32.7497 52.4629 32.9115 52.1758 33.0345 51.7656L33.2738 50.9385L31.1 43.6035H32.4193L33.7865 48.9902ZM40.3555 50.1045C40.7566 50.1045 41.0779 49.9814 41.3194 49.7354C41.561 49.4847 41.6931 49.1292 41.7159 48.6689H42.8575C42.8302 49.3799 42.5772 49.9701 42.0987 50.4395C41.6248 50.9043 41.0437 51.1367 40.3555 51.1367C39.4395 51.1367 38.74 50.8496 38.2569 50.2754C37.7784 49.6966 37.5391 48.8376 37.5391 47.6982V46.8848C37.5391 45.7682 37.7784 44.9206 38.2569 44.3418C38.7354 43.7585 39.4327 43.4668 40.3487 43.4668C41.1052 43.4668 41.7045 43.7061 42.1466 44.1846C42.5932 44.6631 42.8302 45.3171 42.8575 46.1465H41.7159C41.6886 45.5996 41.5564 45.1895 41.3194 44.916C41.087 44.6426 40.7634 44.5059 40.3487 44.5059C39.811 44.5059 39.4122 44.6836 39.1524 45.0391C38.8927 45.39 38.7582 45.9688 38.7491 46.7754V47.7188C38.7491 48.5892 38.8767 49.2044 39.1319 49.5645C39.3917 49.9245 39.7996 50.1045 40.3555 50.1045ZM49.7273 51H48.5242V47.8418H45.8582V51H44.6414V43.6035H45.8582V46.8096H48.5242V43.6035H49.7273V51ZM53.2476 46.1533H54.772C55.4784 46.1579 56.0412 46.3743 56.4605 46.8027C56.8797 47.2311 57.0894 47.8145 57.0894 48.5527C57.0894 49.291 56.8775 49.8835 56.4536 50.3301C56.0298 50.7721 55.4693 50.9954 54.772 51H52.0445V43.6035H53.2476V46.1533ZM59.3452 51H58.1353V43.6035H59.3452V51ZM53.2476 47.1855V49.9678H54.7515C55.107 49.9678 55.3827 49.847 55.5786 49.6055C55.7792 49.3639 55.8794 49.029 55.8794 48.6006C55.8794 48.1813 55.7814 47.8418 55.5855 47.582C55.3895 47.3223 55.1206 47.1901 54.7788 47.1855H53.2476ZM64.3762 51.1367C63.4556 51.1367 62.7493 50.8633 62.2571 50.3164C61.7649 49.765 61.5142 48.9583 61.5051 47.8965V47.001C61.5051 45.8981 61.7444 45.0345 62.2229 44.4102C62.706 43.7812 63.3782 43.4668 64.2395 43.4668C65.1054 43.4668 65.7525 43.7425 66.1809 44.2939C66.6093 44.8454 66.828 45.7044 66.8372 46.8711V47.6641H62.7082V47.835C62.7082 48.6279 62.8564 49.2044 63.1526 49.5645C63.4534 49.9245 63.884 50.1045 64.4446 50.1045C64.8 50.1045 65.1122 50.0384 65.3811 49.9062C65.6545 49.7695 65.9097 49.5553 66.1467 49.2637L66.7756 50.0293C66.2515 50.7676 65.4517 51.1367 64.3762 51.1367ZM64.2395 44.5059C63.7382 44.5059 63.3668 44.679 63.1252 45.0254C62.8837 45.3672 62.747 45.9004 62.7151 46.625H65.6272V46.4609C65.5953 45.7591 65.4677 45.2578 65.2444 44.957C65.0256 44.6562 64.6907 44.5059 64.2395 44.5059ZM68.5869 52.9824L67.8691 52.4902C68.2975 51.8932 68.5208 51.278 68.539 50.6445V49.5029H69.7763V50.4941C69.7763 50.9544 69.6624 51.4147 69.4345 51.875C69.2112 52.3353 68.9287 52.7044 68.5869 52.9824ZM77.6645 50.1045C78.0655 50.1045 78.3868 49.9814 78.6283 49.7354C78.8699 49.4847 79.002 49.1292 79.0248 48.6689H80.1664C80.1391 49.3799 79.8861 49.9701 79.4076 50.4395C78.9337 50.9043 78.3526 51.1367 77.6645 51.1367C76.7484 51.1367 76.0489 50.8496 75.5658 50.2754C75.0873 49.6966 74.848 48.8376 74.848 47.6982V46.8848C74.848 45.7682 75.0873 44.9206 75.5658 44.3418C76.0443 43.7585 76.7416 43.4668 77.6576 43.4668C78.4141 43.4668 79.0134 43.7061 79.4555 44.1846C79.9021 44.6631 80.1391 45.3171 80.1664 46.1465H79.0248C78.9975 45.5996 78.8653 45.1895 78.6283 44.916C78.3959 44.6426 78.0723 44.5059 77.6576 44.5059C77.1199 44.5059 76.7211 44.6836 76.4613 45.0391C76.2016 45.39 76.0671 45.9688 76.058 46.7754V47.7188C76.058 48.5892 76.1856 49.2044 76.4408 49.5645C76.7006 49.9245 77.1085 50.1045 77.6645 50.1045ZM81.588 46.96C81.588 45.8844 81.8478 45.0345 82.3673 44.4102C82.8914 43.7812 83.5818 43.4668 84.4386 43.4668C85.2954 43.4668 85.9835 43.7721 86.5031 44.3828C87.0271 44.9935 87.296 45.8252 87.3097 46.8779V47.6572C87.3097 48.7282 87.0499 49.5758 86.5304 50.2002C86.0109 50.8245 85.3182 51.1367 84.4523 51.1367C83.5955 51.1367 82.9073 50.8337 82.3878 50.2275C81.8728 49.6214 81.6062 48.8011 81.588 47.7666V46.96ZM82.798 47.6572C82.798 48.4183 82.9461 49.0176 83.2423 49.4551C83.5431 49.888 83.9464 50.1045 84.4523 50.1045C85.5187 50.1045 86.0678 49.3343 86.0997 47.7939V46.96C86.0997 46.2035 85.9493 45.6064 85.6486 45.1689C85.3478 44.7269 84.9445 44.5059 84.4386 44.5059C83.9419 44.5059 83.5431 44.7269 83.2423 45.1689C82.9461 45.6064 82.798 46.2012 82.798 46.9531V47.6572ZM93.9471 51H92.7303V48.3477C92.2883 48.4753 91.8348 48.5391 91.37 48.5391C90.6135 48.5391 90.0256 48.3066 89.6063 47.8418C89.187 47.3724 88.9706 46.7048 88.9569 45.8389V43.5967H90.1668V45.873C90.1942 46.9577 90.5952 47.5 91.37 47.5C91.8257 47.5 92.2791 47.4316 92.7303 47.2949V43.6035H93.9471V51ZM101.336 51H100.133V47.8418H97.4673V51H96.2505V43.6035H97.4673V46.8096H100.133V43.6035H101.336V51ZM104.857 46.1533H106.381C107.088 46.1579 107.65 46.3743 108.07 46.8027C108.489 47.2311 108.699 47.8145 108.699 48.5527C108.699 49.291 108.487 49.8835 108.063 50.3301C107.639 50.7721 107.078 50.9954 106.381 51H103.654V43.6035H104.857V46.1533ZM110.954 51H109.744V43.6035H110.954V51ZM104.857 47.1855V49.9678H106.361C106.716 49.9678 106.992 49.847 107.188 49.6055C107.388 49.3639 107.489 49.029 107.489 48.6006C107.489 48.1813 107.391 47.8418 107.195 47.582C106.999 47.3223 106.73 47.1901 106.388 47.1855H104.857ZM115.985 51.1367C115.065 51.1367 114.358 50.8633 113.866 50.3164C113.374 49.765 113.123 48.9583 113.114 47.8965V47.001C113.114 45.8981 113.354 45.0345 113.832 44.4102C114.315 43.7812 114.987 43.4668 115.849 43.4668C116.715 43.4668 117.362 43.7425 117.79 44.2939C118.218 44.8454 118.437 45.7044 118.446 46.8711V47.6641H114.317V47.835C114.317 48.6279 114.465 49.2044 114.762 49.5645C115.062 49.9245 115.493 50.1045 116.054 50.1045C116.409 50.1045 116.721 50.0384 116.99 49.9062C117.264 49.7695 117.519 49.5553 117.756 49.2637L118.385 50.0293C117.861 50.7676 117.061 51.1367 115.985 51.1367ZM115.849 44.5059C115.347 44.5059 114.976 44.679 114.734 45.0254C114.493 45.3672 114.356 45.9004 114.324 46.625H117.236V46.4609C117.204 45.7591 117.077 45.2578 116.854 44.957C116.635 44.6562 116.3 44.5059 115.849 44.5059ZM45.3045 57.6035H46.5076V65H45.3045V59.6064L42.6248 65H41.4148V57.6035H42.6248V63.0039L45.3045 57.6035ZM56.0227 65C55.9498 64.8405 55.8974 64.5716 55.8655 64.1934C55.4371 64.8223 54.8902 65.1367 54.2248 65.1367C53.5549 65.1367 53.0308 64.9499 52.6526 64.5762C52.2789 64.1979 52.092 63.667 52.092 62.9834C52.092 62.2314 52.3472 61.6344 52.8577 61.1924C53.3681 60.7503 54.0676 60.5247 54.9563 60.5156H55.845V59.7295C55.845 59.2874 55.747 58.973 55.551 58.7861C55.3551 58.5993 55.0565 58.5059 54.6555 58.5059C54.2909 58.5059 53.9947 58.6152 53.7668 58.834C53.539 59.0482 53.425 59.3216 53.425 59.6543H52.2151C52.2151 59.276 52.3267 58.916 52.55 58.5742C52.7733 58.2279 53.0741 57.9567 53.4524 57.7607C53.8306 57.5648 54.2522 57.4668 54.717 57.4668C55.4735 57.4668 56.0478 57.6559 56.4397 58.0342C56.8362 58.4079 57.039 58.9548 57.0481 59.6748V63.4072C57.0526 63.9769 57.1301 64.4714 57.2805 64.8906V65H56.0227ZM54.4094 64.0361C54.7056 64.0361 54.9882 63.9541 55.2571 63.79C55.5259 63.626 55.7219 63.4209 55.845 63.1748V61.4111H55.1614C54.5871 61.4202 54.1337 61.5501 53.801 61.8008C53.4683 62.0469 53.302 62.3932 53.302 62.8398C53.302 63.2591 53.3863 63.5645 53.5549 63.7559C53.7235 63.9427 54.0084 64.0361 54.4094 64.0361ZM64.5537 61.6572C64.5537 62.8285 64.3418 63.7012 63.9179 64.2754C63.4987 64.8496 62.9039 65.1367 62.1337 65.1367C61.3909 65.1367 60.819 64.8564 60.4179 64.2959V67.8438H59.2148V57.6035H60.3086L60.3701 58.4238C60.7757 57.7858 61.3567 57.4668 62.1132 57.4668C62.9244 57.4668 63.5306 57.7493 63.9316 58.3145C64.3326 58.8796 64.54 59.7249 64.5537 60.8506V61.6572ZM63.3505 60.9668C63.3505 60.1374 63.2229 59.5267 62.9677 59.1348C62.7125 58.7383 62.3024 58.54 61.7373 58.54C61.1585 58.54 60.7187 58.8294 60.4179 59.4082V63.2568C60.7142 63.8219 61.1585 64.1045 61.7509 64.1045C62.2978 64.1045 62.6989 63.9085 62.9541 63.5166C63.2138 63.1201 63.346 62.5163 63.3505 61.7051V60.9668ZM66.1393 60.96C66.1393 59.8844 66.3991 59.0345 66.9186 58.4102C67.4427 57.7812 68.1332 57.4668 68.9899 57.4668C69.8467 57.4668 70.5348 57.7721 71.0544 58.3828C71.5785 58.9935 71.8473 59.8252 71.861 60.8779V61.6572C71.861 62.7282 71.6012 63.5758 71.0817 64.2002C70.5622 64.8245 69.8695 65.1367 69.0036 65.1367C68.1468 65.1367 67.4587 64.8337 66.9391 64.2275C66.4242 63.6214 66.1576 62.8011 66.1393 61.7666V60.96ZM67.3493 61.6572C67.3493 62.4183 67.4974 63.0176 67.7936 63.4551C68.0944 63.888 68.4977 64.1045 69.0036 64.1045C70.07 64.1045 70.6192 63.3343 70.6511 61.7939V60.96C70.6511 60.2035 70.5007 59.6064 70.1999 59.1689C69.8991 58.7269 69.4958 58.5059 68.9899 58.5059C68.4932 58.5059 68.0944 58.7269 67.7936 59.1689C67.4974 59.6064 67.3493 60.2012 67.3493 60.9531V61.6572ZM77.3295 63.3252L79.3119 57.6035H80.8158V65H79.6127V59.9004L77.7465 65H76.9193L75.0121 59.7773V65H73.809V57.6035H75.3676L77.3295 63.3252ZM86.838 65C86.7651 64.8405 86.7127 64.5716 86.6808 64.1934C86.2524 64.8223 85.7055 65.1367 85.0402 65.1367C84.3702 65.1367 83.8461 64.9499 83.4679 64.5762C83.0942 64.1979 82.9073 63.667 82.9073 62.9834C82.9073 62.2314 83.1625 61.6344 83.673 61.1924C84.1834 60.7503 84.8829 60.5247 85.7716 60.5156H86.6603V59.7295C86.6603 59.2874 86.5623 58.973 86.3663 58.7861C86.1704 58.5993 85.8719 58.5059 85.4708 58.5059C85.1062 58.5059 84.81 58.6152 84.5821 58.834C84.3543 59.0482 84.2403 59.3216 84.2403 59.6543H83.0304C83.0304 59.276 83.142 58.916 83.3653 58.5742C83.5887 58.2279 83.8894 57.9567 84.2677 57.7607C84.6459 57.5648 85.0675 57.4668 85.5323 57.4668C86.2889 57.4668 86.8631 57.6559 87.255 58.0342C87.6515 58.4079 87.8543 58.9548 87.8634 59.6748V63.4072C87.868 63.9769 87.9454 64.4714 88.0958 64.8906V65H86.838ZM85.2247 64.0361C85.5209 64.0361 85.8035 63.9541 86.0724 63.79C86.3413 63.626 86.5372 63.4209 86.6603 63.1748V61.4111H85.9767C85.4025 61.4202 84.949 61.5501 84.6163 61.8008C84.2836 62.0469 84.1173 62.3932 84.1173 62.8398C84.1173 63.2591 84.2016 63.5645 84.3702 63.7559C84.5389 63.9427 84.8237 64.0361 85.2247 64.0361ZM94.5897 58.6289H92.5731V65H91.37V58.6289H89.3807V57.6035H94.5897V58.6289ZM101.336 65H100.133V61.8418H97.4673V65H96.2505V57.6035H97.4673V60.8096H100.133V57.6035H101.336V65ZM104.857 60.1533H106.381C107.088 60.1579 107.65 60.3743 108.07 60.8027C108.489 61.2311 108.699 61.8145 108.699 62.5527C108.699 63.291 108.487 63.8835 108.063 64.3301C107.639 64.7721 107.078 64.9954 106.381 65H103.654V57.6035H104.857V60.1533ZM110.954 65H109.744V57.6035H110.954V65ZM104.857 61.1855V63.9678H106.361C106.716 63.9678 106.992 63.847 107.188 63.6055C107.388 63.3639 107.489 63.029 107.489 62.6006C107.489 62.1813 107.391 61.8418 107.195 61.582C106.999 61.3223 106.73 61.1901 106.388 61.1855H104.857ZM115.985 65.1367C115.065 65.1367 114.358 64.8633 113.866 64.3164C113.374 63.765 113.123 62.9583 113.114 61.8965V61.001C113.114 59.8981 113.354 59.0345 113.832 58.4102C114.315 57.7812 114.987 57.4668 115.849 57.4668C116.715 57.4668 117.362 57.7425 117.79 58.2939C118.218 58.8454 118.437 59.7044 118.446 60.8711V61.6641H114.317V61.835C114.317 62.6279 114.465 63.2044 114.762 63.5645C115.062 63.9245 115.493 64.1045 116.054 64.1045C116.409 64.1045 116.721 64.0384 116.99 63.9062C117.264 63.7695 117.519 63.5553 117.756 63.2637L118.385 64.0293C117.861 64.7676 117.061 65.1367 115.985 65.1367ZM115.849 58.5059C115.347 58.5059 114.976 58.679 114.734 59.0254C114.493 59.3672 114.356 59.9004 114.324 60.625H117.236V60.4609C117.204 59.7591 117.077 59.2578 116.854 58.957C116.635 58.6562 116.3 58.5059 115.849 58.5059Z" fill="#D7D7D7"/>
<path d="M27.4772 90.8418C27.4225 91.9082 27.1217 92.724 26.5748 93.2891C26.0325 93.8542 25.2646 94.1367 24.2711 94.1367C23.2731 94.1367 22.4801 93.7585 21.8922 93.002C21.3043 92.2409 21.0104 91.2109 21.0104 89.9121V88.1074C21.0104 86.8132 21.3112 85.79 21.9127 85.0381C22.5189 84.2861 23.3437 83.9102 24.3873 83.9102C25.3489 83.9102 26.0918 84.1995 26.6159 84.7783C27.1445 85.3525 27.4316 86.1751 27.4772 87.2461H26.2125C26.1579 86.4349 25.987 85.8561 25.6998 85.5098C25.4127 85.1634 24.9752 84.9902 24.3873 84.9902C23.7083 84.9902 23.1865 85.2568 22.8219 85.79C22.4573 86.3187 22.275 87.0957 22.275 88.1211V89.9463C22.275 90.9535 22.4437 91.7259 22.7809 92.2637C23.1227 92.8014 23.6194 93.0703 24.2711 93.0703C24.9228 93.0703 25.3922 92.9085 25.6793 92.585C25.9664 92.2614 26.1442 91.6803 26.2125 90.8418H27.4772ZM29.0355 89.96C29.0355 88.8844 29.2953 88.0345 29.8148 87.4102C30.3389 86.7812 31.0293 86.4668 31.8861 86.4668C32.7429 86.4668 33.431 86.7721 33.9505 87.3828C34.4746 87.9935 34.7435 88.8252 34.7572 89.8779V90.6572C34.7572 91.7282 34.4974 92.5758 33.9779 93.2002C33.4584 93.8245 32.7657 94.1367 31.8998 94.1367C31.043 94.1367 30.3548 93.8337 29.8353 93.2275C29.3203 92.6214 29.0537 91.8011 29.0355 90.7666V89.96ZM30.2455 90.6572C30.2455 91.4183 30.3936 92.0176 30.6898 92.4551C30.9906 92.888 31.3939 93.1045 31.8998 93.1045C32.9662 93.1045 33.5153 92.3343 33.5472 90.7939V89.96C33.5472 89.2035 33.3968 88.6064 33.0961 88.1689C32.7953 87.7269 32.392 87.5059 31.8861 87.5059C31.3893 87.5059 30.9906 87.7269 30.6898 88.1689C30.3936 88.6064 30.2455 89.2012 30.2455 89.9531V90.6572ZM38.585 89.3037L39.8497 86.6035H41.2511L39.2413 90.2607L41.2989 94H39.9112L38.6055 91.2314L37.293 94H35.8985L37.9561 90.2607L35.9532 86.6035H37.3409L38.585 89.3037ZM48.2234 90.6572C48.2234 91.8285 48.0115 92.7012 47.5877 93.2754C47.1684 93.8496 46.5737 94.1367 45.8035 94.1367C45.0607 94.1367 44.4887 93.8564 44.0877 93.2959V96.8438H42.8846V86.6035H43.9783L44.0398 87.4238C44.4454 86.7858 45.0265 86.4668 45.783 86.4668C46.5942 86.4668 47.2003 86.7493 47.6014 87.3145C48.0024 87.8796 48.2098 88.7249 48.2234 89.8506V90.6572ZM47.0203 89.9668C47.0203 89.1374 46.8927 88.5267 46.6375 88.1348C46.3823 87.7383 45.9721 87.54 45.407 87.54C44.8283 87.54 44.3885 87.8294 44.0877 88.4082V92.2568C44.3839 92.8219 44.8283 93.1045 45.4207 93.1045C45.9676 93.1045 46.3686 92.9085 46.6238 92.5166C46.8836 92.1201 47.0158 91.5163 47.0203 90.7051V89.9668ZM53.8697 94C53.7967 93.8405 53.7443 93.5716 53.7124 93.1934C53.284 93.8223 52.7372 94.1367 52.0718 94.1367C51.4019 94.1367 50.8778 93.9499 50.4995 93.5762C50.1258 93.1979 49.939 92.667 49.939 91.9834C49.939 91.2314 50.1942 90.6344 50.7046 90.1924C51.215 89.7503 51.9146 89.5247 52.8032 89.5156H53.6919V88.7295C53.6919 88.2874 53.5939 87.973 53.398 87.7861C53.202 87.5993 52.9035 87.5059 52.5025 87.5059C52.1379 87.5059 51.8417 87.6152 51.6138 87.834C51.3859 88.0482 51.272 88.3216 51.272 88.6543H50.062C50.062 88.276 50.1737 87.916 50.397 87.5742C50.6203 87.2279 50.9211 86.9567 51.2993 86.7607C51.6776 86.5648 52.0991 86.4668 52.564 86.4668C53.3205 86.4668 53.8947 86.6559 54.2866 87.0342C54.6831 87.4079 54.8859 87.9548 54.895 88.6748V92.4072C54.8996 92.9769 54.9771 93.4714 55.1275 93.8906V94H53.8697ZM52.2564 93.0361C52.5526 93.0361 52.8351 92.9541 53.104 92.79C53.3729 92.626 53.5689 92.4209 53.6919 92.1748V90.4111H53.0083C52.4341 90.4202 51.9807 90.5501 51.648 90.8008C51.3153 91.0469 51.1489 91.3932 51.1489 91.8398C51.1489 92.2591 51.2333 92.5645 51.4019 92.7559C51.5705 92.9427 51.8553 93.0361 52.2564 93.0361ZM62.2502 94H61.0471V90.8418H58.3811V94H57.1643V86.6035H58.3811V89.8096H61.0471V86.6035H62.2502V94ZM69.291 86.6035V94H68.081V91.1221H66.6523L65.1621 94H63.8632L65.4629 90.9102C65.0618 90.737 64.7565 90.4704 64.5468 90.1104C64.3372 89.7503 64.2324 89.3333 64.2324 88.8594C64.2324 88.1803 64.4511 87.6357 64.8886 87.2256C65.3261 86.8109 65.914 86.6035 66.6523 86.6035H69.291ZM65.4423 88.873C65.4423 89.2376 65.5403 89.5316 65.7363 89.7549C65.9323 89.9736 66.1966 90.083 66.5293 90.083H68.081V87.6289H66.6386C66.2786 87.6289 65.9892 87.7451 65.7705 87.9775C65.5517 88.2054 65.4423 88.5039 65.4423 88.873ZM72.8044 89.7412H74.1852C74.2718 88.7386 74.5703 87.9434 75.0807 87.3555C75.5957 86.763 76.2383 86.4668 77.0085 86.4668C77.8288 86.4668 78.4987 86.7904 79.0182 87.4375C79.5378 88.0801 79.8203 88.9232 79.8659 89.9668L79.8727 90.3838C79.8727 91.4912 79.6107 92.3936 79.0866 93.0908C78.5625 93.7881 77.8744 94.1367 77.0221 94.1367C76.211 94.1367 75.5501 93.8268 75.0397 93.207C74.5293 92.5827 74.2422 91.7738 74.1784 90.7803H72.8044V94H71.6012V86.6035H72.8044V89.7412ZM75.3747 90.3838C75.3747 91.2087 75.5228 91.8695 75.819 92.3662C76.1152 92.8584 76.5163 93.1045 77.0221 93.1045C77.5189 93.1045 77.9154 92.8584 78.2116 92.3662C78.5078 91.874 78.6559 91.1631 78.6559 90.2334C78.6559 89.3994 78.5055 88.7363 78.2048 88.2441C77.904 87.752 77.5052 87.5059 77.0085 87.5059C76.5163 87.5059 76.1198 87.752 75.819 88.2441C75.5228 88.7363 75.3747 89.4495 75.3747 90.3838ZM86.3324 87.6289H84.3158V94H83.1127V87.6289H81.1234V86.6035H86.3324V87.6289ZM93.9471 93.1045C94.3482 93.1045 94.6694 92.9814 94.911 92.7354C95.1525 92.4847 95.2847 92.1292 95.3075 91.6689H96.4491C96.4217 92.3799 96.1688 92.9701 95.6903 93.4395C95.2163 93.9043 94.6353 94.1367 93.9471 94.1367C93.0311 94.1367 92.3316 93.8496 91.8485 93.2754C91.37 92.6966 91.1307 91.8376 91.1307 90.6982V89.8848C91.1307 88.7682 91.37 87.9206 91.8485 87.3418C92.327 86.7585 93.0243 86.4668 93.9403 86.4668C94.6968 86.4668 95.2961 86.7061 95.7381 87.1846C96.1847 87.6631 96.4217 88.3171 96.4491 89.1465H95.3075C95.2801 88.5996 95.148 88.1895 94.911 87.916C94.6786 87.6426 94.355 87.5059 93.9403 87.5059C93.4025 87.5059 93.0038 87.6836 92.744 88.0391C92.4842 88.39 92.3498 88.9688 92.3407 89.7754V90.7188C92.3407 91.5892 92.4683 92.2044 92.7235 92.5645C92.9832 92.9245 93.3911 93.1045 93.9471 93.1045ZM98.233 94V86.6035H100.714C101.562 86.6035 102.209 86.7767 102.656 87.123C103.102 87.4694 103.326 87.973 103.326 88.6338C103.326 88.9756 103.237 89.2832 103.059 89.5566C102.881 89.8301 102.622 90.0397 102.28 90.1855C102.658 90.2858 102.961 90.4886 103.189 90.7939C103.421 91.0993 103.538 91.4684 103.538 91.9014C103.538 92.585 103.323 93.1068 102.895 93.4668C102.471 93.8223 101.87 94 101.09 94H98.233ZM99.4361 90.7529V92.9814H101.104C101.92 92.9814 102.328 92.6077 102.328 91.8604C102.328 91.1221 101.915 90.7529 101.09 90.7529H99.4361ZM99.4361 89.7412H100.701C101.644 89.7412 102.116 89.3949 102.116 88.7021C102.116 88.0049 101.671 87.6471 100.783 87.6289H99.4361V89.7412ZM105.205 89.96C105.205 88.8844 105.465 88.0345 105.985 87.4102C106.509 86.7812 107.199 86.4668 108.056 86.4668C108.913 86.4668 109.601 86.7721 110.12 87.3828C110.644 87.9935 110.913 88.8252 110.927 89.8779V90.6572C110.927 91.7282 110.667 92.5758 110.148 93.2002C109.628 93.8245 108.935 94.1367 108.07 94.1367C107.213 94.1367 106.525 93.8337 106.005 93.2275C105.49 92.6214 105.224 91.8011 105.205 90.7666V89.96ZM106.415 90.6572C106.415 91.4183 106.563 92.0176 106.86 92.4551C107.16 92.888 107.564 93.1045 108.07 93.1045C109.136 93.1045 109.685 92.3343 109.717 90.7939V89.96C109.717 89.2035 109.567 88.6064 109.266 88.1689C108.965 87.7269 108.562 87.5059 108.056 87.5059C107.559 87.5059 107.16 87.7269 106.86 88.1689C106.563 88.6064 106.415 89.2012 106.415 89.9531V90.6572ZM116.765 86.6035H117.968V94H116.765V88.6064L114.085 94H112.875V86.6035H114.085V92.0039L116.765 86.6035ZM6.34129 108H5.13816V101.649H2.46531V108H1.24851V100.604H6.34129V108ZM8.30293 103.96C8.30293 102.884 8.56269 102.035 9.08222 101.41C9.60631 100.781 10.2967 100.467 11.1535 100.467C12.0103 100.467 12.6984 100.772 13.218 101.383C13.7421 101.993 14.0109 102.825 14.0246 103.878V104.657C14.0246 105.728 13.7648 106.576 13.2453 107.2C12.7258 107.825 12.0331 108.137 11.1672 108.137C10.3104 108.137 9.62226 107.834 9.10273 107.228C8.58776 106.621 8.32116 105.801 8.30293 104.767V103.96ZM9.51289 104.657C9.51289 105.418 9.661 106.018 9.95722 106.455C10.258 106.888 10.6613 107.104 11.1672 107.104C12.2336 107.104 12.7827 106.334 12.8146 104.794V103.96C12.8146 103.203 12.6643 102.606 12.3635 102.169C12.0627 101.727 11.6594 101.506 11.1535 101.506C10.6568 101.506 10.258 101.727 9.95722 102.169C9.661 102.606 9.51289 103.201 9.51289 103.953V104.657ZM20.9696 100.604V108H19.7597V101.649H17.8114L17.6952 104.158C17.6314 105.548 17.4446 106.535 17.1347 107.118C16.8248 107.697 16.328 107.991 15.6445 108H15.2411V106.886L15.5487 106.858C15.886 106.813 16.123 106.587 16.2597 106.182C16.401 105.771 16.4944 104.967 16.54 103.769L16.6562 100.604H20.9696ZM25.8161 108.137C24.8955 108.137 24.1891 107.863 23.6969 107.316C23.2047 106.765 22.9541 105.958 22.945 104.896V104.001C22.945 102.898 23.1842 102.035 23.6627 101.41C24.1458 100.781 24.818 100.467 25.6793 100.467C26.5452 100.467 27.1924 100.743 27.6207 101.294C28.0491 101.845 28.2679 102.704 28.277 103.871V104.664H24.1481V104.835C24.1481 105.628 24.2962 106.204 24.5924 106.564C24.8932 106.924 25.3239 107.104 25.8844 107.104C26.2399 107.104 26.5521 107.038 26.8209 106.906C27.0944 106.77 27.3496 106.555 27.5866 106.264L28.2155 107.029C27.6914 107.768 26.8916 108.137 25.8161 108.137ZM25.6793 101.506C25.178 101.506 24.8066 101.679 24.5651 102.025C24.3235 102.367 24.1868 102.9 24.1549 103.625H27.067V103.461C27.0351 102.759 26.9075 102.258 26.6842 101.957C26.4655 101.656 26.1305 101.506 25.6793 101.506ZM34.5521 102.62C34.5521 102.953 34.4678 103.258 34.2992 103.536C34.1306 103.814 33.8913 104.035 33.5814 104.199C34.306 104.495 34.6683 105.07 34.6683 105.922C34.6683 106.61 34.4427 107.15 33.9916 107.542C33.5449 107.934 32.9548 108.13 32.2211 108.13C31.4964 108.13 30.8994 107.923 30.43 107.508C29.9652 107.089 29.7328 106.523 29.7328 105.812H30.9291C30.9291 106.177 31.0521 106.487 31.2982 106.742C31.5443 106.997 31.8519 107.125 32.2211 107.125C32.5948 107.125 32.8933 107.013 33.1166 106.79C33.3444 106.567 33.4584 106.277 33.4584 105.922C33.4584 105.507 33.3649 105.211 33.1781 105.033C32.9958 104.851 32.7064 104.76 32.3099 104.76H31.2025V103.693H32.392C33.03 103.671 33.349 103.315 33.349 102.627C33.349 102.281 33.2487 102.007 33.0482 101.807C32.8522 101.602 32.5788 101.499 32.2279 101.499C31.8861 101.499 31.599 101.613 31.3666 101.841C31.1387 102.069 31.0248 102.344 31.0248 102.668H29.8285C29.8285 102.025 30.0563 101.499 30.5121 101.089C30.9678 100.679 31.5397 100.474 32.2279 100.474C32.9616 100.474 33.5313 100.66 33.9369 101.034C34.347 101.408 34.5521 101.937 34.5521 102.62ZM41.7364 108H40.5333V104.842H37.8673V108H36.6505V100.604H37.8673V103.81H40.5333V100.604H41.7364V108ZM45.2566 103.153H46.7811C47.4874 103.158 48.0503 103.374 48.4695 103.803C48.8888 104.231 49.0984 104.814 49.0984 105.553C49.0984 106.291 48.8865 106.883 48.4627 107.33C48.0389 107.772 47.4783 107.995 46.7811 108H44.0535V100.604H45.2566V103.153ZM51.3543 108H50.1443V100.604H51.3543V108ZM45.2566 104.186V106.968H46.7605C47.116 106.968 47.3917 106.847 47.5877 106.605C47.7882 106.364 47.8885 106.029 47.8885 105.601C47.8885 105.181 47.7905 104.842 47.5945 104.582C47.3986 104.322 47.1297 104.19 46.7879 104.186H45.2566ZM56.3853 108.137C55.4647 108.137 54.7583 107.863 54.2661 107.316C53.7739 106.765 53.5233 105.958 53.5142 104.896V104.001C53.5142 102.898 53.7534 102.035 54.2319 101.41C54.715 100.781 55.3872 100.467 56.2486 100.467C57.1144 100.467 57.7616 100.743 58.19 101.294C58.6183 101.845 58.8371 102.704 58.8462 103.871V104.664H54.7173V104.835C54.7173 105.628 54.8654 106.204 55.1616 106.564C55.4624 106.924 55.8931 107.104 56.4536 107.104C56.8091 107.104 57.1213 107.038 57.3902 106.906C57.6636 106.77 57.9188 106.555 58.1558 106.264L58.7847 107.029C58.2606 107.768 57.4608 108.137 56.3853 108.137ZM56.2486 101.506C55.7472 101.506 55.3758 101.679 55.1343 102.025C54.8928 102.367 54.756 102.9 54.7241 103.625H57.6362V103.461C57.6043 102.759 57.4767 102.258 57.2534 101.957C57.0347 101.656 56.6997 101.506 56.2486 101.506ZM66.6455 107.104C67.0465 107.104 67.3678 106.981 67.6093 106.735C67.8509 106.485 67.983 106.129 68.0058 105.669H69.1474C69.1201 106.38 68.8671 106.97 68.3886 107.439C67.9147 107.904 67.3336 108.137 66.6455 108.137C65.7295 108.137 65.0299 107.85 64.5468 107.275C64.0683 106.697 63.8291 105.838 63.8291 104.698V103.885C63.8291 102.768 64.0683 101.921 64.5468 101.342C65.0253 100.758 65.7226 100.467 66.6386 100.467C67.3951 100.467 67.9944 100.706 68.4365 101.185C68.8831 101.663 69.1201 102.317 69.1474 103.146H68.0058C67.9785 102.6 67.8463 102.189 67.6093 101.916C67.3769 101.643 67.0533 101.506 66.6386 101.506C66.1009 101.506 65.7021 101.684 65.4423 102.039C65.1826 102.39 65.0481 102.969 65.039 103.775V104.719C65.039 105.589 65.1666 106.204 65.4218 106.564C65.6816 106.924 66.0895 107.104 66.6455 107.104ZM70.9313 108V100.604H73.4128C74.2604 100.604 74.9076 100.777 75.3542 101.123C75.8008 101.469 76.0241 101.973 76.0241 102.634C76.0241 102.976 75.9352 103.283 75.7575 103.557C75.5798 103.83 75.32 104.04 74.9782 104.186C75.3565 104.286 75.6595 104.489 75.8874 104.794C76.1198 105.099 76.236 105.468 76.236 105.901C76.236 106.585 76.0218 107.107 75.5934 107.467C75.1696 107.822 74.568 108 73.7887 108H70.9313ZM72.1345 104.753V106.981H73.8024C74.6182 106.981 75.0261 106.608 75.0261 105.86C75.0261 105.122 74.6136 104.753 73.7887 104.753H72.1345ZM72.1345 103.741H73.3991C74.3425 103.741 74.8141 103.395 74.8141 102.702C74.8141 102.005 74.3698 101.647 73.4811 101.629H72.1345V103.741ZM77.9037 103.96C77.9037 102.884 78.1635 102.035 78.683 101.41C79.2071 100.781 79.8975 100.467 80.7543 100.467C81.6111 100.467 82.2992 100.772 82.8187 101.383C83.3428 101.993 83.6117 102.825 83.6254 103.878V104.657C83.6254 105.728 83.3656 106.576 82.8461 107.2C82.3266 107.825 81.6339 108.137 80.768 108.137C79.9112 108.137 79.223 107.834 78.7035 107.228C78.1885 106.621 77.9219 105.801 77.9037 104.767V103.96ZM79.1137 104.657C79.1137 105.418 79.2618 106.018 79.558 106.455C79.8588 106.888 80.2621 107.104 80.768 107.104C81.8344 107.104 82.3835 106.334 82.4154 104.794V103.96C82.4154 103.203 82.265 102.606 81.9643 102.169C81.6635 101.727 81.2602 101.506 80.7543 101.506C80.2576 101.506 79.8588 101.727 79.558 102.169C79.2618 102.606 79.1137 103.201 79.1137 103.953V104.657ZM89.463 100.604H90.6661V108H89.463V102.606L86.7833 108H85.5734V100.604H86.7833V106.004L89.463 100.604ZM90.1739 97.9102C90.1739 98.4616 89.9848 98.9059 89.6066 99.2432C89.2329 99.5758 88.7407 99.7422 88.13 99.7422C87.5193 99.7422 87.0249 99.5736 86.6466 99.2363C86.2683 98.8991 86.0792 98.457 86.0792 97.9102H87.1114C87.1114 98.2292 87.198 98.4798 87.3712 98.6621C87.5444 98.8398 87.7973 98.9287 88.13 98.9287C88.449 98.9287 88.6974 98.8398 88.8751 98.6621C89.0574 98.4844 89.1486 98.2337 89.1486 97.9102H90.1739ZM95.451 107.104C95.8521 107.104 96.1733 106.981 96.4149 106.735C96.6564 106.485 96.7886 106.129 96.8114 105.669H97.953C97.9256 106.38 97.6727 106.97 97.1942 107.439C96.7202 107.904 96.1392 108.137 95.451 108.137C94.535 108.137 93.8355 107.85 93.3524 107.275C92.8739 106.697 92.6346 105.838 92.6346 104.698V103.885C92.6346 102.768 92.8739 101.921 93.3524 101.342C93.8309 100.758 94.5282 100.467 95.4442 100.467C96.2007 100.467 96.8 100.706 97.242 101.185C97.6886 101.663 97.9256 102.317 97.953 103.146H96.8114C96.784 102.6 96.6519 102.189 96.4149 101.916C96.1825 101.643 95.8589 101.506 95.4442 101.506C94.9064 101.506 94.5077 101.684 94.2479 102.039C93.9881 102.39 93.8537 102.969 93.8446 103.775V104.719C93.8446 105.589 93.9722 106.204 94.2274 106.564C94.4871 106.924 94.895 107.104 95.451 107.104ZM104.303 101.629H102.287V108H101.084V101.629H99.0943V100.604H104.303V101.629ZM105.964 108V100.604H108.446C109.293 100.604 109.94 100.777 110.387 101.123C110.834 101.469 111.057 101.973 111.057 102.634C111.057 102.976 110.968 103.283 110.79 103.557C110.613 103.83 110.353 104.04 110.011 104.186C110.389 104.286 110.692 104.489 110.92 104.794C111.153 105.099 111.269 105.468 111.269 105.901C111.269 106.585 111.055 107.107 110.626 107.467C110.202 107.822 109.601 108 108.822 108H105.964ZM107.167 104.753V106.981H108.835C109.651 106.981 110.059 106.608 110.059 105.86C110.059 105.122 109.646 104.753 108.822 104.753H107.167ZM107.167 103.741H108.432C109.375 103.741 109.847 103.395 109.847 102.702C109.847 102.005 109.403 101.647 108.514 101.629H107.167V103.741ZM116.997 108C116.924 107.84 116.872 107.572 116.84 107.193C116.411 107.822 115.865 108.137 115.199 108.137C114.529 108.137 114.005 107.95 113.627 107.576C113.253 107.198 113.066 106.667 113.066 105.983C113.066 105.231 113.322 104.634 113.832 104.192C114.342 103.75 115.042 103.525 115.931 103.516H116.819V102.729C116.819 102.287 116.721 101.973 116.525 101.786C116.329 101.599 116.031 101.506 115.63 101.506C115.265 101.506 114.969 101.615 114.741 101.834C114.513 102.048 114.399 102.322 114.399 102.654H113.189C113.189 102.276 113.301 101.916 113.524 101.574C113.748 101.228 114.049 100.957 114.427 100.761C114.805 100.565 115.227 100.467 115.691 100.467C116.448 100.467 117.022 100.656 117.414 101.034C117.811 101.408 118.013 101.955 118.022 102.675V106.407C118.027 106.977 118.104 107.471 118.255 107.891V108H116.997ZM115.384 107.036C115.68 107.036 115.963 106.954 116.231 106.79C116.5 106.626 116.696 106.421 116.819 106.175V104.411H116.136C115.562 104.42 115.108 104.55 114.775 104.801C114.443 105.047 114.276 105.393 114.276 105.84C114.276 106.259 114.361 106.564 114.529 106.756C114.698 106.943 114.983 107.036 115.384 107.036Z" fill="#D7D7D7"/>
<path d="M155.472 84.0469V94H154.214V85.127H151.432L151.281 89.3105C151.227 90.5319 151.11 91.4639 150.933 92.1064C150.755 92.749 150.495 93.223 150.153 93.5283C149.812 93.8337 149.363 93.9909 148.807 94H148.424V92.9268L148.656 92.9131C148.989 92.8857 149.249 92.7581 149.436 92.5303C149.622 92.2979 149.764 91.931 149.859 91.4297C149.955 90.9284 150.023 90.1628 150.064 89.1328L150.229 84.0469H155.472ZM160.455 94.1367C159.534 94.1367 158.828 93.8633 158.336 93.3164C157.843 92.765 157.593 91.9583 157.584 90.8965V90.001C157.584 88.8981 157.823 88.0345 158.301 87.4102C158.785 86.7812 159.457 86.4668 160.318 86.4668C161.184 86.4668 161.831 86.7425 162.259 87.2939C162.688 87.8454 162.907 88.7044 162.916 89.8711V90.6641H158.787V90.835C158.787 91.6279 158.935 92.2044 159.231 92.5645C159.532 92.9245 159.963 93.1045 160.523 93.1045C160.879 93.1045 161.191 93.0384 161.46 92.9062C161.733 92.7695 161.988 92.5553 162.225 92.2637L162.854 93.0293C162.33 93.7676 161.53 94.1367 160.455 94.1367ZM160.318 87.5059C159.817 87.5059 159.445 87.679 159.204 88.0254C158.962 88.3672 158.826 88.9004 158.794 89.625H161.706V89.4609C161.674 88.7591 161.546 88.2578 161.323 87.957C161.104 87.6562 160.769 87.5059 160.318 87.5059ZM168.719 87.6494H165.964V94H164.748V86.6035H168.719V87.6494ZM172.137 90.8486H171.453V94H170.243V86.6035H171.453V89.7344H172.055L174.071 86.6035H175.514L173.046 90.124L175.692 94H174.174L172.137 90.8486ZM176.512 89.96C176.512 88.8844 176.771 88.0345 177.291 87.4102C177.815 86.7812 178.505 86.4668 179.362 86.4668C180.219 86.4668 180.907 86.7721 181.427 87.3828C181.951 87.9935 182.22 88.8252 182.233 89.8779V90.6572C182.233 91.7282 181.974 92.5758 181.454 93.2002C180.934 93.8245 180.242 94.1367 179.376 94.1367C178.519 94.1367 177.831 93.8337 177.311 93.2275C176.796 92.6214 176.53 91.8011 176.512 90.7666V89.96ZM177.722 90.6572C177.722 91.4183 177.87 92.0176 178.166 92.4551C178.467 92.888 178.87 93.1045 179.376 93.1045C180.442 93.1045 180.991 92.3343 181.023 90.7939V89.96C181.023 89.2035 180.873 88.6064 180.572 88.1689C180.271 87.7269 179.868 87.5059 179.362 87.5059C178.865 87.5059 178.467 87.7269 178.166 88.1689C177.87 88.6064 177.722 89.2012 177.722 89.9531V90.6572ZM191.632 87.6494H188.877V94H187.66V86.6035H191.632V87.6494ZM192.65 89.96C192.65 88.8844 192.91 88.0345 193.43 87.4102C193.954 86.7812 194.644 86.4668 195.501 86.4668C196.358 86.4668 197.046 86.7721 197.565 87.3828C198.09 87.9935 198.358 88.8252 198.372 89.8779V90.6572C198.372 91.7282 198.112 92.5758 197.593 93.2002C197.073 93.8245 196.381 94.1367 195.515 94.1367C194.658 94.1367 193.97 93.8337 193.45 93.2275C192.935 92.6214 192.669 91.8011 192.65 90.7666V89.96ZM193.86 90.6572C193.86 91.4183 194.009 92.0176 194.305 92.4551C194.606 92.888 195.009 93.1045 195.515 93.1045C196.581 93.1045 197.13 92.3343 197.162 90.7939V89.96C197.162 89.2035 197.012 88.6064 196.711 88.1689C196.41 87.7269 196.007 87.5059 195.501 87.5059C195.004 87.5059 194.606 87.7269 194.305 88.1689C194.009 88.6064 193.86 89.2012 193.86 89.9531V90.6572ZM204.681 87.6289H202.665V94H201.462V87.6289H199.472V86.6035H204.681V87.6289ZM205.761 89.96C205.761 88.8844 206.021 88.0345 206.541 87.4102C207.065 86.7812 207.755 86.4668 208.612 86.4668C209.469 86.4668 210.157 86.7721 210.676 87.3828C211.2 87.9935 211.469 88.8252 211.483 89.8779V90.6572C211.483 91.7282 211.223 92.5758 210.704 93.2002C210.184 93.8245 209.491 94.1367 208.625 94.1367C207.769 94.1367 207.081 93.8337 206.561 93.2275C206.046 92.6214 205.779 91.8011 205.761 90.7666V89.96ZM206.971 90.6572C206.971 91.4183 207.119 92.0176 207.416 92.4551C207.716 92.888 208.12 93.1045 208.625 93.1045C209.692 93.1045 210.241 92.3343 210.273 90.7939V89.96C210.273 89.2035 210.123 88.6064 209.822 88.1689C209.521 87.7269 209.118 87.5059 208.612 87.5059C208.115 87.5059 207.716 87.7269 207.416 88.1689C207.119 88.6064 206.971 89.2012 206.971 89.9531V90.6572ZM213.431 94V86.6035H215.912C216.76 86.6035 217.407 86.7767 217.854 87.123C218.3 87.4694 218.524 87.973 218.524 88.6338C218.524 88.9756 218.435 89.2832 218.257 89.5566C218.079 89.8301 217.82 90.0397 217.478 90.1855C217.856 90.2858 218.159 90.4886 218.387 90.7939C218.619 91.0993 218.736 91.4684 218.736 91.9014C218.736 92.585 218.521 93.1068 218.093 93.4668C217.669 93.8223 217.068 94 216.288 94H213.431ZM214.634 90.7529V92.9814H216.302C217.118 92.9814 217.526 92.6077 217.526 91.8604C217.526 91.1221 217.113 90.7529 216.288 90.7529H214.634ZM214.634 89.7412H215.899C216.842 89.7412 217.314 89.3949 217.314 88.7021C217.314 88.0049 216.869 87.6471 215.981 87.6289H214.634V89.7412ZM225.489 86.6035V94H224.279V91.1221H222.851L221.36 94H220.061L221.661 90.9102C221.26 90.737 220.955 90.4704 220.745 90.1104C220.535 89.7503 220.431 89.3333 220.431 88.8594C220.431 88.1803 220.649 87.6357 221.087 87.2256C221.524 86.8109 222.112 86.6035 222.851 86.6035H225.489ZM221.641 88.873C221.641 89.2376 221.739 89.5316 221.934 89.7549C222.13 89.9736 222.395 90.083 222.727 90.083H224.279V87.6289H222.837C222.477 87.6289 222.187 87.7451 221.969 87.9775C221.75 88.2054 221.641 88.5039 221.641 88.873ZM232.366 87.6289H230.349V94H229.146V87.6289H227.157V86.6035H232.366V87.6289ZM236.036 93.1045C236.438 93.1045 236.759 92.9814 237 92.7354C237.242 92.4847 237.374 92.1292 237.397 91.6689H238.538C238.511 92.3799 238.258 92.9701 237.78 93.4395C237.306 93.9043 236.725 94.1367 236.036 94.1367C235.12 94.1367 234.421 93.8496 233.938 93.2754C233.459 92.6966 233.22 91.8376 233.22 90.6982V89.8848C233.22 88.7682 233.459 87.9206 233.938 87.3418C234.416 86.7585 235.114 86.4668 236.03 86.4668C236.786 86.4668 237.385 86.7061 237.827 87.1846C238.274 87.6631 238.511 88.3171 238.538 89.1465H237.397C237.369 88.5996 237.237 88.1895 237 87.916C236.768 87.6426 236.444 87.5059 236.03 87.5059C235.492 87.5059 235.093 87.6836 234.833 88.0391C234.574 88.39 234.439 88.9688 234.43 89.7754V90.7188C234.43 91.5892 234.558 92.2044 234.813 92.5645C235.073 92.9245 235.48 93.1045 236.036 93.1045ZM245.046 86.6035V94H243.836V91.1221H242.407L240.917 94H239.618L241.218 90.9102C240.817 90.737 240.511 90.4704 240.302 90.1104C240.092 89.7503 239.987 89.3333 239.987 88.8594C239.987 88.1803 240.206 87.6357 240.644 87.2256C241.081 86.8109 241.669 86.6035 242.407 86.6035H245.046ZM241.197 88.873C241.197 89.2376 241.295 89.5316 241.491 89.7549C241.687 89.9736 241.952 90.083 242.284 90.083H243.836V87.6289H242.394C242.034 87.6289 241.744 87.7451 241.525 87.9775C241.307 88.2054 241.197 88.5039 241.197 88.873ZM152.901 100.604H154.104V108H152.901V102.606L150.222 108H149.012V100.604H150.222V106.004L152.901 100.604ZM159.798 106.968L160.161 106.448C160.553 105.847 160.778 104.96 160.837 103.789L160.94 100.604H165.069V106.968H165.93V110.174H164.72V108H160.516V110.174H159.299L159.306 106.968H159.798ZM161.145 106.968H163.866V101.772H162.116L162.054 103.577C161.99 105.017 161.687 106.147 161.145 106.968ZM167.345 103.96C167.345 102.884 167.605 102.035 168.124 101.41C168.648 100.781 169.339 100.467 170.195 100.467C171.052 100.467 171.74 100.772 172.26 101.383C172.784 101.993 173.053 102.825 173.067 103.878V104.657C173.067 105.728 172.807 106.576 172.287 107.2C171.768 107.825 171.075 108.137 170.209 108.137C169.352 108.137 168.664 107.834 168.145 107.228C167.63 106.621 167.363 105.801 167.345 104.767V103.96ZM168.555 104.657C168.555 105.418 168.703 106.018 168.999 106.455C169.3 106.888 169.703 107.104 170.209 107.104C171.276 107.104 171.825 106.334 171.857 104.794V103.96C171.857 103.203 171.706 102.606 171.405 102.169C171.105 101.727 170.701 101.506 170.195 101.506C169.699 101.506 169.3 101.727 168.999 102.169C168.703 102.606 168.555 103.201 168.555 103.953V104.657ZM180.012 100.604V108H178.802V101.649H176.853L176.737 104.158C176.673 105.548 176.487 106.535 176.177 107.118C175.867 107.697 175.37 107.991 174.686 108H174.283V106.886L174.591 106.858C174.928 106.813 175.165 106.587 175.302 106.182C175.443 105.771 175.536 104.967 175.582 103.769L175.698 100.604H180.012ZM186.28 101.649H183.525V108H182.308V100.604H186.28V101.649ZM187.298 103.96C187.298 102.884 187.558 102.035 188.077 101.41C188.602 100.781 189.292 100.467 190.149 100.467C191.006 100.467 191.694 100.772 192.213 101.383C192.737 101.993 193.006 102.825 193.02 103.878V104.657C193.02 105.728 192.76 106.576 192.241 107.2C191.721 107.825 191.028 108.137 190.162 108.137C189.306 108.137 188.618 107.834 188.098 107.228C187.583 106.621 187.316 105.801 187.298 104.767V103.96ZM188.508 104.657C188.508 105.418 188.656 106.018 188.952 106.455C189.253 106.888 189.657 107.104 190.162 107.104C191.229 107.104 191.778 106.334 191.81 104.794V103.96C191.81 103.203 191.659 102.606 191.359 102.169C191.058 101.727 190.655 101.506 190.149 101.506C189.652 101.506 189.253 101.727 188.952 102.169C188.656 102.606 188.508 103.201 188.508 103.953V104.657ZM203.547 108H202.344V104.842H199.678V108H198.461V100.604H199.678V103.81H202.344V100.604H203.547V108ZM208.4 108.137C207.479 108.137 206.773 107.863 206.281 107.316C205.789 106.765 205.538 105.958 205.529 104.896V104.001C205.529 102.898 205.768 102.035 206.247 101.41C206.73 100.781 207.402 100.467 208.263 100.467C209.129 100.467 209.776 100.743 210.205 101.294C210.633 101.845 210.852 102.704 210.861 103.871V104.664H206.732V104.835C206.732 105.628 206.88 106.204 207.176 106.564C207.477 106.924 207.908 107.104 208.468 107.104C208.824 107.104 209.136 107.038 209.405 106.906C209.678 106.77 209.933 106.555 210.17 106.264L210.799 107.029C210.275 107.768 209.475 108.137 208.4 108.137ZM208.263 101.506C207.762 101.506 207.39 101.679 207.149 102.025C206.907 102.367 206.771 102.9 206.739 103.625H209.651V103.461C209.619 102.759 209.491 102.258 209.268 101.957C209.049 101.656 208.714 101.506 208.263 101.506ZM221.292 108H220.089V101.649H217.416V108H216.199V100.604H221.292V108ZM223.254 103.96C223.254 102.884 223.513 102.035 224.033 101.41C224.557 100.781 225.247 100.467 226.104 100.467C226.961 100.467 227.649 100.772 228.169 101.383C228.693 101.993 228.962 102.825 228.975 103.878V104.657C228.975 105.728 228.715 106.576 228.196 107.2C227.676 107.825 226.984 108.137 226.118 108.137C225.261 108.137 224.573 107.834 224.053 107.228C223.538 106.621 223.272 105.801 223.254 104.767V103.96ZM224.464 104.657C224.464 105.418 224.612 106.018 224.908 106.455C225.209 106.888 225.612 107.104 226.118 107.104C227.184 107.104 227.733 106.334 227.765 104.794V103.96C227.765 103.203 227.615 102.606 227.314 102.169C227.013 101.727 226.61 101.506 226.104 101.506C225.607 101.506 225.209 101.727 224.908 102.169C224.612 102.606 224.464 103.201 224.464 103.953V104.657ZM236.16 104.657C236.16 105.828 235.948 106.701 235.524 107.275C235.105 107.85 234.51 108.137 233.74 108.137C232.997 108.137 232.425 107.856 232.024 107.296V110.844H230.821V100.604H231.914L231.976 101.424C232.382 100.786 232.963 100.467 233.719 100.467C234.53 100.467 235.136 100.749 235.537 101.314C235.939 101.88 236.146 102.725 236.16 103.851V104.657ZM234.956 103.967C234.956 103.137 234.829 102.527 234.574 102.135C234.318 101.738 233.908 101.54 233.343 101.54C232.764 101.54 232.325 101.829 232.024 102.408V106.257C232.32 106.822 232.764 107.104 233.357 107.104C233.904 107.104 234.305 106.909 234.56 106.517C234.82 106.12 234.952 105.516 234.956 104.705V103.967ZM242.359 101.629H240.343V108H239.14V101.629H237.15V100.604H242.359V101.629ZM248.744 100.604V108H247.534V105.122H246.105L244.615 108H243.316L244.916 104.91C244.515 104.737 244.209 104.47 244 104.11C243.79 103.75 243.685 103.333 243.685 102.859C243.685 102.18 243.904 101.636 244.342 101.226C244.779 100.811 245.367 100.604 246.105 100.604H248.744ZM244.895 102.873C244.895 103.238 244.993 103.532 245.189 103.755C245.385 103.974 245.65 104.083 245.982 104.083H247.534V101.629H246.092C245.732 101.629 245.442 101.745 245.223 101.978C245.005 102.205 244.895 102.504 244.895 102.873ZM255.621 101.629H253.604V108H252.401V101.629H250.412V100.604H255.621V101.629ZM259.291 107.104C259.692 107.104 260.014 106.981 260.255 106.735C260.497 106.485 260.629 106.129 260.652 105.669H261.793C261.766 106.38 261.513 106.97 261.034 107.439C260.56 107.904 259.979 108.137 259.291 108.137C258.375 108.137 257.676 107.85 257.193 107.275C256.714 106.697 256.475 105.838 256.475 104.698V103.885C256.475 102.768 256.714 101.921 257.193 101.342C257.671 100.758 258.368 100.467 259.284 100.467C260.041 100.467 260.64 100.706 261.082 101.185C261.529 101.663 261.766 102.317 261.793 103.146H260.652C260.624 102.6 260.492 102.189 260.255 101.916C260.023 101.643 259.699 101.506 259.284 101.506C258.747 101.506 258.348 101.684 258.088 102.039C257.828 102.39 257.694 102.969 257.685 103.775V104.719C257.685 105.589 257.812 106.204 258.068 106.564C258.327 106.924 258.735 107.104 259.291 107.104ZM268.301 100.604V108H267.091V105.122H265.662L264.172 108H262.873L264.473 104.91C264.072 104.737 263.766 104.47 263.557 104.11C263.347 103.75 263.242 103.333 263.242 102.859C263.242 102.18 263.461 101.636 263.898 101.226C264.336 100.811 264.924 100.604 265.662 100.604H268.301ZM264.452 102.873C264.452 103.238 264.55 103.532 264.746 103.755C264.942 103.974 265.206 104.083 265.539 104.083H267.091V101.629H265.648C265.288 101.629 264.999 101.745 264.78 101.978C264.561 102.205 264.452 102.504 264.452 102.873Z" fill="#D7D7D7"/>
<path d="M79.9859 147H78.728V142.399H74.7222V147H73.4712V137.047H74.7222V141.326H78.728V137.047H79.9859V147ZM84.9075 147.137C83.9869 147.137 83.2805 146.863 82.7883 146.316C82.2961 145.765 82.0455 144.958 82.0364 143.896V143.001C82.0364 141.898 82.2756 141.035 82.7541 140.41C83.2372 139.781 83.9094 139.467 84.7707 139.467C85.6366 139.467 86.2838 139.743 86.7121 140.294C87.1405 140.845 87.3593 141.704 87.3684 142.871V143.664H83.2395V143.835C83.2395 144.628 83.3876 145.204 83.6838 145.564C83.9846 145.924 84.4153 146.104 84.9758 146.104C85.3313 146.104 85.6435 146.038 85.9123 145.906C86.1858 145.77 86.441 145.555 86.678 145.264L87.3069 146.029C86.7828 146.768 85.983 147.137 84.9075 147.137ZM84.7707 140.506C84.2694 140.506 83.898 140.679 83.6565 141.025C83.4149 141.367 83.2782 141.9 83.2463 142.625H86.1584V142.461C86.1265 141.759 85.9989 141.258 85.7756 140.957C85.5569 140.656 85.2219 140.506 84.7707 140.506ZM93.6982 140.629H91.6816V147H90.4785V140.629H88.4892V139.604H93.6982V140.629ZM103.958 139.604V147H102.748V140.649H100.8L100.684 143.158C100.62 144.548 100.433 145.535 100.123 146.118C99.8135 146.697 99.3168 146.991 98.6332 147H98.2299V145.886L98.5375 145.858C98.8747 145.813 99.1117 145.587 99.2484 145.182C99.3897 144.771 99.4831 143.967 99.5287 142.769L99.6449 139.604H103.958ZM107.472 142.153H108.996C109.703 142.158 110.265 142.374 110.685 142.803C111.104 143.231 111.314 143.814 111.314 144.553C111.314 145.291 111.102 145.883 110.678 146.33C110.254 146.772 109.693 146.995 108.996 147H106.269V139.604H107.472V142.153ZM107.472 143.186V145.968H108.976C109.331 145.968 109.607 145.847 109.803 145.605C110.003 145.364 110.104 145.029 110.104 144.601C110.104 144.181 110.006 143.842 109.81 143.582C109.614 143.322 109.345 143.19 109.003 143.186H107.472ZM113.125 145.968L113.487 145.448C113.879 144.847 114.105 143.96 114.164 142.789L114.266 139.604H118.395V145.968H119.257V149.174H118.047V147H113.843V149.174H112.626L112.633 145.968H113.125ZM114.472 145.968H117.192V140.772H115.442L115.381 142.577C115.317 144.017 115.014 145.147 114.472 145.968ZM124.732 147C124.659 146.84 124.607 146.572 124.575 146.193C124.146 146.822 123.6 147.137 122.934 147.137C122.264 147.137 121.74 146.95 121.362 146.576C120.988 146.198 120.801 145.667 120.801 144.983C120.801 144.231 121.057 143.634 121.567 143.192C122.077 142.75 122.777 142.525 123.666 142.516H124.554V141.729C124.554 141.287 124.456 140.973 124.26 140.786C124.064 140.599 123.766 140.506 123.365 140.506C123 140.506 122.704 140.615 122.476 140.834C122.248 141.048 122.134 141.322 122.134 141.654H120.924C120.924 141.276 121.036 140.916 121.259 140.574C121.483 140.228 121.783 139.957 122.162 139.761C122.54 139.565 122.961 139.467 123.426 139.467C124.183 139.467 124.757 139.656 125.149 140.034C125.545 140.408 125.748 140.955 125.757 141.675V145.407C125.762 145.977 125.839 146.471 125.99 146.891V147H124.732ZM123.119 146.036C123.415 146.036 123.697 145.954 123.966 145.79C124.235 145.626 124.431 145.421 124.554 145.175V143.411H123.871C123.296 143.42 122.843 143.55 122.51 143.801C122.178 144.047 122.011 144.393 122.011 144.84C122.011 145.259 122.096 145.564 122.264 145.756C122.433 145.943 122.718 146.036 123.119 146.036ZM131.52 147V139.604H134.001C134.849 139.604 135.496 139.777 135.942 140.123C136.389 140.469 136.612 140.973 136.612 141.634C136.612 141.976 136.523 142.283 136.346 142.557C136.168 142.83 135.908 143.04 135.566 143.186C135.945 143.286 136.248 143.489 136.476 143.794C136.708 144.099 136.824 144.468 136.824 144.901C136.824 145.585 136.61 146.107 136.182 146.467C135.758 146.822 135.156 147 134.377 147H131.52ZM132.723 143.753V145.981H134.391C135.206 145.981 135.614 145.608 135.614 144.86C135.614 144.122 135.202 143.753 134.377 143.753H132.723ZM132.723 142.741H133.987C134.931 142.741 135.402 142.395 135.402 141.702C135.402 141.005 134.958 140.647 134.069 140.629H132.723V142.741ZM144.261 144.99L145.608 139.604H146.893L144.473 148.046C144.291 148.679 144.033 149.16 143.701 149.488C143.368 149.821 142.99 149.987 142.566 149.987C142.402 149.987 142.192 149.951 141.937 149.878V148.853L142.204 148.88C142.554 148.88 142.828 148.796 143.024 148.627C143.224 148.463 143.386 148.176 143.509 147.766L143.748 146.938L141.575 139.604H142.894L144.261 144.99ZM153.558 147H152.355V140.649H149.682V147H148.465V139.604H153.558V147ZM159.58 147C159.507 146.84 159.455 146.572 159.423 146.193C158.994 146.822 158.447 147.137 157.782 147.137C157.112 147.137 156.588 146.95 156.21 146.576C155.836 146.198 155.649 145.667 155.649 144.983C155.649 144.231 155.905 143.634 156.415 143.192C156.925 142.75 157.625 142.525 158.514 142.516H159.402V141.729C159.402 141.287 159.304 140.973 159.108 140.786C158.912 140.599 158.614 140.506 158.213 140.506C157.848 140.506 157.552 140.615 157.324 140.834C157.096 141.048 156.982 141.322 156.982 141.654H155.772C155.772 141.276 155.884 140.916 156.107 140.574C156.331 140.228 156.631 139.957 157.01 139.761C157.388 139.565 157.809 139.467 158.274 139.467C159.031 139.467 159.605 139.656 159.997 140.034C160.393 140.408 160.596 140.955 160.605 141.675V145.407C160.61 145.977 160.687 146.471 160.838 146.891V147H159.58ZM157.967 146.036C158.263 146.036 158.545 145.954 158.814 145.79C159.083 145.626 159.279 145.421 159.402 145.175V143.411H158.719C158.144 143.42 157.691 143.55 157.358 143.801C157.026 144.047 156.859 144.393 156.859 144.84C156.859 145.259 156.944 145.564 157.112 145.756C157.281 145.943 157.566 146.036 157.967 146.036ZM164.775 143.849H164.091V147H162.881V139.604H164.091V142.734H164.693L166.71 139.604H168.152L165.684 143.124L168.33 147H166.812L164.775 143.849ZM169.15 142.96C169.15 141.884 169.409 141.035 169.929 140.41C170.453 139.781 171.144 139.467 172 139.467C172.857 139.467 173.545 139.772 174.065 140.383C174.589 140.993 174.858 141.825 174.871 142.878V143.657C174.871 144.728 174.612 145.576 174.092 146.2C173.573 146.825 172.88 147.137 172.014 147.137C171.157 147.137 170.469 146.834 169.95 146.228C169.435 145.621 169.168 144.801 169.15 143.767V142.96ZM170.36 143.657C170.36 144.418 170.508 145.018 170.804 145.455C171.105 145.888 171.508 146.104 172.014 146.104C173.08 146.104 173.63 145.334 173.661 143.794V142.96C173.661 142.203 173.511 141.606 173.21 141.169C172.909 140.727 172.506 140.506 172 140.506C171.504 140.506 171.105 140.727 170.804 141.169C170.508 141.606 170.36 142.201 170.36 142.953V143.657ZM176.819 147V139.604H179.301C180.148 139.604 180.796 139.777 181.242 140.123C181.689 140.469 181.912 140.973 181.912 141.634C181.912 141.976 181.823 142.283 181.646 142.557C181.468 142.83 181.208 143.04 180.866 143.186C181.245 143.286 181.548 143.489 181.775 143.794C182.008 144.099 182.124 144.468 182.124 144.901C182.124 145.585 181.91 146.107 181.481 146.467C181.058 146.822 180.456 147 179.677 147H176.819ZM178.023 143.753V145.981H179.69C180.506 145.981 180.914 145.608 180.914 144.86C180.914 144.122 180.502 143.753 179.677 143.753H178.023ZM178.023 142.741H179.287C180.231 142.741 180.702 142.395 180.702 141.702C180.702 141.005 180.258 140.647 179.369 140.629H178.023V142.741ZM186.054 143.849H185.371V147H184.161V139.604H185.371V142.734H185.972L187.989 139.604H189.431L186.964 143.124L189.609 147H188.092L186.054 143.849ZM193.587 147.137C192.667 147.137 191.96 146.863 191.468 146.316C190.976 145.765 190.725 144.958 190.716 143.896V143.001C190.716 141.898 190.956 141.035 191.434 140.41C191.917 139.781 192.589 139.467 193.451 139.467C194.317 139.467 194.964 139.743 195.392 140.294C195.82 140.845 196.039 141.704 196.048 142.871V143.664H191.919V143.835C191.919 144.628 192.068 145.204 192.364 145.564C192.665 145.924 193.095 146.104 193.656 146.104C194.011 146.104 194.323 146.038 194.592 145.906C194.866 145.77 195.121 145.555 195.358 145.264L195.987 146.029C195.463 146.768 194.663 147.137 193.587 147.137ZM193.451 140.506C192.949 140.506 192.578 140.679 192.336 141.025C192.095 141.367 191.958 141.9 191.926 142.625H194.838V142.461C194.806 141.759 194.679 141.258 194.456 140.957C194.237 140.656 193.902 140.506 193.451 140.506Z" fill="#D7D7D7"/>
<rect x="133" width="1" height="30" rx="0.5" fill="white"/>
</svg>
