<svg width="17" height="23" viewBox="0 0 17 23" fill="none" xmlns="http://www.w3.org/2000/svg">
<path d="M15.6136 8.27695L9.60224 18.6889C9.0477 19.6494 8.1509 20.3599 7.10913 20.664C6.06737 20.9681 4.96597 20.8409 4.04723 20.3105C3.12849 19.7801 2.46768 18.8898 2.21015 17.8356C1.95263 16.7813 2.1195 15.6494 2.67404 14.6889L9.20813 3.37156C9.55472 2.77125 10.1152 2.32722 10.7663 2.13716C11.4174 1.94709 12.1058 2.02656 12.68 2.35809C13.2542 2.68961 13.6672 3.24602 13.8282 3.90493C13.9891 4.56383 13.8848 5.27125 13.5383 5.87156L8.04962 15.3782C7.91098 15.6183 7.68678 15.7959 7.42634 15.8719C7.1659 15.9479 6.89055 15.9162 6.66087 15.7835C6.43118 15.6509 6.26598 15.4284 6.2016 15.1648C6.13722 14.9013 6.17893 14.6183 6.31757 14.3782L11.2835 5.77695L9.98444 5.02695L5.01853 13.6282C4.67194 14.2285 4.56765 14.9359 4.7286 15.5948C4.88956 16.2537 5.30257 16.8101 5.87678 17.1416C6.45099 17.4732 7.13936 17.5526 7.79047 17.3626C8.44157 17.1725 9.00207 16.7285 9.34866 16.1282L14.8373 6.62156C15.3918 5.66106 15.5587 4.52919 15.3012 3.47494C15.0437 2.4207 14.3828 1.53043 13.4641 1C12.5454 0.469567 11.444 0.342415 10.4022 0.646517C9.36043 0.950619 8.46363 1.66106 7.90909 2.62156L1.375 13.9389C0.612504 15.2596 0.383065 16.8159 0.73716 18.2655C1.09125 19.7151 1.99988 20.9392 3.26314 21.6686C4.5264 22.3979 6.04083 22.5728 7.47326 22.1546C8.90569 21.7365 10.1388 20.7596 10.9013 19.4389L16.9126 9.02695L15.6136 8.27695Z" fill="#005C00"/>
</svg>
