<svg width="142" height="97" viewBox="0 0 142 97" fill="none" xmlns="http://www.w3.org/2000/svg">
<path d="M116.397 36.7747C114.71 36.0895 113.248 36.4321 112.761 36.6986C112.686 36.7367 112.686 36.8889 112.761 36.927C113.286 37.1935 114.635 38.1452 114.335 40.6197C114.185 41.8379 113.173 43.8175 110.249 45.1499C109.312 45.5306 108.337 45.6829 107.325 45.4925C104.851 44.9976 104.814 41.1907 104.814 40.0106C104.814 34.9855 108.487 25.8108 109.612 24.6688C109.799 24.4784 109.987 24.5926 109.987 24.2881C109.987 23.6409 108.187 22.1943 105.601 22.1943C104.401 22.1943 102.452 26.4961 101.177 31.0263C99.2281 34.6809 96.1542 41.2288 94.8421 41.2288C94.6547 41.2288 94.2798 41.1907 94.2798 40.0106C94.2798 34.9855 97.916 25.8108 99.0407 24.6688C99.2656 24.4784 99.4155 24.5926 99.4155 24.2881C99.4155 23.6409 97.6161 22.1943 95.0295 22.1943C93.7175 22.1943 91.6182 27.2194 90.3437 32.0922C89.8189 32.7394 89.0316 33.5769 87.9445 34.186C88.3194 32.5491 88.8442 30.303 88.8442 28.133C88.8442 24.821 87.1198 21.8897 82.8463 21.8897C76.7359 21.8897 72.7998 30.6456 72.7998 37.8407C72.7998 42.409 75.3114 44.8834 78.6477 44.8834C82.5464 44.8834 85.058 41.4192 86.9698 37.1554C88.0945 36.6986 88.9567 36.0514 89.6314 35.3662C89.4065 36.5844 89.294 37.6884 89.294 38.6401C89.294 42.8277 91.2434 44.7692 93.7925 44.7692C95.8543 44.7692 98.0285 41.6095 99.7904 38.0691V38.6401C99.7904 39.706 99.9029 40.6197 100.128 41.3811C100.803 43.6652 102.714 47.8909 107.55 48.2335C108.075 48.2716 108.562 48.2335 109.05 48.1574C113.023 47.7386 117.859 44.7312 118.609 41.0765C118.646 40.8862 118.646 40.6958 118.646 40.5055C118.721 38.7163 117.859 37.3838 116.397 36.7747ZM83.2211 34.9855H82.3964C80.7845 34.9855 80.2222 37.9549 82.0216 37.9549C81.0094 40.1248 79.7348 41.7237 78.6852 41.7237C75.2739 41.7237 81.0469 24.821 84.2708 24.821C85.7703 24.821 84.6456 30.7598 83.2211 34.9855Z" fill="white"/>
<path d="M67.6265 21.8897C63.9528 21.8897 60.1291 32.4729 59.7918 33.5389C60.3166 31.5212 61.1038 29.1228 62.0035 26.6864C62.3409 25.7728 62.7158 24.8591 63.0531 23.9835C63.5779 22.6892 64.1028 21.4329 64.6276 20.2527C64.6651 20.1385 64.7401 20.0243 64.7775 19.9101C65.1524 19.1107 65.5273 18.3112 65.8647 17.5879C66.7643 15.8367 67.7765 14.1236 68.6387 12.6389C71.8626 7.19506 75.7987 2.93132 77.973 2.93132C78.9476 2.93132 78.8352 3.73077 78.7602 4.11146C78.5728 5.67229 78.0104 7.68995 77.1108 9.74568C74.5991 10.9258 72.6123 12.2963 71.0754 13.5526C68.5637 15.6464 68.0014 16.7885 67.739 17.6641C67.5516 18.3112 67.8515 19.1868 68.4138 19.6056C68.7137 19.834 69.0885 19.9482 69.5759 19.9482C70.7005 19.9482 72.2 19.263 73.9619 17.5498C76.511 15.5322 78.5353 12.9054 79.8848 10.3167C79.9598 10.2787 80.0347 10.2787 80.1097 10.2406C95.7418 5.06319 99.9778 14.2759 100.165 14.6947C100.84 16.0271 101.29 17.3595 101.44 18.5777C101.477 18.9965 101.477 19.3391 101.477 19.6436C101.44 20.4812 101.177 21.3948 100.728 22.2323C101.777 22.8034 106.126 19.4533 105.676 15.5703C105.488 13.781 102.714 3.99725 85.3579 7.23312C83.7459 7.49961 82.2465 7.84223 80.8595 8.29906C81.4218 6.85243 81.7217 5.52002 81.7217 4.45408C81.7591 1.104 79.285 0 77.8605 0C71.2628 0 62.5283 9.85989 58.3298 20.5954C58.0299 21.2425 57.7675 22.042 57.5425 22.6511C57.5051 22.7653 57.4676 22.8795 57.4301 22.9937C56.5304 25.5824 55.4058 29.9984 54.7685 33.5769C52.1444 37.7265 47.6085 42.8658 43.6349 42.8658C41.3482 42.8658 39.8862 40.8862 39.8112 38.031C39.5113 26.5722 49.5203 11.8395 54.9185 11.8395C55.4433 11.8395 55.7432 12.1821 55.6307 12.7912C55.0309 17.9305 49.7078 22.4988 50.57 22.4988C50.9448 22.4988 59.192 20.4812 59.192 13.7049C59.192 11.3065 57.805 6.70016 52.5568 6.70016C43.4099 6.70016 34.4506 23.0699 34.4506 35.29C34.4506 42.1425 37.487 46.863 42.5477 46.863C47.0837 46.863 51.1323 43.3226 53.9438 39.4776C53.9063 40.0487 53.8688 40.5816 53.8688 41.0765C53.8688 43.7033 56.4554 45.4164 57.2801 44.617C57.4676 44.4266 57.5425 43.8936 57.8799 43.2084C58.8546 44.1982 60.0167 44.7692 62.0035 44.7692C68.8261 44.7692 72.125 33.3485 72.125 28.0569C72.125 23.8312 70.1757 21.8897 67.6265 21.8897ZM69.4634 18.3112C69.4259 18.2732 69.351 18.1589 69.351 18.1209C69.4634 17.7783 69.6883 16.9027 72.1625 14.8089C73.2121 13.9333 74.4867 13.0196 75.9861 12.1821C74.4867 14.8469 72.4249 17.2453 69.9133 18.3112C69.6508 18.3493 69.5009 18.3112 69.4634 18.3112ZM59.9042 42.1044C59.3044 42.1044 59.0045 41.2669 58.9296 40.2009C60.3166 36.6225 64.6651 25.4301 66.6144 25.4301C67.0642 25.4301 67.1767 26.3438 67.1767 27.0671C67.1767 31.7115 62.8282 42.1805 59.9042 42.1044Z" fill="white"/>
<path d="M123.332 50.7841C124.007 49.1472 125.019 47.1676 126.181 45.721C126.331 45.5306 126.594 45.3022 126.893 45.5306C126.893 45.5306 127.156 45.7971 126.893 46.1397C126.893 46.1397 125.357 48.1954 124.194 51.8501C124.157 51.9643 124.269 52.1166 124.419 52.0404C129.518 49.7563 133.116 44.655 133.266 38.6782C133.266 38.602 133.229 38.564 133.154 38.564C127.381 39.1731 122.882 44.1221 122.882 50.137C122.882 50.3273 122.882 50.5177 122.882 50.7461C122.882 50.9364 123.22 51.0126 123.332 50.7841Z" fill="white"/>
<path d="M43.9348 52.7637C41.5731 52.7637 39.3614 56.8752 38.3867 58.7786C37.1496 61.0628 35.8751 64.1083 34.7504 66.8493C36.8872 60.9867 38.9865 55.8854 38.9865 55.2382C38.9865 53.4871 35.6876 52.8399 34.6755 52.8399C33.6633 52.8399 33.4009 53.2206 33.4009 54.2484C33.4009 56.5326 26.8032 74.9199 26.8032 82.686C26.8032 85.3128 29.7272 87.1782 29.9521 86.0361C30.3645 84.0946 31.5641 79.1837 33.4384 73.8921C34.4131 75.2626 35.9125 75.6432 38.2742 75.6432C45.0969 75.6432 48.3957 64.2225 48.3957 58.9309C48.4332 54.7053 46.4839 52.7637 43.9348 52.7637ZM36.2124 72.9784C35.4252 72.9784 34.6005 72.2551 34.6005 70.8846C36.3999 66.126 41.3856 56.3042 42.9226 56.3042C43.3725 56.3042 43.4849 57.2178 43.4849 57.9411C43.4849 62.5856 39.1364 73.0926 36.2124 72.9784Z" fill="white"/>
<path d="M141.626 58.0934C141.476 57.865 141.064 57.5224 140.764 57.8269C140.651 62.2049 136.753 68.334 132.741 71.4176C131.055 72.6358 129.555 73.1688 128.243 72.75C126.931 72.2932 126.894 70.2374 126.968 69.0192C127.568 63.8799 130.642 56.3042 131.654 55.2763C131.842 55.086 132.029 55.2002 132.029 54.8956C132.029 54.2484 130.23 52.8018 127.643 52.8018C126.444 52.8018 124.494 57.1036 123.22 61.6338C121.27 65.2885 118.197 71.8363 116.884 71.8363C116.697 71.8363 116.322 71.7983 116.322 70.6181C116.322 65.593 119.958 56.4184 121.083 55.2763C121.308 55.086 121.458 55.2002 121.458 54.8956C121.458 54.2484 119.659 52.8018 117.072 52.8018C115.872 52.8018 114.035 56.9133 112.761 61.2912C110.849 64.8316 107.625 71.8363 106.276 71.8363C106.088 71.8363 105.713 71.8363 105.713 70.6181C105.713 65.6311 109.35 58.0173 110.474 56.8752C110.662 56.6468 110.849 56.7991 110.849 56.4945C110.849 55.7712 109.05 54.4007 106.463 54.4007C106.088 54.4007 105.676 54.7433 105.189 55.3524C104.214 53.5632 102.714 52.5353 99.9778 52.5353C93.4926 52.5353 90.1937 62.7759 89.8563 68.3721C88.6942 70.542 87.6071 72.2551 86.9698 72.2551C86.7824 72.2551 86.4075 72.217 86.4075 70.9988C86.4075 65.8976 89.9688 56.4945 91.0559 55.3144C91.2808 55.124 91.4308 55.2002 91.4308 54.9337C91.4308 54.2484 89.6689 52.8018 87.1573 52.8018C85.8827 52.8018 83.7834 57.9792 82.5464 62.9662L79.8473 62.8901C80.7845 59.1974 81.7217 55.9996 81.7217 55.3524C81.7217 53.6013 79.0601 52.916 78.2354 52.916C77.4107 52.916 77.2232 53.2967 77.2232 54.3246C77.2232 55.5047 76.361 59.0451 75.5363 62.7759L73.2871 62.7378C73.5495 61.3674 73.662 60.073 73.662 59.0451C73.662 54.8575 71.7126 52.916 69.1635 52.916C67.0642 52.916 65.1149 56.1138 64.0278 58.1695C63.578 55.124 62.041 52.4973 58.4047 52.4973C53.0066 52.4973 48.7706 61.2531 48.7706 68.4482C48.7706 73.0165 51.2447 75.5671 54.5061 75.5671C57.655 75.5671 60.8414 72.0267 62.7532 67.7249C63.2031 66.659 63.353 66.2021 63.7279 64.7555C63.9153 63.918 64.0653 62.9282 64.1777 61.9003C65.8272 58.8929 67.4391 56.4564 68.1889 56.4564C68.6387 56.4564 68.7512 57.3701 68.7512 58.0934C68.7512 62.281 66.6894 71.1892 62.7907 72.9784C61.3662 73.5114 60.3916 73.0546 60.3916 73.0546C60.2791 72.9784 60.2041 72.9403 60.1291 73.0165C59.9792 73.1688 60.1292 74.5012 61.3287 75.3006C62.3034 75.9478 64.3277 75.6813 64.6651 75.6052C68.4887 74.9199 71.0753 70.542 72.4999 66.126H74.8615C74.3742 68.4101 74.0368 70.5039 74.0368 71.7983C74.0368 74.4631 76.9608 76.1382 77.5981 75.3006C77.6356 75.2626 77.6731 75.1484 77.748 75.0722C78.0479 73.2068 78.4228 69.5522 78.4228 69.5141C78.4228 69.438 78.4603 69.3238 78.4603 69.2476C78.6477 68.2198 78.8727 67.1919 79.0976 66.126H81.9091C81.6842 67.3823 81.5717 68.5243 81.5717 69.4761C81.5717 73.7779 83.4836 75.7575 85.9952 75.7575C87.4197 75.7575 88.8817 74.1586 90.2312 71.9506C90.906 74.1966 92.4804 75.2626 94.3548 75.2626C96.454 75.2626 98.8532 71.6841 100.765 67.763C100.728 68.2198 100.728 68.7147 100.728 69.1334C100.728 73.321 102.677 75.2626 105.226 75.2626C107.325 75.2626 109.575 71.9886 111.336 68.3721C111.336 68.6385 111.299 68.867 111.299 69.0954C111.299 73.283 113.248 75.2245 115.797 75.2245C117.634 75.2245 119.584 72.6358 121.27 69.5522C121.345 70.7323 121.645 72.5977 122.882 73.9682C123.932 75.3387 125.469 76.1762 127.343 76.1762C133.454 76.1762 138.889 68.5624 141.476 61.9003C142.001 60.644 142.263 59.1213 141.626 58.0934ZM58.9671 65.5169C58.9671 65.5549 58.9296 65.593 58.9296 65.6311C58.9296 65.6311 58.4422 67.1538 57.73 68.6005C57.73 68.6385 57.6925 68.6766 57.6925 68.7147C56.6803 70.8465 55.4808 72.4074 54.4311 72.4074C50.8324 72.4074 56.3804 56.19 59.6043 56.19C61.1038 56.19 60.3916 61.3293 58.9671 65.5169ZM95.4044 71.8744C94.9546 71.8744 94.8421 70.9608 94.8421 70.2374C94.8421 65.593 99.1531 55.124 102.115 55.2002C102.864 55.2002 103.689 56.5326 103.801 57.7889C101.252 62.3952 96.8289 71.8744 95.4044 71.8744Z" fill="white"/>
<path d="M31.2267 52.9541C31.864 50.8984 32.3888 49.5279 32.4263 49.4898C32.9886 49.033 30.177 46.4062 27.7404 46.4062C27.5904 46.4062 27.328 46.9772 26.9157 47.929C26.7657 48.2335 26.091 49.5659 25.1913 51.4694C21.3301 59.9588 15.7445 71.7221 14.395 71.7221C13.8327 71.7221 13.6828 70.5039 13.6828 69.971C13.6828 63.8418 20.318 51.3552 20.318 46.6727C20.318 43.9698 18.631 41.6476 15.7445 41.6476C11.471 41.6476 2.96147 46.3681 2.17425 52.9922C1.7244 57.1797 6.07289 60.3776 7.08504 59.4639C7.72232 58.8548 5.92295 59.1974 6.29782 55.9235C7.12253 48.6142 14.7324 44.0079 15.3697 44.7692C16.4943 46.1017 8.54704 62.3952 8.43458 69.6283C8.39709 72.9784 10.3089 75.3006 13.008 75.3006C15.7071 75.3006 18.2187 70.4659 22.1173 61.748C20.9177 65.8595 19.3808 70.5801 17.8063 74.6154C17.7314 74.7677 17.6564 74.958 17.6189 75.1103C6.26033 78.0797 0 88.0538 0 92.5459C0 95.9341 2.47414 97 3.89865 97C10.4214 97 19.0434 87.3305 23.3169 76.7473C23.3544 76.633 23.3919 76.5569 23.4294 76.4427C23.4294 76.4427 23.4294 76.4046 23.4669 76.4046C24.2916 76.3285 25.1163 76.2524 25.9035 76.2524C26.5408 76.2524 26.1659 73.7017 24.2541 74.3489C24.6664 73.1307 25.0788 71.8744 25.4162 70.6181H25.3787C25.9035 68.867 26.2784 67.4584 26.3534 67.1919C27.8903 62.2049 29.6897 57.0655 31.2267 52.9541ZM4.31101 93.4215C3.33634 93.4215 3.29886 92.6982 3.29886 92.3175C3.29886 89.4623 8.99688 80.8206 16.1569 78.5746C12.1083 87.2162 7.1975 93.4215 4.31101 93.4215Z" fill="white"/>
</svg>
