<svg width="90" height="60" viewBox="0 0 90 60" fill="none" xmlns="http://www.w3.org/2000/svg">
<path d="M73.7728 22.7473C72.7037 22.3234 71.777 22.5353 71.4682 22.7002C71.4207 22.7237 71.4207 22.8179 71.4682 22.8414C71.8008 23.0063 72.6561 23.595 72.4661 25.1256C72.371 25.8791 71.7295 27.1036 69.8763 27.9278C69.2823 28.1633 68.6646 28.2575 68.0231 28.1397C66.4549 27.8336 66.4312 25.4788 66.4312 24.7488C66.4312 21.6405 68.7596 15.9655 69.4724 15.259C69.5912 15.1413 69.71 15.2119 69.71 15.0235C69.71 14.6232 68.5695 13.7284 66.9301 13.7284C66.1698 13.7284 64.9343 16.3893 64.1265 19.1915C62.891 21.4521 60.9428 25.5024 60.1112 25.5024C59.9924 25.5024 59.7548 25.4788 59.7548 24.7488C59.7548 21.6405 62.0595 15.9655 62.7723 15.259C62.9148 15.1413 63.0098 15.2119 63.0098 15.0235C63.0098 14.6232 61.8694 13.7284 60.23 13.7284C59.3984 13.7284 58.0679 16.8367 57.2601 19.8509C56.9274 20.2512 56.4285 20.7692 55.7395 21.146C55.9771 20.1334 56.3097 18.7441 56.3097 17.4019C56.3097 15.3532 55.2168 13.54 52.5082 13.54C48.6354 13.54 46.1407 18.956 46.1407 23.4066C46.1407 26.2323 47.7326 27.763 49.8472 27.763C52.3181 27.763 53.91 25.6201 55.1217 22.9827C55.8345 22.7002 56.381 22.2998 56.8086 21.876C56.6661 22.6295 56.5948 23.3124 56.5948 23.9011C56.5948 26.4914 57.8303 27.6923 59.4459 27.6923C60.7527 27.6923 62.1307 25.7378 63.2474 23.5479V23.9011C63.2474 24.5604 63.3187 25.1256 63.4613 25.5965C63.8889 27.0094 65.1007 29.6232 68.1656 29.8352C68.4983 29.8587 68.8071 29.8352 69.116 29.7881C71.6345 29.529 74.6994 27.6688 75.1746 25.4082C75.1984 25.2904 75.1984 25.1727 75.1984 25.0549C75.2459 23.9482 74.6994 23.124 73.7728 22.7473ZM52.7458 21.6405H52.2231C51.2014 21.6405 50.845 23.4772 51.9855 23.4772C51.344 24.8195 50.5362 25.8085 49.8709 25.8085C47.7088 25.8085 51.3678 15.3532 53.4111 15.3532C54.3614 15.3532 53.6487 19.0267 52.7458 21.6405Z" fill="white"/>
<path d="M42.8619 13.54C40.5335 13.54 38.11 20.0863 37.8962 20.7457C38.2288 19.4976 38.7278 18.0141 39.298 16.5071C39.5118 15.9419 39.7494 15.3768 39.9633 14.8352C40.2959 14.0345 40.6285 13.2575 40.9611 12.5275C40.9849 12.4568 41.0324 12.3862 41.0562 12.3155C41.2938 11.821 41.5314 11.3265 41.7452 10.8791C42.3154 9.79592 42.9569 8.73626 43.5034 7.8179C45.5467 4.45055 48.0414 1.81319 49.4195 1.81319C50.0372 1.81319 49.966 2.30769 49.9184 2.54317C49.7996 3.50863 49.4432 4.75667 48.873 6.02826C47.2811 6.75824 46.0219 7.60597 45.0478 8.38305C43.4559 9.67818 43.0995 10.3846 42.9332 10.9262C42.8144 11.3265 43.0045 11.8681 43.3608 12.1272C43.5509 12.2684 43.7885 12.3391 44.0974 12.3391C44.8102 12.3391 45.7605 11.9152 46.8772 10.8556C48.4929 9.60754 49.7759 7.98273 50.6312 6.38148C50.6787 6.35793 50.7262 6.35793 50.7738 6.33438C60.6814 3.13187 63.3662 8.83046 63.485 9.08948C63.9127 9.91366 64.1978 10.7378 64.2928 11.4914C64.3166 11.7504 64.3166 11.9623 64.3166 12.1507C64.2928 12.6688 64.1265 13.2339 63.8414 13.752C64.5067 14.1052 67.2628 12.033 66.9777 9.63108C66.8589 8.52433 65.1007 2.47253 54.1001 4.4741C53.0784 4.63893 52.128 4.85086 51.249 5.13344C51.6053 4.23862 51.7954 3.41444 51.7954 2.7551C51.8192 0.682889 50.2511 0 49.3482 0C45.1666 0 39.6306 6.0989 36.9696 12.7394C36.7795 13.1397 36.6132 13.6342 36.4706 14.011C36.4469 14.0816 36.4231 14.1523 36.3993 14.2229C35.8291 15.8242 35.1163 18.5557 34.7124 20.7692C33.0493 23.336 30.1744 26.5149 27.6559 26.5149C26.2066 26.5149 25.28 25.2904 25.2324 23.5243C25.0424 16.4364 31.3861 7.32339 34.8075 7.32339C35.1401 7.32339 35.3302 7.53532 35.2589 7.91209C34.8787 11.0911 31.5049 13.9168 32.0514 13.9168C32.289 13.9168 37.516 12.6688 37.516 8.47724C37.516 6.99372 36.6369 4.14443 33.3106 4.14443C27.5133 4.14443 21.8349 14.27 21.8349 21.8289C21.8349 26.0675 23.7594 28.9874 26.9669 28.9874C29.8418 28.9874 32.4078 26.7975 34.1897 24.4192C34.166 24.7724 34.1422 25.102 34.1422 25.4082C34.1422 27.033 35.7816 28.0926 36.3043 27.5981C36.4231 27.4804 36.4706 27.1507 36.6845 26.7268C37.3022 27.3391 38.0387 27.6923 39.298 27.6923C43.6222 27.6923 45.713 20.6279 45.713 17.3548C45.713 14.741 44.4775 13.54 42.8619 13.54ZM44.0261 11.3265C44.0023 11.303 43.9548 11.2323 43.9548 11.2088C44.0261 10.9969 44.1687 10.4553 45.7368 9.16013C46.402 8.61853 47.2099 8.05338 48.1602 7.53532C47.2099 9.18367 45.9031 10.6672 44.3112 11.3265C44.1449 11.3501 44.0499 11.3265 44.0261 11.3265ZM37.9675 26.044C37.5873 26.044 37.3972 25.5259 37.3497 24.8666C38.2288 22.6531 40.9849 15.73 42.2204 15.73C42.5055 15.73 42.5768 16.2951 42.5768 16.7425C42.5768 19.6154 39.8207 26.0911 37.9675 26.044Z" fill="white"/>
<path d="M78.1683 31.4129C78.596 30.4003 79.2375 29.1758 79.974 28.281C80.0691 28.1633 80.2354 28.022 80.4255 28.1633C80.4255 28.1633 80.5918 28.3281 80.4255 28.54C80.4255 28.54 79.4513 29.8116 78.7148 32.0722C78.691 32.1429 78.7623 32.237 78.8573 32.19C82.0886 30.7771 84.3695 27.6217 84.4645 23.9246C84.4645 23.8776 84.4408 23.854 84.3933 23.854C80.7343 24.2308 77.8832 27.292 77.8832 31.0126C77.8832 31.1303 77.8832 31.248 77.8832 31.3893C77.8832 31.5071 78.097 31.5542 78.1683 31.4129Z" fill="white"/>
<path d="M27.846 32.6374C26.3491 32.6374 24.9473 35.1805 24.3296 36.3579C23.5455 37.7708 22.7377 39.6546 22.0249 41.3501C23.3792 37.7237 24.7097 34.5683 24.7097 34.168C24.7097 33.0848 22.6189 32.6845 21.9774 32.6845C21.3359 32.6845 21.1696 32.9199 21.1696 33.5557C21.1696 34.9686 16.9879 46.3422 16.9879 51.146C16.9879 52.7708 18.8412 53.9246 18.9837 53.2182C19.2451 52.0173 20.0054 48.9796 21.1934 45.7064C21.8111 46.5542 22.7615 46.7896 24.2583 46.7896C28.5825 46.7896 30.6733 39.7253 30.6733 36.4521C30.6971 33.8383 29.4616 32.6374 27.846 32.6374ZM22.9515 45.1413C22.4526 45.1413 21.9299 44.6939 21.9299 43.8462C23.0703 40.9027 26.2303 34.8273 27.2045 34.8273C27.4896 34.8273 27.5609 35.3925 27.5609 35.8399C27.5609 38.7127 24.8048 45.2119 22.9515 45.1413Z" fill="white"/>
<path d="M89.7629 35.9341C89.6678 35.7928 89.4065 35.5808 89.2164 35.7692C89.1451 38.4772 86.6742 42.2684 84.1319 44.1758C83.0627 44.9294 82.1124 45.259 81.2808 45C80.4492 44.7174 80.4255 43.4458 80.473 42.6923C80.8531 39.5133 82.8014 34.8273 83.4429 34.1915C83.5617 34.0738 83.6805 34.1444 83.6805 33.956C83.6805 33.5557 82.54 32.6609 80.9006 32.6609C80.1403 32.6609 78.9049 35.3218 78.097 38.124C76.8616 40.3846 74.9133 44.4349 74.0817 44.4349C73.9629 44.4349 73.7253 44.4113 73.7253 43.6813C73.7253 40.573 76.03 34.898 76.7428 34.1915C76.8853 34.0738 76.9803 34.1444 76.9803 33.956C76.9803 33.5557 75.8399 32.6609 74.2005 32.6609C73.4402 32.6609 72.276 35.2041 71.4682 37.9121C70.2564 40.102 68.2131 44.4349 67.3578 44.4349C67.239 44.4349 67.0014 44.4349 67.0014 43.6813C67.0014 40.5965 69.3061 35.887 70.0189 35.1805C70.1376 35.0392 70.2564 35.1334 70.2564 34.9451C70.2564 34.4976 69.116 33.6499 67.4766 33.6499C67.239 33.6499 66.9777 33.8619 66.6688 34.2386C66.051 33.1319 65.1007 32.4961 63.3662 32.4961C59.2559 32.4961 57.165 38.8305 56.9512 42.292C56.2147 43.6342 55.5256 44.6939 55.1217 44.6939C55.0029 44.6939 54.7653 44.6703 54.7653 43.9168C54.7653 40.7614 57.0225 34.9451 57.7115 34.2151C57.8541 34.0973 57.9491 34.1444 57.9491 33.9796C57.9491 33.5557 56.8324 32.6609 55.2405 32.6609C54.4327 32.6609 53.1022 35.8634 52.3181 38.9482L50.6075 38.9011C51.2014 36.617 51.7954 34.6389 51.7954 34.2386C51.7954 33.1554 50.1085 32.7316 49.5858 32.7316C49.0631 32.7316 48.9443 32.967 48.9443 33.6028C48.9443 34.3328 48.3978 36.5228 47.8751 38.8305L46.4496 38.8069C46.6159 37.9592 46.6872 37.1586 46.6872 36.5228C46.6872 33.9325 45.4517 32.7316 43.836 32.7316C42.5055 32.7316 41.27 34.7096 40.581 35.9812C40.2959 34.0973 39.3218 32.4725 37.0171 32.4725C33.5957 32.4725 30.9109 37.8885 30.9109 42.3391C30.9109 45.1648 32.4791 46.7425 34.5461 46.7425C36.5419 46.7425 38.5615 44.5526 39.7732 41.8917C40.0583 41.2323 40.1533 40.9498 40.3909 40.0549C40.5097 39.5369 40.6048 38.9246 40.676 38.2889C41.7214 36.4286 42.7431 34.9215 43.2183 34.9215C43.5034 34.9215 43.5747 35.4867 43.5747 35.9341C43.5747 38.5243 42.2679 44.0345 39.7969 45.1413C38.8941 45.471 38.2763 45.1884 38.2763 45.1884C38.2051 45.1413 38.1575 45.1177 38.11 45.1648C38.015 45.259 38.11 46.0832 38.8703 46.5777C39.4881 46.978 40.7711 46.8132 40.9849 46.7661C43.4084 46.3422 45.0478 43.6342 45.9506 40.9027H47.4475C47.1386 42.3155 46.9247 43.6107 46.9247 44.4113C46.9247 46.0597 48.778 47.0958 49.1819 46.5777C49.2056 46.5542 49.2294 46.4835 49.2769 46.4364C49.467 45.2826 49.7046 43.022 49.7046 42.9984C49.7046 42.9513 49.7284 42.8807 49.7284 42.8336C49.8472 42.1978 49.9897 41.562 50.1323 40.9027H51.9142C51.7717 41.6797 51.7004 42.3862 51.7004 42.9749C51.7004 45.6358 52.9121 46.8603 54.504 46.8603C55.4068 46.8603 56.3335 45.8713 57.1888 44.5055C57.6165 45.8948 58.6144 46.5542 59.8023 46.5542C61.1329 46.5542 62.6534 44.3407 63.8652 41.9152C63.8414 42.1978 63.8414 42.5039 63.8414 42.763C63.8414 45.3532 65.0769 46.5542 66.6925 46.5542C68.0231 46.5542 69.4486 44.529 70.5653 42.292C70.5653 42.4568 70.5416 42.5981 70.5416 42.7394C70.5416 45.3297 71.777 46.5306 73.3927 46.5306C74.5569 46.5306 75.7924 44.9294 76.8615 43.022C76.9091 43.752 77.0991 44.9058 77.8832 45.7535C78.5485 46.6013 79.5226 47.1193 80.7106 47.1193C84.5834 47.1193 88.0285 42.4097 89.6678 38.2889C90.0005 37.5118 90.1668 36.5699 89.7629 35.9341ZM37.3735 40.5259C37.3735 40.5495 37.3497 40.573 37.3497 40.5965C37.3497 40.5965 37.0409 41.5385 36.5894 42.4333C36.5894 42.4568 36.5657 42.4804 36.5657 42.5039C35.9242 43.8226 35.1639 44.7881 34.4986 44.7881C32.2177 44.7881 35.7341 34.7567 37.7774 34.7567C38.7278 34.7567 38.2763 37.9356 37.3735 40.5259ZM60.4676 44.4584C60.1825 44.4584 60.1112 43.8933 60.1112 43.4458C60.1112 40.573 62.8435 34.0973 64.7205 34.1444C65.1957 34.1444 65.7184 34.9686 65.7897 35.7457C64.174 38.595 61.3704 44.4584 60.4676 44.4584Z" fill="white"/>
<path d="M19.7916 32.7551C20.1955 31.4835 20.5281 30.6358 20.5519 30.6122C20.9082 30.3297 19.1263 28.7049 17.5819 28.7049C17.4869 28.7049 17.3206 29.0581 17.0592 29.6468C16.9642 29.8352 16.5365 30.6593 15.9663 31.8367C13.5191 37.0879 9.97893 44.3642 9.1236 44.3642C8.76721 44.3642 8.67217 43.6107 8.67217 43.281C8.67217 39.4898 12.8776 31.7661 12.8776 28.8697C12.8776 27.1978 11.8084 25.7614 9.97893 25.7614C7.27037 25.7614 1.87699 28.6813 1.37804 32.7787C1.09293 35.3689 3.84902 37.3469 4.49052 36.7818C4.89443 36.405 3.75398 36.617 3.99157 34.5918C4.51428 30.0706 9.33743 27.2214 9.74134 27.6923C10.4541 28.5165 5.41714 38.595 5.34586 43.0691C5.3221 45.1413 6.53383 46.5777 8.2445 46.5777C9.95517 46.5777 11.5471 43.5871 14.018 38.1947C13.2577 40.7378 12.2836 43.6578 11.2857 46.1538C11.2382 46.248 11.1907 46.3658 11.1669 46.46C3.96781 48.2967 0 54.4663 0 57.2449C0 59.3407 1.56812 60 2.47097 60C6.6051 60 12.0698 54.0188 14.7783 47.4725C14.8021 47.4019 14.8258 47.3548 14.8496 47.2841C14.8496 47.2841 14.8496 47.2606 14.8734 47.2606C15.3961 47.2135 15.9188 47.1664 16.4177 47.1664C16.8216 47.1664 16.584 45.5887 15.3723 45.989C15.6337 45.2355 15.895 44.4584 16.1089 43.6813H16.0851C16.4177 42.5981 16.6553 41.7268 16.7028 41.562C17.677 38.4772 18.8174 35.2983 19.7916 32.7551ZM2.73233 57.7865C2.11458 57.7865 2.09082 57.3391 2.09082 57.1036C2.09082 55.3375 5.70225 49.9922 10.2403 48.6028C7.67427 53.9482 4.5618 57.7865 2.73233 57.7865Z" fill="white"/>
</svg>
