<svg width="80" height="80" viewBox="0 0 80 80" fill="none" xmlns="http://www.w3.org/2000/svg">
<path d="M79.2626 40.8424L76.741 36.77C76.1106 35.517 75.7954 34.2639 76.1106 32.6976L77.6866 27.9987C78.317 25.8059 77.3714 23.6131 75.4802 22.36L71.3826 19.8539C70.1218 19.2274 69.4914 17.9744 69.1762 16.7213L68.5458 12.0224C68.2306 9.82959 66.3394 7.95002 63.8178 7.95002L59.0898 7.63676C57.829 7.63676 56.253 7.01024 55.6226 5.7572L52.7858 1.99807C51.525 0.118504 49.0034 -0.508017 46.7971 0.431765L42.3843 2.62459C41.1235 3.25111 39.5475 3.25111 38.2867 2.62459L33.8739 0.431765C31.6675 -0.508017 29.1459 0.118504 27.8851 1.99807L24.7331 6.07046C24.1027 7.01024 22.8419 7.63676 21.2659 7.63676L16.5379 7.95002C14.3315 7.95002 12.4403 9.82959 11.8099 12.0224L11.1795 16.7213C10.8643 17.9744 10.2339 19.2274 8.97315 19.8539L4.56036 22.36C2.66916 23.6131 1.72357 26.1191 2.35396 27.9987L3.92996 32.6976C4.24516 33.9507 4.24516 35.517 3.29956 36.77L0.777968 40.8424C-0.482829 42.722 -0.167629 45.2281 1.40837 46.7944L5.19076 50.2402C6.13635 51.18 6.76675 52.4331 6.45155 53.9994L6.13635 58.6983C5.82116 60.8911 7.39715 63.0839 9.60355 63.7104L14.3315 64.9635C15.5923 65.2767 16.8531 66.2165 17.1683 67.4696L19.6899 73.7348C20.3203 74.9878 21.2659 75.6143 22.5267 75.3011L29.1459 74.048C30.4067 73.7348 31.9827 74.048 32.9283 74.9878L38.2867 79.3735C38.6019 79.6867 39.2323 80 39.8627 80C40.4931 80 41.1235 79.6867 41.4387 79.3735L46.7971 74.9878C47.7426 74.048 49.3186 73.7348 50.5794 74.048L55.3074 74.9878C57.5138 75.3011 59.7202 74.3613 60.6658 72.1685L62.557 67.7828C63.1874 66.5298 64.133 65.59 65.3938 65.2767L70.1218 64.0237C72.3282 63.3972 73.9042 61.2043 73.589 59.0115L73.2738 54.3126C73.2738 53.0596 73.589 51.4933 74.5346 50.5535L78.0018 47.1076C80.2082 45.2281 80.5234 42.722 79.2626 40.8424ZM38.2867 60.5778L20.0051 42.4087L23.1571 39.2761L26.6243 35.8302L36.7107 46.1678L42.3843 38.0231L52.1554 23.2998L56.253 26.1191L60.3506 28.312L38.2867 60.5778Z" fill="#005C00"/>
</svg>
