<svg width="1414" height="855" viewBox="0 0 1414 855" fill="none" xmlns="http://www.w3.org/2000/svg">
<rect x="260" y="301" width="147" height="3" rx="1.5" fill="#D1DAD2"/>
<path d="M39.3911 306V288.227H44.457C46.0765 288.227 47.2931 288.621 48.1069 289.411C48.9289 290.2 49.3398 291.384 49.3398 292.963C49.3398 293.793 49.1323 294.525 48.7173 295.16C48.3022 295.795 47.7407 296.287 47.0327 296.637C47.8465 296.881 48.4894 297.382 48.9614 298.139C49.4416 298.896 49.6816 299.807 49.6816 300.873C49.6816 302.468 49.2422 303.721 48.3633 304.633C47.4925 305.544 46.2474 306 44.6279 306H39.3911ZM41.625 297.687V304.083H44.6768C45.5231 304.083 46.1945 303.807 46.6909 303.253C47.1873 302.692 47.4355 301.907 47.4355 300.897C47.4355 298.757 46.5322 297.687 44.7256 297.687H41.625ZM41.625 295.807H44.4937C45.2668 295.807 45.8893 295.547 46.3613 295.026C46.8415 294.505 47.0815 293.813 47.0815 292.951C47.0815 291.974 46.8659 291.266 46.4346 290.827C46.0033 290.379 45.3441 290.155 44.457 290.155H41.625V295.807ZM56.8223 300.373H55.6016V306H53.4409V292.792H55.6016V298.383H56.6758L60.2769 292.792H62.8525L58.4458 299.079L63.1699 306H60.46L56.8223 300.373ZM69.3584 302.411L71.7632 292.792H74.0581L69.7368 307.868C69.4113 308.999 68.9515 309.857 68.3574 310.443C67.7633 311.037 67.0879 311.334 66.3311 311.334C66.0381 311.334 65.6637 311.269 65.208 311.139V309.308L65.6841 309.357C66.3107 309.357 66.799 309.206 67.1489 308.905C67.507 308.612 67.7959 308.1 68.0156 307.367L68.4429 305.89L64.561 292.792H66.917L69.3584 302.411ZM81.0889 304.401C81.805 304.401 82.3787 304.181 82.8101 303.742C83.2414 303.294 83.4774 302.659 83.5181 301.837H85.5566C85.5078 303.107 85.0562 304.161 84.2017 304.999C83.3553 305.829 82.3177 306.244 81.0889 306.244C79.4531 306.244 78.2039 305.731 77.3413 304.706C76.4868 303.673 76.0596 302.139 76.0596 300.104V298.651C76.0596 296.658 76.4868 295.144 77.3413 294.11C78.1958 293.069 79.4409 292.548 81.0767 292.548C82.4276 292.548 83.4977 292.975 84.2871 293.83C85.0846 294.684 85.5078 295.852 85.5566 297.333H83.5181C83.4692 296.356 83.2332 295.624 82.8101 295.136C82.395 294.647 81.8172 294.403 81.0767 294.403C80.1164 294.403 79.4043 294.721 78.9404 295.355C78.4766 295.982 78.2365 297.016 78.2202 298.456V300.141C78.2202 301.695 78.4481 302.794 78.9038 303.437C79.3677 304.079 80.096 304.401 81.0889 304.401ZM97.8242 306H95.6758V300.36H90.915V306H88.7422V292.792H90.915V298.517H95.6758V292.792H97.8242V306ZM104.11 297.345H106.833C108.094 297.353 109.099 297.74 109.848 298.505C110.596 299.27 110.971 300.312 110.971 301.63C110.971 302.948 110.592 304.006 109.835 304.804C109.079 305.593 108.078 305.992 106.833 306H101.962V292.792H104.11V297.345ZM114.999 306H112.838V292.792H114.999V306ZM104.11 299.188V304.157H106.796C107.431 304.157 107.923 303.941 108.273 303.51C108.631 303.078 108.81 302.48 108.81 301.715C108.81 300.967 108.635 300.36 108.285 299.896C107.935 299.433 107.455 299.197 106.845 299.188H104.11ZM123.983 306.244C122.339 306.244 121.078 305.756 120.199 304.779C119.32 303.795 118.872 302.354 118.856 300.458V298.859C118.856 296.889 119.283 295.347 120.138 294.232C121 293.109 122.201 292.548 123.739 292.548C125.285 292.548 126.441 293.04 127.206 294.025C127.971 295.01 128.361 296.544 128.377 298.627V300.043H121.004V300.348C121.004 301.764 121.269 302.794 121.798 303.437C122.335 304.079 123.104 304.401 124.105 304.401C124.74 304.401 125.297 304.283 125.777 304.047C126.266 303.803 126.721 303.42 127.145 302.899L128.268 304.267C127.332 305.585 125.903 306.244 123.983 306.244ZM123.739 294.403C122.844 294.403 122.18 294.713 121.749 295.331C121.318 295.941 121.074 296.894 121.017 298.188H126.217V297.895C126.16 296.641 125.932 295.746 125.533 295.209C125.143 294.672 124.544 294.403 123.739 294.403ZM131.502 309.54L130.22 308.661C130.985 307.595 131.384 306.496 131.417 305.365V303.327H133.626V305.097C133.626 305.919 133.423 306.741 133.016 307.562C132.617 308.384 132.112 309.044 131.502 309.54ZM147.712 304.401C148.428 304.401 149.002 304.181 149.433 303.742C149.864 303.294 150.1 302.659 150.141 301.837H152.18C152.131 303.107 151.679 304.161 150.825 304.999C149.978 305.829 148.941 306.244 147.712 306.244C146.076 306.244 144.827 305.731 143.964 304.706C143.11 303.673 142.683 302.139 142.683 300.104V298.651C142.683 296.658 143.11 295.144 143.964 294.11C144.819 293.069 146.064 292.548 147.7 292.548C149.051 292.548 150.121 292.975 150.91 293.83C151.708 294.684 152.131 295.852 152.18 297.333H150.141C150.092 296.356 149.856 295.624 149.433 295.136C149.018 294.647 148.44 294.403 147.7 294.403C146.739 294.403 146.027 294.721 145.563 295.355C145.1 295.982 144.86 297.016 144.843 298.456V300.141C144.843 301.695 145.071 302.794 145.527 303.437C145.991 304.079 146.719 304.401 147.712 304.401ZM154.718 298.786C154.718 296.865 155.182 295.347 156.11 294.232C157.046 293.109 158.279 292.548 159.809 292.548C161.339 292.548 162.567 293.093 163.495 294.184C164.431 295.274 164.911 296.759 164.936 298.639V300.031C164.936 301.943 164.472 303.457 163.544 304.572C162.616 305.687 161.379 306.244 159.833 306.244C158.303 306.244 157.074 305.703 156.146 304.621C155.227 303.538 154.751 302.073 154.718 300.226V298.786ZM156.879 300.031C156.879 301.39 157.143 302.46 157.672 303.241C158.209 304.014 158.93 304.401 159.833 304.401C161.737 304.401 162.718 303.026 162.775 300.275V298.786C162.775 297.435 162.506 296.369 161.969 295.587C161.432 294.798 160.712 294.403 159.809 294.403C158.922 294.403 158.209 294.798 157.672 295.587C157.143 296.369 156.879 297.431 156.879 298.773V300.031ZM176.788 306H174.615V301.264C173.826 301.492 173.016 301.605 172.186 301.605C170.835 301.605 169.785 301.19 169.037 300.36C168.288 299.522 167.901 298.33 167.877 296.784V292.78H170.038V296.845C170.086 298.782 170.803 299.75 172.186 299.75C173 299.75 173.81 299.628 174.615 299.384V292.792H176.788V306ZM189.983 306H187.835V300.36H183.074V306H180.901V292.792H183.074V298.517H187.835V292.792H189.983V306ZM196.27 297.345H198.992C200.253 297.353 201.258 297.74 202.007 298.505C202.756 299.27 203.13 300.312 203.13 301.63C203.13 302.948 202.751 304.006 201.995 304.804C201.238 305.593 200.237 305.992 198.992 306H194.121V292.792H196.27V297.345ZM207.158 306H204.998V292.792H207.158V306ZM196.27 299.188V304.157H198.955C199.59 304.157 200.082 303.941 200.432 303.51C200.79 303.078 200.969 302.48 200.969 301.715C200.969 300.967 200.794 300.36 200.444 299.896C200.094 299.433 199.614 299.197 199.004 299.188H196.27ZM216.142 306.244C214.498 306.244 213.237 305.756 212.358 304.779C211.479 303.795 211.031 302.354 211.015 300.458V298.859C211.015 296.889 211.442 295.347 212.297 294.232C213.16 293.109 214.36 292.548 215.898 292.548C217.444 292.548 218.6 293.04 219.365 294.025C220.13 295.01 220.52 296.544 220.537 298.627V300.043H213.164V300.348C213.164 301.764 213.428 302.794 213.957 303.437C214.494 304.079 215.263 304.401 216.264 304.401C216.899 304.401 217.456 304.283 217.937 304.047C218.425 303.803 218.881 303.42 219.304 302.899L220.427 304.267C219.491 305.585 218.063 306.244 216.142 306.244ZM215.898 294.403C215.003 294.403 214.34 294.713 213.908 295.331C213.477 295.941 213.233 296.894 213.176 298.188H218.376V297.895C218.319 296.641 218.091 295.746 217.692 295.209C217.302 294.672 216.704 294.403 215.898 294.403ZM68.0767 324.792H70.2251V338H68.0767V328.369L63.2915 338H61.1309V324.792H63.2915V334.436L68.0767 324.792ZM87.2163 338C87.0861 337.715 86.9925 337.235 86.9355 336.56C86.1706 337.683 85.194 338.244 84.0059 338.244C82.8096 338.244 81.8737 337.91 81.1982 337.243C80.5309 336.568 80.1973 335.62 80.1973 334.399C80.1973 333.056 80.653 331.99 81.5645 331.201C82.4759 330.411 83.7251 330.008 85.312 329.992H86.8989V328.588C86.8989 327.799 86.724 327.237 86.374 326.904C86.0241 326.57 85.491 326.403 84.7749 326.403C84.1239 326.403 83.5949 326.599 83.188 326.989C82.7811 327.372 82.5776 327.86 82.5776 328.454H80.417C80.417 327.779 80.6164 327.136 81.0151 326.525C81.4139 325.907 81.951 325.423 82.6265 325.073C83.3019 324.723 84.0547 324.548 84.8848 324.548C86.2357 324.548 87.2611 324.886 87.9609 325.561C88.6689 326.228 89.0311 327.205 89.0474 328.491V335.156C89.0555 336.173 89.1938 337.056 89.4624 337.805V338H87.2163ZM84.3354 336.279C84.8644 336.279 85.369 336.132 85.8491 335.839C86.3293 335.546 86.6792 335.18 86.8989 334.741V331.591H85.6782C84.6528 331.608 83.8431 331.84 83.249 332.287C82.6549 332.727 82.3579 333.345 82.3579 334.143C82.3579 334.891 82.5085 335.437 82.8096 335.778C83.1107 336.112 83.6193 336.279 84.3354 336.279ZM102.45 332.031C102.45 334.122 102.072 335.681 101.315 336.706C100.566 337.731 99.5042 338.244 98.1289 338.244C96.8024 338.244 95.7811 337.744 95.0649 336.743V343.078H92.9165V324.792H94.8696L94.9795 326.257C95.7038 325.118 96.7414 324.548 98.0923 324.548C99.5409 324.548 100.623 325.052 101.339 326.062C102.056 327.071 102.426 328.58 102.45 330.59V332.031ZM100.302 330.798C100.302 329.317 100.074 328.226 99.6182 327.526C99.1624 326.818 98.43 326.464 97.4209 326.464C96.3874 326.464 95.6021 326.981 95.0649 328.015V334.887C95.5939 335.896 96.3874 336.401 97.4453 336.401C98.4219 336.401 99.138 336.051 99.5938 335.351C100.058 334.643 100.294 333.565 100.302 332.116V330.798ZM105.282 330.786C105.282 328.865 105.746 327.347 106.673 326.232C107.609 325.109 108.842 324.548 110.372 324.548C111.902 324.548 113.131 325.093 114.059 326.184C114.994 327.274 115.475 328.759 115.499 330.639V332.031C115.499 333.943 115.035 335.457 114.107 336.572C113.18 337.687 111.943 338.244 110.396 338.244C108.867 338.244 107.638 337.703 106.71 336.621C105.79 335.538 105.314 334.073 105.282 332.226V330.786ZM107.442 332.031C107.442 333.39 107.707 334.46 108.236 335.241C108.773 336.014 109.493 336.401 110.396 336.401C112.301 336.401 113.281 335.026 113.338 332.275V330.786C113.338 329.435 113.07 328.369 112.533 327.587C111.996 326.798 111.275 326.403 110.372 326.403C109.485 326.403 108.773 326.798 108.236 327.587C107.707 328.369 107.442 329.431 107.442 330.773V332.031ZM125.264 335.009L128.804 324.792H131.49V338H129.341V328.894L126.009 338H124.532L121.126 328.674V338H118.978V324.792H121.761L125.264 335.009ZM142.244 338C142.113 337.715 142.02 337.235 141.963 336.56C141.198 337.683 140.221 338.244 139.033 338.244C137.837 338.244 136.901 337.91 136.226 337.243C135.558 336.568 135.225 335.62 135.225 334.399C135.225 333.056 135.68 331.99 136.592 331.201C137.503 330.411 138.752 330.008 140.339 329.992H141.926V328.588C141.926 327.799 141.751 327.237 141.401 326.904C141.051 326.57 140.518 326.403 139.802 326.403C139.151 326.403 138.622 326.599 138.215 326.989C137.808 327.372 137.605 327.86 137.605 328.454H135.444C135.444 327.779 135.644 327.136 136.042 326.525C136.441 325.907 136.978 325.423 137.654 325.073C138.329 324.723 139.082 324.548 139.912 324.548C141.263 324.548 142.288 324.886 142.988 325.561C143.696 326.228 144.058 327.205 144.075 328.491V335.156C144.083 336.173 144.221 337.056 144.49 337.805V338H142.244ZM139.363 336.279C139.892 336.279 140.396 336.132 140.876 335.839C141.357 335.546 141.707 335.18 141.926 334.741V331.591H140.706C139.68 331.608 138.87 331.84 138.276 332.287C137.682 332.727 137.385 333.345 137.385 334.143C137.385 334.891 137.536 335.437 137.837 335.778C138.138 336.112 138.647 336.279 139.363 336.279ZM156.086 326.623H152.485V338H150.336V326.623H146.784V324.792H156.086V326.623ZM168.134 338H165.985V332.36H161.225V338H159.052V324.792H161.225V330.517H165.985V324.792H168.134V338ZM174.42 329.345H177.142C178.403 329.353 179.409 329.74 180.157 330.505C180.906 331.27 181.28 332.312 181.28 333.63C181.28 334.948 180.902 336.006 180.145 336.804C179.388 337.593 178.387 337.992 177.142 338H172.271V324.792H174.42V329.345ZM185.309 338H183.148V324.792H185.309V338ZM174.42 331.188V336.157H177.105C177.74 336.157 178.233 335.941 178.583 335.51C178.941 335.078 179.12 334.48 179.12 333.715C179.12 332.967 178.945 332.36 178.595 331.896C178.245 331.433 177.765 331.197 177.154 331.188H174.42ZM194.292 338.244C192.649 338.244 191.387 337.756 190.508 336.779C189.629 335.795 189.182 334.354 189.166 332.458V330.859C189.166 328.889 189.593 327.347 190.447 326.232C191.31 325.109 192.51 324.548 194.048 324.548C195.595 324.548 196.75 325.04 197.515 326.025C198.28 327.01 198.671 328.544 198.687 330.627V332.043H191.314V332.348C191.314 333.764 191.578 334.794 192.107 335.437C192.645 336.079 193.414 336.401 194.415 336.401C195.049 336.401 195.607 336.283 196.087 336.047C196.575 335.803 197.031 335.42 197.454 334.899L198.577 336.267C197.641 337.585 196.213 338.244 194.292 338.244ZM194.048 326.403C193.153 326.403 192.49 326.713 192.059 327.331C191.627 327.941 191.383 328.894 191.326 330.188H196.526V329.895C196.469 328.641 196.242 327.746 195.843 327.209C195.452 326.672 194.854 326.403 194.048 326.403Z" fill="#D7D7D7"/>
<rect x="1011" y="301" width="150" height="3" rx="1.5" fill="#DBE1DA"/>
<path d="M1232.31 289.36C1232.22 291.265 1231.68 292.721 1230.7 293.73C1229.73 294.74 1228.36 295.244 1226.59 295.244C1224.81 295.244 1223.39 294.569 1222.34 293.218C1221.29 291.859 1220.77 290.02 1220.77 287.7V284.478C1220.77 282.166 1221.3 280.339 1222.38 278.997C1223.46 277.654 1224.93 276.982 1226.8 276.982C1228.51 276.982 1229.84 277.499 1230.78 278.533C1231.72 279.558 1232.23 281.027 1232.31 282.939H1230.06C1229.96 281.491 1229.65 280.457 1229.14 279.839C1228.63 279.22 1227.85 278.911 1226.8 278.911C1225.58 278.911 1224.65 279.387 1224 280.339C1223.35 281.283 1223.02 282.671 1223.02 284.502V287.761C1223.02 289.56 1223.33 290.939 1223.93 291.899C1224.54 292.86 1225.43 293.34 1226.59 293.34C1227.75 293.34 1228.59 293.051 1229.1 292.473C1229.62 291.895 1229.93 290.858 1230.06 289.36H1232.31ZM1235.1 287.786C1235.1 285.865 1235.56 284.347 1236.49 283.232C1237.42 282.109 1238.66 281.548 1240.19 281.548C1241.72 281.548 1242.95 282.093 1243.87 283.184C1244.81 284.274 1245.29 285.759 1245.31 287.639V289.031C1245.31 290.943 1244.85 292.457 1243.92 293.572C1242.99 294.687 1241.76 295.244 1240.21 295.244C1238.68 295.244 1237.45 294.703 1236.52 293.621C1235.61 292.538 1235.13 291.073 1235.1 289.226V287.786ZM1237.26 289.031C1237.26 290.39 1237.52 291.46 1238.05 292.241C1238.59 293.014 1239.31 293.401 1240.21 293.401C1242.12 293.401 1243.1 292.026 1243.15 289.275V287.786C1243.15 286.435 1242.88 285.369 1242.35 284.587C1241.81 283.798 1241.09 283.403 1240.19 283.403C1239.3 283.403 1238.59 283.798 1238.05 284.587C1237.52 285.369 1237.26 286.431 1237.26 287.773V289.031ZM1252.15 286.614L1254.41 281.792H1256.91L1253.32 288.323L1257 295H1254.52L1252.19 290.056L1249.84 295H1247.35L1251.03 288.323L1247.45 281.792H1249.93L1252.15 286.614ZM1269.36 289.031C1269.36 291.122 1268.98 292.681 1268.23 293.706C1267.48 294.731 1266.41 295.244 1265.04 295.244C1263.71 295.244 1262.69 294.744 1261.98 293.743V300.078H1259.83V281.792H1261.78L1261.89 283.257C1262.61 282.118 1263.65 281.548 1265 281.548C1266.45 281.548 1267.53 282.052 1268.25 283.062C1268.97 284.071 1269.34 285.58 1269.36 287.59V289.031ZM1267.21 287.798C1267.21 286.317 1266.98 285.226 1266.53 284.526C1266.07 283.818 1265.34 283.464 1264.33 283.464C1263.3 283.464 1262.51 283.981 1261.98 285.015V291.887C1262.5 292.896 1263.3 293.401 1264.36 293.401C1265.33 293.401 1266.05 293.051 1266.5 292.351C1266.97 291.643 1267.2 290.565 1267.21 289.116V287.798ZM1279.44 295C1279.31 294.715 1279.22 294.235 1279.16 293.56C1278.4 294.683 1277.42 295.244 1276.23 295.244C1275.04 295.244 1274.1 294.91 1273.43 294.243C1272.76 293.568 1272.42 292.62 1272.42 291.399C1272.42 290.056 1272.88 288.99 1273.79 288.201C1274.7 287.411 1275.95 287.008 1277.54 286.992H1279.13V285.588C1279.13 284.799 1278.95 284.237 1278.6 283.904C1278.25 283.57 1277.72 283.403 1277 283.403C1276.35 283.403 1275.82 283.599 1275.42 283.989C1275.01 284.372 1274.8 284.86 1274.8 285.454H1272.64C1272.64 284.779 1272.84 284.136 1273.24 283.525C1273.64 282.907 1274.18 282.423 1274.85 282.073C1275.53 281.723 1276.28 281.548 1277.11 281.548C1278.46 281.548 1279.49 281.886 1280.19 282.561C1280.9 283.228 1281.26 284.205 1281.27 285.491V292.156C1281.28 293.173 1281.42 294.056 1281.69 294.805V295H1279.44ZM1276.56 293.279C1277.09 293.279 1277.6 293.132 1278.08 292.839C1278.56 292.546 1278.91 292.18 1279.13 291.741V288.591H1277.91C1276.88 288.608 1276.07 288.84 1275.48 289.287C1274.88 289.727 1274.58 290.345 1274.58 291.143C1274.58 291.891 1274.74 292.437 1275.04 292.778C1275.34 293.112 1275.85 293.279 1276.56 293.279ZM1294.41 295H1292.26V289.36H1287.5V295H1285.33V281.792H1287.5V287.517H1292.26V281.792H1294.41V295ZM1306.98 281.792V295H1304.82V289.861H1302.27L1299.61 295H1297.29L1300.15 289.482C1299.43 289.173 1298.88 288.697 1298.51 288.054C1298.14 287.411 1297.95 286.667 1297.95 285.82C1297.95 284.608 1298.34 283.635 1299.12 282.903C1299.9 282.162 1300.95 281.792 1302.27 281.792H1306.98ZM1300.11 285.845C1300.11 286.496 1300.28 287.021 1300.63 287.419C1300.98 287.81 1301.46 288.005 1302.05 288.005H1304.82V283.623H1302.25C1301.6 283.623 1301.09 283.831 1300.69 284.246C1300.3 284.653 1300.11 285.186 1300.11 285.845ZM1313.26 287.395H1315.72C1315.88 285.605 1316.41 284.185 1317.32 283.135C1318.24 282.077 1319.39 281.548 1320.76 281.548C1322.23 281.548 1323.42 282.126 1324.35 283.281C1325.28 284.429 1325.78 285.934 1325.87 287.798L1325.88 288.542C1325.88 290.52 1325.41 292.131 1324.47 293.376C1323.54 294.622 1322.31 295.244 1320.79 295.244C1319.34 295.244 1318.16 294.691 1317.25 293.584C1316.34 292.469 1315.82 291.025 1315.71 289.25H1313.26V295H1311.11V281.792H1313.26V287.395ZM1317.85 288.542C1317.85 290.015 1318.11 291.195 1318.64 292.083C1319.17 292.961 1319.88 293.401 1320.79 293.401C1321.67 293.401 1322.38 292.961 1322.91 292.083C1323.44 291.204 1323.7 289.934 1323.7 288.274C1323.7 286.785 1323.44 285.601 1322.9 284.722C1322.36 283.843 1321.65 283.403 1320.76 283.403C1319.88 283.403 1319.18 283.843 1318.64 284.722C1318.11 285.601 1317.85 286.874 1317.85 288.542ZM1337.41 283.623H1333.81V295H1331.66V283.623H1328.11V281.792H1337.41V283.623ZM1351.01 293.401C1351.73 293.401 1352.3 293.181 1352.73 292.742C1353.16 292.294 1353.4 291.659 1353.44 290.837H1355.48C1355.43 292.107 1354.98 293.161 1354.12 293.999C1353.28 294.829 1352.24 295.244 1351.01 295.244C1349.37 295.244 1348.13 294.731 1347.26 293.706C1346.41 292.673 1345.98 291.139 1345.98 289.104V287.651C1345.98 285.658 1346.41 284.144 1347.26 283.11C1348.12 282.069 1349.36 281.548 1351 281.548C1352.35 281.548 1353.42 281.975 1354.21 282.83C1355.01 283.684 1355.43 284.852 1355.48 286.333H1353.44C1353.39 285.356 1353.15 284.624 1352.73 284.136C1352.32 283.647 1351.74 283.403 1351 283.403C1350.04 283.403 1349.33 283.721 1348.86 284.355C1348.4 284.982 1348.16 286.016 1348.14 287.456V289.141C1348.14 290.695 1348.37 291.794 1348.83 292.437C1349.29 293.079 1350.02 293.401 1351.01 293.401ZM1358.66 295V281.792H1363.09C1364.61 281.792 1365.76 282.101 1366.56 282.72C1367.36 283.338 1367.76 284.237 1367.76 285.417C1367.76 286.028 1367.6 286.577 1367.28 287.065C1366.96 287.554 1366.5 287.928 1365.89 288.188C1366.57 288.368 1367.11 288.73 1367.51 289.275C1367.93 289.82 1368.14 290.479 1368.14 291.252C1368.14 292.473 1367.75 293.405 1366.99 294.048C1366.23 294.683 1365.16 295 1363.77 295H1358.66ZM1360.81 289.202V293.181H1363.79C1365.25 293.181 1365.98 292.514 1365.98 291.179C1365.98 289.861 1365.24 289.202 1363.77 289.202H1360.81ZM1360.81 287.395H1363.07C1364.75 287.395 1365.6 286.777 1365.6 285.54C1365.6 284.294 1364.8 283.656 1363.22 283.623H1360.81V287.395ZM1371.11 287.786C1371.11 285.865 1371.58 284.347 1372.51 283.232C1373.44 282.109 1374.67 281.548 1376.2 281.548C1377.73 281.548 1378.96 282.093 1379.89 283.184C1380.83 284.274 1381.31 285.759 1381.33 287.639V289.031C1381.33 290.943 1380.87 292.457 1379.94 293.572C1379.01 294.687 1377.78 295.244 1376.23 295.244C1374.7 295.244 1373.47 294.703 1372.54 293.621C1371.62 292.538 1371.15 291.073 1371.11 289.226V287.786ZM1373.27 289.031C1373.27 290.39 1373.54 291.46 1374.07 292.241C1374.61 293.014 1375.33 293.401 1376.23 293.401C1378.13 293.401 1379.11 292.026 1379.17 289.275V287.786C1379.17 286.435 1378.9 285.369 1378.37 284.587C1377.83 283.798 1377.11 283.403 1376.2 283.403C1375.32 283.403 1374.61 283.798 1374.07 284.587C1373.54 285.369 1373.27 286.431 1373.27 287.773V289.031ZM1391.76 281.792H1393.9V295H1391.76V285.369L1386.97 295H1384.81V281.792H1386.97V291.436L1391.76 281.792ZM1212.36 327H1210.21V315.66H1205.44V327H1203.27V313.792H1212.36V327ZM1215.87 319.786C1215.87 317.865 1216.33 316.347 1217.26 315.232C1218.19 314.109 1219.43 313.548 1220.96 313.548C1222.49 313.548 1223.71 314.093 1224.64 315.184C1225.58 316.274 1226.06 317.759 1226.08 319.639V321.031C1226.08 322.943 1225.62 324.457 1224.69 325.572C1223.76 326.687 1222.53 327.244 1220.98 327.244C1219.45 327.244 1218.22 326.703 1217.29 325.621C1216.37 324.538 1215.9 323.073 1215.87 321.226V319.786ZM1218.03 321.031C1218.03 322.39 1218.29 323.46 1218.82 324.241C1219.36 325.014 1220.08 325.401 1220.98 325.401C1222.88 325.401 1223.86 324.026 1223.92 321.275V319.786C1223.92 318.435 1223.65 317.369 1223.12 316.587C1222.58 315.798 1221.86 315.403 1220.96 315.403C1220.07 315.403 1219.36 315.798 1218.82 316.587C1218.29 317.369 1218.03 318.431 1218.03 319.773V321.031ZM1238.48 313.792V327H1236.32V315.66H1232.84L1232.64 320.14C1232.52 322.622 1232.19 324.384 1231.64 325.425C1231.08 326.459 1230.2 326.984 1228.98 327H1228.25V325.01L1228.8 324.961C1229.41 324.88 1229.83 324.477 1230.07 323.753C1230.33 323.021 1230.49 321.584 1230.57 319.444L1230.78 313.792H1238.48ZM1247.14 327.244C1245.49 327.244 1244.23 326.756 1243.35 325.779C1242.48 324.795 1242.03 323.354 1242.01 321.458V319.859C1242.01 317.889 1242.44 316.347 1243.29 315.232C1244.16 314.109 1245.36 313.548 1246.89 313.548C1248.44 313.548 1249.6 314.04 1250.36 315.025C1251.13 316.01 1251.52 317.544 1251.53 319.627V321.043H1244.16V321.348C1244.16 322.764 1244.42 323.794 1244.95 324.437C1245.49 325.079 1246.26 325.401 1247.26 325.401C1247.9 325.401 1248.45 325.283 1248.93 325.047C1249.42 324.803 1249.88 324.42 1250.3 323.899L1251.42 325.267C1250.49 326.585 1249.06 327.244 1247.14 327.244ZM1246.89 315.403C1246 315.403 1245.34 315.713 1244.9 316.331C1244.47 316.941 1244.23 317.894 1244.17 319.188H1249.37V318.895C1249.32 317.641 1249.09 316.746 1248.69 316.209C1248.3 315.672 1247.7 315.403 1246.89 315.403ZM1262.74 317.393C1262.74 317.987 1262.59 318.532 1262.29 319.029C1261.99 319.525 1261.56 319.92 1261.01 320.213C1262.3 320.742 1262.95 321.767 1262.95 323.289C1262.95 324.518 1262.54 325.482 1261.74 326.182C1260.94 326.882 1259.89 327.232 1258.58 327.232C1257.28 327.232 1256.22 326.862 1255.38 326.121C1254.55 325.372 1254.13 324.363 1254.13 323.094H1256.27C1256.27 323.745 1256.49 324.298 1256.93 324.754C1257.37 325.21 1257.92 325.438 1258.58 325.438C1259.24 325.438 1259.78 325.238 1260.18 324.839C1260.58 324.441 1260.79 323.924 1260.79 323.289C1260.79 322.549 1260.62 322.02 1260.29 321.702C1259.96 321.377 1259.44 321.214 1258.73 321.214H1256.76V319.31H1258.88C1260.02 319.269 1260.59 318.634 1260.59 317.405C1260.59 316.787 1260.41 316.299 1260.05 315.94C1259.7 315.574 1259.22 315.391 1258.59 315.391C1257.98 315.391 1257.47 315.595 1257.05 316.001C1256.64 316.408 1256.44 316.901 1256.44 317.479H1254.3C1254.3 316.331 1254.71 315.391 1255.52 314.659C1256.34 313.926 1257.36 313.56 1258.59 313.56C1259.9 313.56 1260.92 313.894 1261.64 314.561C1262.37 315.228 1262.74 316.172 1262.74 317.393ZM1275.57 327H1273.42V321.36H1268.66V327H1266.49V313.792H1268.66V319.517H1273.42V313.792H1275.57V327ZM1281.85 318.345H1284.58C1285.84 318.353 1286.84 318.74 1287.59 319.505C1288.34 320.27 1288.71 321.312 1288.71 322.63C1288.71 323.948 1288.34 325.006 1287.58 325.804C1286.82 326.593 1285.82 326.992 1284.58 327H1279.71V313.792H1281.85V318.345ZM1292.74 327H1290.58V313.792H1292.74V327ZM1281.85 320.188V325.157H1284.54C1285.17 325.157 1285.67 324.941 1286.02 324.51C1286.37 324.078 1286.55 323.48 1286.55 322.715C1286.55 321.967 1286.38 321.36 1286.03 320.896C1285.68 320.433 1285.2 320.197 1284.59 320.188H1281.85ZM1301.73 327.244C1300.08 327.244 1298.82 326.756 1297.94 325.779C1297.06 324.795 1296.62 323.354 1296.6 321.458V319.859C1296.6 317.889 1297.03 316.347 1297.88 315.232C1298.74 314.109 1299.94 313.548 1301.48 313.548C1303.03 313.548 1304.18 314.04 1304.95 315.025C1305.71 316.01 1306.1 317.544 1306.12 319.627V321.043H1298.75V321.348C1298.75 322.764 1299.01 323.794 1299.54 324.437C1300.08 325.079 1300.85 325.401 1301.85 325.401C1302.48 325.401 1303.04 325.283 1303.52 325.047C1304.01 324.803 1304.47 324.42 1304.89 323.899L1306.01 325.267C1305.08 326.585 1303.65 327.244 1301.73 327.244ZM1301.48 315.403C1300.59 315.403 1299.92 315.713 1299.49 316.331C1299.06 316.941 1298.82 317.894 1298.76 319.188H1303.96V318.895C1303.9 317.641 1303.68 316.746 1303.28 316.209C1302.89 315.672 1302.29 315.403 1301.48 315.403ZM1320.05 325.401C1320.76 325.401 1321.34 325.181 1321.77 324.742C1322.2 324.294 1322.44 323.659 1322.48 322.837H1324.52C1324.47 324.107 1324.02 325.161 1323.16 325.999C1322.31 326.829 1321.28 327.244 1320.05 327.244C1318.41 327.244 1317.16 326.731 1316.3 325.706C1315.45 324.673 1315.02 323.139 1315.02 321.104V319.651C1315.02 317.658 1315.45 316.144 1316.3 315.11C1317.16 314.069 1318.4 313.548 1320.04 313.548C1321.39 313.548 1322.46 313.975 1323.25 314.83C1324.04 315.684 1324.47 316.852 1324.52 318.333H1322.48C1322.43 317.356 1322.19 316.624 1321.77 316.136C1321.35 315.647 1320.78 315.403 1320.04 315.403C1319.08 315.403 1318.36 315.721 1317.9 316.355C1317.44 316.982 1317.2 318.016 1317.18 319.456V321.141C1317.18 322.695 1317.41 323.794 1317.86 324.437C1318.33 325.079 1319.06 325.401 1320.05 325.401ZM1327.7 327V313.792H1332.13C1333.65 313.792 1334.8 314.101 1335.6 314.72C1336.4 315.338 1336.8 316.237 1336.8 317.417C1336.8 318.028 1336.64 318.577 1336.32 319.065C1336 319.554 1335.54 319.928 1334.93 320.188C1335.6 320.368 1336.14 320.73 1336.55 321.275C1336.97 321.82 1337.17 322.479 1337.17 323.252C1337.17 324.473 1336.79 325.405 1336.03 326.048C1335.27 326.683 1334.2 327 1332.8 327H1327.7ZM1329.85 321.202V325.181H1332.83C1334.29 325.181 1335.01 324.514 1335.01 323.179C1335.01 321.861 1334.28 321.202 1332.8 321.202H1329.85ZM1329.85 319.395H1332.11C1333.79 319.395 1334.64 318.777 1334.64 317.54C1334.64 316.294 1333.84 315.656 1332.25 315.623H1329.85V319.395ZM1340.15 319.786C1340.15 317.865 1340.62 316.347 1341.54 315.232C1342.48 314.109 1343.71 313.548 1345.24 313.548C1346.77 313.548 1348 314.093 1348.93 315.184C1349.87 316.274 1350.35 317.759 1350.37 319.639V321.031C1350.37 322.943 1349.91 324.457 1348.98 325.572C1348.05 326.687 1346.81 327.244 1345.27 327.244C1343.74 327.244 1342.51 326.703 1341.58 325.621C1340.66 324.538 1340.18 323.073 1340.15 321.226V319.786ZM1342.31 321.031C1342.31 322.39 1342.58 323.46 1343.11 324.241C1343.64 325.014 1344.36 325.401 1345.27 325.401C1347.17 325.401 1348.15 324.026 1348.21 321.275V319.786C1348.21 318.435 1347.94 317.369 1347.4 316.587C1346.87 315.798 1346.15 315.403 1345.24 315.403C1344.36 315.403 1343.64 315.798 1343.11 316.587C1342.58 317.369 1342.31 318.431 1342.31 319.773V321.031ZM1360.79 313.792H1362.94V327H1360.79V317.369L1356.01 327H1353.85V313.792H1356.01V323.436L1360.79 313.792ZM1362.06 308.982C1362.06 309.967 1361.73 310.761 1361.05 311.363C1360.38 311.957 1359.5 312.254 1358.41 312.254C1357.32 312.254 1356.44 311.953 1355.76 311.351C1355.09 310.748 1354.75 309.959 1354.75 308.982H1356.59C1356.59 309.552 1356.75 310 1357.06 310.325C1357.37 310.643 1357.82 310.801 1358.41 310.801C1358.98 310.801 1359.43 310.643 1359.74 310.325C1360.07 310.008 1360.23 309.56 1360.23 308.982H1362.06ZM1371.49 325.401C1372.2 325.401 1372.78 325.181 1373.21 324.742C1373.64 324.294 1373.88 323.659 1373.92 322.837H1375.95C1375.91 324.107 1375.45 325.161 1374.6 325.999C1373.75 326.829 1372.72 327.244 1371.49 327.244C1369.85 327.244 1368.6 326.731 1367.74 325.706C1366.88 324.673 1366.46 323.139 1366.46 321.104V319.651C1366.46 317.658 1366.88 316.144 1367.74 315.11C1368.59 314.069 1369.84 313.548 1371.47 313.548C1372.83 313.548 1373.9 313.975 1374.69 314.83C1375.48 315.684 1375.91 316.852 1375.95 318.333H1373.92C1373.87 317.356 1373.63 316.624 1373.21 316.136C1372.79 315.647 1372.22 315.403 1371.47 315.403C1370.51 315.403 1369.8 315.721 1369.34 316.355C1368.87 316.982 1368.63 318.016 1368.62 319.456V321.141C1368.62 322.695 1368.85 323.794 1369.3 324.437C1369.77 325.079 1370.49 325.401 1371.49 325.401ZM1387.29 315.623H1383.69V327H1381.54V315.623H1377.99V313.792H1387.29V315.623ZM1390.26 327V313.792H1394.69C1396.21 313.792 1397.36 314.101 1398.16 314.72C1398.96 315.338 1399.35 316.237 1399.35 317.417C1399.35 318.028 1399.2 318.577 1398.88 319.065C1398.56 319.554 1398.1 319.928 1397.49 320.188C1398.16 320.368 1398.7 320.73 1399.11 321.275C1399.53 321.82 1399.73 322.479 1399.73 323.252C1399.73 324.473 1399.35 325.405 1398.59 326.048C1397.83 326.683 1396.75 327 1395.36 327H1390.26ZM1392.41 321.202V325.181H1395.39C1396.84 325.181 1397.57 324.514 1397.57 323.179C1397.57 321.861 1396.84 321.202 1395.36 321.202H1392.41ZM1392.41 319.395H1394.67C1396.35 319.395 1397.19 318.777 1397.19 317.54C1397.19 316.294 1396.4 315.656 1394.81 315.623H1392.41V319.395ZM1409.96 327C1409.83 326.715 1409.74 326.235 1409.68 325.56C1408.92 326.683 1407.94 327.244 1406.75 327.244C1405.56 327.244 1404.62 326.91 1403.94 326.243C1403.28 325.568 1402.94 324.62 1402.94 323.399C1402.94 322.056 1403.4 320.99 1404.31 320.201C1405.22 319.411 1406.47 319.008 1408.06 318.992H1409.64V317.588C1409.64 316.799 1409.47 316.237 1409.12 315.904C1408.77 315.57 1408.24 315.403 1407.52 315.403C1406.87 315.403 1406.34 315.599 1405.93 315.989C1405.53 316.372 1405.32 316.86 1405.32 317.454H1403.16C1403.16 316.779 1403.36 316.136 1403.76 315.525C1404.16 314.907 1404.7 314.423 1405.37 314.073C1406.05 313.723 1406.8 313.548 1407.63 313.548C1408.98 313.548 1410.01 313.886 1410.71 314.561C1411.41 315.228 1411.78 316.205 1411.79 317.491V324.156C1411.8 325.173 1411.94 326.056 1412.21 326.805V327H1409.96ZM1407.08 325.279C1407.61 325.279 1408.11 325.132 1408.59 324.839C1409.07 324.546 1409.42 324.18 1409.64 323.741V320.591H1408.42C1407.4 320.608 1406.59 320.84 1405.99 321.287C1405.4 321.727 1405.1 322.345 1405.1 323.143C1405.1 323.891 1405.25 324.437 1405.56 324.778C1405.86 325.112 1406.36 325.279 1407.08 325.279Z" fill="#D7D7D7"/>
<rect width="234.715" height="3" rx="1.5" transform="matrix(0.935654 -0.352917 0.355791 0.934566 259.845 750.077)" fill="#F9FFF8"/>
<path d="M13.4458 785.36C13.3481 787.264 12.811 788.721 11.8345 789.73C10.866 790.739 9.49479 791.244 7.7207 791.244C5.93848 791.244 4.52246 790.568 3.47266 789.217C2.42285 787.858 1.89795 786.019 1.89795 783.7V780.477C1.89795 778.166 2.43506 776.339 3.50928 774.996C4.59163 773.653 6.06462 772.982 7.92822 772.982C9.64535 772.982 10.9718 773.499 11.9077 774.532C12.8517 775.558 13.3644 777.027 13.4458 778.939H11.1875C11.0898 777.49 10.7847 776.457 10.272 775.838C9.75928 775.22 8.97803 774.911 7.92822 774.911C6.71566 774.911 5.78385 775.387 5.13281 776.339C4.48177 777.283 4.15625 778.67 4.15625 780.501V783.761C4.15625 785.559 4.45736 786.939 5.05957 787.899C5.66992 788.859 6.55697 789.339 7.7207 789.339C8.88444 789.339 9.72266 789.05 10.2354 788.473C10.748 787.895 11.0654 786.857 11.1875 785.36H13.4458ZM16.2285 783.785C16.2285 781.865 16.6924 780.347 17.6201 779.232C18.556 778.109 19.7889 777.547 21.3188 777.547C22.8488 777.547 24.0776 778.093 25.0054 779.183C25.9412 780.274 26.4214 781.759 26.4458 783.639V785.03C26.4458 786.943 25.9819 788.456 25.0542 789.571C24.1265 790.686 22.8895 791.244 21.3433 791.244C19.8133 791.244 18.5845 790.702 17.6567 789.62C16.7371 788.538 16.2611 787.073 16.2285 785.226V783.785ZM18.3892 785.03C18.3892 786.389 18.6536 787.459 19.1826 788.241C19.7197 789.014 20.4399 789.4 21.3433 789.4C23.2476 789.4 24.2282 788.025 24.2852 785.274V783.785C24.2852 782.434 24.0166 781.368 23.4795 780.587C22.9424 779.798 22.2222 779.403 21.3188 779.403C20.4318 779.403 19.7197 779.798 19.1826 780.587C18.6536 781.368 18.3892 782.43 18.3892 783.773V785.03ZM28.8257 789.156L29.4727 788.229C30.1725 787.154 30.5754 785.571 30.6812 783.48L30.8643 777.792H38.2373V789.156H39.7754V794.881H37.6147V791H30.1074V794.881H27.9346L27.9468 789.156H28.8257ZM31.2305 789.156H36.0889V779.879H32.9639L32.854 783.102C32.7401 785.673 32.1989 787.691 31.2305 789.156ZM47.4775 791.244C45.8337 791.244 44.5723 790.755 43.6934 789.779C42.8145 788.794 42.3669 787.354 42.3506 785.458V783.858C42.3506 781.889 42.7778 780.347 43.6323 779.232C44.495 778.109 45.6953 777.547 47.2334 777.547C48.7796 777.547 49.9352 778.04 50.7002 779.024C51.4652 780.009 51.8558 781.543 51.8721 783.626V785.042H44.499V785.348C44.499 786.764 44.7635 787.793 45.2925 788.436C45.8296 789.079 46.5986 789.4 47.5996 789.4C48.2344 789.4 48.7918 789.282 49.272 789.046C49.7603 788.802 50.216 788.42 50.6392 787.899L51.7622 789.266C50.8263 790.584 49.3981 791.244 47.4775 791.244ZM47.2334 779.403C46.3382 779.403 45.675 779.712 45.2437 780.331C44.8123 780.941 44.5682 781.893 44.5112 783.187H49.7114V782.894C49.6545 781.641 49.4266 780.746 49.0278 780.208C48.6372 779.671 48.0391 779.403 47.2334 779.403ZM64.5181 785.03C64.5181 787.122 64.1396 788.68 63.3828 789.706C62.6341 790.731 61.5721 791.244 60.1968 791.244C58.8703 791.244 57.849 790.743 57.1328 789.742V796.078H54.9844V777.792H56.9375L57.0474 779.256C57.7716 778.117 58.8092 777.547 60.1602 777.547C61.6087 777.547 62.6911 778.052 63.4072 779.061C64.1234 780.07 64.4937 781.58 64.5181 783.59V785.03ZM62.3696 783.797C62.3696 782.316 62.1418 781.226 61.686 780.526C61.2303 779.818 60.4979 779.464 59.4888 779.464C58.4552 779.464 57.6699 779.981 57.1328 781.014V787.887C57.6618 788.896 58.4552 789.4 59.5132 789.4C60.4897 789.4 61.2059 789.05 61.6616 788.351C62.1255 787.643 62.3615 786.564 62.3696 785.116V783.797ZM76.5781 785.262H75.3208V791H73.1724V785.262H71.915L69.1562 791H66.4463L70.2427 784.115L66.7759 777.792H69.376L71.9395 783.26H73.1724V777.792H75.3208V783.26H76.5293L79.1294 777.792H81.7295L78.2505 784.127L82.0469 791H79.3247L76.5781 785.262ZM91.458 791C91.3278 790.715 91.2342 790.235 91.1772 789.559C90.4123 790.682 89.4357 791.244 88.2476 791.244C87.0513 791.244 86.1154 790.91 85.4399 790.243C84.7726 789.567 84.439 788.619 84.439 787.398C84.439 786.056 84.8947 784.99 85.8062 784.2C86.7176 783.411 87.9668 783.008 89.5537 782.992H91.1406V781.588C91.1406 780.799 90.9657 780.237 90.6157 779.903C90.2658 779.57 89.7327 779.403 89.0166 779.403C88.3656 779.403 87.8366 779.598 87.4297 779.989C87.0228 780.371 86.8193 780.86 86.8193 781.454H84.6587C84.6587 780.778 84.8581 780.135 85.2568 779.525C85.6556 778.906 86.1927 778.422 86.8682 778.072C87.5436 777.722 88.2964 777.547 89.1265 777.547C90.4774 777.547 91.5028 777.885 92.2026 778.561C92.9106 779.228 93.2728 780.204 93.2891 781.49V788.155C93.2972 789.173 93.4355 790.056 93.7041 790.804V791H91.458ZM88.5771 789.278C89.1061 789.278 89.6107 789.132 90.0908 788.839C90.571 788.546 90.9209 788.18 91.1406 787.74V784.591H89.9199C88.8945 784.607 88.0848 784.839 87.4907 785.287C86.8966 785.726 86.5996 786.345 86.5996 787.142C86.5996 787.891 86.7502 788.436 87.0513 788.778C87.3524 789.111 87.861 789.278 88.5771 789.278ZM105.3 779.623H101.699V791H99.5508V779.623H95.9985V777.792H105.3V779.623ZM123.585 791H121.437V785.36H116.676V791H114.503V777.792H116.676V783.517H121.437V777.792H123.585V791ZM132.252 791.244C130.608 791.244 129.347 790.755 128.468 789.779C127.589 788.794 127.141 787.354 127.125 785.458V783.858C127.125 781.889 127.552 780.347 128.407 779.232C129.269 778.109 130.47 777.547 132.008 777.547C133.554 777.547 134.71 778.04 135.475 779.024C136.24 780.009 136.63 781.543 136.646 783.626V785.042H129.273V785.348C129.273 786.764 129.538 787.793 130.067 788.436C130.604 789.079 131.373 789.4 132.374 789.4C133.009 789.4 133.566 789.282 134.046 789.046C134.535 788.802 134.99 788.42 135.414 787.899L136.537 789.266C135.601 790.584 134.173 791.244 132.252 791.244ZM132.008 779.403C131.113 779.403 130.449 779.712 130.018 780.331C129.587 780.941 129.343 781.893 129.286 783.187H134.486V782.894C134.429 781.641 134.201 780.746 133.802 780.208C133.412 779.671 132.813 779.403 132.008 779.403ZM139.295 783.785C139.295 781.865 139.759 780.347 140.687 779.232C141.622 778.109 142.855 777.547 144.385 777.547C145.915 777.547 147.144 778.093 148.072 779.183C149.008 780.274 149.488 781.759 149.512 783.639V785.03C149.512 786.943 149.048 788.456 148.121 789.571C147.193 790.686 145.956 791.244 144.41 791.244C142.88 791.244 141.651 790.702 140.723 789.62C139.804 788.538 139.327 787.073 139.295 785.226V783.785ZM141.456 785.03C141.456 786.389 141.72 787.459 142.249 788.241C142.786 789.014 143.506 789.4 144.41 789.4C146.314 789.4 147.295 788.025 147.352 785.274V783.785C147.352 782.434 147.083 781.368 146.546 780.587C146.009 779.798 145.289 779.403 144.385 779.403C143.498 779.403 142.786 779.798 142.249 780.587C141.72 781.368 141.456 782.43 141.456 783.773V785.03ZM157.825 778.548C159.216 778.548 160.323 779.102 161.145 780.208C161.967 781.307 162.378 782.78 162.378 784.627V784.811C162.378 786.764 161.922 788.326 161.011 789.498C160.099 790.662 158.895 791.244 157.397 791.244C155.9 791.244 154.696 790.654 153.784 789.474C152.873 788.294 152.417 786.707 152.417 784.713V783.602C152.417 780.876 152.844 778.695 153.699 777.059C154.553 775.415 155.806 774.402 157.458 774.02C158.411 773.8 159.054 773.539 159.387 773.238C159.729 772.937 159.9 772.538 159.9 772.042H161.646L161.633 772.518C161.536 774.129 160.763 775.151 159.314 775.582L157.825 775.997C156.75 776.29 155.924 776.807 155.347 777.547C154.777 778.288 154.407 779.256 154.236 780.453C155.229 779.183 156.425 778.548 157.825 778.548ZM157.385 780.404C156.523 780.404 155.839 780.77 155.334 781.502C154.838 782.235 154.59 783.338 154.59 784.811C154.59 786.243 154.838 787.37 155.334 788.192C155.831 789.006 156.519 789.413 157.397 789.413C158.276 789.413 158.968 789.002 159.473 788.18C159.977 787.358 160.229 786.141 160.229 784.53C160.229 783.26 159.973 782.255 159.46 781.515C158.956 780.774 158.264 780.404 157.385 780.404ZM169.03 782.613L171.289 777.792H173.791L170.202 784.322L173.876 791H171.398L169.067 786.056L166.723 791H164.233L167.907 784.322L164.331 777.792H166.809L169.03 782.613ZM175.78 783.785C175.78 781.865 176.244 780.347 177.172 779.232C178.108 778.109 179.341 777.547 180.871 777.547C182.401 777.547 183.629 778.093 184.557 779.183C185.493 780.274 185.973 781.759 185.998 783.639V785.03C185.998 786.943 185.534 788.456 184.606 789.571C183.678 790.686 182.441 791.244 180.895 791.244C179.365 791.244 178.136 790.702 177.208 789.62C176.289 788.538 175.813 787.073 175.78 785.226V783.785ZM177.941 785.03C177.941 786.389 178.205 787.459 178.734 788.241C179.271 789.014 179.992 789.4 180.895 789.4C182.799 789.4 183.78 788.025 183.837 785.274V783.785C183.837 782.434 183.568 781.368 183.031 780.587C182.494 779.798 181.774 779.403 180.871 779.403C179.984 779.403 179.271 779.798 178.734 780.587C178.205 781.368 177.941 782.43 177.941 783.773V785.03ZM188.377 789.156L189.024 788.229C189.724 787.154 190.127 785.571 190.233 783.48L190.416 777.792H197.789V789.156H199.327V794.881H197.167V791H189.659V794.881H187.486L187.499 789.156H188.377ZM190.782 789.156H195.641V779.879H192.516L192.406 783.102C192.292 785.673 191.751 787.691 190.782 789.156ZM209.251 777.792H211.399V791H209.251V781.368L204.466 791H202.305V777.792H204.466V787.435L209.251 777.792ZM221.836 788.009L225.376 777.792H228.062V791H225.913V781.893L222.581 791H221.104L217.698 781.673V791H215.549V777.792H218.333L221.836 788.009ZM234.36 782.345H237.082C238.343 782.353 239.348 782.739 240.097 783.504C240.846 784.269 241.22 785.311 241.22 786.629C241.22 787.948 240.842 789.006 240.085 789.803C239.328 790.593 238.327 790.991 237.082 791H232.211V777.792H234.36V782.345ZM245.249 791H243.088V777.792H245.249V791ZM234.36 784.188V789.156H237.045C237.68 789.156 238.173 788.941 238.522 788.509C238.881 788.078 239.06 787.48 239.06 786.715C239.06 785.966 238.885 785.36 238.535 784.896C238.185 784.432 237.705 784.196 237.094 784.188H234.36ZM254.232 791.244C252.589 791.244 251.327 790.755 250.448 789.779C249.569 788.794 249.122 787.354 249.105 785.458V783.858C249.105 781.889 249.533 780.347 250.387 779.232C251.25 778.109 252.45 777.547 253.988 777.547C255.535 777.547 256.69 778.04 257.455 779.024C258.22 780.009 258.611 781.543 258.627 783.626V785.042H251.254V785.348C251.254 786.764 251.518 787.793 252.047 788.436C252.584 789.079 253.354 789.4 254.354 789.4C254.989 789.4 255.547 789.282 256.027 789.046C256.515 788.802 256.971 788.42 257.394 787.899L258.517 789.266C257.581 790.584 256.153 791.244 254.232 791.244ZM253.988 779.403C253.093 779.403 252.43 779.712 251.999 780.331C251.567 780.941 251.323 781.893 251.266 783.187H256.466V782.894C256.409 781.641 256.181 780.746 255.783 780.208C255.392 779.671 254.794 779.403 253.988 779.403ZM8.3125 823V809.792H12.7437C14.2573 809.792 15.4129 810.101 16.2104 810.719C17.008 811.338 17.4067 812.237 17.4067 813.417C17.4067 814.027 17.248 814.577 16.9307 815.065C16.6133 815.553 16.1494 815.928 15.5391 816.188C16.2145 816.367 16.7557 816.729 17.1626 817.274C17.5776 817.82 17.7852 818.479 17.7852 819.252C17.7852 820.473 17.4027 821.404 16.6377 822.047C15.8809 822.682 14.8066 823 13.415 823H8.3125ZM10.4609 817.201V821.181H13.4395C14.8962 821.181 15.6245 820.513 15.6245 819.179C15.6245 817.86 14.888 817.201 13.415 817.201H10.4609ZM10.4609 815.395H12.7192C14.4038 815.395 15.2461 814.776 15.2461 813.539C15.2461 812.294 14.4526 811.655 12.8657 811.623H10.4609V815.395ZM28.356 809.792H30.5044V823H28.356V813.368L23.5708 823H21.4102V809.792H23.5708V819.435L28.356 809.792ZM42.8086 811.623H39.2075V823H37.0591V811.623H33.5068V809.792H42.8086V811.623ZM52.1831 823C52.0529 822.715 51.9593 822.235 51.9023 821.559C51.1374 822.682 50.1608 823.244 48.9727 823.244C47.7764 823.244 46.8405 822.91 46.165 822.243C45.4977 821.567 45.1641 820.619 45.1641 819.398C45.1641 818.056 45.6198 816.99 46.5312 816.2C47.4427 815.411 48.6919 815.008 50.2788 814.992H51.8657V813.588C51.8657 812.799 51.6908 812.237 51.3408 811.903C50.9909 811.57 50.4578 811.403 49.7417 811.403C49.0907 811.403 48.5617 811.598 48.1548 811.989C47.7479 812.371 47.5444 812.86 47.5444 813.454H45.3838C45.3838 812.778 45.5832 812.135 45.9819 811.525C46.3807 810.906 46.9178 810.422 47.5933 810.072C48.2687 809.722 49.0215 809.547 49.8516 809.547C51.2025 809.547 52.2279 809.885 52.9277 810.561C53.6357 811.228 53.9979 812.204 54.0142 813.49V820.155C54.0223 821.173 54.1606 822.056 54.4292 822.804V823H52.1831ZM49.3022 821.278C49.8312 821.278 50.3358 821.132 50.8159 820.839C51.2961 820.546 51.646 820.18 51.8657 819.74V816.591H50.645C49.6196 816.607 48.8099 816.839 48.2158 817.287C47.6217 817.726 47.3247 818.345 47.3247 819.142C47.3247 819.891 47.4753 820.436 47.7764 820.778C48.0775 821.111 48.5861 821.278 49.3022 821.278ZM64.353 820.009L67.8931 809.792H70.5786V823H68.4302V813.893L65.0977 823H63.6206L60.2148 813.673V823H58.0664V809.792H60.8496L64.353 820.009ZM81.6743 809.792H83.8228V823H81.6743V813.368L76.8892 823H74.7285V809.792H76.8892V819.435L81.6743 809.792ZM97.0547 823H94.9062V817.36H90.1455V823H87.9727V809.792H90.1455V815.517H94.9062V809.792H97.0547V823ZM103.341 814.345H106.063C107.324 814.353 108.329 814.739 109.078 815.504C109.827 816.269 110.201 817.311 110.201 818.629C110.201 819.948 109.823 821.006 109.066 821.803C108.309 822.593 107.308 822.991 106.063 823H101.192V809.792H103.341V814.345ZM114.229 823H112.069V809.792H114.229V823ZM103.341 816.188V821.156H106.026C106.661 821.156 107.153 820.941 107.503 820.509C107.861 820.078 108.041 819.48 108.041 818.715C108.041 817.966 107.866 817.36 107.516 816.896C107.166 816.432 106.686 816.196 106.075 816.188H103.341ZM131.868 809.792H134.016V823H131.868V813.368L127.083 823H124.922V809.792H127.083V819.435L131.868 809.792ZM150.69 820.009L154.23 809.792H156.916V823H154.767V813.893L151.435 823H149.958L146.552 813.673V823H144.403V809.792H147.187L150.69 820.009ZM168.011 809.792H170.16V823H168.011V813.368L163.226 823H161.065V809.792H163.226V819.435L168.011 809.792ZM183.392 823H181.243V817.36H176.482V823H174.31V809.792H176.482V815.517H181.243V809.792H183.392V823ZM192.058 823.244C190.414 823.244 189.153 822.755 188.274 821.779C187.395 820.794 186.947 819.354 186.931 817.458V815.858C186.931 813.889 187.358 812.347 188.213 811.232C189.076 810.109 190.276 809.547 191.814 809.547C193.36 809.547 194.516 810.04 195.281 811.024C196.046 812.009 196.436 813.543 196.453 815.626V817.042H189.08V817.348C189.08 818.764 189.344 819.793 189.873 820.436C190.41 821.079 191.179 821.4 192.18 821.4C192.815 821.4 193.372 821.282 193.853 821.046C194.341 820.802 194.797 820.42 195.22 819.899L196.343 821.266C195.407 822.584 193.979 823.244 192.058 823.244ZM191.814 811.403C190.919 811.403 190.256 811.712 189.824 812.331C189.393 812.941 189.149 813.893 189.092 815.187H194.292V814.894C194.235 813.641 194.007 812.746 193.608 812.208C193.218 811.671 192.62 811.403 191.814 811.403ZM209.099 817.03C209.099 819.122 208.72 820.68 207.963 821.706C207.215 822.731 206.153 823.244 204.777 823.244C203.451 823.244 202.43 822.743 201.713 821.742V828.078H199.565V809.792H201.518L201.628 811.256C202.352 810.117 203.39 809.547 204.741 809.547C206.189 809.547 207.272 810.052 207.988 811.061C208.704 812.07 209.074 813.58 209.099 815.59V817.03ZM206.95 815.797C206.95 814.316 206.722 813.226 206.267 812.526C205.811 811.818 205.078 811.464 204.069 811.464C203.036 811.464 202.25 811.981 201.713 813.014V819.887C202.242 820.896 203.036 821.4 204.094 821.4C205.07 821.4 205.786 821.05 206.242 820.351C206.706 819.643 206.942 818.564 206.95 817.116V815.797ZM219.181 823C219.051 822.715 218.957 822.235 218.9 821.559C218.135 822.682 217.159 823.244 215.971 823.244C214.774 823.244 213.839 822.91 213.163 822.243C212.496 821.567 212.162 820.619 212.162 819.398C212.162 818.056 212.618 816.99 213.529 816.2C214.441 815.411 215.69 815.008 217.277 814.992H218.864V813.588C218.864 812.799 218.689 812.237 218.339 811.903C217.989 811.57 217.456 811.403 216.74 811.403C216.089 811.403 215.56 811.598 215.153 811.989C214.746 812.371 214.542 812.86 214.542 813.454H212.382C212.382 812.778 212.581 812.135 212.98 811.525C213.379 810.906 213.916 810.422 214.591 810.072C215.267 809.722 216.02 809.547 216.85 809.547C218.201 809.547 219.226 809.885 219.926 810.561C220.634 811.228 220.996 812.204 221.012 813.49V820.155C221.02 821.173 221.159 822.056 221.427 822.804V823H219.181ZM216.3 821.278C216.829 821.278 217.334 821.132 217.814 820.839C218.294 820.546 218.644 820.18 218.864 819.74V816.591H217.643C216.618 816.607 215.808 816.839 215.214 817.287C214.62 817.726 214.323 818.345 214.323 819.142C214.323 819.891 214.473 820.436 214.774 820.778C215.076 821.111 215.584 821.278 216.3 821.278ZM234.183 809.792V823H232.022V811.659H228.543L228.336 816.139C228.222 818.621 227.888 820.383 227.335 821.425C226.782 822.458 225.895 822.983 224.674 823H223.954V821.01L224.503 820.961C225.105 820.88 225.528 820.477 225.772 819.752C226.025 819.02 226.192 817.584 226.273 815.443L226.48 809.792H234.183ZM240.457 814.345H243.179C244.441 814.353 245.446 814.739 246.194 815.504C246.943 816.269 247.317 817.311 247.317 818.629C247.317 819.948 246.939 821.006 246.182 821.803C245.425 822.593 244.424 822.991 243.179 823H238.309V809.792H240.457V814.345ZM251.346 823H249.185V809.792H251.346V823ZM240.457 816.188V821.156H243.143C243.777 821.156 244.27 820.941 244.62 820.509C244.978 820.078 245.157 819.48 245.157 818.715C245.157 817.966 244.982 817.36 244.632 816.896C244.282 816.432 243.802 816.196 243.191 816.188H240.457Z" fill="#D7D7D7"/>
<rect width="275.386" height="3" rx="1.5" transform="matrix(0.93567 0.352876 -0.35571 0.934596 939.066 667)" fill="#F9FFF8"/>
<path d="M1231.28 773.227V791H1229.04V775.155H1224.07L1223.8 782.626C1223.7 784.807 1223.5 786.471 1223.18 787.619C1222.86 788.766 1222.4 789.612 1221.79 790.158C1221.18 790.703 1220.38 790.984 1219.38 791H1218.7V789.083L1219.11 789.059C1219.71 789.01 1220.17 788.782 1220.51 788.375C1220.84 787.96 1221.09 787.305 1221.26 786.41C1221.43 785.515 1221.56 784.148 1221.63 782.309L1221.92 773.227H1231.28ZM1240.18 791.244C1238.54 791.244 1237.28 790.756 1236.4 789.779C1235.52 788.795 1235.07 787.354 1235.06 785.458V783.859C1235.06 781.889 1235.48 780.347 1236.34 779.232C1237.2 778.109 1238.4 777.548 1239.94 777.548C1241.49 777.548 1242.64 778.04 1243.41 779.025C1244.17 780.01 1244.56 781.544 1244.58 783.627V785.043H1237.2V785.348C1237.2 786.764 1237.47 787.794 1238 788.437C1238.54 789.079 1239.3 789.401 1240.31 789.401C1240.94 789.401 1241.5 789.283 1241.98 789.047C1242.47 788.803 1242.92 788.42 1243.34 787.899L1244.47 789.267C1243.53 790.585 1242.1 791.244 1240.18 791.244ZM1239.94 779.403C1239.04 779.403 1238.38 779.713 1237.95 780.331C1237.52 780.941 1237.27 781.894 1237.22 783.188H1242.42V782.895C1242.36 781.641 1242.13 780.746 1241.73 780.209C1241.34 779.672 1240.74 779.403 1239.94 779.403ZM1254.94 779.66H1250.02V791H1247.85V777.792H1254.94V779.66ZM1261.04 785.373H1259.82V791H1257.66V777.792H1259.82V783.383H1260.9L1264.5 777.792H1267.07L1262.67 784.079L1267.39 791H1264.68L1261.04 785.373ZM1268.86 783.786C1268.86 781.865 1269.32 780.347 1270.25 779.232C1271.18 778.109 1272.42 777.548 1273.95 777.548C1275.48 777.548 1276.71 778.093 1277.63 779.184C1278.57 780.274 1279.05 781.759 1279.07 783.639V785.031C1279.07 786.943 1278.61 788.457 1277.68 789.572C1276.75 790.687 1275.52 791.244 1273.97 791.244C1272.44 791.244 1271.21 790.703 1270.28 789.621C1269.36 788.538 1268.89 787.073 1268.86 785.226V783.786ZM1271.02 785.031C1271.02 786.39 1271.28 787.46 1271.81 788.241C1272.35 789.014 1273.07 789.401 1273.97 789.401C1275.88 789.401 1276.86 788.026 1276.91 785.275V783.786C1276.91 782.435 1276.64 781.369 1276.11 780.587C1275.57 779.798 1274.85 779.403 1273.95 779.403C1273.06 779.403 1272.35 779.798 1271.81 780.587C1271.28 781.369 1271.02 782.431 1271.02 783.773V785.031ZM1295.86 779.66H1290.94V791H1288.76V777.792H1295.86V779.66ZM1297.68 783.786C1297.68 781.865 1298.14 780.347 1299.07 779.232C1300 778.109 1301.24 777.548 1302.77 777.548C1304.3 777.548 1305.52 778.093 1306.45 779.184C1307.39 780.274 1307.87 781.759 1307.89 783.639V785.031C1307.89 786.943 1307.43 788.457 1306.5 789.572C1305.57 790.687 1304.34 791.244 1302.79 791.244C1301.26 791.244 1300.03 790.703 1299.1 789.621C1298.18 788.538 1297.71 787.073 1297.68 785.226V783.786ZM1299.84 785.031C1299.84 786.39 1300.1 787.46 1300.63 788.241C1301.17 789.014 1301.89 789.401 1302.79 789.401C1304.69 789.401 1305.67 788.026 1305.73 785.275V783.786C1305.73 782.435 1305.46 781.369 1304.93 780.587C1304.39 779.798 1303.67 779.403 1302.77 779.403C1301.88 779.403 1301.17 779.798 1300.63 780.587C1300.1 781.369 1299.84 782.431 1299.84 783.773V785.031ZM1319.16 779.623H1315.56V791H1313.41V779.623H1309.86V777.792H1319.16V779.623ZM1321.09 783.786C1321.09 781.865 1321.55 780.347 1322.48 779.232C1323.41 778.109 1324.65 777.548 1326.18 777.548C1327.71 777.548 1328.94 778.093 1329.86 779.184C1330.8 780.274 1331.28 781.759 1331.3 783.639V785.031C1331.3 786.943 1330.84 788.457 1329.91 789.572C1328.99 790.687 1327.75 791.244 1326.2 791.244C1324.67 791.244 1323.44 790.703 1322.52 789.621C1321.6 788.538 1321.12 787.073 1321.09 785.226V783.786ZM1323.25 785.031C1323.25 786.39 1323.51 787.46 1324.04 788.241C1324.58 789.014 1325.3 789.401 1326.2 789.401C1328.11 789.401 1329.09 788.026 1329.14 785.275V783.786C1329.14 782.435 1328.88 781.369 1328.34 780.587C1327.8 779.798 1327.08 779.403 1326.18 779.403C1325.29 779.403 1324.58 779.798 1324.04 780.587C1323.51 781.369 1323.25 782.431 1323.25 783.773V785.031ZM1334.78 791V777.792H1339.21C1340.73 777.792 1341.88 778.101 1342.68 778.72C1343.48 779.338 1343.88 780.237 1343.88 781.417C1343.88 782.028 1343.72 782.577 1343.4 783.065C1343.08 783.554 1342.62 783.928 1342.01 784.188C1342.69 784.368 1343.23 784.73 1343.63 785.275C1344.05 785.82 1344.26 786.479 1344.26 787.252C1344.26 788.473 1343.87 789.405 1343.11 790.048C1342.35 790.683 1341.28 791 1339.89 791H1334.78ZM1336.93 785.202V789.181H1339.91C1341.37 789.181 1342.1 788.514 1342.1 787.179C1342.1 785.861 1341.36 785.202 1339.89 785.202H1336.93ZM1336.93 783.395H1339.19C1340.87 783.395 1341.72 782.777 1341.72 781.54C1341.72 780.294 1340.92 779.656 1339.34 779.623H1336.93V783.395ZM1356.32 777.792V791H1354.16V785.861H1351.6L1348.94 791H1346.62L1349.48 785.482C1348.76 785.173 1348.22 784.697 1347.84 784.054C1347.47 783.411 1347.28 782.667 1347.28 781.82C1347.28 780.608 1347.67 779.635 1348.45 778.903C1349.24 778.162 1350.29 777.792 1351.6 777.792H1356.32ZM1349.44 781.845C1349.44 782.496 1349.62 783.021 1349.97 783.419C1350.32 783.81 1350.79 784.005 1351.38 784.005H1354.16V779.623H1351.58C1350.94 779.623 1350.42 779.831 1350.03 780.246C1349.64 780.653 1349.44 781.186 1349.44 781.845ZM1368.6 779.623H1364.99V791H1362.85V779.623H1359.29V777.792H1368.6V779.623ZM1375.15 789.401C1375.87 789.401 1376.44 789.181 1376.87 788.742C1377.3 788.294 1377.54 787.659 1377.58 786.837H1379.62C1379.57 788.107 1379.12 789.161 1378.26 789.999C1377.42 790.829 1376.38 791.244 1375.15 791.244C1373.51 791.244 1372.27 790.731 1371.4 789.706C1370.55 788.673 1370.12 787.139 1370.12 785.104V783.651C1370.12 781.658 1370.55 780.144 1371.4 779.11C1372.26 778.069 1373.5 777.548 1375.14 777.548C1376.49 777.548 1377.56 777.975 1378.35 778.83C1379.15 779.684 1379.57 780.852 1379.62 782.333H1377.58C1377.53 781.356 1377.29 780.624 1376.87 780.136C1376.46 779.647 1375.88 779.403 1375.14 779.403C1374.18 779.403 1373.47 779.721 1373 780.355C1372.54 780.982 1372.3 782.016 1372.28 783.456V785.141C1372.28 786.695 1372.51 787.794 1372.97 788.437C1373.43 789.079 1374.16 789.401 1375.15 789.401ZM1391.24 777.792V791H1389.08V785.861H1386.53L1383.87 791H1381.55L1384.4 785.482C1383.69 785.173 1383.14 784.697 1382.77 784.054C1382.39 783.411 1382.21 782.667 1382.21 781.82C1382.21 780.608 1382.6 779.635 1383.38 778.903C1384.16 778.162 1385.21 777.792 1386.53 777.792H1391.24ZM1384.37 781.845C1384.37 782.496 1384.54 783.021 1384.89 783.419C1385.24 783.81 1385.71 784.005 1386.31 784.005H1389.08V779.623H1386.5C1385.86 779.623 1385.34 779.831 1384.95 780.246C1384.56 780.653 1384.37 781.186 1384.37 781.845ZM1205.93 809.792H1208.08V823H1205.93V813.369L1201.15 823H1198.99V809.792H1201.15V819.436L1205.93 809.792ZM1218.25 821.157L1218.89 820.229C1219.59 819.155 1220 817.572 1220.1 815.48L1220.29 809.792H1227.66V821.157H1229.2V826.882H1227.04V823H1219.53V826.882H1217.36L1217.37 821.157H1218.25ZM1220.65 821.157H1225.51V811.879H1222.39L1222.28 815.102C1222.16 817.674 1221.62 819.692 1220.65 821.157ZM1231.72 815.786C1231.72 813.865 1232.19 812.347 1233.12 811.232C1234.05 810.109 1235.28 809.548 1236.81 809.548C1238.34 809.548 1239.57 810.093 1240.5 811.184C1241.44 812.274 1241.92 813.759 1241.94 815.639V817.031C1241.94 818.943 1241.48 820.457 1240.55 821.572C1239.62 822.687 1238.38 823.244 1236.84 823.244C1235.31 823.244 1234.08 822.703 1233.15 821.621C1232.23 820.538 1231.76 819.073 1231.72 817.226V815.786ZM1233.88 817.031C1233.88 818.39 1234.15 819.46 1234.68 820.241C1235.21 821.014 1235.94 821.401 1236.84 821.401C1238.74 821.401 1239.72 820.026 1239.78 817.275V815.786C1239.78 814.435 1239.51 813.369 1238.97 812.587C1238.44 811.798 1237.72 811.403 1236.81 811.403C1235.93 811.403 1235.21 811.798 1234.68 812.587C1234.15 813.369 1233.88 814.431 1233.88 815.773V817.031ZM1254.34 809.792V823H1252.18V811.66H1248.7L1248.5 816.14C1248.38 818.622 1248.05 820.384 1247.49 821.425C1246.94 822.459 1246.05 822.984 1244.83 823H1244.11V821.01L1244.66 820.961C1245.26 820.88 1245.69 820.477 1245.93 819.753C1246.18 819.021 1246.35 817.584 1246.43 815.444L1246.64 809.792H1254.34ZM1265.54 811.66H1260.62V823H1258.44V809.792H1265.54V811.66ZM1267.35 815.786C1267.35 813.865 1267.82 812.347 1268.75 811.232C1269.68 810.109 1270.91 809.548 1272.44 809.548C1273.97 809.548 1275.2 810.093 1276.13 811.184C1277.07 812.274 1277.55 813.759 1277.57 815.639V817.031C1277.57 818.943 1277.11 820.457 1276.18 821.572C1275.25 822.687 1274.02 823.244 1272.47 823.244C1270.94 823.244 1269.71 822.703 1268.78 821.621C1267.86 820.538 1267.39 819.073 1267.35 817.226V815.786ZM1269.52 817.031C1269.52 818.39 1269.78 819.46 1270.31 820.241C1270.85 821.014 1271.57 821.401 1272.47 821.401C1274.37 821.401 1275.35 820.026 1275.41 817.275V815.786C1275.41 814.435 1275.14 813.369 1274.61 812.587C1274.07 811.798 1273.35 811.403 1272.44 811.403C1271.56 811.403 1270.85 811.798 1270.31 812.587C1269.78 813.369 1269.52 814.431 1269.52 815.773V817.031ZM1296.37 823H1294.22V817.36H1289.46V823H1287.29V809.792H1289.46V815.517H1294.22V809.792H1296.37V823ZM1305.04 823.244C1303.39 823.244 1302.13 822.756 1301.25 821.779C1300.37 820.795 1299.93 819.354 1299.91 817.458V815.859C1299.91 813.889 1300.34 812.347 1301.19 811.232C1302.05 810.109 1303.25 809.548 1304.79 809.548C1306.34 809.548 1307.49 810.04 1308.26 811.025C1309.02 812.01 1309.41 813.544 1309.43 815.627V817.043H1302.06V817.348C1302.06 818.764 1302.32 819.794 1302.85 820.437C1303.39 821.079 1304.16 821.401 1305.16 821.401C1305.79 821.401 1306.35 821.283 1306.83 821.047C1307.32 820.803 1307.77 820.42 1308.2 819.899L1309.32 821.267C1308.38 822.585 1306.96 823.244 1305.04 823.244ZM1304.79 811.403C1303.9 811.403 1303.23 811.713 1302.8 812.331C1302.37 812.941 1302.13 813.894 1302.07 815.188H1307.27V814.895C1307.21 813.641 1306.99 812.746 1306.59 812.209C1306.2 811.672 1305.6 811.403 1304.79 811.403ZM1328.06 823H1325.91V811.66H1321.14V823H1318.96V809.792H1328.06V823ZM1331.56 815.786C1331.56 813.865 1332.02 812.347 1332.95 811.232C1333.89 810.109 1335.12 809.548 1336.65 809.548C1338.18 809.548 1339.41 810.093 1340.34 811.184C1341.27 812.274 1341.75 813.759 1341.78 815.639V817.031C1341.78 818.943 1341.31 820.457 1340.39 821.572C1339.46 822.687 1338.22 823.244 1336.68 823.244C1335.15 823.244 1333.92 822.703 1332.99 821.621C1332.07 820.538 1331.59 819.073 1331.56 817.226V815.786ZM1333.72 817.031C1333.72 818.39 1333.99 819.46 1334.51 820.241C1335.05 821.014 1335.77 821.401 1336.68 821.401C1338.58 821.401 1339.56 820.026 1339.62 817.275V815.786C1339.62 814.435 1339.35 813.369 1338.81 812.587C1338.27 811.798 1337.55 811.403 1336.65 811.403C1335.76 811.403 1335.05 811.798 1334.51 812.587C1333.99 813.369 1333.72 814.431 1333.72 815.773V817.031ZM1354.61 817.031C1354.61 819.122 1354.23 820.681 1353.47 821.706C1352.72 822.731 1351.66 823.244 1350.29 823.244C1348.96 823.244 1347.94 822.744 1347.22 821.743V828.078H1345.07V809.792H1347.03L1347.14 811.257C1347.86 810.118 1348.9 809.548 1350.25 809.548C1351.7 809.548 1352.78 810.052 1353.5 811.062C1354.21 812.071 1354.58 813.58 1354.61 815.59V817.031ZM1352.46 815.798C1352.46 814.317 1352.23 813.226 1351.77 812.526C1351.32 811.818 1350.59 811.464 1349.58 811.464C1348.54 811.464 1347.76 811.981 1347.22 813.015V819.887C1347.75 820.896 1348.54 821.401 1349.6 821.401C1350.58 821.401 1351.29 821.051 1351.75 820.351C1352.21 819.643 1352.45 818.565 1352.46 817.116V815.798ZM1365.68 811.623H1362.08V823H1359.93V811.623H1356.38V809.792H1365.68V811.623ZM1377.08 809.792V823H1374.92V817.861H1372.37L1369.71 823H1367.39L1370.24 817.482C1369.53 817.173 1368.98 816.697 1368.61 816.054C1368.23 815.411 1368.05 814.667 1368.05 813.82C1368.05 812.608 1368.44 811.635 1369.22 810.903C1370 810.162 1371.05 809.792 1372.37 809.792H1377.08ZM1370.21 813.845C1370.21 814.496 1370.38 815.021 1370.73 815.419C1371.08 815.81 1371.55 816.005 1372.15 816.005H1374.92V811.623H1372.34C1371.7 811.623 1371.18 811.831 1370.79 812.246C1370.4 812.653 1370.21 813.186 1370.21 813.845ZM1389.36 811.623H1385.76V823H1383.61V811.623H1380.06V809.792H1389.36V811.623ZM1395.91 821.401C1396.63 821.401 1397.2 821.181 1397.63 820.742C1398.07 820.294 1398.3 819.659 1398.34 818.837H1400.38C1400.33 820.107 1399.88 821.161 1399.03 821.999C1398.18 822.829 1397.14 823.244 1395.91 823.244C1394.28 823.244 1393.03 822.731 1392.17 821.706C1391.31 820.673 1390.88 819.139 1390.88 817.104V815.651C1390.88 813.658 1391.31 812.144 1392.17 811.11C1393.02 810.069 1394.27 809.548 1395.9 809.548C1397.25 809.548 1398.32 809.975 1399.11 810.83C1399.91 811.684 1400.33 812.852 1400.38 814.333H1398.34C1398.29 813.356 1398.06 812.624 1397.63 812.136C1397.22 811.647 1396.64 811.403 1395.9 811.403C1394.94 811.403 1394.23 811.721 1393.77 812.355C1393.3 812.982 1393.06 814.016 1393.04 815.456V817.141C1393.04 818.695 1393.27 819.794 1393.73 820.437C1394.19 821.079 1394.92 821.401 1395.91 821.401ZM1412 809.792V823H1409.84V817.861H1407.29L1404.63 823H1402.31L1405.17 817.482C1404.45 817.173 1403.9 816.697 1403.53 816.054C1403.16 815.411 1402.97 814.667 1402.97 813.82C1402.97 812.608 1403.36 811.635 1404.14 810.903C1404.92 810.162 1405.97 809.792 1407.29 809.792H1412ZM1405.13 813.845C1405.13 814.496 1405.3 815.021 1405.65 815.419C1406 815.81 1406.48 816.005 1407.07 816.005H1409.84V811.623H1407.27C1406.62 811.623 1406.11 811.831 1405.72 812.246C1405.32 812.653 1405.13 813.186 1405.13 813.845Z" fill="#D7D7D7"/>
<rect x="707" y="812" width="54" height="3" rx="1.5" transform="rotate(-90 707 812)" fill="#FDFFFD"/>
<path d="M611.653 848H609.407V839.785H602.254V848H600.02V830.227H602.254V837.868H609.407V830.227H611.653V848ZM620.442 848.244C618.798 848.244 617.537 847.756 616.658 846.779C615.779 845.795 615.331 844.354 615.315 842.458V840.859C615.315 838.889 615.742 837.347 616.597 836.232C617.459 835.109 618.66 834.548 620.198 834.548C621.744 834.548 622.9 835.04 623.665 836.025C624.43 837.01 624.82 838.544 624.836 840.627V842.043H617.463V842.348C617.463 843.764 617.728 844.794 618.257 845.437C618.794 846.079 619.563 846.401 620.564 846.401C621.199 846.401 621.756 846.283 622.236 846.047C622.725 845.803 623.18 845.42 623.604 844.899L624.727 846.267C623.791 847.585 622.362 848.244 620.442 848.244ZM620.198 836.403C619.303 836.403 618.639 836.713 618.208 837.331C617.777 837.941 617.533 838.894 617.476 840.188H622.676V839.895C622.619 838.641 622.391 837.746 621.992 837.209C621.602 836.672 621.003 836.403 620.198 836.403ZM636.14 836.623H632.539V848H630.39V836.623H626.838V834.792H636.14V836.623ZM654.461 834.792V848H652.301V836.66H648.822L648.614 841.14C648.5 843.622 648.167 845.384 647.613 846.425C647.06 847.459 646.173 847.984 644.952 848H644.232V846.01L644.781 845.961C645.383 845.88 645.807 845.477 646.051 844.753C646.303 844.021 646.47 842.584 646.551 840.444L646.759 834.792H654.461ZM660.735 839.345H663.458C664.719 839.353 665.724 839.74 666.473 840.505C667.221 841.27 667.596 842.312 667.596 843.63C667.596 844.948 667.217 846.006 666.46 846.804C665.704 847.593 664.703 847.992 663.458 848H658.587V834.792H660.735V839.345ZM660.735 841.188V846.157H663.421C664.056 846.157 664.548 845.941 664.898 845.51C665.256 845.078 665.435 844.48 665.435 843.715C665.435 842.967 665.26 842.36 664.91 841.896C664.56 841.433 664.08 841.197 663.47 841.188H660.735ZM670.83 846.157L671.477 845.229C672.177 844.155 672.58 842.572 672.686 840.48L672.869 834.792H680.242V846.157H681.78V851.882H679.619V848H672.112V851.882H669.939L669.951 846.157H670.83ZM673.235 846.157H678.093V836.879H674.968L674.858 840.102C674.744 842.674 674.203 844.692 673.235 846.157ZM691.557 848C691.427 847.715 691.333 847.235 691.276 846.56C690.511 847.683 689.535 848.244 688.347 848.244C687.15 848.244 686.215 847.91 685.539 847.243C684.872 846.568 684.538 845.62 684.538 844.399C684.538 843.056 684.994 841.99 685.905 841.201C686.817 840.411 688.066 840.008 689.653 839.992H691.24V838.588C691.24 837.799 691.065 837.237 690.715 836.904C690.365 836.57 689.832 836.403 689.116 836.403C688.465 836.403 687.936 836.599 687.529 836.989C687.122 837.372 686.918 837.86 686.918 838.454H684.758C684.758 837.779 684.957 837.136 685.356 836.525C685.755 835.907 686.292 835.423 686.967 835.073C687.643 834.723 688.396 834.548 689.226 834.548C690.576 834.548 691.602 834.886 692.302 835.561C693.01 836.228 693.372 837.205 693.388 838.491V845.156C693.396 846.173 693.535 847.056 693.803 847.805V848H691.557ZM688.676 846.279C689.205 846.279 689.71 846.132 690.19 845.839C690.67 845.546 691.02 845.18 691.24 844.741V841.591H690.019C688.994 841.608 688.184 841.84 687.59 842.287C686.996 842.727 686.699 843.345 686.699 844.143C686.699 844.891 686.849 845.437 687.15 845.778C687.451 846.112 687.96 846.279 688.676 846.279ZM703.678 848V834.792H708.109C709.623 834.792 710.778 835.101 711.576 835.72C712.373 836.338 712.772 837.237 712.772 838.417C712.772 839.028 712.613 839.577 712.296 840.065C711.979 840.554 711.515 840.928 710.904 841.188C711.58 841.368 712.121 841.73 712.528 842.275C712.943 842.82 713.15 843.479 713.15 844.252C713.15 845.473 712.768 846.405 712.003 847.048C711.246 847.683 710.172 848 708.78 848H703.678ZM705.826 842.202V846.181H708.805C710.261 846.181 710.99 845.514 710.99 844.179C710.99 842.861 710.253 842.202 708.78 842.202H705.826ZM705.826 840.395H708.084C709.769 840.395 710.611 839.777 710.611 838.54C710.611 837.294 709.818 836.656 708.231 836.623H705.826V840.395ZM726.431 844.411L728.835 834.792H731.13L726.809 849.868C726.484 850.999 726.024 851.857 725.43 852.443C724.836 853.037 724.16 853.334 723.403 853.334C723.11 853.334 722.736 853.269 722.28 853.139V851.308L722.756 851.357C723.383 851.357 723.871 851.206 724.221 850.905C724.579 850.612 724.868 850.1 725.088 849.367L725.515 847.89L721.633 834.792H723.989L726.431 844.411ZM743.032 848H740.883V836.66H736.11V848H733.938V834.792H743.032V848ZM753.786 848C753.655 847.715 753.562 847.235 753.505 846.56C752.74 847.683 751.763 848.244 750.575 848.244C749.379 848.244 748.443 847.91 747.768 847.243C747.1 846.568 746.767 845.62 746.767 844.399C746.767 843.056 747.222 841.99 748.134 841.201C749.045 840.411 750.294 840.008 751.881 839.992H753.468V838.588C753.468 837.799 753.293 837.237 752.943 836.904C752.593 836.57 752.06 836.403 751.344 836.403C750.693 836.403 750.164 836.599 749.757 836.989C749.35 837.372 749.147 837.86 749.147 838.454H746.986C746.986 837.779 747.186 837.136 747.584 836.525C747.983 835.907 748.52 835.423 749.196 835.073C749.871 834.723 750.624 834.548 751.454 834.548C752.805 834.548 753.83 834.886 754.53 835.561C755.238 836.228 755.6 837.205 755.617 838.491V845.156C755.625 846.173 755.763 847.056 756.032 847.805V848H753.786ZM750.905 846.279C751.434 846.279 751.938 846.132 752.418 845.839C752.899 845.546 753.249 845.18 753.468 844.741V841.591H752.248C751.222 841.608 750.412 841.84 749.818 842.287C749.224 842.727 748.927 843.345 748.927 844.143C748.927 844.891 749.078 845.437 749.379 845.778C749.68 846.112 750.189 846.279 750.905 846.279ZM763.062 842.373H761.842V848H759.681V834.792H761.842V840.383H762.916L766.517 834.792H769.093L764.686 841.079L769.41 848H766.7L763.062 842.373ZM770.875 840.786C770.875 838.865 771.338 837.347 772.266 836.232C773.202 835.109 774.435 834.548 775.965 834.548C777.495 834.548 778.724 835.093 779.651 836.184C780.587 837.274 781.067 838.759 781.092 840.639V842.031C781.092 843.943 780.628 845.457 779.7 846.572C778.772 847.687 777.535 848.244 775.989 848.244C774.459 848.244 773.23 847.703 772.303 846.621C771.383 845.538 770.907 844.073 770.875 842.226V840.786ZM773.035 842.031C773.035 843.39 773.3 844.46 773.829 845.241C774.366 846.014 775.086 846.401 775.989 846.401C777.894 846.401 778.874 845.026 778.931 842.275V840.786C778.931 839.435 778.663 838.369 778.125 837.587C777.588 836.798 776.868 836.403 775.965 836.403C775.078 836.403 774.366 836.798 773.829 837.587C773.3 838.369 773.035 839.431 773.035 840.773V842.031ZM784.57 848V834.792H789.001C790.515 834.792 791.671 835.101 792.468 835.72C793.266 836.338 793.665 837.237 793.665 838.417C793.665 839.028 793.506 839.577 793.188 840.065C792.871 840.554 792.407 840.928 791.797 841.188C792.472 841.368 793.014 841.73 793.42 842.275C793.835 842.82 794.043 843.479 794.043 844.252C794.043 845.473 793.66 846.405 792.896 847.048C792.139 847.683 791.064 848 789.673 848H784.57ZM786.719 842.202V846.181H789.697C791.154 846.181 791.882 845.514 791.882 844.179C791.882 842.861 791.146 842.202 789.673 842.202H786.719ZM786.719 840.395H788.977C790.662 840.395 791.504 839.777 791.504 838.54C791.504 837.294 790.71 836.656 789.124 836.623H786.719V840.395ZM801.062 842.373H799.841V848H797.68V834.792H799.841V840.383H800.915L804.516 834.792H807.092L802.685 841.079L807.409 848H804.699L801.062 842.373ZM814.513 848.244C812.869 848.244 811.608 847.756 810.729 846.779C809.85 845.795 809.403 844.354 809.386 842.458V840.859C809.386 838.889 809.813 837.347 810.668 836.232C811.531 835.109 812.731 834.548 814.269 834.548C815.815 834.548 816.971 835.04 817.736 836.025C818.501 837.01 818.891 838.544 818.908 840.627V842.043H811.535V842.348C811.535 843.764 811.799 844.794 812.328 845.437C812.865 846.079 813.634 846.401 814.635 846.401C815.27 846.401 815.827 846.283 816.308 846.047C816.796 845.803 817.252 845.42 817.675 844.899L818.798 846.267C817.862 847.585 816.434 848.244 814.513 848.244ZM814.269 836.403C813.374 836.403 812.711 836.713 812.279 837.331C811.848 837.941 811.604 838.894 811.547 840.188H816.747V839.895C816.69 838.641 816.462 837.746 816.063 837.209C815.673 836.672 815.075 836.403 814.269 836.403Z" fill="#D7D7D7"/>
<path d="M390.695 42H384.666V17.165H375.806V42H369.777V12.1406H390.695V42ZM414.677 31.6025C414.677 35.0889 414.075 37.7617 412.872 39.6211C411.683 41.4805 409.905 42.4102 407.54 42.4102C405.735 42.4102 404.286 41.6787 403.192 40.2158V50.5312H397.389V19.8105H402.762L402.967 21.8408C404.074 20.2139 405.585 19.4004 407.499 19.4004C409.864 19.4004 411.642 20.2617 412.831 21.9844C414.034 23.707 414.649 26.3457 414.677 29.9004V31.6025ZM408.894 30.1465C408.894 28 408.654 26.4824 408.176 25.5938C407.711 24.7051 406.918 24.2607 405.797 24.2607C404.607 24.2607 403.739 24.7598 403.192 25.7578V36.1553C403.712 37.1123 404.594 37.5908 405.838 37.5908C406.986 37.5908 407.779 37.1055 408.217 36.1348C408.668 35.1641 408.894 33.6533 408.894 31.6025V30.1465ZM429.246 42.4102C426.265 42.4102 423.941 41.5215 422.273 39.7441C420.605 37.9668 419.771 35.4238 419.771 32.1152V30.3516C419.771 26.8516 420.537 24.1514 422.068 22.251C423.599 20.3506 425.793 19.4004 428.651 19.4004C431.44 19.4004 433.538 20.2959 434.947 22.0869C436.355 23.8643 437.073 26.5029 437.1 30.0029V32.8535H425.554C425.636 34.4941 425.998 35.6973 426.641 36.4629C427.284 37.2148 428.275 37.5908 429.615 37.5908C431.556 37.5908 433.176 36.9277 434.475 35.6016L436.751 39.1084C436.04 40.0928 435.008 40.8926 433.655 41.5078C432.301 42.1094 430.831 42.4102 429.246 42.4102ZM425.595 28.793H431.399V28.2598C431.371 26.9336 431.153 25.9287 430.743 25.2451C430.332 24.5615 429.621 24.2197 428.61 24.2197C427.598 24.2197 426.86 24.582 426.395 25.3066C425.944 26.0312 425.677 27.1934 425.595 28.793ZM453.453 19.8105H459.236V42H453.453V28.3623L448.285 42H442.461V19.8105H448.285V33.4277L453.453 19.8105ZM477.209 34.9453L481.372 19.8105H488.653V42H482.849V30.126L479.157 42H475.281L471.734 30.5156V42H465.95V19.8105H473.108L477.209 34.9453ZM502.688 32.3408L505.641 19.8105H511.835L504.534 45.3223C503.44 49.082 501.382 50.9619 498.361 50.9619C497.664 50.9619 496.871 50.832 495.982 50.5723V46.04L496.659 46.0605C497.561 46.0605 498.238 45.8828 498.689 45.5273C499.154 45.1855 499.503 44.584 499.735 43.7227L500.186 42.2256L493.788 19.8105H500.022L502.688 32.3408ZM522.158 19.8105V37.1807H526.321V19.8105H532.146V37.1807H536.35V19.8105H542.153V37.2217H546.255L545.845 48.583H540.472V42H516.334V19.8105H522.158ZM560.495 42.4102C557.515 42.4102 555.191 41.5215 553.523 39.7441C551.855 37.9668 551.021 35.4238 551.021 32.1152V30.3516C551.021 26.8516 551.787 24.1514 553.318 22.251C554.849 20.3506 557.043 19.4004 559.901 19.4004C562.69 19.4004 564.788 20.2959 566.197 22.0869C567.605 23.8643 568.323 26.5029 568.35 30.0029V32.8535H556.804C556.886 34.4941 557.248 35.6973 557.891 36.4629C558.534 37.2148 559.525 37.5908 560.865 37.5908C562.806 37.5908 564.426 36.9277 565.725 35.6016L568.001 39.1084C567.29 40.0928 566.258 40.8926 564.905 41.5078C563.551 42.1094 562.081 42.4102 560.495 42.4102ZM556.845 28.793H562.649V28.2598C562.621 26.9336 562.403 25.9287 561.993 25.2451C561.582 24.5615 560.871 24.2197 559.86 24.2197C558.848 24.2197 558.11 24.582 557.645 25.3066C557.194 26.0312 556.927 27.1934 556.845 28.793ZM581.75 37.5908C583.431 37.5908 584.286 36.4971 584.313 34.3096H589.768C589.741 36.7295 588.996 38.6846 587.533 40.1748C586.07 41.665 584.183 42.4102 581.873 42.4102C579.015 42.4102 576.835 41.5215 575.331 39.7441C573.827 37.9668 573.061 35.3486 573.034 31.8896V30.126C573.034 26.6396 573.772 23.9805 575.249 22.1484C576.739 20.3164 578.933 19.4004 581.832 19.4004C584.279 19.4004 586.207 20.1592 587.615 21.6768C589.023 23.1807 589.741 25.3203 589.768 28.0957H584.313C584.3 26.8516 584.095 25.8945 583.698 25.2246C583.302 24.5547 582.645 24.2197 581.729 24.2197C580.718 24.2197 579.993 24.582 579.555 25.3066C579.118 26.0176 578.886 27.4053 578.858 29.4697V31.7256C578.858 33.5303 578.947 34.7949 579.125 35.5195C579.303 36.2305 579.596 36.7568 580.007 37.0986C580.417 37.4268 580.998 37.5908 581.75 37.5908ZM611.125 24.5889H605.424V42H599.62V24.5889H593.96V19.8105H611.125V24.5889ZM616.691 42V19.8105H624.751C627.335 19.8105 629.317 20.3438 630.698 21.4102C632.092 22.4766 632.79 24.0078 632.79 26.0039C632.79 27.0293 632.489 27.9521 631.887 28.7725C631.299 29.5791 630.438 30.2012 629.303 30.6387C630.684 30.9258 631.771 31.5068 632.564 32.3818C633.371 33.2432 633.774 34.3369 633.774 35.6631C633.774 39.8877 631.115 42 625.796 42H616.691ZM622.474 32.8125V37.2217H625.94C626.692 37.2217 627.218 37.0371 627.519 36.668C627.82 36.2988 627.97 35.7588 627.97 35.0479C627.97 34.2275 627.806 33.6533 627.478 33.3252C627.15 32.9971 626.678 32.8262 626.063 32.8125H622.474ZM622.474 28.8135H624.833C625.612 28.8135 626.159 28.6494 626.473 28.3213C626.801 27.9795 626.965 27.4805 626.965 26.8242C626.965 25.3887 626.296 24.6436 624.956 24.5889H622.474V28.8135ZM649.881 42C649.717 41.6582 649.553 41.084 649.389 40.2773C648.35 41.6992 646.941 42.4102 645.164 42.4102C643.305 42.4102 641.76 41.7949 640.529 40.5645C639.312 39.334 638.704 37.7412 638.704 35.7861C638.704 33.4619 639.442 31.6641 640.919 30.3926C642.409 29.1211 644.549 28.4717 647.338 28.4443H649.102V26.6602C649.102 25.6621 648.931 24.958 648.589 24.5479C648.247 24.1377 647.748 23.9326 647.092 23.9326C645.643 23.9326 644.918 24.7803 644.918 26.4756H639.114C639.114 24.4248 639.88 22.7363 641.411 21.4102C642.956 20.0703 644.904 19.4004 647.256 19.4004C649.689 19.4004 651.569 20.0361 652.896 21.3076C654.235 22.5654 654.905 24.3701 654.905 26.7217V37.1602C654.933 39.0742 655.206 40.5713 655.726 41.6514V42H649.881ZM646.456 37.8574C647.099 37.8574 647.646 37.7275 648.097 37.4678C648.548 37.208 648.883 36.9004 649.102 36.5449V31.9307H647.707C646.723 31.9307 645.943 32.2451 645.369 32.874C644.809 33.5029 644.528 34.3438 644.528 35.3965C644.528 37.0371 645.171 37.8574 646.456 37.8574ZM689.703 42H683.899V33.4893H678.793V42H672.969V19.8105H678.793V28.6904H683.899V19.8105H689.703V42ZM706.589 42C706.425 41.6582 706.261 41.084 706.097 40.2773C705.058 41.6992 703.65 42.4102 701.872 42.4102C700.013 42.4102 698.468 41.7949 697.237 40.5645C696.021 39.334 695.412 37.7412 695.412 35.7861C695.412 33.4619 696.151 31.6641 697.627 30.3926C699.117 29.1211 701.257 28.4717 704.046 28.4443H705.81V26.6602C705.81 25.6621 705.639 24.958 705.297 24.5479C704.955 24.1377 704.456 23.9326 703.8 23.9326C702.351 23.9326 701.626 24.7803 701.626 26.4756H695.822C695.822 24.4248 696.588 22.7363 698.119 21.4102C699.664 20.0703 701.612 19.4004 703.964 19.4004C706.398 19.4004 708.278 20.0361 709.604 21.3076C710.944 22.5654 711.613 24.3701 711.613 26.7217V37.1602C711.641 39.0742 711.914 40.5713 712.434 41.6514V42H706.589ZM703.164 37.8574C703.807 37.8574 704.354 37.7275 704.805 37.4678C705.256 37.208 705.591 36.9004 705.81 36.5449V31.9307H704.415C703.431 31.9307 702.652 32.2451 702.077 32.874C701.517 33.5029 701.237 34.3438 701.237 35.3965C701.237 37.0371 701.879 37.8574 703.164 37.8574ZM723.721 19.8105V37.1807H727.884V19.8105H733.709V37.1807H737.913V19.8105H743.716V42H717.897V19.8105H723.721ZM761.341 19.8105H767.124V42H761.341V28.3623L756.173 42H750.349V19.8105H756.173V33.4277L761.341 19.8105ZM780.893 26.3936L783.477 19.8105H789.629L784.564 30.6592L789.814 42H783.641L780.913 35.0479L778.206 42H772.013L777.263 30.6592L772.239 19.8105H778.412L780.893 26.3936ZM823.135 42H817.331V24.6504H812.184V42H806.36V19.8105H823.135V42ZM846.768 31.6025C846.768 35.0889 846.167 37.7617 844.963 39.6211C843.774 41.4805 841.997 42.4102 839.631 42.4102C837.827 42.4102 836.378 41.6787 835.284 40.2158V50.5312H829.48V19.8105H834.853L835.058 21.8408C836.166 20.2139 837.676 19.4004 839.59 19.4004C841.956 19.4004 843.733 20.2617 844.922 21.9844C846.126 23.707 846.741 26.3457 846.768 29.9004V31.6025ZM840.985 30.1465C840.985 28 840.746 26.4824 840.267 25.5938C839.802 24.7051 839.009 24.2607 837.888 24.2607C836.699 24.2607 835.831 24.7598 835.284 25.7578V36.1553C835.803 37.1123 836.685 37.5908 837.929 37.5908C839.078 37.5908 839.871 37.1055 840.308 36.1348C840.759 35.1641 840.985 33.6533 840.985 31.6025V30.1465ZM851.698 30.1875C851.698 26.8242 852.491 24.1855 854.077 22.2715C855.663 20.3574 857.857 19.4004 860.66 19.4004C863.49 19.4004 865.698 20.3574 867.284 22.2715C868.87 24.1855 869.663 26.8379 869.663 30.2285V31.6436C869.663 35.0205 868.877 37.6592 867.305 39.5596C865.732 41.46 863.531 42.4102 860.701 42.4102C857.857 42.4102 855.643 41.46 854.057 39.5596C852.484 37.6455 851.698 34.9932 851.698 31.6025V30.1875ZM857.522 31.6436C857.522 35.6084 858.582 37.5908 860.701 37.5908C862.656 37.5908 863.709 35.9365 863.859 32.6279L863.88 30.1875C863.88 28.1641 863.6 26.667 863.039 25.6963C862.479 24.7119 861.686 24.2197 860.66 24.2197C859.676 24.2197 858.903 24.7119 858.343 25.6963C857.796 26.667 857.522 28.1641 857.522 30.1875V31.6436ZM874.737 37.1807C875.694 36.0869 876.377 34.9863 876.788 33.8789C877.198 32.7715 877.437 31.2197 877.505 29.2236L877.669 19.8105H892.127V37.1807H895.06V48.665H889.256V42H879.023V48.665H873.076V37.1807H874.737ZM881.176 37.1807H886.344V24.7529H883.391L883.371 26.9473C883.329 31.1855 882.598 34.5967 881.176 37.1807ZM907.25 32.3408L910.203 19.8105H916.396L909.095 45.3223C908.002 49.082 905.944 50.9619 902.923 50.9619C902.225 50.9619 901.432 50.832 900.544 50.5723V46.04L901.22 46.0605C902.123 46.0605 902.8 45.8828 903.251 45.5273C903.716 45.1855 904.064 44.584 904.297 43.7227L904.748 42.2256L898.349 19.8105H904.584L907.25 32.3408ZM928.689 33.8584H927.171V42H921.388V19.8105H927.171V28.1367H928.607L931.97 19.8105H939.25L933.406 30.0439L939.701 42H932.011L928.689 33.8584ZM960.217 24.5889H954.516V42H948.713V24.5889H943.052V19.8105H960.217V24.5889ZM964.163 30.1875C964.163 26.8242 964.956 24.1855 966.542 22.2715C968.128 20.3574 970.322 19.4004 973.125 19.4004C975.955 19.4004 978.163 20.3574 979.749 22.2715C981.335 24.1855 982.128 26.8379 982.128 30.2285V31.6436C982.128 35.0205 981.342 37.6592 979.77 39.5596C978.197 41.46 975.996 42.4102 973.166 42.4102C970.322 42.4102 968.107 41.46 966.521 39.5596C964.949 37.6455 964.163 34.9932 964.163 31.6025V30.1875ZM969.987 31.6436C969.987 35.6084 971.047 37.5908 973.166 37.5908C975.121 37.5908 976.174 35.9365 976.324 32.6279L976.345 30.1875C976.345 28.1641 976.064 26.667 975.504 25.6963C974.943 24.7119 974.15 24.2197 973.125 24.2197C972.141 24.2197 971.368 24.7119 970.808 25.6963C970.261 26.667 969.987 28.1641 969.987 30.1875V31.6436ZM988.227 42V19.8105H996.286C998.87 19.8105 1000.85 20.3438 1002.23 21.4102C1003.63 22.4766 1004.33 24.0078 1004.33 26.0039C1004.33 27.0293 1004.02 27.9521 1003.42 28.7725C1002.84 29.5791 1001.97 30.2012 1000.84 30.6387C1002.22 30.9258 1003.31 31.5068 1004.1 32.3818C1004.91 33.2432 1005.31 34.3369 1005.31 35.6631C1005.31 39.8877 1002.65 42 997.332 42H988.227ZM994.01 32.8125V37.2217H997.476C998.228 37.2217 998.754 37.0371 999.055 36.668C999.356 36.2988 999.506 35.7588 999.506 35.0479C999.506 34.2275 999.342 33.6533 999.014 33.3252C998.686 32.9971 998.214 32.8262 997.599 32.8125H994.01ZM994.01 28.8135H996.369C997.148 28.8135 997.695 28.6494 998.009 28.3213C998.337 27.9795 998.501 27.4805 998.501 26.8242C998.501 25.3887 997.831 24.6436 996.492 24.5889H994.01V28.8135Z" fill="#D7D7D7"/>
</svg>
